%TF.GenerationSoftware,KiCad,Pcbnew,9.0.7*%
%TF.CreationDate,2026-03-11T18:08:43+09:00*%
%TF.ProjectId,NomadBall44_R_Top,4e6f6d61-6442-4616-9c6c-34345f525f54,rev?*%
%TF.SameCoordinates,Original*%
%TF.FileFunction,Drillmap*%
%TF.FilePolarity,Positive*%
%FSLAX45Y45*%
G04 Gerber Fmt 4.5, Leading zero omitted, Abs format (unit mm)*
G04 Created by KiCad (PCBNEW 9.0.7) date 2026-03-11 18:08:43*
%MOMM*%
%LPD*%
G01*
G04 APERTURE LIST*
%ADD10C,0.050000*%
%ADD11C,0.150000*%
%ADD12C,0.200000*%
%ADD13C,0.220000*%
G04 APERTURE END LIST*
D10*
X16425711Y-4541290D02*
G75*
G02*
X16325710Y-4441290I-1J100000D01*
G01*
X18280000Y-12759500D02*
G75*
G02*
X18230000Y-12709500I0J50000D01*
G01*
X18244000Y-4640909D02*
X18244000Y-4993091D01*
X10567000Y-10144000D02*
X10565481Y-4671481D01*
X22069000Y-10757000D02*
G75*
G02*
X21969000Y-10857000I-100000J0D01*
G01*
X12327976Y-10191289D02*
X10611000Y-10188000D01*
X16425710Y-4541290D02*
X18144000Y-4540909D01*
X20049711Y-12760711D02*
X18280000Y-12759500D01*
X20149711Y-10955711D02*
X20149711Y-12660711D01*
X21969000Y-5094711D02*
G75*
G02*
X22068999Y-5194711I0J-99999D01*
G01*
X18130000Y-10284500D02*
X16329432Y-10286289D01*
X12500289Y-4471289D02*
X12500289Y-4421290D01*
X18230000Y-12709500D02*
X18230000Y-10384500D01*
X18144000Y-4540909D02*
G75*
G02*
X18244001Y-4640909I0J-100001D01*
G01*
X14405289Y-4221290D02*
G75*
G02*
X14305289Y-4321289I-99999J0D01*
G01*
X14505289Y-4071290D02*
X16225710Y-4071290D01*
X22069000Y-5194711D02*
X22069000Y-10757000D01*
X16225711Y-4071290D02*
G75*
G02*
X16325710Y-4171290I-1J-100000D01*
G01*
X18344000Y-5094024D02*
X21969000Y-5094711D01*
X16325711Y-4171290D02*
X16325711Y-4441290D01*
X16129432Y-10036290D02*
G75*
G02*
X16229430Y-10136290I-2J-100001D01*
G01*
X21969000Y-10856289D02*
X20249710Y-10855711D01*
X14405289Y-4221290D02*
X14405289Y-4171290D01*
X16129432Y-10036290D02*
X12497313Y-10036290D01*
X12397703Y-10127466D02*
G75*
G02*
X12327976Y-10191286I-69723J6176D01*
G01*
X18130000Y-10284500D02*
G75*
G02*
X18230000Y-10384500I0J-100000D01*
G01*
X16229432Y-10186289D02*
X16229432Y-10136290D01*
X20149711Y-10955711D02*
G75*
G02*
X20249711Y-10855711I99999J1D01*
G01*
X12500289Y-4471289D02*
G75*
G02*
X12400289Y-4571289I-99999J-1D01*
G01*
X16329432Y-10286289D02*
G75*
G02*
X16229431Y-10186289I-2J99999D01*
G01*
X12600289Y-4321290D02*
X14305289Y-4321290D01*
X12397703Y-10127466D02*
G75*
G02*
X12497313Y-10036293I99607J-8824D01*
G01*
X10565481Y-4671481D02*
G75*
G02*
X10665481Y-4571291I99999J191D01*
G01*
X20149711Y-12660711D02*
G75*
G02*
X20049711Y-12760711I-100001J1D01*
G01*
X18344000Y-5093622D02*
G75*
G02*
X18243998Y-4993622I0J100002D01*
G01*
X14405289Y-4171290D02*
G75*
G02*
X14505289Y-4071289I100001J0D01*
G01*
X10665481Y-4571289D02*
X12400289Y-4571289D01*
X10611000Y-10188000D02*
G75*
G02*
X10567000Y-10144000I0J44000D01*
G01*
X12500289Y-4421290D02*
G75*
G02*
X12600289Y-4321289I100001J0D01*
G01*
D11*
X16577000Y-4796000D02*
X17987000Y-4796000D01*
X16577000Y-6206000D02*
X16577000Y-4796000D01*
X17987000Y-4796000D02*
X17987000Y-6206000D01*
X17987000Y-6206000D02*
X16577000Y-6206000D01*
X18487000Y-7275000D02*
X19897000Y-7275000D01*
X18487000Y-8685000D02*
X18487000Y-7275000D01*
X19897000Y-7275000D02*
X19897000Y-8685000D01*
X19897000Y-8685000D02*
X18487000Y-8685000D01*
X16577000Y-8630000D02*
X17987000Y-8630000D01*
X16577000Y-10040000D02*
X16577000Y-8630000D01*
X17987000Y-8630000D02*
X17987000Y-10040000D01*
X17987000Y-10040000D02*
X16577000Y-10040000D01*
X18487000Y-5354500D02*
X19897000Y-5354500D01*
X18487000Y-6764500D02*
X18487000Y-5354500D01*
X19897000Y-5354500D02*
X19897000Y-6764500D01*
X19897000Y-6764500D02*
X18487000Y-6764500D01*
X20405344Y-9193000D02*
X21815344Y-9193000D01*
X20405344Y-10603000D02*
X20405344Y-9193000D01*
X21815344Y-9193000D02*
X21815344Y-10603000D01*
X21815344Y-10603000D02*
X20405344Y-10603000D01*
X14657000Y-6216000D02*
X16067000Y-6216000D01*
X14657000Y-7626000D02*
X14657000Y-6216000D01*
X16067000Y-6216000D02*
X16067000Y-7626000D01*
X16067000Y-7626000D02*
X14657000Y-7626000D01*
X14657000Y-8132500D02*
X16067000Y-8132500D01*
X14657000Y-9542500D02*
X14657000Y-8132500D01*
X16067000Y-8132500D02*
X16067000Y-9542500D01*
X16067000Y-9542500D02*
X14657000Y-9542500D01*
X20405344Y-7275000D02*
X21815344Y-7275000D01*
X20405344Y-8685000D02*
X20405344Y-7275000D01*
X21815344Y-7275000D02*
X21815344Y-8685000D01*
X21815344Y-8685000D02*
X20405344Y-8685000D01*
X12738000Y-4531000D02*
X14148000Y-4531000D01*
X12738000Y-5941000D02*
X12738000Y-4531000D01*
X14148000Y-4531000D02*
X14148000Y-5941000D01*
X14148000Y-5941000D02*
X12738000Y-5941000D01*
X10820063Y-6673500D02*
X12230062Y-6673500D01*
X10820063Y-8083500D02*
X10820063Y-6673500D01*
X12230062Y-6673500D02*
X12230062Y-8083500D01*
X12230062Y-8083500D02*
X10820063Y-8083500D01*
X12738000Y-8369500D02*
X14148000Y-8369500D01*
X12738000Y-9779500D02*
X12738000Y-8369500D01*
X14148000Y-8369500D02*
X14148000Y-9779500D01*
X14148000Y-9779500D02*
X12738000Y-9779500D01*
X20405344Y-5354500D02*
X21815344Y-5354500D01*
X20405344Y-6764500D02*
X20405344Y-5354500D01*
X21815344Y-5354500D02*
X21815344Y-6764500D01*
X21815344Y-6764500D02*
X20405344Y-6764500D01*
X12738000Y-6450000D02*
X14148000Y-6450000D01*
X12738000Y-7860000D02*
X12738000Y-6450000D01*
X14148000Y-6450000D02*
X14148000Y-7860000D01*
X14148000Y-7860000D02*
X12738000Y-7860000D01*
X16577000Y-6715500D02*
X17987000Y-6715500D01*
X16577000Y-8125500D02*
X16577000Y-6715500D01*
X17987000Y-6715500D02*
X17987000Y-8125500D01*
X17987000Y-8125500D02*
X16577000Y-8125500D01*
X18487000Y-11098000D02*
X19897000Y-11098000D01*
X18487000Y-12508000D02*
X18487000Y-11098000D01*
X19897000Y-11098000D02*
X19897000Y-12508000D01*
X19897000Y-12508000D02*
X18487000Y-12508000D01*
X10820063Y-8592500D02*
X12230062Y-8592500D01*
X10820063Y-10002500D02*
X10820063Y-8592500D01*
X12230062Y-8592500D02*
X12230062Y-10002500D01*
X12230062Y-10002500D02*
X10820063Y-10002500D01*
X10820063Y-4756000D02*
X12230062Y-4756000D01*
X10820063Y-6166000D02*
X10820063Y-4756000D01*
X12230062Y-4756000D02*
X12230062Y-6166000D01*
X12230062Y-6166000D02*
X10820063Y-6166000D01*
X18487000Y-9193000D02*
X19897000Y-9193000D01*
X18487000Y-10603000D02*
X18487000Y-9193000D01*
X19897000Y-9193000D02*
X19897000Y-10603000D01*
X19897000Y-10603000D02*
X18487000Y-10603000D01*
X14657000Y-4297000D02*
X16067000Y-4297000D01*
X14657000Y-5707000D02*
X14657000Y-4297000D01*
X16067000Y-4297000D02*
X16067000Y-5707000D01*
X16067000Y-5707000D02*
X14657000Y-5707000D01*
D12*
D13*
X12238000Y-8229000D02*
X12458000Y-8449000D01*
X12458000Y-8229000D02*
X12238000Y-8449000D01*
X12239000Y-6281000D02*
X12459000Y-6501000D01*
X12459000Y-6281000D02*
X12239000Y-6501000D01*
X16211000Y-5229000D02*
X16431000Y-5449000D01*
X16431000Y-5229000D02*
X16211000Y-5449000D01*
X16226000Y-9056000D02*
X16446000Y-9276000D01*
X16446000Y-9056000D02*
X16226000Y-9276000D01*
X18516000Y-10734000D02*
X18736000Y-10954000D01*
X18736000Y-10734000D02*
X18516000Y-10954000D01*
X20038000Y-6955000D02*
X20258000Y-7175000D01*
X20258000Y-6955000D02*
X20038000Y-7175000D01*
X20044000Y-9642000D02*
X20264000Y-9862000D01*
X20264000Y-9642000D02*
X20044000Y-9862000D01*
D12*
X10823758Y-13074694D02*
X10823758Y-12874694D01*
X10823758Y-12874694D02*
X10871377Y-12874694D01*
X10871377Y-12874694D02*
X10899948Y-12884218D01*
X10899948Y-12884218D02*
X10918996Y-12903266D01*
X10918996Y-12903266D02*
X10928520Y-12922313D01*
X10928520Y-12922313D02*
X10938044Y-12960409D01*
X10938044Y-12960409D02*
X10938044Y-12988980D01*
X10938044Y-12988980D02*
X10928520Y-13027075D01*
X10928520Y-13027075D02*
X10918996Y-13046123D01*
X10918996Y-13046123D02*
X10899948Y-13065171D01*
X10899948Y-13065171D02*
X10871377Y-13074694D01*
X10871377Y-13074694D02*
X10823758Y-13074694D01*
X11023758Y-13074694D02*
X11023758Y-12941361D01*
X11023758Y-12979456D02*
X11033282Y-12960409D01*
X11033282Y-12960409D02*
X11042805Y-12950885D01*
X11042805Y-12950885D02*
X11061853Y-12941361D01*
X11061853Y-12941361D02*
X11080901Y-12941361D01*
X11147567Y-13074694D02*
X11147567Y-12941361D01*
X11147567Y-12874694D02*
X11138044Y-12884218D01*
X11138044Y-12884218D02*
X11147567Y-12893742D01*
X11147567Y-12893742D02*
X11157091Y-12884218D01*
X11157091Y-12884218D02*
X11147567Y-12874694D01*
X11147567Y-12874694D02*
X11147567Y-12893742D01*
X11271377Y-13074694D02*
X11252329Y-13065171D01*
X11252329Y-13065171D02*
X11242805Y-13046123D01*
X11242805Y-13046123D02*
X11242805Y-12874694D01*
X11376139Y-13074694D02*
X11357091Y-13065171D01*
X11357091Y-13065171D02*
X11347567Y-13046123D01*
X11347567Y-13046123D02*
X11347567Y-12874694D01*
X11604710Y-13074694D02*
X11604710Y-12874694D01*
X11604710Y-12874694D02*
X11671377Y-13017551D01*
X11671377Y-13017551D02*
X11738043Y-12874694D01*
X11738043Y-12874694D02*
X11738043Y-13074694D01*
X11918996Y-13074694D02*
X11918996Y-12969932D01*
X11918996Y-12969932D02*
X11909472Y-12950885D01*
X11909472Y-12950885D02*
X11890424Y-12941361D01*
X11890424Y-12941361D02*
X11852329Y-12941361D01*
X11852329Y-12941361D02*
X11833282Y-12950885D01*
X11918996Y-13065171D02*
X11899948Y-13074694D01*
X11899948Y-13074694D02*
X11852329Y-13074694D01*
X11852329Y-13074694D02*
X11833282Y-13065171D01*
X11833282Y-13065171D02*
X11823758Y-13046123D01*
X11823758Y-13046123D02*
X11823758Y-13027075D01*
X11823758Y-13027075D02*
X11833282Y-13008028D01*
X11833282Y-13008028D02*
X11852329Y-12998504D01*
X11852329Y-12998504D02*
X11899948Y-12998504D01*
X11899948Y-12998504D02*
X11918996Y-12988980D01*
X12014234Y-12941361D02*
X12014234Y-13141361D01*
X12014234Y-12950885D02*
X12033282Y-12941361D01*
X12033282Y-12941361D02*
X12071377Y-12941361D01*
X12071377Y-12941361D02*
X12090424Y-12950885D01*
X12090424Y-12950885D02*
X12099948Y-12960409D01*
X12099948Y-12960409D02*
X12109472Y-12979456D01*
X12109472Y-12979456D02*
X12109472Y-13036599D01*
X12109472Y-13036599D02*
X12099948Y-13055647D01*
X12099948Y-13055647D02*
X12090424Y-13065171D01*
X12090424Y-13065171D02*
X12071377Y-13074694D01*
X12071377Y-13074694D02*
X12033282Y-13074694D01*
X12033282Y-13074694D02*
X12014234Y-13065171D01*
X12195186Y-13055647D02*
X12204710Y-13065171D01*
X12204710Y-13065171D02*
X12195186Y-13074694D01*
X12195186Y-13074694D02*
X12185663Y-13065171D01*
X12185663Y-13065171D02*
X12195186Y-13055647D01*
X12195186Y-13055647D02*
X12195186Y-13074694D01*
X12195186Y-12950885D02*
X12204710Y-12960409D01*
X12204710Y-12960409D02*
X12195186Y-12969932D01*
X12195186Y-12969932D02*
X12185663Y-12960409D01*
X12185663Y-12960409D02*
X12195186Y-12950885D01*
X12195186Y-12950885D02*
X12195186Y-12969932D01*
X10362981Y-13303211D02*
X10562981Y-13503211D01*
X10562981Y-13303211D02*
X10362981Y-13503211D01*
X10814234Y-13313742D02*
X10823758Y-13304218D01*
X10823758Y-13304218D02*
X10842805Y-13294694D01*
X10842805Y-13294694D02*
X10890425Y-13294694D01*
X10890425Y-13294694D02*
X10909472Y-13304218D01*
X10909472Y-13304218D02*
X10918996Y-13313742D01*
X10918996Y-13313742D02*
X10928520Y-13332790D01*
X10928520Y-13332790D02*
X10928520Y-13351837D01*
X10928520Y-13351837D02*
X10918996Y-13380409D01*
X10918996Y-13380409D02*
X10804710Y-13494694D01*
X10804710Y-13494694D02*
X10928520Y-13494694D01*
X11014234Y-13475647D02*
X11023758Y-13485171D01*
X11023758Y-13485171D02*
X11014234Y-13494694D01*
X11014234Y-13494694D02*
X11004710Y-13485171D01*
X11004710Y-13485171D02*
X11014234Y-13475647D01*
X11014234Y-13475647D02*
X11014234Y-13494694D01*
X11099948Y-13313742D02*
X11109472Y-13304218D01*
X11109472Y-13304218D02*
X11128520Y-13294694D01*
X11128520Y-13294694D02*
X11176139Y-13294694D01*
X11176139Y-13294694D02*
X11195186Y-13304218D01*
X11195186Y-13304218D02*
X11204710Y-13313742D01*
X11204710Y-13313742D02*
X11214234Y-13332790D01*
X11214234Y-13332790D02*
X11214234Y-13351837D01*
X11214234Y-13351837D02*
X11204710Y-13380409D01*
X11204710Y-13380409D02*
X11090425Y-13494694D01*
X11090425Y-13494694D02*
X11214234Y-13494694D01*
X11338043Y-13294694D02*
X11357091Y-13294694D01*
X11357091Y-13294694D02*
X11376139Y-13304218D01*
X11376139Y-13304218D02*
X11385663Y-13313742D01*
X11385663Y-13313742D02*
X11395186Y-13332790D01*
X11395186Y-13332790D02*
X11404710Y-13370885D01*
X11404710Y-13370885D02*
X11404710Y-13418504D01*
X11404710Y-13418504D02*
X11395186Y-13456599D01*
X11395186Y-13456599D02*
X11385663Y-13475647D01*
X11385663Y-13475647D02*
X11376139Y-13485171D01*
X11376139Y-13485171D02*
X11357091Y-13494694D01*
X11357091Y-13494694D02*
X11338043Y-13494694D01*
X11338043Y-13494694D02*
X11318996Y-13485171D01*
X11318996Y-13485171D02*
X11309472Y-13475647D01*
X11309472Y-13475647D02*
X11299948Y-13456599D01*
X11299948Y-13456599D02*
X11290424Y-13418504D01*
X11290424Y-13418504D02*
X11290424Y-13370885D01*
X11290424Y-13370885D02*
X11299948Y-13332790D01*
X11299948Y-13332790D02*
X11309472Y-13313742D01*
X11309472Y-13313742D02*
X11318996Y-13304218D01*
X11318996Y-13304218D02*
X11338043Y-13294694D01*
X11528520Y-13294694D02*
X11547567Y-13294694D01*
X11547567Y-13294694D02*
X11566615Y-13304218D01*
X11566615Y-13304218D02*
X11576139Y-13313742D01*
X11576139Y-13313742D02*
X11585663Y-13332790D01*
X11585663Y-13332790D02*
X11595186Y-13370885D01*
X11595186Y-13370885D02*
X11595186Y-13418504D01*
X11595186Y-13418504D02*
X11585663Y-13456599D01*
X11585663Y-13456599D02*
X11576139Y-13475647D01*
X11576139Y-13475647D02*
X11566615Y-13485171D01*
X11566615Y-13485171D02*
X11547567Y-13494694D01*
X11547567Y-13494694D02*
X11528520Y-13494694D01*
X11528520Y-13494694D02*
X11509472Y-13485171D01*
X11509472Y-13485171D02*
X11499948Y-13475647D01*
X11499948Y-13475647D02*
X11490424Y-13456599D01*
X11490424Y-13456599D02*
X11480901Y-13418504D01*
X11480901Y-13418504D02*
X11480901Y-13370885D01*
X11480901Y-13370885D02*
X11490424Y-13332790D01*
X11490424Y-13332790D02*
X11499948Y-13313742D01*
X11499948Y-13313742D02*
X11509472Y-13304218D01*
X11509472Y-13304218D02*
X11528520Y-13294694D01*
X11680901Y-13494694D02*
X11680901Y-13361361D01*
X11680901Y-13380409D02*
X11690424Y-13370885D01*
X11690424Y-13370885D02*
X11709472Y-13361361D01*
X11709472Y-13361361D02*
X11738044Y-13361361D01*
X11738044Y-13361361D02*
X11757091Y-13370885D01*
X11757091Y-13370885D02*
X11766615Y-13389932D01*
X11766615Y-13389932D02*
X11766615Y-13494694D01*
X11766615Y-13389932D02*
X11776139Y-13370885D01*
X11776139Y-13370885D02*
X11795186Y-13361361D01*
X11795186Y-13361361D02*
X11823758Y-13361361D01*
X11823758Y-13361361D02*
X11842805Y-13370885D01*
X11842805Y-13370885D02*
X11852329Y-13389932D01*
X11852329Y-13389932D02*
X11852329Y-13494694D01*
X11947567Y-13494694D02*
X11947567Y-13361361D01*
X11947567Y-13380409D02*
X11957091Y-13370885D01*
X11957091Y-13370885D02*
X11976139Y-13361361D01*
X11976139Y-13361361D02*
X12004710Y-13361361D01*
X12004710Y-13361361D02*
X12023758Y-13370885D01*
X12023758Y-13370885D02*
X12033282Y-13389932D01*
X12033282Y-13389932D02*
X12033282Y-13494694D01*
X12033282Y-13389932D02*
X12042805Y-13370885D01*
X12042805Y-13370885D02*
X12061853Y-13361361D01*
X12061853Y-13361361D02*
X12090424Y-13361361D01*
X12090424Y-13361361D02*
X12109472Y-13370885D01*
X12109472Y-13370885D02*
X12118996Y-13389932D01*
X12118996Y-13389932D02*
X12118996Y-13494694D01*
X12509472Y-13285171D02*
X12338044Y-13542313D01*
X12766615Y-13294694D02*
X12785663Y-13294694D01*
X12785663Y-13294694D02*
X12804710Y-13304218D01*
X12804710Y-13304218D02*
X12814234Y-13313742D01*
X12814234Y-13313742D02*
X12823758Y-13332790D01*
X12823758Y-13332790D02*
X12833282Y-13370885D01*
X12833282Y-13370885D02*
X12833282Y-13418504D01*
X12833282Y-13418504D02*
X12823758Y-13456599D01*
X12823758Y-13456599D02*
X12814234Y-13475647D01*
X12814234Y-13475647D02*
X12804710Y-13485171D01*
X12804710Y-13485171D02*
X12785663Y-13494694D01*
X12785663Y-13494694D02*
X12766615Y-13494694D01*
X12766615Y-13494694D02*
X12747567Y-13485171D01*
X12747567Y-13485171D02*
X12738044Y-13475647D01*
X12738044Y-13475647D02*
X12728520Y-13456599D01*
X12728520Y-13456599D02*
X12718996Y-13418504D01*
X12718996Y-13418504D02*
X12718996Y-13370885D01*
X12718996Y-13370885D02*
X12728520Y-13332790D01*
X12728520Y-13332790D02*
X12738044Y-13313742D01*
X12738044Y-13313742D02*
X12747567Y-13304218D01*
X12747567Y-13304218D02*
X12766615Y-13294694D01*
X12918996Y-13475647D02*
X12928520Y-13485171D01*
X12928520Y-13485171D02*
X12918996Y-13494694D01*
X12918996Y-13494694D02*
X12909472Y-13485171D01*
X12909472Y-13485171D02*
X12918996Y-13475647D01*
X12918996Y-13475647D02*
X12918996Y-13494694D01*
X13052329Y-13294694D02*
X13071377Y-13294694D01*
X13071377Y-13294694D02*
X13090425Y-13304218D01*
X13090425Y-13304218D02*
X13099948Y-13313742D01*
X13099948Y-13313742D02*
X13109472Y-13332790D01*
X13109472Y-13332790D02*
X13118996Y-13370885D01*
X13118996Y-13370885D02*
X13118996Y-13418504D01*
X13118996Y-13418504D02*
X13109472Y-13456599D01*
X13109472Y-13456599D02*
X13099948Y-13475647D01*
X13099948Y-13475647D02*
X13090425Y-13485171D01*
X13090425Y-13485171D02*
X13071377Y-13494694D01*
X13071377Y-13494694D02*
X13052329Y-13494694D01*
X13052329Y-13494694D02*
X13033282Y-13485171D01*
X13033282Y-13485171D02*
X13023758Y-13475647D01*
X13023758Y-13475647D02*
X13014234Y-13456599D01*
X13014234Y-13456599D02*
X13004710Y-13418504D01*
X13004710Y-13418504D02*
X13004710Y-13370885D01*
X13004710Y-13370885D02*
X13014234Y-13332790D01*
X13014234Y-13332790D02*
X13023758Y-13313742D01*
X13023758Y-13313742D02*
X13033282Y-13304218D01*
X13033282Y-13304218D02*
X13052329Y-13294694D01*
X13233282Y-13380409D02*
X13214234Y-13370885D01*
X13214234Y-13370885D02*
X13204710Y-13361361D01*
X13204710Y-13361361D02*
X13195187Y-13342313D01*
X13195187Y-13342313D02*
X13195187Y-13332790D01*
X13195187Y-13332790D02*
X13204710Y-13313742D01*
X13204710Y-13313742D02*
X13214234Y-13304218D01*
X13214234Y-13304218D02*
X13233282Y-13294694D01*
X13233282Y-13294694D02*
X13271377Y-13294694D01*
X13271377Y-13294694D02*
X13290425Y-13304218D01*
X13290425Y-13304218D02*
X13299948Y-13313742D01*
X13299948Y-13313742D02*
X13309472Y-13332790D01*
X13309472Y-13332790D02*
X13309472Y-13342313D01*
X13309472Y-13342313D02*
X13299948Y-13361361D01*
X13299948Y-13361361D02*
X13290425Y-13370885D01*
X13290425Y-13370885D02*
X13271377Y-13380409D01*
X13271377Y-13380409D02*
X13233282Y-13380409D01*
X13233282Y-13380409D02*
X13214234Y-13389932D01*
X13214234Y-13389932D02*
X13204710Y-13399456D01*
X13204710Y-13399456D02*
X13195187Y-13418504D01*
X13195187Y-13418504D02*
X13195187Y-13456599D01*
X13195187Y-13456599D02*
X13204710Y-13475647D01*
X13204710Y-13475647D02*
X13214234Y-13485171D01*
X13214234Y-13485171D02*
X13233282Y-13494694D01*
X13233282Y-13494694D02*
X13271377Y-13494694D01*
X13271377Y-13494694D02*
X13290425Y-13485171D01*
X13290425Y-13485171D02*
X13299948Y-13475647D01*
X13299948Y-13475647D02*
X13309472Y-13456599D01*
X13309472Y-13456599D02*
X13309472Y-13418504D01*
X13309472Y-13418504D02*
X13299948Y-13399456D01*
X13299948Y-13399456D02*
X13290425Y-13389932D01*
X13290425Y-13389932D02*
X13271377Y-13380409D01*
X13480901Y-13294694D02*
X13442806Y-13294694D01*
X13442806Y-13294694D02*
X13423758Y-13304218D01*
X13423758Y-13304218D02*
X13414234Y-13313742D01*
X13414234Y-13313742D02*
X13395187Y-13342313D01*
X13395187Y-13342313D02*
X13385663Y-13380409D01*
X13385663Y-13380409D02*
X13385663Y-13456599D01*
X13385663Y-13456599D02*
X13395187Y-13475647D01*
X13395187Y-13475647D02*
X13404710Y-13485171D01*
X13404710Y-13485171D02*
X13423758Y-13494694D01*
X13423758Y-13494694D02*
X13461853Y-13494694D01*
X13461853Y-13494694D02*
X13480901Y-13485171D01*
X13480901Y-13485171D02*
X13490425Y-13475647D01*
X13490425Y-13475647D02*
X13499948Y-13456599D01*
X13499948Y-13456599D02*
X13499948Y-13408980D01*
X13499948Y-13408980D02*
X13490425Y-13389932D01*
X13490425Y-13389932D02*
X13480901Y-13380409D01*
X13480901Y-13380409D02*
X13461853Y-13370885D01*
X13461853Y-13370885D02*
X13423758Y-13370885D01*
X13423758Y-13370885D02*
X13404710Y-13380409D01*
X13404710Y-13380409D02*
X13395187Y-13389932D01*
X13395187Y-13389932D02*
X13385663Y-13408980D01*
X13671377Y-13294694D02*
X13633282Y-13294694D01*
X13633282Y-13294694D02*
X13614234Y-13304218D01*
X13614234Y-13304218D02*
X13604710Y-13313742D01*
X13604710Y-13313742D02*
X13585663Y-13342313D01*
X13585663Y-13342313D02*
X13576139Y-13380409D01*
X13576139Y-13380409D02*
X13576139Y-13456599D01*
X13576139Y-13456599D02*
X13585663Y-13475647D01*
X13585663Y-13475647D02*
X13595187Y-13485171D01*
X13595187Y-13485171D02*
X13614234Y-13494694D01*
X13614234Y-13494694D02*
X13652329Y-13494694D01*
X13652329Y-13494694D02*
X13671377Y-13485171D01*
X13671377Y-13485171D02*
X13680901Y-13475647D01*
X13680901Y-13475647D02*
X13690425Y-13456599D01*
X13690425Y-13456599D02*
X13690425Y-13408980D01*
X13690425Y-13408980D02*
X13680901Y-13389932D01*
X13680901Y-13389932D02*
X13671377Y-13380409D01*
X13671377Y-13380409D02*
X13652329Y-13370885D01*
X13652329Y-13370885D02*
X13614234Y-13370885D01*
X13614234Y-13370885D02*
X13595187Y-13380409D01*
X13595187Y-13380409D02*
X13585663Y-13389932D01*
X13585663Y-13389932D02*
X13576139Y-13408980D01*
X13766615Y-13294694D02*
X13766615Y-13332790D01*
X13842806Y-13294694D02*
X13842806Y-13332790D01*
X14138044Y-13570885D02*
X14128520Y-13561361D01*
X14128520Y-13561361D02*
X14109472Y-13532790D01*
X14109472Y-13532790D02*
X14099949Y-13513742D01*
X14099949Y-13513742D02*
X14090425Y-13485171D01*
X14090425Y-13485171D02*
X14080901Y-13437551D01*
X14080901Y-13437551D02*
X14080901Y-13399456D01*
X14080901Y-13399456D02*
X14090425Y-13351837D01*
X14090425Y-13351837D02*
X14099949Y-13323266D01*
X14099949Y-13323266D02*
X14109472Y-13304218D01*
X14109472Y-13304218D02*
X14128520Y-13275647D01*
X14128520Y-13275647D02*
X14138044Y-13266123D01*
X14195187Y-13294694D02*
X14328520Y-13294694D01*
X14328520Y-13294694D02*
X14242806Y-13494694D01*
X14557091Y-13494694D02*
X14557091Y-13294694D01*
X14642806Y-13494694D02*
X14642806Y-13389932D01*
X14642806Y-13389932D02*
X14633282Y-13370885D01*
X14633282Y-13370885D02*
X14614234Y-13361361D01*
X14614234Y-13361361D02*
X14585663Y-13361361D01*
X14585663Y-13361361D02*
X14566615Y-13370885D01*
X14566615Y-13370885D02*
X14557091Y-13380409D01*
X14766615Y-13494694D02*
X14747568Y-13485171D01*
X14747568Y-13485171D02*
X14738044Y-13475647D01*
X14738044Y-13475647D02*
X14728520Y-13456599D01*
X14728520Y-13456599D02*
X14728520Y-13399456D01*
X14728520Y-13399456D02*
X14738044Y-13380409D01*
X14738044Y-13380409D02*
X14747568Y-13370885D01*
X14747568Y-13370885D02*
X14766615Y-13361361D01*
X14766615Y-13361361D02*
X14795187Y-13361361D01*
X14795187Y-13361361D02*
X14814234Y-13370885D01*
X14814234Y-13370885D02*
X14823758Y-13380409D01*
X14823758Y-13380409D02*
X14833282Y-13399456D01*
X14833282Y-13399456D02*
X14833282Y-13456599D01*
X14833282Y-13456599D02*
X14823758Y-13475647D01*
X14823758Y-13475647D02*
X14814234Y-13485171D01*
X14814234Y-13485171D02*
X14795187Y-13494694D01*
X14795187Y-13494694D02*
X14766615Y-13494694D01*
X14947568Y-13494694D02*
X14928520Y-13485171D01*
X14928520Y-13485171D02*
X14918996Y-13466123D01*
X14918996Y-13466123D02*
X14918996Y-13294694D01*
X15099949Y-13485171D02*
X15080901Y-13494694D01*
X15080901Y-13494694D02*
X15042806Y-13494694D01*
X15042806Y-13494694D02*
X15023758Y-13485171D01*
X15023758Y-13485171D02*
X15014234Y-13466123D01*
X15014234Y-13466123D02*
X15014234Y-13389932D01*
X15014234Y-13389932D02*
X15023758Y-13370885D01*
X15023758Y-13370885D02*
X15042806Y-13361361D01*
X15042806Y-13361361D02*
X15080901Y-13361361D01*
X15080901Y-13361361D02*
X15099949Y-13370885D01*
X15099949Y-13370885D02*
X15109472Y-13389932D01*
X15109472Y-13389932D02*
X15109472Y-13408980D01*
X15109472Y-13408980D02*
X15014234Y-13428028D01*
X15185663Y-13485171D02*
X15204711Y-13494694D01*
X15204711Y-13494694D02*
X15242806Y-13494694D01*
X15242806Y-13494694D02*
X15261853Y-13485171D01*
X15261853Y-13485171D02*
X15271377Y-13466123D01*
X15271377Y-13466123D02*
X15271377Y-13456599D01*
X15271377Y-13456599D02*
X15261853Y-13437551D01*
X15261853Y-13437551D02*
X15242806Y-13428028D01*
X15242806Y-13428028D02*
X15214234Y-13428028D01*
X15214234Y-13428028D02*
X15195187Y-13418504D01*
X15195187Y-13418504D02*
X15185663Y-13399456D01*
X15185663Y-13399456D02*
X15185663Y-13389932D01*
X15185663Y-13389932D02*
X15195187Y-13370885D01*
X15195187Y-13370885D02*
X15214234Y-13361361D01*
X15214234Y-13361361D02*
X15242806Y-13361361D01*
X15242806Y-13361361D02*
X15261853Y-13370885D01*
X15338044Y-13570885D02*
X15347568Y-13561361D01*
X15347568Y-13561361D02*
X15366615Y-13532790D01*
X15366615Y-13532790D02*
X15376139Y-13513742D01*
X15376139Y-13513742D02*
X15385663Y-13485171D01*
X15385663Y-13485171D02*
X15395187Y-13437551D01*
X15395187Y-13437551D02*
X15395187Y-13399456D01*
X15395187Y-13399456D02*
X15385663Y-13351837D01*
X15385663Y-13351837D02*
X15376139Y-13323266D01*
X15376139Y-13323266D02*
X15366615Y-13304218D01*
X15366615Y-13304218D02*
X15347568Y-13275647D01*
X15347568Y-13275647D02*
X15338044Y-13266123D01*
X15699949Y-13570885D02*
X15690425Y-13561361D01*
X15690425Y-13561361D02*
X15671377Y-13532790D01*
X15671377Y-13532790D02*
X15661853Y-13513742D01*
X15661853Y-13513742D02*
X15652330Y-13485171D01*
X15652330Y-13485171D02*
X15642806Y-13437551D01*
X15642806Y-13437551D02*
X15642806Y-13399456D01*
X15642806Y-13399456D02*
X15652330Y-13351837D01*
X15652330Y-13351837D02*
X15661853Y-13323266D01*
X15661853Y-13323266D02*
X15671377Y-13304218D01*
X15671377Y-13304218D02*
X15690425Y-13275647D01*
X15690425Y-13275647D02*
X15699949Y-13266123D01*
X15776139Y-13361361D02*
X15776139Y-13494694D01*
X15776139Y-13380409D02*
X15785663Y-13370885D01*
X15785663Y-13370885D02*
X15804711Y-13361361D01*
X15804711Y-13361361D02*
X15833282Y-13361361D01*
X15833282Y-13361361D02*
X15852330Y-13370885D01*
X15852330Y-13370885D02*
X15861853Y-13389932D01*
X15861853Y-13389932D02*
X15861853Y-13494694D01*
X15985663Y-13494694D02*
X15966615Y-13485171D01*
X15966615Y-13485171D02*
X15957092Y-13475647D01*
X15957092Y-13475647D02*
X15947568Y-13456599D01*
X15947568Y-13456599D02*
X15947568Y-13399456D01*
X15947568Y-13399456D02*
X15957092Y-13380409D01*
X15957092Y-13380409D02*
X15966615Y-13370885D01*
X15966615Y-13370885D02*
X15985663Y-13361361D01*
X15985663Y-13361361D02*
X16014234Y-13361361D01*
X16014234Y-13361361D02*
X16033282Y-13370885D01*
X16033282Y-13370885D02*
X16042806Y-13380409D01*
X16042806Y-13380409D02*
X16052330Y-13399456D01*
X16052330Y-13399456D02*
X16052330Y-13456599D01*
X16052330Y-13456599D02*
X16042806Y-13475647D01*
X16042806Y-13475647D02*
X16033282Y-13485171D01*
X16033282Y-13485171D02*
X16014234Y-13494694D01*
X16014234Y-13494694D02*
X15985663Y-13494694D01*
X16109473Y-13361361D02*
X16185663Y-13361361D01*
X16138044Y-13294694D02*
X16138044Y-13466123D01*
X16138044Y-13466123D02*
X16147568Y-13485171D01*
X16147568Y-13485171D02*
X16166615Y-13494694D01*
X16166615Y-13494694D02*
X16185663Y-13494694D01*
X16404711Y-13361361D02*
X16404711Y-13561361D01*
X16404711Y-13370885D02*
X16423758Y-13361361D01*
X16423758Y-13361361D02*
X16461854Y-13361361D01*
X16461854Y-13361361D02*
X16480901Y-13370885D01*
X16480901Y-13370885D02*
X16490425Y-13380409D01*
X16490425Y-13380409D02*
X16499949Y-13399456D01*
X16499949Y-13399456D02*
X16499949Y-13456599D01*
X16499949Y-13456599D02*
X16490425Y-13475647D01*
X16490425Y-13475647D02*
X16480901Y-13485171D01*
X16480901Y-13485171D02*
X16461854Y-13494694D01*
X16461854Y-13494694D02*
X16423758Y-13494694D01*
X16423758Y-13494694D02*
X16404711Y-13485171D01*
X16614234Y-13494694D02*
X16595187Y-13485171D01*
X16595187Y-13485171D02*
X16585663Y-13466123D01*
X16585663Y-13466123D02*
X16585663Y-13294694D01*
X16776139Y-13494694D02*
X16776139Y-13389932D01*
X16776139Y-13389932D02*
X16766615Y-13370885D01*
X16766615Y-13370885D02*
X16747568Y-13361361D01*
X16747568Y-13361361D02*
X16709473Y-13361361D01*
X16709473Y-13361361D02*
X16690425Y-13370885D01*
X16776139Y-13485171D02*
X16757092Y-13494694D01*
X16757092Y-13494694D02*
X16709473Y-13494694D01*
X16709473Y-13494694D02*
X16690425Y-13485171D01*
X16690425Y-13485171D02*
X16680901Y-13466123D01*
X16680901Y-13466123D02*
X16680901Y-13447075D01*
X16680901Y-13447075D02*
X16690425Y-13428028D01*
X16690425Y-13428028D02*
X16709473Y-13418504D01*
X16709473Y-13418504D02*
X16757092Y-13418504D01*
X16757092Y-13418504D02*
X16776139Y-13408980D01*
X16842806Y-13361361D02*
X16918996Y-13361361D01*
X16871377Y-13294694D02*
X16871377Y-13466123D01*
X16871377Y-13466123D02*
X16880901Y-13485171D01*
X16880901Y-13485171D02*
X16899949Y-13494694D01*
X16899949Y-13494694D02*
X16918996Y-13494694D01*
X17061854Y-13485171D02*
X17042806Y-13494694D01*
X17042806Y-13494694D02*
X17004711Y-13494694D01*
X17004711Y-13494694D02*
X16985663Y-13485171D01*
X16985663Y-13485171D02*
X16976139Y-13466123D01*
X16976139Y-13466123D02*
X16976139Y-13389932D01*
X16976139Y-13389932D02*
X16985663Y-13370885D01*
X16985663Y-13370885D02*
X17004711Y-13361361D01*
X17004711Y-13361361D02*
X17042806Y-13361361D01*
X17042806Y-13361361D02*
X17061854Y-13370885D01*
X17061854Y-13370885D02*
X17071377Y-13389932D01*
X17071377Y-13389932D02*
X17071377Y-13408980D01*
X17071377Y-13408980D02*
X16976139Y-13428028D01*
X17242806Y-13494694D02*
X17242806Y-13294694D01*
X17242806Y-13485171D02*
X17223758Y-13494694D01*
X17223758Y-13494694D02*
X17185663Y-13494694D01*
X17185663Y-13494694D02*
X17166616Y-13485171D01*
X17166616Y-13485171D02*
X17157092Y-13475647D01*
X17157092Y-13475647D02*
X17147568Y-13456599D01*
X17147568Y-13456599D02*
X17147568Y-13399456D01*
X17147568Y-13399456D02*
X17157092Y-13380409D01*
X17157092Y-13380409D02*
X17166616Y-13370885D01*
X17166616Y-13370885D02*
X17185663Y-13361361D01*
X17185663Y-13361361D02*
X17223758Y-13361361D01*
X17223758Y-13361361D02*
X17242806Y-13370885D01*
X17318997Y-13570885D02*
X17328520Y-13561361D01*
X17328520Y-13561361D02*
X17347568Y-13532790D01*
X17347568Y-13532790D02*
X17357092Y-13513742D01*
X17357092Y-13513742D02*
X17366616Y-13485171D01*
X17366616Y-13485171D02*
X17376139Y-13437551D01*
X17376139Y-13437551D02*
X17376139Y-13399456D01*
X17376139Y-13399456D02*
X17366616Y-13351837D01*
X17366616Y-13351837D02*
X17357092Y-13323266D01*
X17357092Y-13323266D02*
X17347568Y-13304218D01*
X17347568Y-13304218D02*
X17328520Y-13275647D01*
X17328520Y-13275647D02*
X17318997Y-13266123D01*
M02*
