%TF.GenerationSoftware,KiCad,Pcbnew,9.0.7*%
%TF.CreationDate,2026-03-11T18:08:25+09:00*%
%TF.ProjectId,NomadBall44_R_Top,4e6f6d61-6442-4616-9c6c-34345f525f54,rev?*%
%TF.SameCoordinates,Original*%
%TF.FileFunction,Profile,NP*%
%FSLAX46Y46*%
G04 Gerber Fmt 4.6, Leading zero omitted, Abs format (unit mm)*
G04 Created by KiCad (PCBNEW 9.0.7) date 2026-03-11 18:08:25*
%MOMM*%
%LPD*%
G01*
G04 APERTURE LIST*
%TA.AperFunction,Profile*%
%ADD10C,0.050000*%
%TD*%
%TA.AperFunction,Profile*%
%ADD11C,0.150000*%
%TD*%
G04 APERTURE END LIST*
D10*
X164257107Y-45412896D02*
G75*
G02*
X163257104Y-44412896I-7J999996D01*
G01*
X182800000Y-127594999D02*
G75*
G02*
X182300001Y-127094999I0J499999D01*
G01*
X182440000Y-46409093D02*
X182440000Y-49930906D01*
X105670000Y-101440000D02*
X105654812Y-46714808D01*
X220690000Y-107570000D02*
G75*
G02*
X219690000Y-108570000I-1000000J0D01*
G01*
X123279757Y-101912894D02*
X106110000Y-101880000D01*
X164257100Y-45412896D02*
X181440000Y-45409093D01*
X200497107Y-127607106D02*
X182800000Y-127594999D01*
X201497107Y-109557107D02*
X201497107Y-126607106D01*
X219690000Y-50947106D02*
G75*
G02*
X220689994Y-51947106I0J-999994D01*
G01*
X181300000Y-102845000D02*
X163294324Y-102862894D01*
X125002894Y-44712891D02*
X125002894Y-44212896D01*
X182300000Y-127094999D02*
X182300000Y-103845000D01*
X181440000Y-45409093D02*
G75*
G02*
X182440007Y-46409093I0J-1000007D01*
G01*
X144052894Y-42212896D02*
G75*
G02*
X143052894Y-43212894I-999994J-4D01*
G01*
X145052894Y-40712896D02*
X162257100Y-40712896D01*
X220690000Y-51947106D02*
X220690000Y-107570000D01*
X162257107Y-40712896D02*
G75*
G02*
X163257104Y-41712896I-7J-1000004D01*
G01*
X183440000Y-50940242D02*
X219690000Y-50947106D01*
X163257107Y-41712896D02*
X163257107Y-44412896D01*
X161294324Y-100362895D02*
G75*
G02*
X162294305Y-101362895I-24J-1000005D01*
G01*
X219690000Y-108562894D02*
X202497100Y-108557107D01*
X144052894Y-42212896D02*
X144052894Y-41712896D01*
X161294324Y-100362895D02*
X124973126Y-100362895D01*
X123977027Y-101274659D02*
G75*
G02*
X123279757Y-101912857I-697227J61759D01*
G01*
X181300000Y-102845000D02*
G75*
G02*
X182300000Y-103845000I0J-1000000D01*
G01*
X162294324Y-101862894D02*
X162294324Y-101362895D01*
X201497107Y-109557107D02*
G75*
G02*
X202497107Y-108557107I999993J7D01*
G01*
X125002894Y-44712891D02*
G75*
G02*
X124002894Y-45712894I-999994J-9D01*
G01*
X163294324Y-102862894D02*
G75*
G02*
X162294306Y-101862894I-24J999994D01*
G01*
X126002894Y-43212896D02*
X143052894Y-43212896D01*
X123977026Y-101274659D02*
G75*
G02*
X124973126Y-100362925I996074J-88241D01*
G01*
X105654812Y-46714808D02*
G75*
G02*
X106654810Y-45712910I999988J1908D01*
G01*
X201497107Y-126607106D02*
G75*
G02*
X200497107Y-127607107I-1000007J6D01*
G01*
X183440000Y-50936219D02*
G75*
G02*
X182439981Y-49936219I0J1000019D01*
G01*
X144052894Y-41712896D02*
G75*
G02*
X145052894Y-40712894I1000006J-4D01*
G01*
X106654810Y-45712891D02*
X124002894Y-45712891D01*
X106110000Y-101880000D02*
G75*
G02*
X105670000Y-101440000I0J440000D01*
G01*
X125002894Y-44212896D02*
G75*
G02*
X126002894Y-43212894I1000006J-4D01*
G01*
D11*
%TO.C,SW4*%
X165770000Y-47960000D02*
X179870000Y-47960000D01*
X165770000Y-62060000D02*
X165770000Y-47960000D01*
X179870000Y-47960000D02*
X179870000Y-62060000D01*
X179870000Y-62060000D02*
X165770000Y-62060000D01*
%TO.C,SW11*%
X184870000Y-72750000D02*
X198970000Y-72750000D01*
X184870000Y-86850000D02*
X184870000Y-72750000D01*
X198970000Y-72750000D02*
X198970000Y-86850000D01*
X198970000Y-86850000D02*
X184870000Y-86850000D01*
%TO.C,SW16*%
X165770000Y-86300000D02*
X179870000Y-86300000D01*
X165770000Y-100400000D02*
X165770000Y-86300000D01*
X179870000Y-86300000D02*
X179870000Y-100400000D01*
X179870000Y-100400000D02*
X165770000Y-100400000D01*
%TO.C,SW5*%
X184870000Y-53545000D02*
X198970000Y-53545000D01*
X184870000Y-67645000D02*
X184870000Y-53545000D01*
X198970000Y-53545000D02*
X198970000Y-67645000D01*
X198970000Y-67645000D02*
X184870000Y-67645000D01*
%TO.C,SW18*%
X204053437Y-91930000D02*
X218153437Y-91930000D01*
X204053437Y-106030000D02*
X204053437Y-91930000D01*
X218153437Y-91930000D02*
X218153437Y-106030000D01*
X218153437Y-106030000D02*
X204053437Y-106030000D01*
%TO.C,SW9*%
X146570000Y-62160000D02*
X160670000Y-62160000D01*
X146570000Y-76260000D02*
X146570000Y-62160000D01*
X160670000Y-62160000D02*
X160670000Y-76260000D01*
X160670000Y-76260000D02*
X146570000Y-76260000D01*
%TO.C,SW15*%
X146570000Y-81325000D02*
X160670000Y-81325000D01*
X146570000Y-95425000D02*
X146570000Y-81325000D01*
X160670000Y-81325000D02*
X160670000Y-95425000D01*
X160670000Y-95425000D02*
X146570000Y-95425000D01*
%TO.C,SW12*%
X204053437Y-72750000D02*
X218153437Y-72750000D01*
X204053437Y-86850000D02*
X204053437Y-72750000D01*
X218153437Y-72750000D02*
X218153437Y-86850000D01*
X218153437Y-86850000D02*
X204053437Y-86850000D01*
%TO.C,SW2*%
X127380000Y-45310000D02*
X141480000Y-45310000D01*
X127380000Y-59410000D02*
X127380000Y-45310000D01*
X141480000Y-45310000D02*
X141480000Y-59410000D01*
X141480000Y-59410000D02*
X127380000Y-59410000D01*
%TO.C,SW7*%
X108200625Y-66735000D02*
X122300625Y-66735000D01*
X108200625Y-80835000D02*
X108200625Y-66735000D01*
X122300625Y-66735000D02*
X122300625Y-80835000D01*
X122300625Y-80835000D02*
X108200625Y-80835000D01*
%TO.C,SW14*%
X127380000Y-83695000D02*
X141480000Y-83695000D01*
X127380000Y-97795000D02*
X127380000Y-83695000D01*
X141480000Y-83695000D02*
X141480000Y-97795000D01*
X141480000Y-97795000D02*
X127380000Y-97795000D01*
%TO.C,SW6*%
X204053437Y-53545000D02*
X218153437Y-53545000D01*
X204053437Y-67645000D02*
X204053437Y-53545000D01*
X218153437Y-53545000D02*
X218153437Y-67645000D01*
X218153437Y-67645000D02*
X204053437Y-67645000D01*
%TO.C,SW8*%
X127380000Y-64500000D02*
X141480000Y-64500000D01*
X127380000Y-78600000D02*
X127380000Y-64500000D01*
X141480000Y-64500000D02*
X141480000Y-78600000D01*
X141480000Y-78600000D02*
X127380000Y-78600000D01*
%TO.C,SW10*%
X165770000Y-67155000D02*
X179870000Y-67155000D01*
X165770000Y-81255000D02*
X165770000Y-67155000D01*
X179870000Y-67155000D02*
X179870000Y-81255000D01*
X179870000Y-81255000D02*
X165770000Y-81255000D01*
%TO.C,SW22*%
X184870000Y-110980000D02*
X198970000Y-110980000D01*
X184870000Y-125080000D02*
X184870000Y-110980000D01*
X198970000Y-110980000D02*
X198970000Y-125080000D01*
X198970000Y-125080000D02*
X184870000Y-125080000D01*
%TO.C,SW13*%
X108200625Y-85925000D02*
X122300625Y-85925000D01*
X108200625Y-100025000D02*
X108200625Y-85925000D01*
X122300625Y-85925000D02*
X122300625Y-100025000D01*
X122300625Y-100025000D02*
X108200625Y-100025000D01*
%TO.C,SW1*%
X108200625Y-47560000D02*
X122300625Y-47560000D01*
X108200625Y-61660000D02*
X108200625Y-47560000D01*
X122300625Y-47560000D02*
X122300625Y-61660000D01*
X122300625Y-61660000D02*
X108200625Y-61660000D01*
%TO.C,SW17*%
X184870000Y-91930000D02*
X198970000Y-91930000D01*
X184870000Y-106030000D02*
X184870000Y-91930000D01*
X198970000Y-91930000D02*
X198970000Y-106030000D01*
X198970000Y-106030000D02*
X184870000Y-106030000D01*
%TO.C,SW3*%
X146570000Y-42970000D02*
X160670000Y-42970000D01*
X146570000Y-57070000D02*
X146570000Y-42970000D01*
X160670000Y-42970000D02*
X160670000Y-57070000D01*
X160670000Y-57070000D02*
X146570000Y-57070000D01*
%TD*%
M02*
