  0
SECTION
  2
HEADER
  9
$ANGBASE
  50
0.0
  9
$ANGDIR
  70
1
  9
$MEASUREMENT
  70
1
  0
ENDSEC
  0
SECTION
  2
TABLES
  0
TABLE
  2
LTYPE
  70
4
  0
LTYPE
  5
40F
  2
CONTINUOUS
  70
0
  3
Solid line
  72
65
  73
0
  40
0.0
  0
LTYPE
  5
410
  2
DASHDOT
 70
0
  3
Dash Dot ____ _ ____ _
 72
65
 73
4
 40
2.0
 49
1.25
 49
-0.25
 49
0.25
 49
-0.25
  0
LTYPE
  5
411
  2
DASHED
 70
0
  3
Dashed __ __ __ __ __
 72
65
 73
2
 40
0.75
 49
0.5
 49
-0.25
  0
LTYPE
  5
43B
  2
DOTTED
 70
0
  3
Dotted .  .  .  .
 72
65
 73
2
 40
0.2
 49
0.0
 49
-0.2
  0
ENDTAB
  0
TABLE
  2
STYLE
  70
4
  0
STYLE
  2
KICAD
  70
0
  40
0
  41
1
  42
1
  50
0
  71
0
  3
isocp.shx
  0
STYLE
  2
KICADB
  70
0
  40
0
  41
1
  42
1
  50
0
  71
0
  3
isocp.shx
  0
STYLE
  2
KICADI
  70
0
  40
0
  41
1
  42
1
  50
15
  71
0
  3
isocp.shx
  0
STYLE
  2
KICADBI
  70
0
  40
0
  41
1
  42
1
  50
15
  71
0
  3
isocp.shx
  0
ENDTAB
  0
TABLE
  2
LAYER
  70
1
  0
LAYER
  2
BLACK
  70
0
  62
7
  6
CONTINUOUS
  0
ENDTAB
  0
ENDSEC
  0
SECTION
  2
ENTITIES
0
LINE
8
BLACK
6
CONTINUOUS
10
79.9886659999999949
20
-136.5308379999999886
11
73.3620870000000025
21
-118.311600999999996
0
ARC
8
BLACK
10
127.0899999999999892
20
-97.9428999999999945
40
0.9999929999999999
50
-180.00040107
51
-90.00000000
0
LINE
8
BLACK
6
CONTINUOUS
10
100.0157869999999889
20
-83.0299989999999895
11
86.1270999999999987
21
-83.0299989999999895
0
ARC
8
BLACK
10
100.0428999999999888
20
-60.1870999999999938
40
0.9999930000245001
50
-0.00040107
51
90.00040107
0
LINE
8
BLACK
6
CONTINUOUS
10
73.9599999999999937
20
-117.0300000000000011
11
78.3129050000000007
21
-115.4403119999999916
0
LINE
8
BLACK
6
CONTINUOUS
10
160.4399999999999977
20
-51.9399999999999977
11
160.4328919999999812
21
-97.942892999999998
0
ARC
8
BLACK
10
219.6899999999999977
20
-107.5699999999999932
40
1.
50
-90.00000000
51
-0.00000000
0
LINE
8
BLACK
6
CONTINUOUS
10
200.4971069999999997
20
-127.6071059999999875
11
117.1245830000000012
21
-127.711322999999993
0
ARC
8
BLACK
10
86.1270999999999987
20
-82.0300000000000011
40
0.9999990000245
50
-180.00005730
51
-89.99959893
0
LINE
8
BLACK
6
CONTINUOUS
10
201.4971069999999997
20
-109.557107000000002
11
201.4971069999999997
21
-126.6071059999999875
0
ARC
8
BLACK
10
219.6899999999999977
20
-51.9470999999999989
40
0.9999939999999999
50
-0.00034377
51
90.00000000
0
LINE
8
BLACK
6
CONTINUOUS
10
127.0899999999999892
20
-98.942892999999998
11
159.4328929999999787
21
-98.942892999999998
0
LINE
8
BLACK
6
CONTINUOUS
10
78.9710609999999917
20
-114.5005149999999929
11
78.9771069999999895
21
-50.7071070000000006
0
ARC
8
BLACK
10
77.9710999999999927
20
-114.5005999999999915
40
0.9999610010125395
50
-70.01196383
51
0.00257841
0
LINE
8
BLACK
6
CONTINUOUS
10
220.6899999999999977
20
-51.947105999999998
11
220.6899999999999977
21
-107.5699999999999932
0
LINE
8
BLACK
6
CONTINUOUS
10
86.1542129999999986
20
-59.1871069999999975
11
100.0428999999999888
21
-59.1871069999999975
0
LINE
8
BLACK
6
CONTINUOUS
10
161.4399999999999977
20
-50.9402419999999978
11
219.6899999999999977
21
-50.947105999999998
0
LINE
8
BLACK
6
CONTINUOUS
10
117.1245830000000012
20
-127.711322999999993
11
98.0154519999999962
21
-131.0857330000000047
0
LINE
8
BLACK
6
CONTINUOUS
10
219.6899999999999977
20
-108.562894
11
202.497099999999989
21
-108.557107000000002
0
LINE
8
BLACK
6
CONTINUOUS
10
101.0335079999999977
20
-60.1871069999999975
11
101.0157869999999889
21
-82.0299989999999895
0
LINE
8
BLACK
6
CONTINUOUS
10
79.9771069999999895
20
-49.7128919999999965
11
125.0999999999999943
21
-49.7100069999999974
0
ARC
8
BLACK
10
125.0999999999999943
20
-50.7100000000000009
40
0.9999929999999999
50
-0.00040107
51
90.00000000
0
ARC
8
BLACK
10
202.497099999999989
20
-109.5570999999999913
40
0.9999930000245001
50
-270.00040107
51
-179.99959893
0
LINE
8
BLACK
6
CONTINUOUS
10
126.0999999999999943
20
-50.7100069999999974
11
126.0899999999999892
21
-97.942892999999998
0
ARC
8
BLACK
10
100.0157999999999987
20
-82.0300000000000011
40
0.9999870000005
50
-90.00074485
51
0.00005730
0
LINE
8
BLACK
6
CONTINUOUS
10
97.5120139999999935
20
-131.2206830000000082
11
81.2702669999999898
21
-137.1287509999999941
0
LINE
8
BLACK
6
CONTINUOUS
10
85.1448279999999897
20
-60.1871069999999975
11
85.1271069999999952
21
-82.0300000000000011
0
ARC
8
BLACK
10
98.5374999999999943
20
-134.0398999999999887
40
2.9999346793318682
50
100.02160480
51
109.98879966
0
ARC
8
BLACK
10
161.4399999999999977
20
-51.9399999999999977
40
1.
50
90.00000000
51
180.00000000
0
ARC
8
BLACK
10
200.497099999999989
20
-126.6070999999999884
40
1.0000070000179999
50
-89.99959893
51
-0.00034377
0
ARC
8
BLACK
10
86.154200000000003
20
-60.1870999999999938
40
0.9999870000245002
50
-270.00074485
51
-179.99959892
0
ARC
8
BLACK
10
79.977099999999993
20
-50.707099999999997
40
0.9999930000245001
50
-270.00040107
51
-179.99959893
0
ARC
8
BLACK
10
74.3019000000000034
20
-117.9697999999999922
40
1.0000381985554352
50
-250.00857229
51
-160.01415722
0
ARC
8
BLACK
10
159.4328999999999894
20
-97.9428999999999945
40
0.9999930000245001
50
-90.00040107
51
0.00040107
0
ARC
8
BLACK
10
80.9283999999999963
20
-136.188999999999993
40
1.0000024938418903
50
-160.01061780
51
-70.00938930
0
CIRCLE
8
BLACK
10
159.6999999999999886
20
-124.9199999999999875
40
0.95
0
CIRCLE
8
BLACK
10
163.3599999999999852
20
-91.6599999999999966
40
1.0999999999999999
0
CIRCLE
8
BLACK
10
201.539999999999992
20
-97.519999999999996
40
1.0999999999999999
0
CIRCLE
8
BLACK
10
123.4799999999999898
20
-83.3900000000000006
40
1.0999999999999999
0
CIRCLE
8
BLACK
10
163.2099999999999795
20
-53.3900000000000006
40
1.0999999999999999
0
CIRCLE
8
BLACK
10
109.3799999999999955
20
-107.7099999999999937
40
1.0999999999999999
0
CIRCLE
8
BLACK
10
186.2599999999999909
20
-108.4399999999999977
40
1.0999999999999999
0
CIRCLE
8
BLACK
10
201.4799999999999898
20
-70.6499999999999915
40
1.0999999999999999
0
CIRCLE
8
BLACK
10
159.6899999999999977
20
-108.9299999999999926
40
0.95
0
CIRCLE
8
BLACK
10
123.4899999999999949
20
-63.9099999999999966
40
1.0999999999999999
0
CIRCLE
8
BLACK
10
95.769999999999996
20
-118.9799999999999898
40
1.0999999999999999
  0
ENDSEC
  0
EOF
