%TF.GenerationSoftware,KiCad,Pcbnew,9.0.7*%
%TF.CreationDate,2026-03-11T18:03:42+09:00*%
%TF.ProjectId,NomadBall44_R_Bottom,4e6f6d61-6442-4616-9c6c-34345f525f42,rev?*%
%TF.SameCoordinates,Original*%
%TF.FileFunction,Profile,NP*%
%FSLAX46Y46*%
G04 Gerber Fmt 4.6, Leading zero omitted, Abs format (unit mm)*
G04 Created by KiCad (PCBNEW 9.0.7) date 2026-03-11 18:03:42*
%MOMM*%
%LPD*%
G01*
G04 APERTURE LIST*
%TA.AperFunction,Profile*%
%ADD10C,0.050000*%
%TD*%
%TA.AperFunction,Profile*%
%ADD11C,0.010000*%
%TD*%
G04 APERTURE END LIST*
D10*
X79988666Y-136530838D02*
X73362087Y-118311601D01*
X127090000Y-98942893D02*
G75*
G02*
X126090007Y-97942893I0J999993D01*
G01*
X100015787Y-83029999D02*
X86127100Y-83029999D01*
X100042893Y-59187107D02*
G75*
G02*
X101042893Y-60187107I7J-999993D01*
G01*
X73960000Y-117030000D02*
X78312905Y-115440312D01*
X160440000Y-51940000D02*
X160432892Y-97942893D01*
X220690000Y-107570000D02*
G75*
G02*
X219690000Y-108570000I-1000000J0D01*
G01*
X200497107Y-127607106D02*
X117124583Y-127711323D01*
X86127107Y-83029999D02*
G75*
G02*
X85127101Y-82029999I-7J999999D01*
G01*
X201497107Y-109557107D02*
X201497107Y-126607106D01*
X219690000Y-50947106D02*
G75*
G02*
X220689994Y-51947106I0J-999994D01*
G01*
X127090000Y-98942893D02*
X159432893Y-98942893D01*
X78971061Y-114500515D02*
X78977107Y-50707107D01*
X78971061Y-114500555D02*
G75*
G02*
X78312911Y-115440327I-999961J-45D01*
G01*
X220690000Y-51947106D02*
X220690000Y-107570000D01*
X86154213Y-59187107D02*
X100042900Y-59187107D01*
X161440000Y-50940242D02*
X219690000Y-50947106D01*
X117124583Y-127711323D02*
X98015452Y-131085733D01*
X219690000Y-108562894D02*
X202497100Y-108557107D01*
X101033508Y-60187107D02*
X101015787Y-82029999D01*
X79977107Y-49712892D02*
X125100000Y-49710007D01*
X125100000Y-49710007D02*
G75*
G02*
X126099993Y-50710007I0J-999993D01*
G01*
X201497107Y-109557107D02*
G75*
G02*
X202497107Y-108557107I999993J7D01*
G01*
X126100000Y-50710007D02*
X126090000Y-97942893D01*
X101015787Y-82029999D02*
G75*
G02*
X100015787Y-83029987I-999987J-1D01*
G01*
X97512014Y-131220683D02*
X81270267Y-137128751D01*
X85144828Y-60187107D02*
X85127107Y-82030000D01*
X97512013Y-131220683D02*
G75*
G02*
X98015453Y-131085738I1025487J-2819217D01*
G01*
X160440000Y-51940000D02*
G75*
G02*
X161440000Y-50940000I1000000J0D01*
G01*
X201497107Y-126607106D02*
G75*
G02*
X200497107Y-127607107I-1000007J6D01*
G01*
X85154213Y-60187107D02*
G75*
G02*
X86154213Y-59187113I999987J7D01*
G01*
X78977107Y-50707107D02*
G75*
G02*
X79977107Y-49707107I999993J7D01*
G01*
X73362087Y-118311601D02*
G75*
G02*
X73960007Y-117030020I939813J341801D01*
G01*
X160432893Y-97942893D02*
G75*
G02*
X159432893Y-98942893I-999993J-7D01*
G01*
X81270267Y-137128751D02*
G75*
G02*
X79988642Y-136530847I-341867J939751D01*
G01*
D11*
%TO.C,REF\u002A\u002A*%
X160650000Y-124920000D02*
G75*
G02*
X158750000Y-124920000I-950000J0D01*
G01*
X158750000Y-124920000D02*
G75*
G02*
X160650000Y-124920000I950000J0D01*
G01*
X164460000Y-91660000D02*
G75*
G02*
X162260000Y-91660000I-1100000J0D01*
G01*
X162260000Y-91660000D02*
G75*
G02*
X164460000Y-91660000I1100000J0D01*
G01*
X202640000Y-97520000D02*
G75*
G02*
X200440000Y-97520000I-1100000J0D01*
G01*
X200440000Y-97520000D02*
G75*
G02*
X202640000Y-97520000I1100000J0D01*
G01*
X124580000Y-83390000D02*
G75*
G02*
X122380000Y-83390000I-1100000J0D01*
G01*
X122380000Y-83390000D02*
G75*
G02*
X124580000Y-83390000I1100000J0D01*
G01*
X164310000Y-53390000D02*
G75*
G02*
X162110000Y-53390000I-1100000J0D01*
G01*
X162110000Y-53390000D02*
G75*
G02*
X164310000Y-53390000I1100000J0D01*
G01*
X110480000Y-107710000D02*
G75*
G02*
X108280000Y-107710000I-1100000J0D01*
G01*
X108280000Y-107710000D02*
G75*
G02*
X110480000Y-107710000I1100000J0D01*
G01*
X187360000Y-108440000D02*
G75*
G02*
X185160000Y-108440000I-1100000J0D01*
G01*
X185160000Y-108440000D02*
G75*
G02*
X187360000Y-108440000I1100000J0D01*
G01*
X202580000Y-70650000D02*
G75*
G02*
X200380000Y-70650000I-1100000J0D01*
G01*
X200380000Y-70650000D02*
G75*
G02*
X202580000Y-70650000I1100000J0D01*
G01*
X160640000Y-108930000D02*
G75*
G02*
X158740000Y-108930000I-950000J0D01*
G01*
X158740000Y-108930000D02*
G75*
G02*
X160640000Y-108930000I950000J0D01*
G01*
X124590000Y-63910000D02*
G75*
G02*
X122390000Y-63910000I-1100000J0D01*
G01*
X122390000Y-63910000D02*
G75*
G02*
X124590000Y-63910000I1100000J0D01*
G01*
X96870000Y-118980000D02*
G75*
G02*
X94670000Y-118980000I-1100000J0D01*
G01*
X94670000Y-118980000D02*
G75*
G02*
X96870000Y-118980000I1100000J0D01*
G01*
%TD*%
M02*
