%TF.GenerationSoftware,KiCad,Pcbnew,9.0.7*%
%TF.CreationDate,2026-03-11T18:04:34+09:00*%
%TF.ProjectId,NomadBall44_R_Bottom,4e6f6d61-6442-4616-9c6c-34345f525f42,rev?*%
%TF.SameCoordinates,Original*%
%TF.FileFunction,Drillmap*%
%TF.FilePolarity,Positive*%
%FSLAX45Y45*%
G04 Gerber Fmt 4.5, Leading zero omitted, Abs format (unit mm)*
G04 Created by KiCad (PCBNEW 9.0.7) date 2026-03-11 18:04:34*
%MOMM*%
%LPD*%
G01*
G04 APERTURE LIST*
%ADD10C,0.050000*%
%ADD11C,0.010000*%
%ADD12C,0.200000*%
G04 APERTURE END LIST*
D10*
X7998867Y-13653084D02*
X7336209Y-11831160D01*
X12709000Y-9894289D02*
G75*
G02*
X12609001Y-9794289I0J99999D01*
G01*
X10001579Y-8303000D02*
X8612710Y-8303000D01*
X10004289Y-5918711D02*
G75*
G02*
X10104289Y-6018711I1J-99999D01*
G01*
X7396000Y-11703000D02*
X7831290Y-11544031D01*
X16044000Y-5194000D02*
X16043289Y-9794289D01*
X22069000Y-10757000D02*
G75*
G02*
X21969000Y-10857000I-100000J0D01*
G01*
X20049711Y-12760711D02*
X11712458Y-12771132D01*
X8612711Y-8303000D02*
G75*
G02*
X8512710Y-8203000I-1J100000D01*
G01*
X20149711Y-10955711D02*
X20149711Y-12660711D01*
X21969000Y-5094711D02*
G75*
G02*
X22068999Y-5194711I0J-99999D01*
G01*
X12709000Y-9894289D02*
X15943289Y-9894289D01*
X7897106Y-11450051D02*
X7897711Y-5070711D01*
X7897106Y-11450055D02*
G75*
G02*
X7831291Y-11544033I-99996J-5D01*
G01*
X22069000Y-5194711D02*
X22069000Y-10757000D01*
X8615421Y-5918711D02*
X10004290Y-5918711D01*
X16144000Y-5094024D02*
X21969000Y-5094711D01*
X11712458Y-12771132D02*
X9801545Y-13108573D01*
X21969000Y-10856289D02*
X20249710Y-10855711D01*
X10103351Y-6018711D02*
X10101579Y-8203000D01*
X7997711Y-4971289D02*
X12510000Y-4971001D01*
X12510000Y-4971001D02*
G75*
G02*
X12609999Y-5071001I0J-99999D01*
G01*
X20149711Y-10955711D02*
G75*
G02*
X20249711Y-10855711I99999J1D01*
G01*
X12610000Y-5071001D02*
X12609000Y-9794289D01*
X10101579Y-8203000D02*
G75*
G02*
X10001579Y-8302999I-99999J0D01*
G01*
X9751201Y-13122068D02*
X8127027Y-13712875D01*
X8514483Y-6018711D02*
X8512711Y-8203000D01*
X9751201Y-13122068D02*
G75*
G02*
X9801545Y-13108574I102549J-281922D01*
G01*
X16044000Y-5194000D02*
G75*
G02*
X16144000Y-5094000I100000J0D01*
G01*
X20149711Y-12660711D02*
G75*
G02*
X20049711Y-12760711I-100001J1D01*
G01*
X8515421Y-6018711D02*
G75*
G02*
X8615421Y-5918711I99999J1D01*
G01*
X7897711Y-5070711D02*
G75*
G02*
X7997711Y-4970711I99999J1D01*
G01*
X7336209Y-11831160D02*
G75*
G02*
X7396001Y-11703002I93981J34180D01*
G01*
X16043289Y-9794289D02*
G75*
G02*
X15943289Y-9894289I-99999J-1D01*
G01*
X8127027Y-13712875D02*
G75*
G02*
X7998864Y-13653085I-34187J93975D01*
G01*
D11*
X16065000Y-12492000D02*
G75*
G02*
X15875000Y-12492000I-95000J0D01*
G01*
X15875000Y-12492000D02*
G75*
G02*
X16065000Y-12492000I95000J0D01*
G01*
X16446000Y-9166000D02*
G75*
G02*
X16226000Y-9166000I-110000J0D01*
G01*
X16226000Y-9166000D02*
G75*
G02*
X16446000Y-9166000I110000J0D01*
G01*
X20264000Y-9752000D02*
G75*
G02*
X20044000Y-9752000I-110000J0D01*
G01*
X20044000Y-9752000D02*
G75*
G02*
X20264000Y-9752000I110000J0D01*
G01*
X12458000Y-8339000D02*
G75*
G02*
X12238000Y-8339000I-110000J0D01*
G01*
X12238000Y-8339000D02*
G75*
G02*
X12458000Y-8339000I110000J0D01*
G01*
X16431000Y-5339000D02*
G75*
G02*
X16211000Y-5339000I-110000J0D01*
G01*
X16211000Y-5339000D02*
G75*
G02*
X16431000Y-5339000I110000J0D01*
G01*
X11048000Y-10771000D02*
G75*
G02*
X10828000Y-10771000I-110000J0D01*
G01*
X10828000Y-10771000D02*
G75*
G02*
X11048000Y-10771000I110000J0D01*
G01*
X18736000Y-10844000D02*
G75*
G02*
X18516000Y-10844000I-110000J0D01*
G01*
X18516000Y-10844000D02*
G75*
G02*
X18736000Y-10844000I110000J0D01*
G01*
X20258000Y-7065000D02*
G75*
G02*
X20038000Y-7065000I-110000J0D01*
G01*
X20038000Y-7065000D02*
G75*
G02*
X20258000Y-7065000I110000J0D01*
G01*
X16064000Y-10893000D02*
G75*
G02*
X15874000Y-10893000I-95000J0D01*
G01*
X15874000Y-10893000D02*
G75*
G02*
X16064000Y-10893000I95000J0D01*
G01*
X12459000Y-6391000D02*
G75*
G02*
X12239000Y-6391000I-110000J0D01*
G01*
X12239000Y-6391000D02*
G75*
G02*
X12459000Y-6391000I110000J0D01*
G01*
X9687000Y-11898000D02*
G75*
G02*
X9467000Y-11898000I-110000J0D01*
G01*
X9467000Y-11898000D02*
G75*
G02*
X9687000Y-11898000I110000J0D01*
G01*
D12*
X7588463Y-14032884D02*
X7588463Y-13832884D01*
X7588463Y-13832884D02*
X7636082Y-13832884D01*
X7636082Y-13832884D02*
X7664653Y-13842408D01*
X7664653Y-13842408D02*
X7683701Y-13861455D01*
X7683701Y-13861455D02*
X7693225Y-13880503D01*
X7693225Y-13880503D02*
X7702749Y-13918598D01*
X7702749Y-13918598D02*
X7702749Y-13947170D01*
X7702749Y-13947170D02*
X7693225Y-13985265D01*
X7693225Y-13985265D02*
X7683701Y-14004312D01*
X7683701Y-14004312D02*
X7664653Y-14023360D01*
X7664653Y-14023360D02*
X7636082Y-14032884D01*
X7636082Y-14032884D02*
X7588463Y-14032884D01*
X7788463Y-14032884D02*
X7788463Y-13899551D01*
X7788463Y-13937646D02*
X7797987Y-13918598D01*
X7797987Y-13918598D02*
X7807511Y-13909074D01*
X7807511Y-13909074D02*
X7826558Y-13899551D01*
X7826558Y-13899551D02*
X7845606Y-13899551D01*
X7912272Y-14032884D02*
X7912272Y-13899551D01*
X7912272Y-13832884D02*
X7902749Y-13842408D01*
X7902749Y-13842408D02*
X7912272Y-13851932D01*
X7912272Y-13851932D02*
X7921796Y-13842408D01*
X7921796Y-13842408D02*
X7912272Y-13832884D01*
X7912272Y-13832884D02*
X7912272Y-13851932D01*
X8036082Y-14032884D02*
X8017034Y-14023360D01*
X8017034Y-14023360D02*
X8007511Y-14004312D01*
X8007511Y-14004312D02*
X8007511Y-13832884D01*
X8140844Y-14032884D02*
X8121796Y-14023360D01*
X8121796Y-14023360D02*
X8112272Y-14004312D01*
X8112272Y-14004312D02*
X8112272Y-13832884D01*
X8369415Y-14032884D02*
X8369415Y-13832884D01*
X8369415Y-13832884D02*
X8436082Y-13975741D01*
X8436082Y-13975741D02*
X8502749Y-13832884D01*
X8502749Y-13832884D02*
X8502749Y-14032884D01*
X8683701Y-14032884D02*
X8683701Y-13928122D01*
X8683701Y-13928122D02*
X8674177Y-13909074D01*
X8674177Y-13909074D02*
X8655130Y-13899551D01*
X8655130Y-13899551D02*
X8617034Y-13899551D01*
X8617034Y-13899551D02*
X8597987Y-13909074D01*
X8683701Y-14023360D02*
X8664654Y-14032884D01*
X8664654Y-14032884D02*
X8617034Y-14032884D01*
X8617034Y-14032884D02*
X8597987Y-14023360D01*
X8597987Y-14023360D02*
X8588463Y-14004312D01*
X8588463Y-14004312D02*
X8588463Y-13985265D01*
X8588463Y-13985265D02*
X8597987Y-13966217D01*
X8597987Y-13966217D02*
X8617034Y-13956693D01*
X8617034Y-13956693D02*
X8664654Y-13956693D01*
X8664654Y-13956693D02*
X8683701Y-13947170D01*
X8778939Y-13899551D02*
X8778939Y-14099551D01*
X8778939Y-13909074D02*
X8797987Y-13899551D01*
X8797987Y-13899551D02*
X8836082Y-13899551D01*
X8836082Y-13899551D02*
X8855130Y-13909074D01*
X8855130Y-13909074D02*
X8864654Y-13918598D01*
X8864654Y-13918598D02*
X8874177Y-13937646D01*
X8874177Y-13937646D02*
X8874177Y-13994789D01*
X8874177Y-13994789D02*
X8864654Y-14013836D01*
X8864654Y-14013836D02*
X8855130Y-14023360D01*
X8855130Y-14023360D02*
X8836082Y-14032884D01*
X8836082Y-14032884D02*
X8797987Y-14032884D01*
X8797987Y-14032884D02*
X8778939Y-14023360D01*
X8959892Y-14013836D02*
X8969415Y-14023360D01*
X8969415Y-14023360D02*
X8959892Y-14032884D01*
X8959892Y-14032884D02*
X8950368Y-14023360D01*
X8950368Y-14023360D02*
X8959892Y-14013836D01*
X8959892Y-14013836D02*
X8959892Y-14032884D01*
X8959892Y-13909074D02*
X8969415Y-13918598D01*
X8969415Y-13918598D02*
X8959892Y-13928122D01*
X8959892Y-13928122D02*
X8950368Y-13918598D01*
X8950368Y-13918598D02*
X8959892Y-13909074D01*
X8959892Y-13909074D02*
X8959892Y-13928122D01*
M02*
