  0
SECTION
  2
HEADER
  9
$ANGBASE
  50
0.0
  9
$ANGDIR
  70
1
  9
$MEASUREMENT
  70
1
  0
ENDSEC
  0
SECTION
  2
TABLES
  0
TABLE
  2
LTYPE
  70
4
  0
LTYPE
  5
40F
  2
CONTINUOUS
  70
0
  3
Solid line
  72
65
  73
0
  40
0.0
  0
LTYPE
  5
410
  2
DASHDOT
 70
0
  3
Dash Dot ____ _ ____ _
 72
65
 73
4
 40
2.0
 49
1.25
 49
-0.25
 49
0.25
 49
-0.25
  0
LTYPE
  5
411
  2
DASHED
 70
0
  3
Dashed __ __ __ __ __
 72
65
 73
2
 40
0.75
 49
0.5
 49
-0.25
  0
LTYPE
  5
43B
  2
DOTTED
 70
0
  3
Dotted .  .  .  .
 72
65
 73
2
 40
0.2
 49
0.0
 49
-0.2
  0
ENDTAB
  0
TABLE
  2
STYLE
  70
4
  0
STYLE
  2
KICAD
  70
0
  40
0
  41
1
  42
1
  50
0
  71
0
  3
isocp.shx
  0
STYLE
  2
KICADB
  70
0
  40
0
  41
1
  42
1
  50
0
  71
0
  3
isocp.shx
  0
STYLE
  2
KICADI
  70
0
  40
0
  41
1
  42
1
  50
15
  71
0
  3
isocp.shx
  0
STYLE
  2
KICADBI
  70
0
  40
0
  41
1
  42
1
  50
15
  71
0
  3
isocp.shx
  0
ENDTAB
  0
TABLE
  2
LAYER
  70
1
  0
LAYER
  2
BLACK
  70
0
  62
7
  6
CONTINUOUS
  0
ENDTAB
  0
ENDSEC
  0
SECTION
  2
ENTITIES
0
ARC
8
BLACK
10
254.0741999999999905
20
-74.727099999999993
40
0.9999870000245002
50
-270.00074485
51
-179.99959892
0
LINE
8
BLACK
6
CONTINUOUS
10
280.2447569999999928
20
-131.4699990000000014
11
275.8918519999999717
21
-129.8803110000000061
0
ARC
8
BLACK
10
267.9900000000000091
20
-96.5699999999999932
40
0.9999990000004999
50
-90.00005730
51
0.00005730
0
ARC
8
BLACK
10
273.276299999999992
20
-150.6289999999999907
40
1.0000298286801248
50
-109.98756115
51
-19.98821197
0
LINE
8
BLACK
6
CONTINUOUS
10
275.233696000000009
20
-128.9405140000000074
11
275.2276499999999828
21
-65.1471059999999937
0
ARC
8
BLACK
10
255.6671999999999798
20
-148.4798999999999864
40
2.9999503667975911
50
70.01018382
51
79.97732650
0
LINE
8
BLACK
6
CONTINUOUS
10
274.2160910000000058
20
-150.9708369999999888
11
280.8426699999999983
21
-132.7515999999999963
0
LINE
8
BLACK
6
CONTINUOUS
10
274.2276499999999828
20
-64.1528909999999968
11
249.5559549999999831
21
-64.1528909999999968
0
LINE
8
BLACK
6
CONTINUOUS
10
193.8899999999999864
20
-59.509999999999998
11
193.8673000000000002
21
-117.2626999999999953
0
LINE
8
BLACK
6
CONTINUOUS
10
192.8899999999999864
20
-58.509999999999998
11
172.7699999999999818
21
-58.5190899999999985
0
LINE
8
BLACK
6
CONTINUOUS
10
236.0799999999999841
20
-141.9699999999999989
11
256.1893049999999903
21
-145.525732000000005
0
LINE
8
BLACK
6
CONTINUOUS
10
253.083597999999995
20
-74.7271070000000037
11
253.1013189999999895
21
-96.5699989999999957
0
LINE
8
BLACK
6
CONTINUOUS
10
170.764757000000003
20
-65.3802409999999981
11
132.8871000000000038
21
-65.3871049999999912
0
ARC
8
BLACK
10
132.8871000000000038
20
-66.3871000000000038
40
0.9999930000125
50
-270.00040107
51
-179.99971352
0
LINE
8
BLACK
6
CONTINUOUS
10
132.8871069999999861
20
-123.0099989999999934
11
150.0070999999999799
21
-122.9971059999999881
0
LINE
8
BLACK
6
CONTINUOUS
10
256.6927430000000072
20
-145.66068199999998
11
272.9344899999999825
21
-151.5687499999999943
0
LINE
8
BLACK
6
CONTINUOUS
10
268.9722779999999602
20
-74.7271070000000037
11
268.9899990000000116
21
-96.5699999999999932
0
LINE
8
BLACK
6
CONTINUOUS
10
171.7700009999999793
20
-59.5190899999999985
11
171.764757000000003
21
-64.3709049999999934
0
ARC
8
BLACK
10
274.2276999999999703
20
-65.1470999999999947
40
0.9999940012500075
50
-0.00034379
51
90.00286481
0
ARC
8
BLACK
10
228.4199999999999875
20
-61.1528999999999954
40
1.00000000005
50
90.00000000
51
179.99942704
0
ARC
8
BLACK
10
223.8599999999999852
20
-117.2599999999999909
40
3.5600000000000001
50
-90.00000000
51
-0.00000000
0
ARC
8
BLACK
10
192.8899999999999864
20
-59.509999999999998
40
1.
50
0.00000000
51
90.00000000
0
ARC
8
BLACK
10
254.1012999999999806
20
-96.5699999999999932
40
0.9999990001805001
50
-180.00005730
51
-89.99891138
0
LINE
8
BLACK
6
CONTINUOUS
10
248.5461179999999786
20
-63.1509730000000005
11
248.5499449999999797
21
-61.1548069999999981
0
LINE
8
BLACK
6
CONTINUOUS
10
267.9628930000000082
20
-73.7271070000000037
11
254.0742059999999753
21
-73.7271070000000037
0
ARC
8
BLACK
10
172.7699999999999818
20
-59.5190999999999946
40
1.00000000005
50
90.00000000
51
179.99942704
0
ARC
8
BLACK
10
150.0070999999999799
20
-123.997099999999989
40
0.9999940000245001
50
-0.00034377
51
89.99959893
0
ARC
8
BLACK
10
197.4273000000000025
20
-117.2626999999999953
40
3.5600000000000001
50
-180.00000000
51
-90.00000000
0
ARC
8
BLACK
10
170.7647999999999797
20
-64.3761999999999972
40
0.9999570001620069
50
-90.00246367
51
-0.00103137
0
ARC
8
BLACK
10
276.2336999999999989
20
-128.9405999999999892
40
0.9999584084475713
50
-180.00263560
51
-109.99037117
0
LINE
8
BLACK
6
CONTINUOUS
10
151.0071069999999906
20
-123.9971059999999881
11
151.0071069999999906
21
-141.0471049999999877
0
LINE
8
BLACK
6
CONTINUOUS
10
254.1013189999999895
20
-97.5699989999999957
11
267.9900059999999939
21
-97.5699989999999957
0
ARC
8
BLACK
10
249.5460999999999956
20
-63.1528999999999954
40
0.9999900001280013
50
-180.11041082
51
-89.99908326
0
LINE
8
BLACK
6
CONTINUOUS
10
227.4199999999999875
20
-61.1528899999999993
11
227.4199999999999875
21
-117.2599999999999909
0
LINE
8
BLACK
6
CONTINUOUS
10
223.8599999999999852
20
-120.8199999999999932
11
197.4273000000000025
21
-120.8226999999999975
0
ARC
8
BLACK
10
132.8871000000000038
20
-122.0099999999999909
40
0.9999990000245
50
-180.00005730
51
-89.99959893
0
ARC
8
BLACK
10
267.9628999999999905
20
-74.727099999999993
40
0.9999930000245001
50
-0.00040107
51
90.00040107
0
ARC
8
BLACK
10
247.5498999999999796
20
-61.1528999999999954
40
1.000010001104489
50
-0.10925800
51
89.99730713
0
ARC
8
BLACK
10
152.0070999999999799
20
-141.0471000000000004
40
1.0000050000244998
50
-179.99971352
51
-89.99959893
0
LINE
8
BLACK
6
CONTINUOUS
10
152.0071069999999906
20
-142.0465319999999849
11
170.8829000000000065
21
-142.0528929999999832
0
LINE
8
BLACK
6
CONTINUOUS
10
170.8829000000000065
20
-142.0528929999999832
11
236.0799999999999841
21
-141.9699999999999989
0
ARC
8
BLACK
10
279.9028000000000134
20
-132.40979999999999
40
1.0000802515048479
50
-19.98467281
51
70.00552305
0
LINE
8
BLACK
6
CONTINUOUS
10
131.8871069999999861
20
-66.3871049999999912
11
131.8871069999999861
21
-122.0099989999999934
0
LINE
8
BLACK
6
CONTINUOUS
10
247.5499469999999747
20
-60.1528899999999993
11
228.4199999999999875
21
-60.1528899999999993
0
CIRCLE
8
BLACK
10
230.9399999999999977
20
-119.9199999999999875
40
1.0999999999999999
0
CIRCLE
8
BLACK
10
152.6647569999999803
20
-111.9599989999999963
40
1.0999999999999999
0
CIRCLE
8
BLACK
10
170.2999999999999829
20
-123.4599999999999937
40
1.0999999999999999
0
CIRCLE
8
BLACK
10
230.7147569999999916
20
-78.3499989999999968
40
1.0999999999999999
0
CIRCLE
8
BLACK
10
190.9799999999999898
20
-62.6699999999999946
40
1.0999999999999999
0
CIRCLE
8
BLACK
10
230.7247569999999826
20
-97.8299990000000008
40
1.0999999999999999
0
CIRCLE
8
BLACK
10
190.8447569999999871
20
-111.7399999999999949
40
1.0999999999999999
0
CIRCLE
8
BLACK
10
152.7247569999999826
20
-85.0899989999999917
40
1.0999999999999999
0
CIRCLE
8
BLACK
10
258.4347569999999905
20
-133.41999899999999
40
1.0999999999999999
  0
ENDSEC
  0
EOF
