G04 #@! TF.GenerationSoftware,KiCad,Pcbnew,9.0.7*
G04 #@! TF.CreationDate,2026-03-12T17:10:57+09:00*
G04 #@! TF.ProjectId,NomadBall44_R,4e6f6d61-6442-4616-9c6c-34345f522e6b,rev?*
G04 #@! TF.SameCoordinates,Original*
G04 #@! TF.FileFunction,Soldermask,Bot*
G04 #@! TF.FilePolarity,Negative*
%FSLAX46Y46*%
G04 Gerber Fmt 4.6, Leading zero omitted, Abs format (unit mm)*
G04 Created by KiCad (PCBNEW 9.0.7) date 2026-03-12 17:10:57*
%MOMM*%
%LPD*%
G01*
G04 APERTURE LIST*
G04 Aperture macros list*
%AMRoundRect*
0 Rectangle with rounded corners*
0 $1 Rounding radius*
0 $2 $3 $4 $5 $6 $7 $8 $9 X,Y pos of 4 corners*
0 Add a 4 corners polygon primitive as box body*
4,1,4,$2,$3,$4,$5,$6,$7,$8,$9,$2,$3,0*
0 Add four circle primitives for the rounded corners*
1,1,$1+$1,$2,$3*
1,1,$1+$1,$4,$5*
1,1,$1+$1,$6,$7*
1,1,$1+$1,$8,$9*
0 Add four rect primitives between the rounded corners*
20,1,$1+$1,$2,$3,$4,$5,0*
20,1,$1+$1,$4,$5,$6,$7,0*
20,1,$1+$1,$6,$7,$8,$9,0*
20,1,$1+$1,$8,$9,$2,$3,0*%
%AMRotRect*
0 Rectangle, with rotation*
0 The origin of the aperture is its center*
0 $1 length*
0 $2 width*
0 $3 Rotation angle, in degrees counterclockwise*
0 Add horizontal line*
21,1,$1,$2,0,0,$3*%
G04 Aperture macros list end*
%ADD10C,0.120000*%
%ADD11C,0.100000*%
%ADD12RotRect,1.200000X0.950000X10.000000*%
%ADD13R,1.200000X0.950000*%
%ADD14O,1.000000X1.300000*%
%ADD15C,3.000000*%
%ADD16C,4.800000*%
%ADD17C,1.000000*%
%ADD18R,3.000000X3.500000*%
%ADD19C,4.300000*%
%ADD20R,1.700000X1.700000*%
%ADD21O,1.700000X1.700000*%
%ADD22C,1.500000*%
%ADD23C,1.700000*%
%ADD24C,3.400000*%
%ADD25RotRect,1.200000X0.950000X20.000000*%
%ADD26R,2.000000X2.000000*%
%ADD27C,2.000000*%
%ADD28R,3.000000X2.500000*%
%ADD29RoundRect,0.102000X0.500000X1.750000X-0.500000X1.750000X-0.500000X-1.750000X0.500000X-1.750000X0*%
%ADD30RoundRect,0.102000X0.750000X1.700000X-0.750000X1.700000X-0.750000X-1.700000X0.750000X-1.700000X0*%
G04 APERTURE END LIST*
D10*
X98596224Y-123949624D02*
X98960885Y-126017720D01*
X99192576Y-126179952D02*
X100290637Y-125986334D01*
X99856516Y-123524315D02*
X98758456Y-123717933D01*
X100452869Y-125754643D02*
X100088208Y-123686547D01*
X110318311Y-124116642D02*
X110682972Y-126184738D01*
X110914663Y-126346970D02*
X112012724Y-126153353D01*
X111578604Y-123691333D02*
X110480543Y-123884951D01*
X112174956Y-125921661D02*
X111810295Y-123853565D01*
X98596224Y-123949624D02*
G75*
G02*
X98758456Y-123717933I196962J34729D01*
G01*
X99192576Y-126179952D02*
G75*
G02*
X98960886Y-126017720I-34729J196961D01*
G01*
X99856516Y-123524315D02*
G75*
G02*
X100088208Y-123686547I34729J-196963D01*
G01*
X100452869Y-125754643D02*
G75*
G02*
X100290637Y-125986335I-196963J-34729D01*
G01*
X110318311Y-124116642D02*
G75*
G02*
X110480543Y-123884951I196962J34729D01*
G01*
X110914663Y-126346970D02*
G75*
G02*
X110682973Y-126184738I-34729J196961D01*
G01*
X111578604Y-123691333D02*
G75*
G02*
X111810295Y-123853565I34729J-196962D01*
G01*
X112174956Y-125921661D02*
G75*
G02*
X112012724Y-126153353I-196962J-34730D01*
G01*
D11*
X100088208Y-123686547D02*
X100452869Y-125754643D01*
X100290637Y-125986334D01*
X99192576Y-126179952D01*
X98960885Y-126017720D01*
X98596224Y-123949624D01*
X98758456Y-123717933D01*
X99856516Y-123524315D01*
X100088208Y-123686547D01*
G36*
X100088208Y-123686547D02*
G01*
X100452869Y-125754643D01*
X100290637Y-125986334D01*
X99192576Y-126179952D01*
X98960885Y-126017720D01*
X98596224Y-123949624D01*
X98758456Y-123717933D01*
X99856516Y-123524315D01*
X100088208Y-123686547D01*
G37*
X111810295Y-123853565D02*
X112174956Y-125921661D01*
X112012724Y-126153353D01*
X110914663Y-126346970D01*
X110682972Y-126184738D01*
X110318311Y-124116642D01*
X110480543Y-123884951D01*
X111578604Y-123691333D01*
X111810295Y-123853565D01*
G36*
X111810295Y-123853565D02*
G01*
X112174956Y-125921661D01*
X112012724Y-126153353D01*
X110914663Y-126346970D01*
X110682972Y-126184738D01*
X110318311Y-124116642D01*
X110480543Y-123884951D01*
X111578604Y-123691333D01*
X111810295Y-123853565D01*
G37*
D10*
X79315024Y-130493497D02*
X80033267Y-132466852D01*
X80289609Y-132586386D02*
X81337367Y-132205035D01*
X80482316Y-129855802D02*
X79434559Y-130237154D01*
X81456901Y-131948691D02*
X80738659Y-129975337D01*
X90888029Y-128622459D02*
X91606272Y-130595813D01*
X91862614Y-130715348D02*
X92910371Y-130333995D01*
X92055321Y-127984764D02*
X91007564Y-128366116D01*
X93029906Y-130077653D02*
X92311665Y-128104298D01*
X79315024Y-130493497D02*
G75*
G02*
X79434559Y-130237155I187940J68403D01*
G01*
X80289609Y-132586386D02*
G75*
G02*
X80033267Y-132466852I-68403J187940D01*
G01*
X80482316Y-129855802D02*
G75*
G02*
X80738660Y-129975337I68404J-187940D01*
G01*
X81456901Y-131948691D02*
G75*
G02*
X81337367Y-132205034I-187939J-68404D01*
G01*
X90888029Y-128622459D02*
G75*
G02*
X91007564Y-128366116I187939J68404D01*
G01*
X91862614Y-130715348D02*
G75*
G02*
X91606271Y-130595813I-68404J187939D01*
G01*
X92055321Y-127984764D02*
G75*
G02*
X92311663Y-128104299I68404J-187938D01*
G01*
X93029906Y-130077653D02*
G75*
G02*
X92910371Y-130333996I-187939J-68404D01*
G01*
D11*
X80738659Y-129975337D02*
X81456901Y-131948691D01*
X81337367Y-132205035D01*
X80289609Y-132586386D01*
X80033267Y-132466852D01*
X79315024Y-130493497D01*
X79434559Y-130237154D01*
X80482316Y-129855802D01*
X80738659Y-129975337D01*
G36*
X80738659Y-129975337D02*
G01*
X81456901Y-131948691D01*
X81337367Y-132205035D01*
X80289609Y-132586386D01*
X80033267Y-132466852D01*
X79315024Y-130493497D01*
X79434559Y-130237154D01*
X80482316Y-129855802D01*
X80738659Y-129975337D01*
G37*
X92311665Y-128104298D02*
X93029906Y-130077653D01*
X92910371Y-130333995D01*
X91862614Y-130715348D01*
X91606272Y-130595813D01*
X90888029Y-128622459D01*
X91007564Y-128366116D01*
X92055321Y-127984764D01*
X92311665Y-128104298D01*
G36*
X92311665Y-128104298D02*
G01*
X93029906Y-130077653D01*
X92910371Y-130333995D01*
X91862614Y-130715348D01*
X91606272Y-130595813D01*
X90888029Y-128622459D01*
X91007564Y-128366116D01*
X92055321Y-127984764D01*
X92311665Y-128104298D01*
G37*
D12*
X98312414Y-115979086D03*
X101710000Y-115380000D03*
D13*
X126526563Y-85510000D03*
X129976563Y-85510000D03*
X164896563Y-88130000D03*
X168346563Y-88130000D03*
X203210000Y-74550000D03*
X206660000Y-74550000D03*
X164880000Y-49790000D03*
X168330000Y-49790000D03*
D14*
X81580000Y-86720000D03*
X81580000Y-84220000D03*
X81580000Y-81720000D03*
D15*
X167820000Y-58710000D03*
D16*
X172820000Y-55010000D03*
D15*
X172820000Y-60910000D03*
D17*
X177820000Y-49460000D03*
D18*
X164470000Y-58710000D03*
X176370000Y-60910000D03*
D13*
X107326563Y-49380000D03*
X110776563Y-49380000D03*
D15*
X186920000Y-83500000D03*
D16*
X191920000Y-79800000D03*
D15*
X191920000Y-85700000D03*
D17*
X196920000Y-74250000D03*
D18*
X183570000Y-83500000D03*
X195470000Y-85700000D03*
D19*
X163360000Y-91660000D03*
X201540000Y-97520000D03*
D15*
X167820000Y-97050000D03*
D16*
X172820000Y-93350000D03*
D15*
X172820000Y-99250000D03*
D17*
X177820000Y-87800000D03*
D18*
X164470000Y-97050000D03*
X176370000Y-99250000D03*
D13*
X183976563Y-112770000D03*
X187426563Y-112770000D03*
D19*
X123480000Y-83390000D03*
D13*
X126506563Y-47130000D03*
X129956563Y-47130000D03*
D20*
X175270000Y-109290000D03*
D21*
X175270000Y-111830000D03*
X175270000Y-114370000D03*
X175270000Y-116910000D03*
X175270000Y-119450000D03*
X175270000Y-121990000D03*
X175270000Y-124530000D03*
D15*
X186920000Y-64295000D03*
D16*
X191920000Y-60595000D03*
D15*
X191920000Y-66495000D03*
D17*
X196920000Y-55045000D03*
D18*
X183570000Y-64295000D03*
X195470000Y-66495000D03*
D15*
X206103437Y-102680000D03*
D16*
X211103437Y-98980000D03*
D15*
X211103437Y-104880000D03*
D17*
X216103437Y-93430000D03*
D18*
X202753437Y-102680000D03*
X214653437Y-104880000D03*
D22*
X90865000Y-66335000D03*
X92865000Y-66335000D03*
D15*
X148620000Y-72910000D03*
D16*
X153620000Y-69210000D03*
D15*
X153620000Y-75110000D03*
D17*
X158620000Y-63660000D03*
D18*
X145270000Y-72910000D03*
X157170000Y-75110000D03*
D13*
X184010000Y-55400000D03*
X187460000Y-55400000D03*
X126496563Y-66320000D03*
X129946563Y-66320000D03*
D15*
X148620000Y-92075000D03*
D16*
X153620000Y-88375000D03*
D15*
X153620000Y-94275000D03*
D17*
X158620000Y-82825000D03*
D18*
X145270000Y-92075000D03*
X157170000Y-94275000D03*
D13*
X145696563Y-83160000D03*
X149146563Y-83160000D03*
D23*
X101597655Y-120729510D03*
D15*
X102732557Y-124286475D03*
D24*
X107014098Y-119774445D03*
D15*
X108038622Y-125584811D03*
D23*
X112430541Y-118819380D03*
D13*
X107326563Y-68560000D03*
X110776563Y-68560000D03*
X99376563Y-87930000D03*
X102826563Y-87930000D03*
D19*
X163210000Y-53390000D03*
D15*
X206103437Y-83500000D03*
D16*
X211103437Y-79800000D03*
D15*
X211103437Y-85700000D03*
D17*
X216103437Y-74250000D03*
D18*
X202753437Y-83500000D03*
X214653437Y-85700000D03*
D19*
X186260000Y-108440000D03*
D13*
X184010000Y-74580000D03*
X187460000Y-74580000D03*
D15*
X129430000Y-56060000D03*
D16*
X134430000Y-52360000D03*
D15*
X134430000Y-58260000D03*
D17*
X139430000Y-46810000D03*
D18*
X126080000Y-56060000D03*
X137980000Y-58260000D03*
D15*
X110250625Y-77485000D03*
D16*
X115250625Y-73785000D03*
D15*
X115250625Y-79685000D03*
D17*
X120250625Y-68235000D03*
D18*
X106900625Y-77485000D03*
X118800625Y-79685000D03*
D13*
X183980000Y-93770000D03*
X187430000Y-93770000D03*
D25*
X77645700Y-122699985D03*
X80887639Y-121520016D03*
D26*
X88390000Y-93720000D03*
D27*
X88390000Y-98720000D03*
X88390000Y-96220000D03*
D28*
X95890000Y-90620000D03*
X95890000Y-101820000D03*
D27*
X102890000Y-93720000D03*
X102890000Y-98720000D03*
D19*
X109380000Y-107710000D03*
D15*
X129430000Y-94445000D03*
D16*
X134430000Y-90745000D03*
D15*
X134430000Y-96645000D03*
D17*
X139430000Y-85195000D03*
D18*
X126080000Y-94445000D03*
X137980000Y-96645000D03*
D15*
X206103437Y-64295000D03*
D16*
X211103437Y-60595000D03*
D15*
X211103437Y-66495000D03*
D17*
X216103437Y-55045000D03*
D18*
X202753437Y-64295000D03*
X214653437Y-66495000D03*
D13*
X145696563Y-44790000D03*
X149146563Y-44790000D03*
X164886563Y-68970000D03*
X168336563Y-68970000D03*
D15*
X129430000Y-75250000D03*
D16*
X134430000Y-71550000D03*
D15*
X134430000Y-77450000D03*
D17*
X139430000Y-66000000D03*
D18*
X126080000Y-75250000D03*
X137980000Y-77450000D03*
D23*
X81711691Y-126801111D03*
D15*
X83447011Y-130106962D03*
D24*
X86880000Y-124920000D03*
D15*
X88897919Y-130464186D03*
D23*
X92048309Y-123038889D03*
D13*
X203180000Y-93750000D03*
X206630000Y-93750000D03*
X203200000Y-55350000D03*
X206650000Y-55350000D03*
D19*
X201480000Y-70650000D03*
D15*
X167820000Y-77905000D03*
D16*
X172820000Y-74205000D03*
D15*
X172820000Y-80105000D03*
D17*
X177820000Y-68655000D03*
D18*
X164470000Y-77905000D03*
X176370000Y-80105000D03*
D15*
X186920000Y-121730000D03*
D16*
X191920000Y-118030000D03*
D15*
X191920000Y-123930000D03*
D17*
X196920000Y-112480000D03*
D18*
X183570000Y-121730000D03*
X195470000Y-123930000D03*
D15*
X110250625Y-96675000D03*
D16*
X115250625Y-92975000D03*
D15*
X115250625Y-98875000D03*
D17*
X120250625Y-87425000D03*
D18*
X106900625Y-96675000D03*
X118800625Y-98875000D03*
D13*
X107316563Y-87750000D03*
X110766563Y-87750000D03*
D15*
X110250625Y-58310000D03*
D16*
X115250625Y-54610000D03*
D15*
X115250625Y-60510000D03*
D17*
X120250625Y-49060000D03*
D18*
X106900625Y-58310000D03*
X118800625Y-60510000D03*
D15*
X186920000Y-102680000D03*
D16*
X191920000Y-98980000D03*
D15*
X191920000Y-104880000D03*
D17*
X196920000Y-93430000D03*
D18*
X183570000Y-102680000D03*
X195470000Y-104880000D03*
D15*
X148620000Y-53720000D03*
D16*
X153620000Y-50020000D03*
D15*
X153620000Y-55920000D03*
D17*
X158620000Y-44470000D03*
D18*
X145270000Y-53720000D03*
X157170000Y-55920000D03*
D13*
X145706563Y-63990000D03*
X149156563Y-63990000D03*
D19*
X123490000Y-63910000D03*
X95770000Y-118980000D03*
D29*
X93000000Y-75890000D03*
X91000000Y-75890000D03*
D30*
X88650000Y-70140000D03*
X95350000Y-70140000D03*
M02*
