G04 #@! TF.GenerationSoftware,KiCad,Pcbnew,9.0.7*
G04 #@! TF.CreationDate,2026-03-12T17:10:57+09:00*
G04 #@! TF.ProjectId,NomadBall44_R,4e6f6d61-6442-4616-9c6c-34345f522e6b,rev?*
G04 #@! TF.SameCoordinates,Original*
G04 #@! TF.FileFunction,Legend,Bot*
G04 #@! TF.FilePolarity,Positive*
%FSLAX46Y46*%
G04 Gerber Fmt 4.6, Leading zero omitted, Abs format (unit mm)*
G04 Created by KiCad (PCBNEW 9.0.7) date 2026-03-12 17:10:57*
%MOMM*%
%LPD*%
G01*
G04 APERTURE LIST*
%ADD10C,0.100000*%
%ADD11C,0.150000*%
%ADD12C,0.200000*%
%ADD13C,0.500000*%
%ADD14C,0.120000*%
%ADD15C,0.080000*%
%ADD16C,0.127000*%
G04 APERTURE END LIST*
D10*
X100693245Y-114773452D02*
X100606420Y-114281048D01*
X100606420Y-114281048D02*
X100489181Y-114301720D01*
X100489181Y-114301720D02*
X100422972Y-114337572D01*
X100422972Y-114337572D02*
X100384346Y-114392736D01*
X100384346Y-114392736D02*
X100369167Y-114443766D01*
X100369167Y-114443766D02*
X100362257Y-114541692D01*
X100362257Y-114541692D02*
X100374661Y-114612035D01*
X100374661Y-114612035D02*
X100414646Y-114701692D01*
X100414646Y-114701692D02*
X100446363Y-114744453D01*
X100446363Y-114744453D02*
X100501528Y-114783080D01*
X100501528Y-114783080D02*
X100576006Y-114794124D01*
X100576006Y-114794124D02*
X100693245Y-114773452D01*
X100145733Y-114410633D02*
X100118151Y-114391320D01*
X100118151Y-114391320D02*
X100067121Y-114376141D01*
X100067121Y-114376141D02*
X99949882Y-114396813D01*
X99949882Y-114396813D02*
X99907121Y-114428530D01*
X99907121Y-114428530D02*
X99887807Y-114456112D01*
X99887807Y-114456112D02*
X99872629Y-114507142D01*
X99872629Y-114507142D02*
X99880898Y-114554038D01*
X99880898Y-114554038D02*
X99916749Y-114620247D01*
X99916749Y-114620247D02*
X100247736Y-114852007D01*
X100247736Y-114852007D02*
X99942915Y-114905755D01*
X99551270Y-114467099D02*
X99504374Y-114475368D01*
X99504374Y-114475368D02*
X99461613Y-114507085D01*
X99461613Y-114507085D02*
X99442300Y-114534667D01*
X99442300Y-114534667D02*
X99427121Y-114585698D01*
X99427121Y-114585698D02*
X99420211Y-114683623D01*
X99420211Y-114683623D02*
X99440883Y-114800862D01*
X99440883Y-114800862D02*
X99480869Y-114890519D01*
X99480869Y-114890519D02*
X99512586Y-114933280D01*
X99512586Y-114933280D02*
X99540168Y-114952593D01*
X99540168Y-114952593D02*
X99591198Y-114967772D01*
X99591198Y-114967772D02*
X99638094Y-114959503D01*
X99638094Y-114959503D02*
X99680855Y-114927787D01*
X99680855Y-114927787D02*
X99700168Y-114900204D01*
X99700168Y-114900204D02*
X99715347Y-114849174D01*
X99715347Y-114849174D02*
X99722257Y-114751248D01*
X99722257Y-114751248D02*
X99701585Y-114634009D01*
X99701585Y-114634009D02*
X99661599Y-114544353D01*
X99661599Y-114544353D02*
X99629882Y-114501592D01*
X99629882Y-114501592D02*
X99602300Y-114482278D01*
X99602300Y-114482278D02*
X99551270Y-114467099D01*
X129080580Y-84736109D02*
X129080580Y-84236109D01*
X129080580Y-84236109D02*
X128961532Y-84236109D01*
X128961532Y-84236109D02*
X128890104Y-84259919D01*
X128890104Y-84259919D02*
X128842485Y-84307538D01*
X128842485Y-84307538D02*
X128818675Y-84355157D01*
X128818675Y-84355157D02*
X128794866Y-84450395D01*
X128794866Y-84450395D02*
X128794866Y-84521823D01*
X128794866Y-84521823D02*
X128818675Y-84617061D01*
X128818675Y-84617061D02*
X128842485Y-84664680D01*
X128842485Y-84664680D02*
X128890104Y-84712300D01*
X128890104Y-84712300D02*
X128961532Y-84736109D01*
X128961532Y-84736109D02*
X129080580Y-84736109D01*
X128318675Y-84736109D02*
X128604389Y-84736109D01*
X128461532Y-84736109D02*
X128461532Y-84236109D01*
X128461532Y-84236109D02*
X128509151Y-84307538D01*
X128509151Y-84307538D02*
X128556770Y-84355157D01*
X128556770Y-84355157D02*
X128604389Y-84378966D01*
X127890104Y-84402776D02*
X127890104Y-84736109D01*
X128009152Y-84212300D02*
X128128199Y-84569442D01*
X128128199Y-84569442D02*
X127818676Y-84569442D01*
X167450580Y-87356109D02*
X167450580Y-86856109D01*
X167450580Y-86856109D02*
X167331532Y-86856109D01*
X167331532Y-86856109D02*
X167260104Y-86879919D01*
X167260104Y-86879919D02*
X167212485Y-86927538D01*
X167212485Y-86927538D02*
X167188675Y-86975157D01*
X167188675Y-86975157D02*
X167164866Y-87070395D01*
X167164866Y-87070395D02*
X167164866Y-87141823D01*
X167164866Y-87141823D02*
X167188675Y-87237061D01*
X167188675Y-87237061D02*
X167212485Y-87284680D01*
X167212485Y-87284680D02*
X167260104Y-87332300D01*
X167260104Y-87332300D02*
X167331532Y-87356109D01*
X167331532Y-87356109D02*
X167450580Y-87356109D01*
X166688675Y-87356109D02*
X166974389Y-87356109D01*
X166831532Y-87356109D02*
X166831532Y-86856109D01*
X166831532Y-86856109D02*
X166879151Y-86927538D01*
X166879151Y-86927538D02*
X166926770Y-86975157D01*
X166926770Y-86975157D02*
X166974389Y-86998966D01*
X166260104Y-86856109D02*
X166355342Y-86856109D01*
X166355342Y-86856109D02*
X166402961Y-86879919D01*
X166402961Y-86879919D02*
X166426771Y-86903728D01*
X166426771Y-86903728D02*
X166474390Y-86975157D01*
X166474390Y-86975157D02*
X166498199Y-87070395D01*
X166498199Y-87070395D02*
X166498199Y-87260871D01*
X166498199Y-87260871D02*
X166474390Y-87308490D01*
X166474390Y-87308490D02*
X166450580Y-87332300D01*
X166450580Y-87332300D02*
X166402961Y-87356109D01*
X166402961Y-87356109D02*
X166307723Y-87356109D01*
X166307723Y-87356109D02*
X166260104Y-87332300D01*
X166260104Y-87332300D02*
X166236295Y-87308490D01*
X166236295Y-87308490D02*
X166212485Y-87260871D01*
X166212485Y-87260871D02*
X166212485Y-87141823D01*
X166212485Y-87141823D02*
X166236295Y-87094204D01*
X166236295Y-87094204D02*
X166260104Y-87070395D01*
X166260104Y-87070395D02*
X166307723Y-87046585D01*
X166307723Y-87046585D02*
X166402961Y-87046585D01*
X166402961Y-87046585D02*
X166450580Y-87070395D01*
X166450580Y-87070395D02*
X166474390Y-87094204D01*
X166474390Y-87094204D02*
X166498199Y-87141823D01*
X205764017Y-73776109D02*
X205764017Y-73276109D01*
X205764017Y-73276109D02*
X205644969Y-73276109D01*
X205644969Y-73276109D02*
X205573541Y-73299919D01*
X205573541Y-73299919D02*
X205525922Y-73347538D01*
X205525922Y-73347538D02*
X205502112Y-73395157D01*
X205502112Y-73395157D02*
X205478303Y-73490395D01*
X205478303Y-73490395D02*
X205478303Y-73561823D01*
X205478303Y-73561823D02*
X205502112Y-73657061D01*
X205502112Y-73657061D02*
X205525922Y-73704680D01*
X205525922Y-73704680D02*
X205573541Y-73752300D01*
X205573541Y-73752300D02*
X205644969Y-73776109D01*
X205644969Y-73776109D02*
X205764017Y-73776109D01*
X205002112Y-73776109D02*
X205287826Y-73776109D01*
X205144969Y-73776109D02*
X205144969Y-73276109D01*
X205144969Y-73276109D02*
X205192588Y-73347538D01*
X205192588Y-73347538D02*
X205240207Y-73395157D01*
X205240207Y-73395157D02*
X205287826Y-73418966D01*
X204811636Y-73323728D02*
X204787827Y-73299919D01*
X204787827Y-73299919D02*
X204740208Y-73276109D01*
X204740208Y-73276109D02*
X204621160Y-73276109D01*
X204621160Y-73276109D02*
X204573541Y-73299919D01*
X204573541Y-73299919D02*
X204549732Y-73323728D01*
X204549732Y-73323728D02*
X204525922Y-73371347D01*
X204525922Y-73371347D02*
X204525922Y-73418966D01*
X204525922Y-73418966D02*
X204549732Y-73490395D01*
X204549732Y-73490395D02*
X204835446Y-73776109D01*
X204835446Y-73776109D02*
X204525922Y-73776109D01*
X167195922Y-49016109D02*
X167195922Y-48516109D01*
X167195922Y-48516109D02*
X167076874Y-48516109D01*
X167076874Y-48516109D02*
X167005446Y-48539919D01*
X167005446Y-48539919D02*
X166957827Y-48587538D01*
X166957827Y-48587538D02*
X166934017Y-48635157D01*
X166934017Y-48635157D02*
X166910208Y-48730395D01*
X166910208Y-48730395D02*
X166910208Y-48801823D01*
X166910208Y-48801823D02*
X166934017Y-48897061D01*
X166934017Y-48897061D02*
X166957827Y-48944680D01*
X166957827Y-48944680D02*
X167005446Y-48992300D01*
X167005446Y-48992300D02*
X167076874Y-49016109D01*
X167076874Y-49016109D02*
X167195922Y-49016109D01*
X166481636Y-48682776D02*
X166481636Y-49016109D01*
X166600684Y-48492300D02*
X166719731Y-48849442D01*
X166719731Y-48849442D02*
X166410208Y-48849442D01*
D11*
X174670832Y-49917200D02*
X174527975Y-49964819D01*
X174527975Y-49964819D02*
X174289880Y-49964819D01*
X174289880Y-49964819D02*
X174194642Y-49917200D01*
X174194642Y-49917200D02*
X174147023Y-49869580D01*
X174147023Y-49869580D02*
X174099404Y-49774342D01*
X174099404Y-49774342D02*
X174099404Y-49679104D01*
X174099404Y-49679104D02*
X174147023Y-49583866D01*
X174147023Y-49583866D02*
X174194642Y-49536247D01*
X174194642Y-49536247D02*
X174289880Y-49488628D01*
X174289880Y-49488628D02*
X174480356Y-49441009D01*
X174480356Y-49441009D02*
X174575594Y-49393390D01*
X174575594Y-49393390D02*
X174623213Y-49345771D01*
X174623213Y-49345771D02*
X174670832Y-49250533D01*
X174670832Y-49250533D02*
X174670832Y-49155295D01*
X174670832Y-49155295D02*
X174623213Y-49060057D01*
X174623213Y-49060057D02*
X174575594Y-49012438D01*
X174575594Y-49012438D02*
X174480356Y-48964819D01*
X174480356Y-48964819D02*
X174242261Y-48964819D01*
X174242261Y-48964819D02*
X174099404Y-49012438D01*
X173766070Y-48964819D02*
X173527975Y-49964819D01*
X173527975Y-49964819D02*
X173337499Y-49250533D01*
X173337499Y-49250533D02*
X173147023Y-49964819D01*
X173147023Y-49964819D02*
X172908928Y-48964819D01*
X172099404Y-49298152D02*
X172099404Y-49964819D01*
X172337499Y-48917200D02*
X172575594Y-49631485D01*
X172575594Y-49631485D02*
X171956547Y-49631485D01*
D10*
X109642485Y-48606109D02*
X109642485Y-48106109D01*
X109642485Y-48106109D02*
X109523437Y-48106109D01*
X109523437Y-48106109D02*
X109452009Y-48129919D01*
X109452009Y-48129919D02*
X109404390Y-48177538D01*
X109404390Y-48177538D02*
X109380580Y-48225157D01*
X109380580Y-48225157D02*
X109356771Y-48320395D01*
X109356771Y-48320395D02*
X109356771Y-48391823D01*
X109356771Y-48391823D02*
X109380580Y-48487061D01*
X109380580Y-48487061D02*
X109404390Y-48534680D01*
X109404390Y-48534680D02*
X109452009Y-48582300D01*
X109452009Y-48582300D02*
X109523437Y-48606109D01*
X109523437Y-48606109D02*
X109642485Y-48606109D01*
X108880580Y-48606109D02*
X109166294Y-48606109D01*
X109023437Y-48606109D02*
X109023437Y-48106109D01*
X109023437Y-48106109D02*
X109071056Y-48177538D01*
X109071056Y-48177538D02*
X109118675Y-48225157D01*
X109118675Y-48225157D02*
X109166294Y-48248966D01*
D11*
X194209523Y-74707200D02*
X194066666Y-74754819D01*
X194066666Y-74754819D02*
X193828571Y-74754819D01*
X193828571Y-74754819D02*
X193733333Y-74707200D01*
X193733333Y-74707200D02*
X193685714Y-74659580D01*
X193685714Y-74659580D02*
X193638095Y-74564342D01*
X193638095Y-74564342D02*
X193638095Y-74469104D01*
X193638095Y-74469104D02*
X193685714Y-74373866D01*
X193685714Y-74373866D02*
X193733333Y-74326247D01*
X193733333Y-74326247D02*
X193828571Y-74278628D01*
X193828571Y-74278628D02*
X194019047Y-74231009D01*
X194019047Y-74231009D02*
X194114285Y-74183390D01*
X194114285Y-74183390D02*
X194161904Y-74135771D01*
X194161904Y-74135771D02*
X194209523Y-74040533D01*
X194209523Y-74040533D02*
X194209523Y-73945295D01*
X194209523Y-73945295D02*
X194161904Y-73850057D01*
X194161904Y-73850057D02*
X194114285Y-73802438D01*
X194114285Y-73802438D02*
X194019047Y-73754819D01*
X194019047Y-73754819D02*
X193780952Y-73754819D01*
X193780952Y-73754819D02*
X193638095Y-73802438D01*
X193304761Y-73754819D02*
X193066666Y-74754819D01*
X193066666Y-74754819D02*
X192876190Y-74040533D01*
X192876190Y-74040533D02*
X192685714Y-74754819D01*
X192685714Y-74754819D02*
X192447619Y-73754819D01*
X191542857Y-74754819D02*
X192114285Y-74754819D01*
X191828571Y-74754819D02*
X191828571Y-73754819D01*
X191828571Y-73754819D02*
X191923809Y-73897676D01*
X191923809Y-73897676D02*
X192019047Y-73992914D01*
X192019047Y-73992914D02*
X192114285Y-74040533D01*
X190590476Y-74754819D02*
X191161904Y-74754819D01*
X190876190Y-74754819D02*
X190876190Y-73754819D01*
X190876190Y-73754819D02*
X190971428Y-73897676D01*
X190971428Y-73897676D02*
X191066666Y-73992914D01*
X191066666Y-73992914D02*
X191161904Y-74040533D01*
X175127023Y-88257200D02*
X174984166Y-88304819D01*
X174984166Y-88304819D02*
X174746071Y-88304819D01*
X174746071Y-88304819D02*
X174650833Y-88257200D01*
X174650833Y-88257200D02*
X174603214Y-88209580D01*
X174603214Y-88209580D02*
X174555595Y-88114342D01*
X174555595Y-88114342D02*
X174555595Y-88019104D01*
X174555595Y-88019104D02*
X174603214Y-87923866D01*
X174603214Y-87923866D02*
X174650833Y-87876247D01*
X174650833Y-87876247D02*
X174746071Y-87828628D01*
X174746071Y-87828628D02*
X174936547Y-87781009D01*
X174936547Y-87781009D02*
X175031785Y-87733390D01*
X175031785Y-87733390D02*
X175079404Y-87685771D01*
X175079404Y-87685771D02*
X175127023Y-87590533D01*
X175127023Y-87590533D02*
X175127023Y-87495295D01*
X175127023Y-87495295D02*
X175079404Y-87400057D01*
X175079404Y-87400057D02*
X175031785Y-87352438D01*
X175031785Y-87352438D02*
X174936547Y-87304819D01*
X174936547Y-87304819D02*
X174698452Y-87304819D01*
X174698452Y-87304819D02*
X174555595Y-87352438D01*
X174222261Y-87304819D02*
X173984166Y-88304819D01*
X173984166Y-88304819D02*
X173793690Y-87590533D01*
X173793690Y-87590533D02*
X173603214Y-88304819D01*
X173603214Y-88304819D02*
X173365119Y-87304819D01*
X172460357Y-88304819D02*
X173031785Y-88304819D01*
X172746071Y-88304819D02*
X172746071Y-87304819D01*
X172746071Y-87304819D02*
X172841309Y-87447676D01*
X172841309Y-87447676D02*
X172936547Y-87542914D01*
X172936547Y-87542914D02*
X173031785Y-87590533D01*
X171603214Y-87304819D02*
X171793690Y-87304819D01*
X171793690Y-87304819D02*
X171888928Y-87352438D01*
X171888928Y-87352438D02*
X171936547Y-87400057D01*
X171936547Y-87400057D02*
X172031785Y-87542914D01*
X172031785Y-87542914D02*
X172079404Y-87733390D01*
X172079404Y-87733390D02*
X172079404Y-88114342D01*
X172079404Y-88114342D02*
X172031785Y-88209580D01*
X172031785Y-88209580D02*
X171984166Y-88257200D01*
X171984166Y-88257200D02*
X171888928Y-88304819D01*
X171888928Y-88304819D02*
X171698452Y-88304819D01*
X171698452Y-88304819D02*
X171603214Y-88257200D01*
X171603214Y-88257200D02*
X171555595Y-88209580D01*
X171555595Y-88209580D02*
X171507976Y-88114342D01*
X171507976Y-88114342D02*
X171507976Y-87876247D01*
X171507976Y-87876247D02*
X171555595Y-87781009D01*
X171555595Y-87781009D02*
X171603214Y-87733390D01*
X171603214Y-87733390D02*
X171698452Y-87685771D01*
X171698452Y-87685771D02*
X171888928Y-87685771D01*
X171888928Y-87685771D02*
X171984166Y-87733390D01*
X171984166Y-87733390D02*
X172031785Y-87781009D01*
X172031785Y-87781009D02*
X172079404Y-87876247D01*
D10*
X186530580Y-111996109D02*
X186530580Y-111496109D01*
X186530580Y-111496109D02*
X186411532Y-111496109D01*
X186411532Y-111496109D02*
X186340104Y-111519919D01*
X186340104Y-111519919D02*
X186292485Y-111567538D01*
X186292485Y-111567538D02*
X186268675Y-111615157D01*
X186268675Y-111615157D02*
X186244866Y-111710395D01*
X186244866Y-111710395D02*
X186244866Y-111781823D01*
X186244866Y-111781823D02*
X186268675Y-111877061D01*
X186268675Y-111877061D02*
X186292485Y-111924680D01*
X186292485Y-111924680D02*
X186340104Y-111972300D01*
X186340104Y-111972300D02*
X186411532Y-111996109D01*
X186411532Y-111996109D02*
X186530580Y-111996109D01*
X186054389Y-111543728D02*
X186030580Y-111519919D01*
X186030580Y-111519919D02*
X185982961Y-111496109D01*
X185982961Y-111496109D02*
X185863913Y-111496109D01*
X185863913Y-111496109D02*
X185816294Y-111519919D01*
X185816294Y-111519919D02*
X185792485Y-111543728D01*
X185792485Y-111543728D02*
X185768675Y-111591347D01*
X185768675Y-111591347D02*
X185768675Y-111638966D01*
X185768675Y-111638966D02*
X185792485Y-111710395D01*
X185792485Y-111710395D02*
X186078199Y-111996109D01*
X186078199Y-111996109D02*
X185768675Y-111996109D01*
X185578199Y-111543728D02*
X185554390Y-111519919D01*
X185554390Y-111519919D02*
X185506771Y-111496109D01*
X185506771Y-111496109D02*
X185387723Y-111496109D01*
X185387723Y-111496109D02*
X185340104Y-111519919D01*
X185340104Y-111519919D02*
X185316295Y-111543728D01*
X185316295Y-111543728D02*
X185292485Y-111591347D01*
X185292485Y-111591347D02*
X185292485Y-111638966D01*
X185292485Y-111638966D02*
X185316295Y-111710395D01*
X185316295Y-111710395D02*
X185602009Y-111996109D01*
X185602009Y-111996109D02*
X185292485Y-111996109D01*
X128822485Y-46356109D02*
X128822485Y-45856109D01*
X128822485Y-45856109D02*
X128703437Y-45856109D01*
X128703437Y-45856109D02*
X128632009Y-45879919D01*
X128632009Y-45879919D02*
X128584390Y-45927538D01*
X128584390Y-45927538D02*
X128560580Y-45975157D01*
X128560580Y-45975157D02*
X128536771Y-46070395D01*
X128536771Y-46070395D02*
X128536771Y-46141823D01*
X128536771Y-46141823D02*
X128560580Y-46237061D01*
X128560580Y-46237061D02*
X128584390Y-46284680D01*
X128584390Y-46284680D02*
X128632009Y-46332300D01*
X128632009Y-46332300D02*
X128703437Y-46356109D01*
X128703437Y-46356109D02*
X128822485Y-46356109D01*
X128346294Y-45903728D02*
X128322485Y-45879919D01*
X128322485Y-45879919D02*
X128274866Y-45856109D01*
X128274866Y-45856109D02*
X128155818Y-45856109D01*
X128155818Y-45856109D02*
X128108199Y-45879919D01*
X128108199Y-45879919D02*
X128084390Y-45903728D01*
X128084390Y-45903728D02*
X128060580Y-45951347D01*
X128060580Y-45951347D02*
X128060580Y-45998966D01*
X128060580Y-45998966D02*
X128084390Y-46070395D01*
X128084390Y-46070395D02*
X128370104Y-46356109D01*
X128370104Y-46356109D02*
X128060580Y-46356109D01*
D11*
X193733332Y-55502200D02*
X193590475Y-55549819D01*
X193590475Y-55549819D02*
X193352380Y-55549819D01*
X193352380Y-55549819D02*
X193257142Y-55502200D01*
X193257142Y-55502200D02*
X193209523Y-55454580D01*
X193209523Y-55454580D02*
X193161904Y-55359342D01*
X193161904Y-55359342D02*
X193161904Y-55264104D01*
X193161904Y-55264104D02*
X193209523Y-55168866D01*
X193209523Y-55168866D02*
X193257142Y-55121247D01*
X193257142Y-55121247D02*
X193352380Y-55073628D01*
X193352380Y-55073628D02*
X193542856Y-55026009D01*
X193542856Y-55026009D02*
X193638094Y-54978390D01*
X193638094Y-54978390D02*
X193685713Y-54930771D01*
X193685713Y-54930771D02*
X193733332Y-54835533D01*
X193733332Y-54835533D02*
X193733332Y-54740295D01*
X193733332Y-54740295D02*
X193685713Y-54645057D01*
X193685713Y-54645057D02*
X193638094Y-54597438D01*
X193638094Y-54597438D02*
X193542856Y-54549819D01*
X193542856Y-54549819D02*
X193304761Y-54549819D01*
X193304761Y-54549819D02*
X193161904Y-54597438D01*
X192828570Y-54549819D02*
X192590475Y-55549819D01*
X192590475Y-55549819D02*
X192399999Y-54835533D01*
X192399999Y-54835533D02*
X192209523Y-55549819D01*
X192209523Y-55549819D02*
X191971428Y-54549819D01*
X191114285Y-54549819D02*
X191590475Y-54549819D01*
X191590475Y-54549819D02*
X191638094Y-55026009D01*
X191638094Y-55026009D02*
X191590475Y-54978390D01*
X191590475Y-54978390D02*
X191495237Y-54930771D01*
X191495237Y-54930771D02*
X191257142Y-54930771D01*
X191257142Y-54930771D02*
X191161904Y-54978390D01*
X191161904Y-54978390D02*
X191114285Y-55026009D01*
X191114285Y-55026009D02*
X191066666Y-55121247D01*
X191066666Y-55121247D02*
X191066666Y-55359342D01*
X191066666Y-55359342D02*
X191114285Y-55454580D01*
X191114285Y-55454580D02*
X191161904Y-55502200D01*
X191161904Y-55502200D02*
X191257142Y-55549819D01*
X191257142Y-55549819D02*
X191495237Y-55549819D01*
X191495237Y-55549819D02*
X191590475Y-55502200D01*
X191590475Y-55502200D02*
X191638094Y-55454580D01*
X213412960Y-93887200D02*
X213270103Y-93934819D01*
X213270103Y-93934819D02*
X213032008Y-93934819D01*
X213032008Y-93934819D02*
X212936770Y-93887200D01*
X212936770Y-93887200D02*
X212889151Y-93839580D01*
X212889151Y-93839580D02*
X212841532Y-93744342D01*
X212841532Y-93744342D02*
X212841532Y-93649104D01*
X212841532Y-93649104D02*
X212889151Y-93553866D01*
X212889151Y-93553866D02*
X212936770Y-93506247D01*
X212936770Y-93506247D02*
X213032008Y-93458628D01*
X213032008Y-93458628D02*
X213222484Y-93411009D01*
X213222484Y-93411009D02*
X213317722Y-93363390D01*
X213317722Y-93363390D02*
X213365341Y-93315771D01*
X213365341Y-93315771D02*
X213412960Y-93220533D01*
X213412960Y-93220533D02*
X213412960Y-93125295D01*
X213412960Y-93125295D02*
X213365341Y-93030057D01*
X213365341Y-93030057D02*
X213317722Y-92982438D01*
X213317722Y-92982438D02*
X213222484Y-92934819D01*
X213222484Y-92934819D02*
X212984389Y-92934819D01*
X212984389Y-92934819D02*
X212841532Y-92982438D01*
X212508198Y-92934819D02*
X212270103Y-93934819D01*
X212270103Y-93934819D02*
X212079627Y-93220533D01*
X212079627Y-93220533D02*
X211889151Y-93934819D01*
X211889151Y-93934819D02*
X211651056Y-92934819D01*
X210746294Y-93934819D02*
X211317722Y-93934819D01*
X211032008Y-93934819D02*
X211032008Y-92934819D01*
X211032008Y-92934819D02*
X211127246Y-93077676D01*
X211127246Y-93077676D02*
X211222484Y-93172914D01*
X211222484Y-93172914D02*
X211317722Y-93220533D01*
X210174865Y-93363390D02*
X210270103Y-93315771D01*
X210270103Y-93315771D02*
X210317722Y-93268152D01*
X210317722Y-93268152D02*
X210365341Y-93172914D01*
X210365341Y-93172914D02*
X210365341Y-93125295D01*
X210365341Y-93125295D02*
X210317722Y-93030057D01*
X210317722Y-93030057D02*
X210270103Y-92982438D01*
X210270103Y-92982438D02*
X210174865Y-92934819D01*
X210174865Y-92934819D02*
X209984389Y-92934819D01*
X209984389Y-92934819D02*
X209889151Y-92982438D01*
X209889151Y-92982438D02*
X209841532Y-93030057D01*
X209841532Y-93030057D02*
X209793913Y-93125295D01*
X209793913Y-93125295D02*
X209793913Y-93172914D01*
X209793913Y-93172914D02*
X209841532Y-93268152D01*
X209841532Y-93268152D02*
X209889151Y-93315771D01*
X209889151Y-93315771D02*
X209984389Y-93363390D01*
X209984389Y-93363390D02*
X210174865Y-93363390D01*
X210174865Y-93363390D02*
X210270103Y-93411009D01*
X210270103Y-93411009D02*
X210317722Y-93458628D01*
X210317722Y-93458628D02*
X210365341Y-93553866D01*
X210365341Y-93553866D02*
X210365341Y-93744342D01*
X210365341Y-93744342D02*
X210317722Y-93839580D01*
X210317722Y-93839580D02*
X210270103Y-93887200D01*
X210270103Y-93887200D02*
X210174865Y-93934819D01*
X210174865Y-93934819D02*
X209984389Y-93934819D01*
X209984389Y-93934819D02*
X209889151Y-93887200D01*
X209889151Y-93887200D02*
X209841532Y-93839580D01*
X209841532Y-93839580D02*
X209793913Y-93744342D01*
X209793913Y-93744342D02*
X209793913Y-93553866D01*
X209793913Y-93553866D02*
X209841532Y-93458628D01*
X209841532Y-93458628D02*
X209889151Y-93411009D01*
X209889151Y-93411009D02*
X209984389Y-93363390D01*
X155453332Y-64117200D02*
X155310475Y-64164819D01*
X155310475Y-64164819D02*
X155072380Y-64164819D01*
X155072380Y-64164819D02*
X154977142Y-64117200D01*
X154977142Y-64117200D02*
X154929523Y-64069580D01*
X154929523Y-64069580D02*
X154881904Y-63974342D01*
X154881904Y-63974342D02*
X154881904Y-63879104D01*
X154881904Y-63879104D02*
X154929523Y-63783866D01*
X154929523Y-63783866D02*
X154977142Y-63736247D01*
X154977142Y-63736247D02*
X155072380Y-63688628D01*
X155072380Y-63688628D02*
X155262856Y-63641009D01*
X155262856Y-63641009D02*
X155358094Y-63593390D01*
X155358094Y-63593390D02*
X155405713Y-63545771D01*
X155405713Y-63545771D02*
X155453332Y-63450533D01*
X155453332Y-63450533D02*
X155453332Y-63355295D01*
X155453332Y-63355295D02*
X155405713Y-63260057D01*
X155405713Y-63260057D02*
X155358094Y-63212438D01*
X155358094Y-63212438D02*
X155262856Y-63164819D01*
X155262856Y-63164819D02*
X155024761Y-63164819D01*
X155024761Y-63164819D02*
X154881904Y-63212438D01*
X154548570Y-63164819D02*
X154310475Y-64164819D01*
X154310475Y-64164819D02*
X154119999Y-63450533D01*
X154119999Y-63450533D02*
X153929523Y-64164819D01*
X153929523Y-64164819D02*
X153691428Y-63164819D01*
X153262856Y-64164819D02*
X153072380Y-64164819D01*
X153072380Y-64164819D02*
X152977142Y-64117200D01*
X152977142Y-64117200D02*
X152929523Y-64069580D01*
X152929523Y-64069580D02*
X152834285Y-63926723D01*
X152834285Y-63926723D02*
X152786666Y-63736247D01*
X152786666Y-63736247D02*
X152786666Y-63355295D01*
X152786666Y-63355295D02*
X152834285Y-63260057D01*
X152834285Y-63260057D02*
X152881904Y-63212438D01*
X152881904Y-63212438D02*
X152977142Y-63164819D01*
X152977142Y-63164819D02*
X153167618Y-63164819D01*
X153167618Y-63164819D02*
X153262856Y-63212438D01*
X153262856Y-63212438D02*
X153310475Y-63260057D01*
X153310475Y-63260057D02*
X153358094Y-63355295D01*
X153358094Y-63355295D02*
X153358094Y-63593390D01*
X153358094Y-63593390D02*
X153310475Y-63688628D01*
X153310475Y-63688628D02*
X153262856Y-63736247D01*
X153262856Y-63736247D02*
X153167618Y-63783866D01*
X153167618Y-63783866D02*
X152977142Y-63783866D01*
X152977142Y-63783866D02*
X152881904Y-63736247D01*
X152881904Y-63736247D02*
X152834285Y-63688628D01*
X152834285Y-63688628D02*
X152786666Y-63593390D01*
D10*
X186325922Y-54626109D02*
X186325922Y-54126109D01*
X186325922Y-54126109D02*
X186206874Y-54126109D01*
X186206874Y-54126109D02*
X186135446Y-54149919D01*
X186135446Y-54149919D02*
X186087827Y-54197538D01*
X186087827Y-54197538D02*
X186064017Y-54245157D01*
X186064017Y-54245157D02*
X186040208Y-54340395D01*
X186040208Y-54340395D02*
X186040208Y-54411823D01*
X186040208Y-54411823D02*
X186064017Y-54507061D01*
X186064017Y-54507061D02*
X186087827Y-54554680D01*
X186087827Y-54554680D02*
X186135446Y-54602300D01*
X186135446Y-54602300D02*
X186206874Y-54626109D01*
X186206874Y-54626109D02*
X186325922Y-54626109D01*
X185587827Y-54126109D02*
X185825922Y-54126109D01*
X185825922Y-54126109D02*
X185849731Y-54364204D01*
X185849731Y-54364204D02*
X185825922Y-54340395D01*
X185825922Y-54340395D02*
X185778303Y-54316585D01*
X185778303Y-54316585D02*
X185659255Y-54316585D01*
X185659255Y-54316585D02*
X185611636Y-54340395D01*
X185611636Y-54340395D02*
X185587827Y-54364204D01*
X185587827Y-54364204D02*
X185564017Y-54411823D01*
X185564017Y-54411823D02*
X185564017Y-54530871D01*
X185564017Y-54530871D02*
X185587827Y-54578490D01*
X185587827Y-54578490D02*
X185611636Y-54602300D01*
X185611636Y-54602300D02*
X185659255Y-54626109D01*
X185659255Y-54626109D02*
X185778303Y-54626109D01*
X185778303Y-54626109D02*
X185825922Y-54602300D01*
X185825922Y-54602300D02*
X185849731Y-54578490D01*
X128812485Y-65546109D02*
X128812485Y-65046109D01*
X128812485Y-65046109D02*
X128693437Y-65046109D01*
X128693437Y-65046109D02*
X128622009Y-65069919D01*
X128622009Y-65069919D02*
X128574390Y-65117538D01*
X128574390Y-65117538D02*
X128550580Y-65165157D01*
X128550580Y-65165157D02*
X128526771Y-65260395D01*
X128526771Y-65260395D02*
X128526771Y-65331823D01*
X128526771Y-65331823D02*
X128550580Y-65427061D01*
X128550580Y-65427061D02*
X128574390Y-65474680D01*
X128574390Y-65474680D02*
X128622009Y-65522300D01*
X128622009Y-65522300D02*
X128693437Y-65546109D01*
X128693437Y-65546109D02*
X128812485Y-65546109D01*
X128241056Y-65260395D02*
X128288675Y-65236585D01*
X128288675Y-65236585D02*
X128312485Y-65212776D01*
X128312485Y-65212776D02*
X128336294Y-65165157D01*
X128336294Y-65165157D02*
X128336294Y-65141347D01*
X128336294Y-65141347D02*
X128312485Y-65093728D01*
X128312485Y-65093728D02*
X128288675Y-65069919D01*
X128288675Y-65069919D02*
X128241056Y-65046109D01*
X128241056Y-65046109D02*
X128145818Y-65046109D01*
X128145818Y-65046109D02*
X128098199Y-65069919D01*
X128098199Y-65069919D02*
X128074390Y-65093728D01*
X128074390Y-65093728D02*
X128050580Y-65141347D01*
X128050580Y-65141347D02*
X128050580Y-65165157D01*
X128050580Y-65165157D02*
X128074390Y-65212776D01*
X128074390Y-65212776D02*
X128098199Y-65236585D01*
X128098199Y-65236585D02*
X128145818Y-65260395D01*
X128145818Y-65260395D02*
X128241056Y-65260395D01*
X128241056Y-65260395D02*
X128288675Y-65284204D01*
X128288675Y-65284204D02*
X128312485Y-65308014D01*
X128312485Y-65308014D02*
X128336294Y-65355633D01*
X128336294Y-65355633D02*
X128336294Y-65450871D01*
X128336294Y-65450871D02*
X128312485Y-65498490D01*
X128312485Y-65498490D02*
X128288675Y-65522300D01*
X128288675Y-65522300D02*
X128241056Y-65546109D01*
X128241056Y-65546109D02*
X128145818Y-65546109D01*
X128145818Y-65546109D02*
X128098199Y-65522300D01*
X128098199Y-65522300D02*
X128074390Y-65498490D01*
X128074390Y-65498490D02*
X128050580Y-65450871D01*
X128050580Y-65450871D02*
X128050580Y-65355633D01*
X128050580Y-65355633D02*
X128074390Y-65308014D01*
X128074390Y-65308014D02*
X128098199Y-65284204D01*
X128098199Y-65284204D02*
X128145818Y-65260395D01*
D11*
X155929523Y-83282200D02*
X155786666Y-83329819D01*
X155786666Y-83329819D02*
X155548571Y-83329819D01*
X155548571Y-83329819D02*
X155453333Y-83282200D01*
X155453333Y-83282200D02*
X155405714Y-83234580D01*
X155405714Y-83234580D02*
X155358095Y-83139342D01*
X155358095Y-83139342D02*
X155358095Y-83044104D01*
X155358095Y-83044104D02*
X155405714Y-82948866D01*
X155405714Y-82948866D02*
X155453333Y-82901247D01*
X155453333Y-82901247D02*
X155548571Y-82853628D01*
X155548571Y-82853628D02*
X155739047Y-82806009D01*
X155739047Y-82806009D02*
X155834285Y-82758390D01*
X155834285Y-82758390D02*
X155881904Y-82710771D01*
X155881904Y-82710771D02*
X155929523Y-82615533D01*
X155929523Y-82615533D02*
X155929523Y-82520295D01*
X155929523Y-82520295D02*
X155881904Y-82425057D01*
X155881904Y-82425057D02*
X155834285Y-82377438D01*
X155834285Y-82377438D02*
X155739047Y-82329819D01*
X155739047Y-82329819D02*
X155500952Y-82329819D01*
X155500952Y-82329819D02*
X155358095Y-82377438D01*
X155024761Y-82329819D02*
X154786666Y-83329819D01*
X154786666Y-83329819D02*
X154596190Y-82615533D01*
X154596190Y-82615533D02*
X154405714Y-83329819D01*
X154405714Y-83329819D02*
X154167619Y-82329819D01*
X153262857Y-83329819D02*
X153834285Y-83329819D01*
X153548571Y-83329819D02*
X153548571Y-82329819D01*
X153548571Y-82329819D02*
X153643809Y-82472676D01*
X153643809Y-82472676D02*
X153739047Y-82567914D01*
X153739047Y-82567914D02*
X153834285Y-82615533D01*
X152358095Y-82329819D02*
X152834285Y-82329819D01*
X152834285Y-82329819D02*
X152881904Y-82806009D01*
X152881904Y-82806009D02*
X152834285Y-82758390D01*
X152834285Y-82758390D02*
X152739047Y-82710771D01*
X152739047Y-82710771D02*
X152500952Y-82710771D01*
X152500952Y-82710771D02*
X152405714Y-82758390D01*
X152405714Y-82758390D02*
X152358095Y-82806009D01*
X152358095Y-82806009D02*
X152310476Y-82901247D01*
X152310476Y-82901247D02*
X152310476Y-83139342D01*
X152310476Y-83139342D02*
X152358095Y-83234580D01*
X152358095Y-83234580D02*
X152405714Y-83282200D01*
X152405714Y-83282200D02*
X152500952Y-83329819D01*
X152500952Y-83329819D02*
X152739047Y-83329819D01*
X152739047Y-83329819D02*
X152834285Y-83282200D01*
X152834285Y-83282200D02*
X152881904Y-83234580D01*
D10*
X148250580Y-82386109D02*
X148250580Y-81886109D01*
X148250580Y-81886109D02*
X148131532Y-81886109D01*
X148131532Y-81886109D02*
X148060104Y-81909919D01*
X148060104Y-81909919D02*
X148012485Y-81957538D01*
X148012485Y-81957538D02*
X147988675Y-82005157D01*
X147988675Y-82005157D02*
X147964866Y-82100395D01*
X147964866Y-82100395D02*
X147964866Y-82171823D01*
X147964866Y-82171823D02*
X147988675Y-82267061D01*
X147988675Y-82267061D02*
X148012485Y-82314680D01*
X148012485Y-82314680D02*
X148060104Y-82362300D01*
X148060104Y-82362300D02*
X148131532Y-82386109D01*
X148131532Y-82386109D02*
X148250580Y-82386109D01*
X147488675Y-82386109D02*
X147774389Y-82386109D01*
X147631532Y-82386109D02*
X147631532Y-81886109D01*
X147631532Y-81886109D02*
X147679151Y-81957538D01*
X147679151Y-81957538D02*
X147726770Y-82005157D01*
X147726770Y-82005157D02*
X147774389Y-82028966D01*
X147036295Y-81886109D02*
X147274390Y-81886109D01*
X147274390Y-81886109D02*
X147298199Y-82124204D01*
X147298199Y-82124204D02*
X147274390Y-82100395D01*
X147274390Y-82100395D02*
X147226771Y-82076585D01*
X147226771Y-82076585D02*
X147107723Y-82076585D01*
X147107723Y-82076585D02*
X147060104Y-82100395D01*
X147060104Y-82100395D02*
X147036295Y-82124204D01*
X147036295Y-82124204D02*
X147012485Y-82171823D01*
X147012485Y-82171823D02*
X147012485Y-82290871D01*
X147012485Y-82290871D02*
X147036295Y-82338490D01*
X147036295Y-82338490D02*
X147060104Y-82362300D01*
X147060104Y-82362300D02*
X147107723Y-82386109D01*
X147107723Y-82386109D02*
X147226771Y-82386109D01*
X147226771Y-82386109D02*
X147274390Y-82362300D01*
X147274390Y-82362300D02*
X147298199Y-82338490D01*
D11*
X116442742Y-127086793D02*
X116310324Y-127158495D01*
X116310324Y-127158495D02*
X116075846Y-127199840D01*
X116075846Y-127199840D02*
X115973786Y-127169482D01*
X115973786Y-127169482D02*
X115918621Y-127130856D01*
X115918621Y-127130856D02*
X115855188Y-127045333D01*
X115855188Y-127045333D02*
X115838650Y-126951542D01*
X115838650Y-126951542D02*
X115869008Y-126849482D01*
X115869008Y-126849482D02*
X115907634Y-126794317D01*
X115907634Y-126794317D02*
X115993157Y-126730884D01*
X115993157Y-126730884D02*
X116172470Y-126650912D01*
X116172470Y-126650912D02*
X116257992Y-126587479D01*
X116257992Y-126587479D02*
X116296619Y-126532314D01*
X116296619Y-126532314D02*
X116326977Y-126430254D01*
X116326977Y-126430254D02*
X116310439Y-126336463D01*
X116310439Y-126336463D02*
X116247005Y-126250941D01*
X116247005Y-126250941D02*
X116191841Y-126212314D01*
X116191841Y-126212314D02*
X116089780Y-126181956D01*
X116089780Y-126181956D02*
X115855302Y-126223301D01*
X115855302Y-126223301D02*
X115722885Y-126295004D01*
X115386346Y-126305991D02*
X115325516Y-127332143D01*
X115325516Y-127332143D02*
X115013900Y-126661785D01*
X115013900Y-126661785D02*
X114950352Y-127398295D01*
X114950352Y-127398295D02*
X114542225Y-126454832D01*
X114230494Y-126606506D02*
X114175330Y-126567879D01*
X114175330Y-126567879D02*
X114073269Y-126537522D01*
X114073269Y-126537522D02*
X113838791Y-126578867D01*
X113838791Y-126578867D02*
X113753269Y-126642300D01*
X113753269Y-126642300D02*
X113714643Y-126697465D01*
X113714643Y-126697465D02*
X113684285Y-126799525D01*
X113684285Y-126799525D02*
X113700823Y-126893316D01*
X113700823Y-126893316D02*
X113772525Y-127025734D01*
X113772525Y-127025734D02*
X114434500Y-127489254D01*
X114434500Y-127489254D02*
X113824857Y-127596750D01*
X113041566Y-126719439D02*
X112947775Y-126735977D01*
X112947775Y-126735977D02*
X112862253Y-126799410D01*
X112862253Y-126799410D02*
X112823626Y-126854575D01*
X112823626Y-126854575D02*
X112793268Y-126956635D01*
X112793268Y-126956635D02*
X112779448Y-127152486D01*
X112779448Y-127152486D02*
X112820793Y-127386964D01*
X112820793Y-127386964D02*
X112900765Y-127566278D01*
X112900765Y-127566278D02*
X112964198Y-127651800D01*
X112964198Y-127651800D02*
X113019363Y-127690427D01*
X113019363Y-127690427D02*
X113121423Y-127720785D01*
X113121423Y-127720785D02*
X113215214Y-127704247D01*
X113215214Y-127704247D02*
X113300736Y-127640813D01*
X113300736Y-127640813D02*
X113339363Y-127585649D01*
X113339363Y-127585649D02*
X113369721Y-127483588D01*
X113369721Y-127483588D02*
X113383541Y-127287737D01*
X113383541Y-127287737D02*
X113342196Y-127053259D01*
X113342196Y-127053259D02*
X113262224Y-126873945D01*
X113262224Y-126873945D02*
X113198791Y-126788423D01*
X113198791Y-126788423D02*
X113143626Y-126749797D01*
X113143626Y-126749797D02*
X113041566Y-126719439D01*
D10*
X109642485Y-67786109D02*
X109642485Y-67286109D01*
X109642485Y-67286109D02*
X109523437Y-67286109D01*
X109523437Y-67286109D02*
X109452009Y-67309919D01*
X109452009Y-67309919D02*
X109404390Y-67357538D01*
X109404390Y-67357538D02*
X109380580Y-67405157D01*
X109380580Y-67405157D02*
X109356771Y-67500395D01*
X109356771Y-67500395D02*
X109356771Y-67571823D01*
X109356771Y-67571823D02*
X109380580Y-67667061D01*
X109380580Y-67667061D02*
X109404390Y-67714680D01*
X109404390Y-67714680D02*
X109452009Y-67762300D01*
X109452009Y-67762300D02*
X109523437Y-67786109D01*
X109523437Y-67786109D02*
X109642485Y-67786109D01*
X109190104Y-67286109D02*
X108856771Y-67286109D01*
X108856771Y-67286109D02*
X109071056Y-67786109D01*
X101930580Y-87156109D02*
X101930580Y-86656109D01*
X101930580Y-86656109D02*
X101811532Y-86656109D01*
X101811532Y-86656109D02*
X101740104Y-86679919D01*
X101740104Y-86679919D02*
X101692485Y-86727538D01*
X101692485Y-86727538D02*
X101668675Y-86775157D01*
X101668675Y-86775157D02*
X101644866Y-86870395D01*
X101644866Y-86870395D02*
X101644866Y-86941823D01*
X101644866Y-86941823D02*
X101668675Y-87037061D01*
X101668675Y-87037061D02*
X101692485Y-87084680D01*
X101692485Y-87084680D02*
X101740104Y-87132300D01*
X101740104Y-87132300D02*
X101811532Y-87156109D01*
X101811532Y-87156109D02*
X101930580Y-87156109D01*
X101454389Y-86703728D02*
X101430580Y-86679919D01*
X101430580Y-86679919D02*
X101382961Y-86656109D01*
X101382961Y-86656109D02*
X101263913Y-86656109D01*
X101263913Y-86656109D02*
X101216294Y-86679919D01*
X101216294Y-86679919D02*
X101192485Y-86703728D01*
X101192485Y-86703728D02*
X101168675Y-86751347D01*
X101168675Y-86751347D02*
X101168675Y-86798966D01*
X101168675Y-86798966D02*
X101192485Y-86870395D01*
X101192485Y-86870395D02*
X101478199Y-87156109D01*
X101478199Y-87156109D02*
X101168675Y-87156109D01*
X100692485Y-87156109D02*
X100978199Y-87156109D01*
X100835342Y-87156109D02*
X100835342Y-86656109D01*
X100835342Y-86656109D02*
X100882961Y-86727538D01*
X100882961Y-86727538D02*
X100930580Y-86775157D01*
X100930580Y-86775157D02*
X100978199Y-86798966D01*
D11*
X213412960Y-74707200D02*
X213270103Y-74754819D01*
X213270103Y-74754819D02*
X213032008Y-74754819D01*
X213032008Y-74754819D02*
X212936770Y-74707200D01*
X212936770Y-74707200D02*
X212889151Y-74659580D01*
X212889151Y-74659580D02*
X212841532Y-74564342D01*
X212841532Y-74564342D02*
X212841532Y-74469104D01*
X212841532Y-74469104D02*
X212889151Y-74373866D01*
X212889151Y-74373866D02*
X212936770Y-74326247D01*
X212936770Y-74326247D02*
X213032008Y-74278628D01*
X213032008Y-74278628D02*
X213222484Y-74231009D01*
X213222484Y-74231009D02*
X213317722Y-74183390D01*
X213317722Y-74183390D02*
X213365341Y-74135771D01*
X213365341Y-74135771D02*
X213412960Y-74040533D01*
X213412960Y-74040533D02*
X213412960Y-73945295D01*
X213412960Y-73945295D02*
X213365341Y-73850057D01*
X213365341Y-73850057D02*
X213317722Y-73802438D01*
X213317722Y-73802438D02*
X213222484Y-73754819D01*
X213222484Y-73754819D02*
X212984389Y-73754819D01*
X212984389Y-73754819D02*
X212841532Y-73802438D01*
X212508198Y-73754819D02*
X212270103Y-74754819D01*
X212270103Y-74754819D02*
X212079627Y-74040533D01*
X212079627Y-74040533D02*
X211889151Y-74754819D01*
X211889151Y-74754819D02*
X211651056Y-73754819D01*
X210746294Y-74754819D02*
X211317722Y-74754819D01*
X211032008Y-74754819D02*
X211032008Y-73754819D01*
X211032008Y-73754819D02*
X211127246Y-73897676D01*
X211127246Y-73897676D02*
X211222484Y-73992914D01*
X211222484Y-73992914D02*
X211317722Y-74040533D01*
X210365341Y-73850057D02*
X210317722Y-73802438D01*
X210317722Y-73802438D02*
X210222484Y-73754819D01*
X210222484Y-73754819D02*
X209984389Y-73754819D01*
X209984389Y-73754819D02*
X209889151Y-73802438D01*
X209889151Y-73802438D02*
X209841532Y-73850057D01*
X209841532Y-73850057D02*
X209793913Y-73945295D01*
X209793913Y-73945295D02*
X209793913Y-74040533D01*
X209793913Y-74040533D02*
X209841532Y-74183390D01*
X209841532Y-74183390D02*
X210412960Y-74754819D01*
X210412960Y-74754819D02*
X209793913Y-74754819D01*
D10*
X186564017Y-73806109D02*
X186564017Y-73306109D01*
X186564017Y-73306109D02*
X186444969Y-73306109D01*
X186444969Y-73306109D02*
X186373541Y-73329919D01*
X186373541Y-73329919D02*
X186325922Y-73377538D01*
X186325922Y-73377538D02*
X186302112Y-73425157D01*
X186302112Y-73425157D02*
X186278303Y-73520395D01*
X186278303Y-73520395D02*
X186278303Y-73591823D01*
X186278303Y-73591823D02*
X186302112Y-73687061D01*
X186302112Y-73687061D02*
X186325922Y-73734680D01*
X186325922Y-73734680D02*
X186373541Y-73782300D01*
X186373541Y-73782300D02*
X186444969Y-73806109D01*
X186444969Y-73806109D02*
X186564017Y-73806109D01*
X185802112Y-73806109D02*
X186087826Y-73806109D01*
X185944969Y-73806109D02*
X185944969Y-73306109D01*
X185944969Y-73306109D02*
X185992588Y-73377538D01*
X185992588Y-73377538D02*
X186040207Y-73425157D01*
X186040207Y-73425157D02*
X186087826Y-73448966D01*
X185325922Y-73806109D02*
X185611636Y-73806109D01*
X185468779Y-73806109D02*
X185468779Y-73306109D01*
X185468779Y-73306109D02*
X185516398Y-73377538D01*
X185516398Y-73377538D02*
X185564017Y-73425157D01*
X185564017Y-73425157D02*
X185611636Y-73448966D01*
D11*
X136303332Y-47267200D02*
X136160475Y-47314819D01*
X136160475Y-47314819D02*
X135922380Y-47314819D01*
X135922380Y-47314819D02*
X135827142Y-47267200D01*
X135827142Y-47267200D02*
X135779523Y-47219580D01*
X135779523Y-47219580D02*
X135731904Y-47124342D01*
X135731904Y-47124342D02*
X135731904Y-47029104D01*
X135731904Y-47029104D02*
X135779523Y-46933866D01*
X135779523Y-46933866D02*
X135827142Y-46886247D01*
X135827142Y-46886247D02*
X135922380Y-46838628D01*
X135922380Y-46838628D02*
X136112856Y-46791009D01*
X136112856Y-46791009D02*
X136208094Y-46743390D01*
X136208094Y-46743390D02*
X136255713Y-46695771D01*
X136255713Y-46695771D02*
X136303332Y-46600533D01*
X136303332Y-46600533D02*
X136303332Y-46505295D01*
X136303332Y-46505295D02*
X136255713Y-46410057D01*
X136255713Y-46410057D02*
X136208094Y-46362438D01*
X136208094Y-46362438D02*
X136112856Y-46314819D01*
X136112856Y-46314819D02*
X135874761Y-46314819D01*
X135874761Y-46314819D02*
X135731904Y-46362438D01*
X135398570Y-46314819D02*
X135160475Y-47314819D01*
X135160475Y-47314819D02*
X134969999Y-46600533D01*
X134969999Y-46600533D02*
X134779523Y-47314819D01*
X134779523Y-47314819D02*
X134541428Y-46314819D01*
X134208094Y-46410057D02*
X134160475Y-46362438D01*
X134160475Y-46362438D02*
X134065237Y-46314819D01*
X134065237Y-46314819D02*
X133827142Y-46314819D01*
X133827142Y-46314819D02*
X133731904Y-46362438D01*
X133731904Y-46362438D02*
X133684285Y-46410057D01*
X133684285Y-46410057D02*
X133636666Y-46505295D01*
X133636666Y-46505295D02*
X133636666Y-46600533D01*
X133636666Y-46600533D02*
X133684285Y-46743390D01*
X133684285Y-46743390D02*
X134255713Y-47314819D01*
X134255713Y-47314819D02*
X133636666Y-47314819D01*
X117090207Y-68692200D02*
X116947350Y-68739819D01*
X116947350Y-68739819D02*
X116709255Y-68739819D01*
X116709255Y-68739819D02*
X116614017Y-68692200D01*
X116614017Y-68692200D02*
X116566398Y-68644580D01*
X116566398Y-68644580D02*
X116518779Y-68549342D01*
X116518779Y-68549342D02*
X116518779Y-68454104D01*
X116518779Y-68454104D02*
X116566398Y-68358866D01*
X116566398Y-68358866D02*
X116614017Y-68311247D01*
X116614017Y-68311247D02*
X116709255Y-68263628D01*
X116709255Y-68263628D02*
X116899731Y-68216009D01*
X116899731Y-68216009D02*
X116994969Y-68168390D01*
X116994969Y-68168390D02*
X117042588Y-68120771D01*
X117042588Y-68120771D02*
X117090207Y-68025533D01*
X117090207Y-68025533D02*
X117090207Y-67930295D01*
X117090207Y-67930295D02*
X117042588Y-67835057D01*
X117042588Y-67835057D02*
X116994969Y-67787438D01*
X116994969Y-67787438D02*
X116899731Y-67739819D01*
X116899731Y-67739819D02*
X116661636Y-67739819D01*
X116661636Y-67739819D02*
X116518779Y-67787438D01*
X116185445Y-67739819D02*
X115947350Y-68739819D01*
X115947350Y-68739819D02*
X115756874Y-68025533D01*
X115756874Y-68025533D02*
X115566398Y-68739819D01*
X115566398Y-68739819D02*
X115328303Y-67739819D01*
X115042588Y-67739819D02*
X114375922Y-67739819D01*
X114375922Y-67739819D02*
X114804493Y-68739819D01*
D10*
X186534017Y-92996109D02*
X186534017Y-92496109D01*
X186534017Y-92496109D02*
X186414969Y-92496109D01*
X186414969Y-92496109D02*
X186343541Y-92519919D01*
X186343541Y-92519919D02*
X186295922Y-92567538D01*
X186295922Y-92567538D02*
X186272112Y-92615157D01*
X186272112Y-92615157D02*
X186248303Y-92710395D01*
X186248303Y-92710395D02*
X186248303Y-92781823D01*
X186248303Y-92781823D02*
X186272112Y-92877061D01*
X186272112Y-92877061D02*
X186295922Y-92924680D01*
X186295922Y-92924680D02*
X186343541Y-92972300D01*
X186343541Y-92972300D02*
X186414969Y-92996109D01*
X186414969Y-92996109D02*
X186534017Y-92996109D01*
X185772112Y-92996109D02*
X186057826Y-92996109D01*
X185914969Y-92996109D02*
X185914969Y-92496109D01*
X185914969Y-92496109D02*
X185962588Y-92567538D01*
X185962588Y-92567538D02*
X186010207Y-92615157D01*
X186010207Y-92615157D02*
X186057826Y-92638966D01*
X185605446Y-92496109D02*
X185272113Y-92496109D01*
X185272113Y-92496109D02*
X185486398Y-92996109D01*
X79781005Y-121099240D02*
X79609995Y-120629394D01*
X79609995Y-120629394D02*
X79498126Y-120670110D01*
X79498126Y-120670110D02*
X79439149Y-120716914D01*
X79439149Y-120716914D02*
X79410688Y-120777948D01*
X79410688Y-120777948D02*
X79404601Y-120830839D01*
X79404601Y-120830839D02*
X79414801Y-120928476D01*
X79414801Y-120928476D02*
X79439231Y-120995597D01*
X79439231Y-120995597D02*
X79494178Y-121076949D01*
X79494178Y-121076949D02*
X79532838Y-121113552D01*
X79532838Y-121113552D02*
X79593872Y-121142013D01*
X79593872Y-121142013D02*
X79669137Y-121139957D01*
X79669137Y-121139957D02*
X79781005Y-121099240D01*
X79065048Y-121359827D02*
X79333532Y-121262107D01*
X79199290Y-121310967D02*
X79028280Y-120841120D01*
X79028280Y-120841120D02*
X79097457Y-120891955D01*
X79097457Y-120891955D02*
X79158491Y-120920415D01*
X79158491Y-120920415D02*
X79211382Y-120926502D01*
X78841313Y-121441260D02*
X78751818Y-121473833D01*
X78751818Y-121473833D02*
X78698927Y-121467746D01*
X78698927Y-121467746D02*
X78668410Y-121453516D01*
X78668410Y-121453516D02*
X78599233Y-121402682D01*
X78599233Y-121402682D02*
X78544286Y-121321331D01*
X78544286Y-121321331D02*
X78479139Y-121142342D01*
X78479139Y-121142342D02*
X78485226Y-121089451D01*
X78485226Y-121089451D02*
X78499457Y-121058934D01*
X78499457Y-121058934D02*
X78536061Y-121020274D01*
X78536061Y-121020274D02*
X78625555Y-120987700D01*
X78625555Y-120987700D02*
X78678446Y-120993787D01*
X78678446Y-120993787D02*
X78708963Y-121008018D01*
X78708963Y-121008018D02*
X78747623Y-121044622D01*
X78747623Y-121044622D02*
X78788340Y-121156490D01*
X78788340Y-121156490D02*
X78782253Y-121209380D01*
X78782253Y-121209380D02*
X78768023Y-121239897D01*
X78768023Y-121239897D02*
X78731419Y-121278558D01*
X78731419Y-121278558D02*
X78641924Y-121311131D01*
X78641924Y-121311131D02*
X78589033Y-121305044D01*
X78589033Y-121305044D02*
X78558516Y-121290814D01*
X78558516Y-121290814D02*
X78519856Y-121254210D01*
D11*
X136739523Y-85652200D02*
X136596666Y-85699819D01*
X136596666Y-85699819D02*
X136358571Y-85699819D01*
X136358571Y-85699819D02*
X136263333Y-85652200D01*
X136263333Y-85652200D02*
X136215714Y-85604580D01*
X136215714Y-85604580D02*
X136168095Y-85509342D01*
X136168095Y-85509342D02*
X136168095Y-85414104D01*
X136168095Y-85414104D02*
X136215714Y-85318866D01*
X136215714Y-85318866D02*
X136263333Y-85271247D01*
X136263333Y-85271247D02*
X136358571Y-85223628D01*
X136358571Y-85223628D02*
X136549047Y-85176009D01*
X136549047Y-85176009D02*
X136644285Y-85128390D01*
X136644285Y-85128390D02*
X136691904Y-85080771D01*
X136691904Y-85080771D02*
X136739523Y-84985533D01*
X136739523Y-84985533D02*
X136739523Y-84890295D01*
X136739523Y-84890295D02*
X136691904Y-84795057D01*
X136691904Y-84795057D02*
X136644285Y-84747438D01*
X136644285Y-84747438D02*
X136549047Y-84699819D01*
X136549047Y-84699819D02*
X136310952Y-84699819D01*
X136310952Y-84699819D02*
X136168095Y-84747438D01*
X135834761Y-84699819D02*
X135596666Y-85699819D01*
X135596666Y-85699819D02*
X135406190Y-84985533D01*
X135406190Y-84985533D02*
X135215714Y-85699819D01*
X135215714Y-85699819D02*
X134977619Y-84699819D01*
X134072857Y-85699819D02*
X134644285Y-85699819D01*
X134358571Y-85699819D02*
X134358571Y-84699819D01*
X134358571Y-84699819D02*
X134453809Y-84842676D01*
X134453809Y-84842676D02*
X134549047Y-84937914D01*
X134549047Y-84937914D02*
X134644285Y-84985533D01*
X133215714Y-85033152D02*
X133215714Y-85699819D01*
X133453809Y-84652200D02*
X133691904Y-85366485D01*
X133691904Y-85366485D02*
X133072857Y-85366485D01*
X212936769Y-55502200D02*
X212793912Y-55549819D01*
X212793912Y-55549819D02*
X212555817Y-55549819D01*
X212555817Y-55549819D02*
X212460579Y-55502200D01*
X212460579Y-55502200D02*
X212412960Y-55454580D01*
X212412960Y-55454580D02*
X212365341Y-55359342D01*
X212365341Y-55359342D02*
X212365341Y-55264104D01*
X212365341Y-55264104D02*
X212412960Y-55168866D01*
X212412960Y-55168866D02*
X212460579Y-55121247D01*
X212460579Y-55121247D02*
X212555817Y-55073628D01*
X212555817Y-55073628D02*
X212746293Y-55026009D01*
X212746293Y-55026009D02*
X212841531Y-54978390D01*
X212841531Y-54978390D02*
X212889150Y-54930771D01*
X212889150Y-54930771D02*
X212936769Y-54835533D01*
X212936769Y-54835533D02*
X212936769Y-54740295D01*
X212936769Y-54740295D02*
X212889150Y-54645057D01*
X212889150Y-54645057D02*
X212841531Y-54597438D01*
X212841531Y-54597438D02*
X212746293Y-54549819D01*
X212746293Y-54549819D02*
X212508198Y-54549819D01*
X212508198Y-54549819D02*
X212365341Y-54597438D01*
X212032007Y-54549819D02*
X211793912Y-55549819D01*
X211793912Y-55549819D02*
X211603436Y-54835533D01*
X211603436Y-54835533D02*
X211412960Y-55549819D01*
X211412960Y-55549819D02*
X211174865Y-54549819D01*
X210365341Y-54549819D02*
X210555817Y-54549819D01*
X210555817Y-54549819D02*
X210651055Y-54597438D01*
X210651055Y-54597438D02*
X210698674Y-54645057D01*
X210698674Y-54645057D02*
X210793912Y-54787914D01*
X210793912Y-54787914D02*
X210841531Y-54978390D01*
X210841531Y-54978390D02*
X210841531Y-55359342D01*
X210841531Y-55359342D02*
X210793912Y-55454580D01*
X210793912Y-55454580D02*
X210746293Y-55502200D01*
X210746293Y-55502200D02*
X210651055Y-55549819D01*
X210651055Y-55549819D02*
X210460579Y-55549819D01*
X210460579Y-55549819D02*
X210365341Y-55502200D01*
X210365341Y-55502200D02*
X210317722Y-55454580D01*
X210317722Y-55454580D02*
X210270103Y-55359342D01*
X210270103Y-55359342D02*
X210270103Y-55121247D01*
X210270103Y-55121247D02*
X210317722Y-55026009D01*
X210317722Y-55026009D02*
X210365341Y-54978390D01*
X210365341Y-54978390D02*
X210460579Y-54930771D01*
X210460579Y-54930771D02*
X210651055Y-54930771D01*
X210651055Y-54930771D02*
X210746293Y-54978390D01*
X210746293Y-54978390D02*
X210793912Y-55026009D01*
X210793912Y-55026009D02*
X210841531Y-55121247D01*
D10*
X148012485Y-44016109D02*
X148012485Y-43516109D01*
X148012485Y-43516109D02*
X147893437Y-43516109D01*
X147893437Y-43516109D02*
X147822009Y-43539919D01*
X147822009Y-43539919D02*
X147774390Y-43587538D01*
X147774390Y-43587538D02*
X147750580Y-43635157D01*
X147750580Y-43635157D02*
X147726771Y-43730395D01*
X147726771Y-43730395D02*
X147726771Y-43801823D01*
X147726771Y-43801823D02*
X147750580Y-43897061D01*
X147750580Y-43897061D02*
X147774390Y-43944680D01*
X147774390Y-43944680D02*
X147822009Y-43992300D01*
X147822009Y-43992300D02*
X147893437Y-44016109D01*
X147893437Y-44016109D02*
X148012485Y-44016109D01*
X147560104Y-43516109D02*
X147250580Y-43516109D01*
X147250580Y-43516109D02*
X147417247Y-43706585D01*
X147417247Y-43706585D02*
X147345818Y-43706585D01*
X147345818Y-43706585D02*
X147298199Y-43730395D01*
X147298199Y-43730395D02*
X147274390Y-43754204D01*
X147274390Y-43754204D02*
X147250580Y-43801823D01*
X147250580Y-43801823D02*
X147250580Y-43920871D01*
X147250580Y-43920871D02*
X147274390Y-43968490D01*
X147274390Y-43968490D02*
X147298199Y-43992300D01*
X147298199Y-43992300D02*
X147345818Y-44016109D01*
X147345818Y-44016109D02*
X147488675Y-44016109D01*
X147488675Y-44016109D02*
X147536294Y-43992300D01*
X147536294Y-43992300D02*
X147560104Y-43968490D01*
X167440580Y-68196109D02*
X167440580Y-67696109D01*
X167440580Y-67696109D02*
X167321532Y-67696109D01*
X167321532Y-67696109D02*
X167250104Y-67719919D01*
X167250104Y-67719919D02*
X167202485Y-67767538D01*
X167202485Y-67767538D02*
X167178675Y-67815157D01*
X167178675Y-67815157D02*
X167154866Y-67910395D01*
X167154866Y-67910395D02*
X167154866Y-67981823D01*
X167154866Y-67981823D02*
X167178675Y-68077061D01*
X167178675Y-68077061D02*
X167202485Y-68124680D01*
X167202485Y-68124680D02*
X167250104Y-68172300D01*
X167250104Y-68172300D02*
X167321532Y-68196109D01*
X167321532Y-68196109D02*
X167440580Y-68196109D01*
X166678675Y-68196109D02*
X166964389Y-68196109D01*
X166821532Y-68196109D02*
X166821532Y-67696109D01*
X166821532Y-67696109D02*
X166869151Y-67767538D01*
X166869151Y-67767538D02*
X166916770Y-67815157D01*
X166916770Y-67815157D02*
X166964389Y-67838966D01*
X166369152Y-67696109D02*
X166321533Y-67696109D01*
X166321533Y-67696109D02*
X166273914Y-67719919D01*
X166273914Y-67719919D02*
X166250104Y-67743728D01*
X166250104Y-67743728D02*
X166226295Y-67791347D01*
X166226295Y-67791347D02*
X166202485Y-67886585D01*
X166202485Y-67886585D02*
X166202485Y-68005633D01*
X166202485Y-68005633D02*
X166226295Y-68100871D01*
X166226295Y-68100871D02*
X166250104Y-68148490D01*
X166250104Y-68148490D02*
X166273914Y-68172300D01*
X166273914Y-68172300D02*
X166321533Y-68196109D01*
X166321533Y-68196109D02*
X166369152Y-68196109D01*
X166369152Y-68196109D02*
X166416771Y-68172300D01*
X166416771Y-68172300D02*
X166440580Y-68148490D01*
X166440580Y-68148490D02*
X166464390Y-68100871D01*
X166464390Y-68100871D02*
X166488199Y-68005633D01*
X166488199Y-68005633D02*
X166488199Y-67886585D01*
X166488199Y-67886585D02*
X166464390Y-67791347D01*
X166464390Y-67791347D02*
X166440580Y-67743728D01*
X166440580Y-67743728D02*
X166416771Y-67719919D01*
X166416771Y-67719919D02*
X166369152Y-67696109D01*
D11*
X136308332Y-66457200D02*
X136165475Y-66504819D01*
X136165475Y-66504819D02*
X135927380Y-66504819D01*
X135927380Y-66504819D02*
X135832142Y-66457200D01*
X135832142Y-66457200D02*
X135784523Y-66409580D01*
X135784523Y-66409580D02*
X135736904Y-66314342D01*
X135736904Y-66314342D02*
X135736904Y-66219104D01*
X135736904Y-66219104D02*
X135784523Y-66123866D01*
X135784523Y-66123866D02*
X135832142Y-66076247D01*
X135832142Y-66076247D02*
X135927380Y-66028628D01*
X135927380Y-66028628D02*
X136117856Y-65981009D01*
X136117856Y-65981009D02*
X136213094Y-65933390D01*
X136213094Y-65933390D02*
X136260713Y-65885771D01*
X136260713Y-65885771D02*
X136308332Y-65790533D01*
X136308332Y-65790533D02*
X136308332Y-65695295D01*
X136308332Y-65695295D02*
X136260713Y-65600057D01*
X136260713Y-65600057D02*
X136213094Y-65552438D01*
X136213094Y-65552438D02*
X136117856Y-65504819D01*
X136117856Y-65504819D02*
X135879761Y-65504819D01*
X135879761Y-65504819D02*
X135736904Y-65552438D01*
X135403570Y-65504819D02*
X135165475Y-66504819D01*
X135165475Y-66504819D02*
X134974999Y-65790533D01*
X134974999Y-65790533D02*
X134784523Y-66504819D01*
X134784523Y-66504819D02*
X134546428Y-65504819D01*
X134022618Y-65933390D02*
X134117856Y-65885771D01*
X134117856Y-65885771D02*
X134165475Y-65838152D01*
X134165475Y-65838152D02*
X134213094Y-65742914D01*
X134213094Y-65742914D02*
X134213094Y-65695295D01*
X134213094Y-65695295D02*
X134165475Y-65600057D01*
X134165475Y-65600057D02*
X134117856Y-65552438D01*
X134117856Y-65552438D02*
X134022618Y-65504819D01*
X134022618Y-65504819D02*
X133832142Y-65504819D01*
X133832142Y-65504819D02*
X133736904Y-65552438D01*
X133736904Y-65552438D02*
X133689285Y-65600057D01*
X133689285Y-65600057D02*
X133641666Y-65695295D01*
X133641666Y-65695295D02*
X133641666Y-65742914D01*
X133641666Y-65742914D02*
X133689285Y-65838152D01*
X133689285Y-65838152D02*
X133736904Y-65885771D01*
X133736904Y-65885771D02*
X133832142Y-65933390D01*
X133832142Y-65933390D02*
X134022618Y-65933390D01*
X134022618Y-65933390D02*
X134117856Y-65981009D01*
X134117856Y-65981009D02*
X134165475Y-66028628D01*
X134165475Y-66028628D02*
X134213094Y-66123866D01*
X134213094Y-66123866D02*
X134213094Y-66314342D01*
X134213094Y-66314342D02*
X134165475Y-66409580D01*
X134165475Y-66409580D02*
X134117856Y-66457200D01*
X134117856Y-66457200D02*
X134022618Y-66504819D01*
X134022618Y-66504819D02*
X133832142Y-66504819D01*
X133832142Y-66504819D02*
X133736904Y-66457200D01*
X133736904Y-66457200D02*
X133689285Y-66409580D01*
X133689285Y-66409580D02*
X133641666Y-66314342D01*
X133641666Y-66314342D02*
X133641666Y-66123866D01*
X133641666Y-66123866D02*
X133689285Y-66028628D01*
X133689285Y-66028628D02*
X133736904Y-65981009D01*
X133736904Y-65981009D02*
X133832142Y-65933390D01*
X98046631Y-130281314D02*
X97928676Y-130374921D01*
X97928676Y-130374921D02*
X97704940Y-130456354D01*
X97704940Y-130456354D02*
X97599159Y-130444180D01*
X97599159Y-130444180D02*
X97538125Y-130415720D01*
X97538125Y-130415720D02*
X97460804Y-130342512D01*
X97460804Y-130342512D02*
X97428231Y-130253017D01*
X97428231Y-130253017D02*
X97440405Y-130147236D01*
X97440405Y-130147236D02*
X97468865Y-130086202D01*
X97468865Y-130086202D02*
X97542073Y-130008882D01*
X97542073Y-130008882D02*
X97704775Y-129898988D01*
X97704775Y-129898988D02*
X97777983Y-129821667D01*
X97777983Y-129821667D02*
X97806444Y-129760633D01*
X97806444Y-129760633D02*
X97818618Y-129654852D01*
X97818618Y-129654852D02*
X97786044Y-129565357D01*
X97786044Y-129565357D02*
X97708724Y-129492150D01*
X97708724Y-129492150D02*
X97647690Y-129463689D01*
X97647690Y-129463689D02*
X97541909Y-129451515D01*
X97541909Y-129451515D02*
X97318172Y-129532948D01*
X97318172Y-129532948D02*
X97200217Y-129626556D01*
X96870700Y-129695815D02*
X96988983Y-130716941D01*
X96988983Y-130716941D02*
X96565694Y-130110879D01*
X96565694Y-130110879D02*
X96631005Y-130847235D01*
X96631005Y-130847235D02*
X96065249Y-129988975D01*
X95557071Y-131238115D02*
X96094038Y-131042675D01*
X95825555Y-131140395D02*
X95483535Y-130200702D01*
X95483535Y-130200702D02*
X95621889Y-130302370D01*
X95621889Y-130302370D02*
X95743957Y-130359292D01*
X95743957Y-130359292D02*
X95849738Y-130371466D01*
X95109598Y-131400981D02*
X94930609Y-131466128D01*
X94930609Y-131466128D02*
X94824828Y-131453954D01*
X94824828Y-131453954D02*
X94763794Y-131425494D01*
X94763794Y-131425494D02*
X94625440Y-131323825D01*
X94625440Y-131323825D02*
X94515546Y-131161123D01*
X94515546Y-131161123D02*
X94385252Y-130803145D01*
X94385252Y-130803145D02*
X94397426Y-130697363D01*
X94397426Y-130697363D02*
X94425887Y-130636329D01*
X94425887Y-130636329D02*
X94499095Y-130559009D01*
X94499095Y-130559009D02*
X94678084Y-130493862D01*
X94678084Y-130493862D02*
X94783865Y-130506036D01*
X94783865Y-130506036D02*
X94844899Y-130534497D01*
X94844899Y-130534497D02*
X94922219Y-130607705D01*
X94922219Y-130607705D02*
X95003653Y-130831441D01*
X95003653Y-130831441D02*
X94991479Y-130937222D01*
X94991479Y-130937222D02*
X94963018Y-130998256D01*
X94963018Y-130998256D02*
X94889810Y-131075577D01*
X94889810Y-131075577D02*
X94710821Y-131140723D01*
X94710821Y-131140723D02*
X94605040Y-131128549D01*
X94605040Y-131128549D02*
X94544006Y-131100089D01*
X94544006Y-131100089D02*
X94466686Y-131026881D01*
D10*
X205734017Y-92976109D02*
X205734017Y-92476109D01*
X205734017Y-92476109D02*
X205614969Y-92476109D01*
X205614969Y-92476109D02*
X205543541Y-92499919D01*
X205543541Y-92499919D02*
X205495922Y-92547538D01*
X205495922Y-92547538D02*
X205472112Y-92595157D01*
X205472112Y-92595157D02*
X205448303Y-92690395D01*
X205448303Y-92690395D02*
X205448303Y-92761823D01*
X205448303Y-92761823D02*
X205472112Y-92857061D01*
X205472112Y-92857061D02*
X205495922Y-92904680D01*
X205495922Y-92904680D02*
X205543541Y-92952300D01*
X205543541Y-92952300D02*
X205614969Y-92976109D01*
X205614969Y-92976109D02*
X205734017Y-92976109D01*
X204972112Y-92976109D02*
X205257826Y-92976109D01*
X205114969Y-92976109D02*
X205114969Y-92476109D01*
X205114969Y-92476109D02*
X205162588Y-92547538D01*
X205162588Y-92547538D02*
X205210207Y-92595157D01*
X205210207Y-92595157D02*
X205257826Y-92618966D01*
X204686398Y-92690395D02*
X204734017Y-92666585D01*
X204734017Y-92666585D02*
X204757827Y-92642776D01*
X204757827Y-92642776D02*
X204781636Y-92595157D01*
X204781636Y-92595157D02*
X204781636Y-92571347D01*
X204781636Y-92571347D02*
X204757827Y-92523728D01*
X204757827Y-92523728D02*
X204734017Y-92499919D01*
X204734017Y-92499919D02*
X204686398Y-92476109D01*
X204686398Y-92476109D02*
X204591160Y-92476109D01*
X204591160Y-92476109D02*
X204543541Y-92499919D01*
X204543541Y-92499919D02*
X204519732Y-92523728D01*
X204519732Y-92523728D02*
X204495922Y-92571347D01*
X204495922Y-92571347D02*
X204495922Y-92595157D01*
X204495922Y-92595157D02*
X204519732Y-92642776D01*
X204519732Y-92642776D02*
X204543541Y-92666585D01*
X204543541Y-92666585D02*
X204591160Y-92690395D01*
X204591160Y-92690395D02*
X204686398Y-92690395D01*
X204686398Y-92690395D02*
X204734017Y-92714204D01*
X204734017Y-92714204D02*
X204757827Y-92738014D01*
X204757827Y-92738014D02*
X204781636Y-92785633D01*
X204781636Y-92785633D02*
X204781636Y-92880871D01*
X204781636Y-92880871D02*
X204757827Y-92928490D01*
X204757827Y-92928490D02*
X204734017Y-92952300D01*
X204734017Y-92952300D02*
X204686398Y-92976109D01*
X204686398Y-92976109D02*
X204591160Y-92976109D01*
X204591160Y-92976109D02*
X204543541Y-92952300D01*
X204543541Y-92952300D02*
X204519732Y-92928490D01*
X204519732Y-92928490D02*
X204495922Y-92880871D01*
X204495922Y-92880871D02*
X204495922Y-92785633D01*
X204495922Y-92785633D02*
X204519732Y-92738014D01*
X204519732Y-92738014D02*
X204543541Y-92714204D01*
X204543541Y-92714204D02*
X204591160Y-92690395D01*
X205515922Y-54576109D02*
X205515922Y-54076109D01*
X205515922Y-54076109D02*
X205396874Y-54076109D01*
X205396874Y-54076109D02*
X205325446Y-54099919D01*
X205325446Y-54099919D02*
X205277827Y-54147538D01*
X205277827Y-54147538D02*
X205254017Y-54195157D01*
X205254017Y-54195157D02*
X205230208Y-54290395D01*
X205230208Y-54290395D02*
X205230208Y-54361823D01*
X205230208Y-54361823D02*
X205254017Y-54457061D01*
X205254017Y-54457061D02*
X205277827Y-54504680D01*
X205277827Y-54504680D02*
X205325446Y-54552300D01*
X205325446Y-54552300D02*
X205396874Y-54576109D01*
X205396874Y-54576109D02*
X205515922Y-54576109D01*
X204801636Y-54076109D02*
X204896874Y-54076109D01*
X204896874Y-54076109D02*
X204944493Y-54099919D01*
X204944493Y-54099919D02*
X204968303Y-54123728D01*
X204968303Y-54123728D02*
X205015922Y-54195157D01*
X205015922Y-54195157D02*
X205039731Y-54290395D01*
X205039731Y-54290395D02*
X205039731Y-54480871D01*
X205039731Y-54480871D02*
X205015922Y-54528490D01*
X205015922Y-54528490D02*
X204992112Y-54552300D01*
X204992112Y-54552300D02*
X204944493Y-54576109D01*
X204944493Y-54576109D02*
X204849255Y-54576109D01*
X204849255Y-54576109D02*
X204801636Y-54552300D01*
X204801636Y-54552300D02*
X204777827Y-54528490D01*
X204777827Y-54528490D02*
X204754017Y-54480871D01*
X204754017Y-54480871D02*
X204754017Y-54361823D01*
X204754017Y-54361823D02*
X204777827Y-54314204D01*
X204777827Y-54314204D02*
X204801636Y-54290395D01*
X204801636Y-54290395D02*
X204849255Y-54266585D01*
X204849255Y-54266585D02*
X204944493Y-54266585D01*
X204944493Y-54266585D02*
X204992112Y-54290395D01*
X204992112Y-54290395D02*
X205015922Y-54314204D01*
X205015922Y-54314204D02*
X205039731Y-54361823D01*
D11*
X175132023Y-69112200D02*
X174989166Y-69159819D01*
X174989166Y-69159819D02*
X174751071Y-69159819D01*
X174751071Y-69159819D02*
X174655833Y-69112200D01*
X174655833Y-69112200D02*
X174608214Y-69064580D01*
X174608214Y-69064580D02*
X174560595Y-68969342D01*
X174560595Y-68969342D02*
X174560595Y-68874104D01*
X174560595Y-68874104D02*
X174608214Y-68778866D01*
X174608214Y-68778866D02*
X174655833Y-68731247D01*
X174655833Y-68731247D02*
X174751071Y-68683628D01*
X174751071Y-68683628D02*
X174941547Y-68636009D01*
X174941547Y-68636009D02*
X175036785Y-68588390D01*
X175036785Y-68588390D02*
X175084404Y-68540771D01*
X175084404Y-68540771D02*
X175132023Y-68445533D01*
X175132023Y-68445533D02*
X175132023Y-68350295D01*
X175132023Y-68350295D02*
X175084404Y-68255057D01*
X175084404Y-68255057D02*
X175036785Y-68207438D01*
X175036785Y-68207438D02*
X174941547Y-68159819D01*
X174941547Y-68159819D02*
X174703452Y-68159819D01*
X174703452Y-68159819D02*
X174560595Y-68207438D01*
X174227261Y-68159819D02*
X173989166Y-69159819D01*
X173989166Y-69159819D02*
X173798690Y-68445533D01*
X173798690Y-68445533D02*
X173608214Y-69159819D01*
X173608214Y-69159819D02*
X173370119Y-68159819D01*
X172465357Y-69159819D02*
X173036785Y-69159819D01*
X172751071Y-69159819D02*
X172751071Y-68159819D01*
X172751071Y-68159819D02*
X172846309Y-68302676D01*
X172846309Y-68302676D02*
X172941547Y-68397914D01*
X172941547Y-68397914D02*
X173036785Y-68445533D01*
X171846309Y-68159819D02*
X171751071Y-68159819D01*
X171751071Y-68159819D02*
X171655833Y-68207438D01*
X171655833Y-68207438D02*
X171608214Y-68255057D01*
X171608214Y-68255057D02*
X171560595Y-68350295D01*
X171560595Y-68350295D02*
X171512976Y-68540771D01*
X171512976Y-68540771D02*
X171512976Y-68778866D01*
X171512976Y-68778866D02*
X171560595Y-68969342D01*
X171560595Y-68969342D02*
X171608214Y-69064580D01*
X171608214Y-69064580D02*
X171655833Y-69112200D01*
X171655833Y-69112200D02*
X171751071Y-69159819D01*
X171751071Y-69159819D02*
X171846309Y-69159819D01*
X171846309Y-69159819D02*
X171941547Y-69112200D01*
X171941547Y-69112200D02*
X171989166Y-69064580D01*
X171989166Y-69064580D02*
X172036785Y-68969342D01*
X172036785Y-68969342D02*
X172084404Y-68778866D01*
X172084404Y-68778866D02*
X172084404Y-68540771D01*
X172084404Y-68540771D02*
X172036785Y-68350295D01*
X172036785Y-68350295D02*
X171989166Y-68255057D01*
X171989166Y-68255057D02*
X171941547Y-68207438D01*
X171941547Y-68207438D02*
X171846309Y-68159819D01*
X194229523Y-112937200D02*
X194086666Y-112984819D01*
X194086666Y-112984819D02*
X193848571Y-112984819D01*
X193848571Y-112984819D02*
X193753333Y-112937200D01*
X193753333Y-112937200D02*
X193705714Y-112889580D01*
X193705714Y-112889580D02*
X193658095Y-112794342D01*
X193658095Y-112794342D02*
X193658095Y-112699104D01*
X193658095Y-112699104D02*
X193705714Y-112603866D01*
X193705714Y-112603866D02*
X193753333Y-112556247D01*
X193753333Y-112556247D02*
X193848571Y-112508628D01*
X193848571Y-112508628D02*
X194039047Y-112461009D01*
X194039047Y-112461009D02*
X194134285Y-112413390D01*
X194134285Y-112413390D02*
X194181904Y-112365771D01*
X194181904Y-112365771D02*
X194229523Y-112270533D01*
X194229523Y-112270533D02*
X194229523Y-112175295D01*
X194229523Y-112175295D02*
X194181904Y-112080057D01*
X194181904Y-112080057D02*
X194134285Y-112032438D01*
X194134285Y-112032438D02*
X194039047Y-111984819D01*
X194039047Y-111984819D02*
X193800952Y-111984819D01*
X193800952Y-111984819D02*
X193658095Y-112032438D01*
X193324761Y-111984819D02*
X193086666Y-112984819D01*
X193086666Y-112984819D02*
X192896190Y-112270533D01*
X192896190Y-112270533D02*
X192705714Y-112984819D01*
X192705714Y-112984819D02*
X192467619Y-111984819D01*
X192134285Y-112080057D02*
X192086666Y-112032438D01*
X192086666Y-112032438D02*
X191991428Y-111984819D01*
X191991428Y-111984819D02*
X191753333Y-111984819D01*
X191753333Y-111984819D02*
X191658095Y-112032438D01*
X191658095Y-112032438D02*
X191610476Y-112080057D01*
X191610476Y-112080057D02*
X191562857Y-112175295D01*
X191562857Y-112175295D02*
X191562857Y-112270533D01*
X191562857Y-112270533D02*
X191610476Y-112413390D01*
X191610476Y-112413390D02*
X192181904Y-112984819D01*
X192181904Y-112984819D02*
X191562857Y-112984819D01*
X191181904Y-112080057D02*
X191134285Y-112032438D01*
X191134285Y-112032438D02*
X191039047Y-111984819D01*
X191039047Y-111984819D02*
X190800952Y-111984819D01*
X190800952Y-111984819D02*
X190705714Y-112032438D01*
X190705714Y-112032438D02*
X190658095Y-112080057D01*
X190658095Y-112080057D02*
X190610476Y-112175295D01*
X190610476Y-112175295D02*
X190610476Y-112270533D01*
X190610476Y-112270533D02*
X190658095Y-112413390D01*
X190658095Y-112413390D02*
X191229523Y-112984819D01*
X191229523Y-112984819D02*
X190610476Y-112984819D01*
X117560148Y-87882200D02*
X117417291Y-87929819D01*
X117417291Y-87929819D02*
X117179196Y-87929819D01*
X117179196Y-87929819D02*
X117083958Y-87882200D01*
X117083958Y-87882200D02*
X117036339Y-87834580D01*
X117036339Y-87834580D02*
X116988720Y-87739342D01*
X116988720Y-87739342D02*
X116988720Y-87644104D01*
X116988720Y-87644104D02*
X117036339Y-87548866D01*
X117036339Y-87548866D02*
X117083958Y-87501247D01*
X117083958Y-87501247D02*
X117179196Y-87453628D01*
X117179196Y-87453628D02*
X117369672Y-87406009D01*
X117369672Y-87406009D02*
X117464910Y-87358390D01*
X117464910Y-87358390D02*
X117512529Y-87310771D01*
X117512529Y-87310771D02*
X117560148Y-87215533D01*
X117560148Y-87215533D02*
X117560148Y-87120295D01*
X117560148Y-87120295D02*
X117512529Y-87025057D01*
X117512529Y-87025057D02*
X117464910Y-86977438D01*
X117464910Y-86977438D02*
X117369672Y-86929819D01*
X117369672Y-86929819D02*
X117131577Y-86929819D01*
X117131577Y-86929819D02*
X116988720Y-86977438D01*
X116655386Y-86929819D02*
X116417291Y-87929819D01*
X116417291Y-87929819D02*
X116226815Y-87215533D01*
X116226815Y-87215533D02*
X116036339Y-87929819D01*
X116036339Y-87929819D02*
X115798244Y-86929819D01*
X114893482Y-87929819D02*
X115464910Y-87929819D01*
X115179196Y-87929819D02*
X115179196Y-86929819D01*
X115179196Y-86929819D02*
X115274434Y-87072676D01*
X115274434Y-87072676D02*
X115369672Y-87167914D01*
X115369672Y-87167914D02*
X115464910Y-87215533D01*
X114560148Y-86929819D02*
X113941101Y-86929819D01*
X113941101Y-86929819D02*
X114274434Y-87310771D01*
X114274434Y-87310771D02*
X114131577Y-87310771D01*
X114131577Y-87310771D02*
X114036339Y-87358390D01*
X114036339Y-87358390D02*
X113988720Y-87406009D01*
X113988720Y-87406009D02*
X113941101Y-87501247D01*
X113941101Y-87501247D02*
X113941101Y-87739342D01*
X113941101Y-87739342D02*
X113988720Y-87834580D01*
X113988720Y-87834580D02*
X114036339Y-87882200D01*
X114036339Y-87882200D02*
X114131577Y-87929819D01*
X114131577Y-87929819D02*
X114417291Y-87929819D01*
X114417291Y-87929819D02*
X114512529Y-87882200D01*
X114512529Y-87882200D02*
X114560148Y-87834580D01*
D10*
X109870580Y-86976109D02*
X109870580Y-86476109D01*
X109870580Y-86476109D02*
X109751532Y-86476109D01*
X109751532Y-86476109D02*
X109680104Y-86499919D01*
X109680104Y-86499919D02*
X109632485Y-86547538D01*
X109632485Y-86547538D02*
X109608675Y-86595157D01*
X109608675Y-86595157D02*
X109584866Y-86690395D01*
X109584866Y-86690395D02*
X109584866Y-86761823D01*
X109584866Y-86761823D02*
X109608675Y-86857061D01*
X109608675Y-86857061D02*
X109632485Y-86904680D01*
X109632485Y-86904680D02*
X109680104Y-86952300D01*
X109680104Y-86952300D02*
X109751532Y-86976109D01*
X109751532Y-86976109D02*
X109870580Y-86976109D01*
X109108675Y-86976109D02*
X109394389Y-86976109D01*
X109251532Y-86976109D02*
X109251532Y-86476109D01*
X109251532Y-86476109D02*
X109299151Y-86547538D01*
X109299151Y-86547538D02*
X109346770Y-86595157D01*
X109346770Y-86595157D02*
X109394389Y-86618966D01*
X108942009Y-86476109D02*
X108632485Y-86476109D01*
X108632485Y-86476109D02*
X108799152Y-86666585D01*
X108799152Y-86666585D02*
X108727723Y-86666585D01*
X108727723Y-86666585D02*
X108680104Y-86690395D01*
X108680104Y-86690395D02*
X108656295Y-86714204D01*
X108656295Y-86714204D02*
X108632485Y-86761823D01*
X108632485Y-86761823D02*
X108632485Y-86880871D01*
X108632485Y-86880871D02*
X108656295Y-86928490D01*
X108656295Y-86928490D02*
X108680104Y-86952300D01*
X108680104Y-86952300D02*
X108727723Y-86976109D01*
X108727723Y-86976109D02*
X108870580Y-86976109D01*
X108870580Y-86976109D02*
X108918199Y-86952300D01*
X108918199Y-86952300D02*
X108942009Y-86928490D01*
D11*
X117083957Y-49517200D02*
X116941100Y-49564819D01*
X116941100Y-49564819D02*
X116703005Y-49564819D01*
X116703005Y-49564819D02*
X116607767Y-49517200D01*
X116607767Y-49517200D02*
X116560148Y-49469580D01*
X116560148Y-49469580D02*
X116512529Y-49374342D01*
X116512529Y-49374342D02*
X116512529Y-49279104D01*
X116512529Y-49279104D02*
X116560148Y-49183866D01*
X116560148Y-49183866D02*
X116607767Y-49136247D01*
X116607767Y-49136247D02*
X116703005Y-49088628D01*
X116703005Y-49088628D02*
X116893481Y-49041009D01*
X116893481Y-49041009D02*
X116988719Y-48993390D01*
X116988719Y-48993390D02*
X117036338Y-48945771D01*
X117036338Y-48945771D02*
X117083957Y-48850533D01*
X117083957Y-48850533D02*
X117083957Y-48755295D01*
X117083957Y-48755295D02*
X117036338Y-48660057D01*
X117036338Y-48660057D02*
X116988719Y-48612438D01*
X116988719Y-48612438D02*
X116893481Y-48564819D01*
X116893481Y-48564819D02*
X116655386Y-48564819D01*
X116655386Y-48564819D02*
X116512529Y-48612438D01*
X116179195Y-48564819D02*
X115941100Y-49564819D01*
X115941100Y-49564819D02*
X115750624Y-48850533D01*
X115750624Y-48850533D02*
X115560148Y-49564819D01*
X115560148Y-49564819D02*
X115322053Y-48564819D01*
X114417291Y-49564819D02*
X114988719Y-49564819D01*
X114703005Y-49564819D02*
X114703005Y-48564819D01*
X114703005Y-48564819D02*
X114798243Y-48707676D01*
X114798243Y-48707676D02*
X114893481Y-48802914D01*
X114893481Y-48802914D02*
X114988719Y-48850533D01*
X194249523Y-93887200D02*
X194106666Y-93934819D01*
X194106666Y-93934819D02*
X193868571Y-93934819D01*
X193868571Y-93934819D02*
X193773333Y-93887200D01*
X193773333Y-93887200D02*
X193725714Y-93839580D01*
X193725714Y-93839580D02*
X193678095Y-93744342D01*
X193678095Y-93744342D02*
X193678095Y-93649104D01*
X193678095Y-93649104D02*
X193725714Y-93553866D01*
X193725714Y-93553866D02*
X193773333Y-93506247D01*
X193773333Y-93506247D02*
X193868571Y-93458628D01*
X193868571Y-93458628D02*
X194059047Y-93411009D01*
X194059047Y-93411009D02*
X194154285Y-93363390D01*
X194154285Y-93363390D02*
X194201904Y-93315771D01*
X194201904Y-93315771D02*
X194249523Y-93220533D01*
X194249523Y-93220533D02*
X194249523Y-93125295D01*
X194249523Y-93125295D02*
X194201904Y-93030057D01*
X194201904Y-93030057D02*
X194154285Y-92982438D01*
X194154285Y-92982438D02*
X194059047Y-92934819D01*
X194059047Y-92934819D02*
X193820952Y-92934819D01*
X193820952Y-92934819D02*
X193678095Y-92982438D01*
X193344761Y-92934819D02*
X193106666Y-93934819D01*
X193106666Y-93934819D02*
X192916190Y-93220533D01*
X192916190Y-93220533D02*
X192725714Y-93934819D01*
X192725714Y-93934819D02*
X192487619Y-92934819D01*
X191582857Y-93934819D02*
X192154285Y-93934819D01*
X191868571Y-93934819D02*
X191868571Y-92934819D01*
X191868571Y-92934819D02*
X191963809Y-93077676D01*
X191963809Y-93077676D02*
X192059047Y-93172914D01*
X192059047Y-93172914D02*
X192154285Y-93220533D01*
X191249523Y-92934819D02*
X190582857Y-92934819D01*
X190582857Y-92934819D02*
X191011428Y-93934819D01*
X155433332Y-44927200D02*
X155290475Y-44974819D01*
X155290475Y-44974819D02*
X155052380Y-44974819D01*
X155052380Y-44974819D02*
X154957142Y-44927200D01*
X154957142Y-44927200D02*
X154909523Y-44879580D01*
X154909523Y-44879580D02*
X154861904Y-44784342D01*
X154861904Y-44784342D02*
X154861904Y-44689104D01*
X154861904Y-44689104D02*
X154909523Y-44593866D01*
X154909523Y-44593866D02*
X154957142Y-44546247D01*
X154957142Y-44546247D02*
X155052380Y-44498628D01*
X155052380Y-44498628D02*
X155242856Y-44451009D01*
X155242856Y-44451009D02*
X155338094Y-44403390D01*
X155338094Y-44403390D02*
X155385713Y-44355771D01*
X155385713Y-44355771D02*
X155433332Y-44260533D01*
X155433332Y-44260533D02*
X155433332Y-44165295D01*
X155433332Y-44165295D02*
X155385713Y-44070057D01*
X155385713Y-44070057D02*
X155338094Y-44022438D01*
X155338094Y-44022438D02*
X155242856Y-43974819D01*
X155242856Y-43974819D02*
X155004761Y-43974819D01*
X155004761Y-43974819D02*
X154861904Y-44022438D01*
X154528570Y-43974819D02*
X154290475Y-44974819D01*
X154290475Y-44974819D02*
X154099999Y-44260533D01*
X154099999Y-44260533D02*
X153909523Y-44974819D01*
X153909523Y-44974819D02*
X153671428Y-43974819D01*
X153385713Y-43974819D02*
X152766666Y-43974819D01*
X152766666Y-43974819D02*
X153099999Y-44355771D01*
X153099999Y-44355771D02*
X152957142Y-44355771D01*
X152957142Y-44355771D02*
X152861904Y-44403390D01*
X152861904Y-44403390D02*
X152814285Y-44451009D01*
X152814285Y-44451009D02*
X152766666Y-44546247D01*
X152766666Y-44546247D02*
X152766666Y-44784342D01*
X152766666Y-44784342D02*
X152814285Y-44879580D01*
X152814285Y-44879580D02*
X152861904Y-44927200D01*
X152861904Y-44927200D02*
X152957142Y-44974819D01*
X152957142Y-44974819D02*
X153242856Y-44974819D01*
X153242856Y-44974819D02*
X153338094Y-44927200D01*
X153338094Y-44927200D02*
X153385713Y-44879580D01*
D10*
X148022485Y-63216109D02*
X148022485Y-62716109D01*
X148022485Y-62716109D02*
X147903437Y-62716109D01*
X147903437Y-62716109D02*
X147832009Y-62739919D01*
X147832009Y-62739919D02*
X147784390Y-62787538D01*
X147784390Y-62787538D02*
X147760580Y-62835157D01*
X147760580Y-62835157D02*
X147736771Y-62930395D01*
X147736771Y-62930395D02*
X147736771Y-63001823D01*
X147736771Y-63001823D02*
X147760580Y-63097061D01*
X147760580Y-63097061D02*
X147784390Y-63144680D01*
X147784390Y-63144680D02*
X147832009Y-63192300D01*
X147832009Y-63192300D02*
X147903437Y-63216109D01*
X147903437Y-63216109D02*
X148022485Y-63216109D01*
X147498675Y-63216109D02*
X147403437Y-63216109D01*
X147403437Y-63216109D02*
X147355818Y-63192300D01*
X147355818Y-63192300D02*
X147332009Y-63168490D01*
X147332009Y-63168490D02*
X147284390Y-63097061D01*
X147284390Y-63097061D02*
X147260580Y-63001823D01*
X147260580Y-63001823D02*
X147260580Y-62811347D01*
X147260580Y-62811347D02*
X147284390Y-62763728D01*
X147284390Y-62763728D02*
X147308199Y-62739919D01*
X147308199Y-62739919D02*
X147355818Y-62716109D01*
X147355818Y-62716109D02*
X147451056Y-62716109D01*
X147451056Y-62716109D02*
X147498675Y-62739919D01*
X147498675Y-62739919D02*
X147522485Y-62763728D01*
X147522485Y-62763728D02*
X147546294Y-62811347D01*
X147546294Y-62811347D02*
X147546294Y-62930395D01*
X147546294Y-62930395D02*
X147522485Y-62978014D01*
X147522485Y-62978014D02*
X147498675Y-63001823D01*
X147498675Y-63001823D02*
X147451056Y-63025633D01*
X147451056Y-63025633D02*
X147355818Y-63025633D01*
X147355818Y-63025633D02*
X147308199Y-63001823D01*
X147308199Y-63001823D02*
X147284390Y-62978014D01*
X147284390Y-62978014D02*
X147260580Y-62930395D01*
D12*
X99034099Y-115851833D02*
X99229522Y-115817375D01*
X99126147Y-115231105D02*
X99332897Y-116403645D01*
X99332897Y-116403645D02*
X100896283Y-116127978D01*
X99723744Y-116334728D02*
X99516993Y-115162188D01*
X100689533Y-114955438D02*
X99126147Y-115231105D01*
X100792908Y-115541708D02*
X100988331Y-115507249D01*
X100896283Y-116127978D02*
X100689533Y-114955438D01*
X127259381Y-85510000D02*
X127457819Y-85510000D01*
X127457819Y-84914686D02*
X127457819Y-86105314D01*
X127457819Y-86105314D02*
X129045323Y-86105314D01*
X127854695Y-86105314D02*
X127854695Y-84914686D01*
X129045323Y-84914686D02*
X127457819Y-84914686D01*
X129045323Y-85510000D02*
X129243761Y-85510000D01*
X129045323Y-86105314D02*
X129045323Y-84914686D01*
X165629381Y-88130000D02*
X165827819Y-88130000D01*
X165827819Y-87534686D02*
X165827819Y-88725314D01*
X165827819Y-88725314D02*
X167415323Y-88725314D01*
X166224695Y-88725314D02*
X166224695Y-87534686D01*
X167415323Y-87534686D02*
X165827819Y-87534686D01*
X167415323Y-88130000D02*
X167613761Y-88130000D01*
X167415323Y-88725314D02*
X167415323Y-87534686D01*
X203942818Y-74550000D02*
X204141256Y-74550000D01*
X204141256Y-73954686D02*
X204141256Y-75145314D01*
X204141256Y-75145314D02*
X205728760Y-75145314D01*
X204538132Y-75145314D02*
X204538132Y-73954686D01*
X205728760Y-73954686D02*
X204141256Y-73954686D01*
X205728760Y-74550000D02*
X205927198Y-74550000D01*
X205728760Y-75145314D02*
X205728760Y-73954686D01*
X165612818Y-49790000D02*
X165811256Y-49790000D01*
X165811256Y-49194686D02*
X165811256Y-50385314D01*
X165811256Y-50385314D02*
X167398760Y-50385314D01*
X166208132Y-50385314D02*
X166208132Y-49194686D01*
X167398760Y-49194686D02*
X165811256Y-49194686D01*
X167398760Y-49790000D02*
X167597198Y-49790000D01*
X167398760Y-50385314D02*
X167398760Y-49194686D01*
D13*
X162620000Y-56565000D02*
X162620000Y-58065000D01*
D11*
X165515000Y-57385000D02*
X165515000Y-60035000D01*
X165670000Y-60540000D02*
X165670000Y-56860000D01*
X165820000Y-60710000D02*
X165820000Y-56740000D01*
X165970000Y-60850000D02*
X165970000Y-56710000D01*
X166120000Y-60930000D02*
X166120000Y-56810000D01*
X166270000Y-60980000D02*
X166270000Y-56660000D01*
X166420000Y-61020000D02*
X166420000Y-56510000D01*
X166570000Y-61010000D02*
X166570000Y-56410000D01*
X166720000Y-61010000D02*
X166720000Y-56410000D01*
X166870000Y-61010000D02*
X166870000Y-56410000D01*
D13*
X167020000Y-56565000D02*
X162620000Y-56565000D01*
D11*
X167020000Y-61010000D02*
X167020000Y-56410000D01*
X167170000Y-61010000D02*
X167170000Y-56410000D01*
X167320000Y-61010000D02*
X167320000Y-56410000D01*
X167470000Y-61010000D02*
X167470000Y-56410000D01*
X167620000Y-61010000D02*
X167620000Y-56410000D01*
X167770000Y-61010000D02*
X167770000Y-56410000D01*
X167920000Y-61010000D02*
X167920000Y-56410000D01*
X168070000Y-61010000D02*
X168070000Y-56410000D01*
X168220000Y-61010000D02*
X168220000Y-56410000D01*
X168370000Y-61010000D02*
X168370000Y-56410000D01*
X168520000Y-61010000D02*
X168520000Y-56410000D01*
X168520000Y-61035000D02*
X166545000Y-61035000D01*
X168670000Y-61010000D02*
X168670000Y-56460000D01*
X168820000Y-61050000D02*
X168820000Y-56410000D01*
X168970000Y-61060000D02*
X168970000Y-56410000D01*
X169120000Y-61060000D02*
X169120000Y-56460000D01*
X169270000Y-61110000D02*
X169270000Y-56400000D01*
X169420000Y-61210000D02*
X169420000Y-56390000D01*
X169508796Y-56385000D02*
X166545000Y-56385000D01*
X169570000Y-61260000D02*
X169570000Y-56410000D01*
X169720000Y-61360000D02*
X169720000Y-56440000D01*
X169870000Y-61460000D02*
X169870000Y-56490000D01*
X170020000Y-61560000D02*
X170020000Y-56570000D01*
X170170000Y-61710000D02*
X170170000Y-56760000D01*
X170320000Y-61860000D02*
X170320000Y-56960000D01*
X170370000Y-57410000D02*
X170370000Y-57086887D01*
X170420000Y-62030000D02*
X170420000Y-57910000D01*
X170520000Y-62210000D02*
X170520000Y-58060000D01*
X170520000Y-62210000D02*
X171795000Y-63235000D01*
X170620000Y-62280000D02*
X170620000Y-58260000D01*
X170720000Y-62360000D02*
X170720000Y-58360000D01*
X170820000Y-62440000D02*
X170820000Y-58410000D01*
X170930000Y-62530000D02*
X170920000Y-58460000D01*
X171070000Y-62630000D02*
X171070000Y-58510000D01*
X171220000Y-62770000D02*
X171220000Y-58610000D01*
X171370000Y-62890000D02*
X171370000Y-58610000D01*
X171520000Y-63000000D02*
X171520000Y-58610000D01*
X171670000Y-63120000D02*
X171670000Y-58660000D01*
X171820000Y-63210000D02*
X171820000Y-58610000D01*
X171970000Y-63210000D02*
X171970000Y-58610000D01*
X172120000Y-63210000D02*
X172120000Y-58610000D01*
X172270000Y-63210000D02*
X172270000Y-58610000D01*
X172420000Y-63210000D02*
X172420000Y-58610000D01*
X172570000Y-63210000D02*
X172570000Y-58610000D01*
X172720000Y-63210000D02*
X172720000Y-58610000D01*
X172870000Y-63210000D02*
X172870000Y-58610000D01*
X173020000Y-63210000D02*
X173020000Y-58610000D01*
X173170000Y-63210000D02*
X173170000Y-58610000D01*
X173320000Y-63210000D02*
X173320000Y-58610000D01*
X173470000Y-63210000D02*
X173470000Y-58610000D01*
X173620000Y-63210000D02*
X173620000Y-58610000D01*
X173770000Y-63210000D02*
X173770000Y-58610000D01*
X173920000Y-63210000D02*
X173920000Y-58610000D01*
X174070000Y-63210000D02*
X174070000Y-58610000D01*
X174120000Y-58585000D02*
X171545000Y-58585000D01*
X174120000Y-63235000D02*
X171795000Y-63235000D01*
X174220000Y-63100000D02*
X174220000Y-58710000D01*
X174370000Y-62960000D02*
X174370000Y-58840000D01*
X174520000Y-62830000D02*
X174520000Y-59000000D01*
X174670000Y-62670000D02*
X174670000Y-59140000D01*
X174770000Y-62570000D02*
X174770000Y-59240000D01*
X174870000Y-62460000D02*
X174870000Y-59340000D01*
X174970000Y-62380000D02*
X174970000Y-59450000D01*
X175120000Y-59585000D02*
X174120000Y-58585000D01*
X175120000Y-59585000D02*
X175120000Y-62235000D01*
X175120000Y-62235000D02*
X174120000Y-63235000D01*
X165515000Y-57385000D02*
G75*
G02*
X166515000Y-56385000I999999J1D01*
G01*
X166515000Y-61035000D02*
G75*
G02*
X165515000Y-60035000I-1J999999D01*
G01*
X168520000Y-61027458D02*
G75*
G02*
X170520000Y-62210000I-2J-2282546D01*
G01*
X169508796Y-56385000D02*
G75*
G02*
X170370000Y-57086887I-38796J-926887D01*
G01*
X171545000Y-58585000D02*
G75*
G02*
X170370000Y-57410000I2J1175002D01*
G01*
X163320000Y-55610000D02*
G75*
G02*
X162320000Y-55610000I-500000J0D01*
G01*
X162320000Y-55610000D02*
G75*
G02*
X163320000Y-55610000I500000J0D01*
G01*
D12*
X108059381Y-49380000D02*
X108257819Y-49380000D01*
X108257819Y-48784686D02*
X108257819Y-49975314D01*
X108257819Y-49975314D02*
X109845323Y-49975314D01*
X108654695Y-49975314D02*
X108654695Y-48784686D01*
X109845323Y-48784686D02*
X108257819Y-48784686D01*
X109845323Y-49380000D02*
X110043761Y-49380000D01*
X109845323Y-49975314D02*
X109845323Y-48784686D01*
D13*
X181720000Y-81355000D02*
X181720000Y-82855000D01*
D11*
X184615000Y-82175000D02*
X184615000Y-84825000D01*
X184770000Y-85330000D02*
X184770000Y-81650000D01*
X184920000Y-85500000D02*
X184920000Y-81530000D01*
X185070000Y-85640000D02*
X185070000Y-81500000D01*
X185220000Y-85720000D02*
X185220000Y-81600000D01*
X185370000Y-85770000D02*
X185370000Y-81450000D01*
X185520000Y-85810000D02*
X185520000Y-81300000D01*
X185670000Y-85800000D02*
X185670000Y-81200000D01*
X185820000Y-85800000D02*
X185820000Y-81200000D01*
X185970000Y-85800000D02*
X185970000Y-81200000D01*
D13*
X186120000Y-81355000D02*
X181720000Y-81355000D01*
D11*
X186120000Y-85800000D02*
X186120000Y-81200000D01*
X186270000Y-85800000D02*
X186270000Y-81200000D01*
X186420000Y-85800000D02*
X186420000Y-81200000D01*
X186570000Y-85800000D02*
X186570000Y-81200000D01*
X186720000Y-85800000D02*
X186720000Y-81200000D01*
X186870000Y-85800000D02*
X186870000Y-81200000D01*
X187020000Y-85800000D02*
X187020000Y-81200000D01*
X187170000Y-85800000D02*
X187170000Y-81200000D01*
X187320000Y-85800000D02*
X187320000Y-81200000D01*
X187470000Y-85800000D02*
X187470000Y-81200000D01*
X187620000Y-85800000D02*
X187620000Y-81200000D01*
X187620000Y-85825000D02*
X185645000Y-85825000D01*
X187770000Y-85800000D02*
X187770000Y-81250000D01*
X187920000Y-85840000D02*
X187920000Y-81200000D01*
X188070000Y-85850000D02*
X188070000Y-81200000D01*
X188220000Y-85850000D02*
X188220000Y-81250000D01*
X188370000Y-85900000D02*
X188370000Y-81190000D01*
X188520000Y-86000000D02*
X188520000Y-81180000D01*
X188608796Y-81175000D02*
X185645000Y-81175000D01*
X188670000Y-86050000D02*
X188670000Y-81200000D01*
X188820000Y-86150000D02*
X188820000Y-81230000D01*
X188970000Y-86250000D02*
X188970000Y-81280000D01*
X189120000Y-86350000D02*
X189120000Y-81360000D01*
X189270000Y-86500000D02*
X189270000Y-81550000D01*
X189420000Y-86650000D02*
X189420000Y-81750000D01*
X189470000Y-82200000D02*
X189470000Y-81876887D01*
X189520000Y-86820000D02*
X189520000Y-82700000D01*
X189620000Y-87000000D02*
X189620000Y-82850000D01*
X189620000Y-87000000D02*
X190895000Y-88025000D01*
X189720000Y-87070000D02*
X189720000Y-83050000D01*
X189820000Y-87150000D02*
X189820000Y-83150000D01*
X189920000Y-87230000D02*
X189920000Y-83200000D01*
X190030000Y-87320000D02*
X190020000Y-83250000D01*
X190170000Y-87420000D02*
X190170000Y-83300000D01*
X190320000Y-87560000D02*
X190320000Y-83400000D01*
X190470000Y-87680000D02*
X190470000Y-83400000D01*
X190620000Y-87790000D02*
X190620000Y-83400000D01*
X190770000Y-87910000D02*
X190770000Y-83450000D01*
X190920000Y-88000000D02*
X190920000Y-83400000D01*
X191070000Y-88000000D02*
X191070000Y-83400000D01*
X191220000Y-88000000D02*
X191220000Y-83400000D01*
X191370000Y-88000000D02*
X191370000Y-83400000D01*
X191520000Y-88000000D02*
X191520000Y-83400000D01*
X191670000Y-88000000D02*
X191670000Y-83400000D01*
X191820000Y-88000000D02*
X191820000Y-83400000D01*
X191970000Y-88000000D02*
X191970000Y-83400000D01*
X192120000Y-88000000D02*
X192120000Y-83400000D01*
X192270000Y-88000000D02*
X192270000Y-83400000D01*
X192420000Y-88000000D02*
X192420000Y-83400000D01*
X192570000Y-88000000D02*
X192570000Y-83400000D01*
X192720000Y-88000000D02*
X192720000Y-83400000D01*
X192870000Y-88000000D02*
X192870000Y-83400000D01*
X193020000Y-88000000D02*
X193020000Y-83400000D01*
X193170000Y-88000000D02*
X193170000Y-83400000D01*
X193220000Y-83375000D02*
X190645000Y-83375000D01*
X193220000Y-88025000D02*
X190895000Y-88025000D01*
X193320000Y-87890000D02*
X193320000Y-83500000D01*
X193470000Y-87750000D02*
X193470000Y-83630000D01*
X193620000Y-87620000D02*
X193620000Y-83790000D01*
X193770000Y-87460000D02*
X193770000Y-83930000D01*
X193870000Y-87360000D02*
X193870000Y-84030000D01*
X193970000Y-87250000D02*
X193970000Y-84130000D01*
X194070000Y-87170000D02*
X194070000Y-84240000D01*
X194220000Y-84375000D02*
X193220000Y-83375000D01*
X194220000Y-84375000D02*
X194220000Y-87025000D01*
X194220000Y-87025000D02*
X193220000Y-88025000D01*
X184615000Y-82175000D02*
G75*
G02*
X185615000Y-81175000I999999J1D01*
G01*
X185615000Y-85825000D02*
G75*
G02*
X184615000Y-84825000I-1J999999D01*
G01*
X187620000Y-85817458D02*
G75*
G02*
X189620000Y-87000000I-2J-2282546D01*
G01*
X188608796Y-81175000D02*
G75*
G02*
X189470000Y-81876887I-38796J-926887D01*
G01*
X190645000Y-83375000D02*
G75*
G02*
X189470000Y-82200000I2J1175002D01*
G01*
X182420000Y-80400000D02*
G75*
G02*
X181420000Y-80400000I-500000J0D01*
G01*
X181420000Y-80400000D02*
G75*
G02*
X182420000Y-80400000I500000J0D01*
G01*
D13*
X162620000Y-94905000D02*
X162620000Y-96405000D01*
D11*
X165515000Y-95725000D02*
X165515000Y-98375000D01*
X165670000Y-98880000D02*
X165670000Y-95200000D01*
X165820000Y-99050000D02*
X165820000Y-95080000D01*
X165970000Y-99190000D02*
X165970000Y-95050000D01*
X166120000Y-99270000D02*
X166120000Y-95150000D01*
X166270000Y-99320000D02*
X166270000Y-95000000D01*
X166420000Y-99360000D02*
X166420000Y-94850000D01*
X166570000Y-99350000D02*
X166570000Y-94750000D01*
X166720000Y-99350000D02*
X166720000Y-94750000D01*
X166870000Y-99350000D02*
X166870000Y-94750000D01*
D13*
X167020000Y-94905000D02*
X162620000Y-94905000D01*
D11*
X167020000Y-99350000D02*
X167020000Y-94750000D01*
X167170000Y-99350000D02*
X167170000Y-94750000D01*
X167320000Y-99350000D02*
X167320000Y-94750000D01*
X167470000Y-99350000D02*
X167470000Y-94750000D01*
X167620000Y-99350000D02*
X167620000Y-94750000D01*
X167770000Y-99350000D02*
X167770000Y-94750000D01*
X167920000Y-99350000D02*
X167920000Y-94750000D01*
X168070000Y-99350000D02*
X168070000Y-94750000D01*
X168220000Y-99350000D02*
X168220000Y-94750000D01*
X168370000Y-99350000D02*
X168370000Y-94750000D01*
X168520000Y-99350000D02*
X168520000Y-94750000D01*
X168520000Y-99375000D02*
X166545000Y-99375000D01*
X168670000Y-99350000D02*
X168670000Y-94800000D01*
X168820000Y-99390000D02*
X168820000Y-94750000D01*
X168970000Y-99400000D02*
X168970000Y-94750000D01*
X169120000Y-99400000D02*
X169120000Y-94800000D01*
X169270000Y-99450000D02*
X169270000Y-94740000D01*
X169420000Y-99550000D02*
X169420000Y-94730000D01*
X169508796Y-94725000D02*
X166545000Y-94725000D01*
X169570000Y-99600000D02*
X169570000Y-94750000D01*
X169720000Y-99700000D02*
X169720000Y-94780000D01*
X169870000Y-99800000D02*
X169870000Y-94830000D01*
X170020000Y-99900000D02*
X170020000Y-94910000D01*
X170170000Y-100050000D02*
X170170000Y-95100000D01*
X170320000Y-100200000D02*
X170320000Y-95300000D01*
X170370000Y-95750000D02*
X170370000Y-95426887D01*
X170420000Y-100370000D02*
X170420000Y-96250000D01*
X170520000Y-100550000D02*
X170520000Y-96400000D01*
X170520000Y-100550000D02*
X171795000Y-101575000D01*
X170620000Y-100620000D02*
X170620000Y-96600000D01*
X170720000Y-100700000D02*
X170720000Y-96700000D01*
X170820000Y-100780000D02*
X170820000Y-96750000D01*
X170930000Y-100870000D02*
X170920000Y-96800000D01*
X171070000Y-100970000D02*
X171070000Y-96850000D01*
X171220000Y-101110000D02*
X171220000Y-96950000D01*
X171370000Y-101230000D02*
X171370000Y-96950000D01*
X171520000Y-101340000D02*
X171520000Y-96950000D01*
X171670000Y-101460000D02*
X171670000Y-97000000D01*
X171820000Y-101550000D02*
X171820000Y-96950000D01*
X171970000Y-101550000D02*
X171970000Y-96950000D01*
X172120000Y-101550000D02*
X172120000Y-96950000D01*
X172270000Y-101550000D02*
X172270000Y-96950000D01*
X172420000Y-101550000D02*
X172420000Y-96950000D01*
X172570000Y-101550000D02*
X172570000Y-96950000D01*
X172720000Y-101550000D02*
X172720000Y-96950000D01*
X172870000Y-101550000D02*
X172870000Y-96950000D01*
X173020000Y-101550000D02*
X173020000Y-96950000D01*
X173170000Y-101550000D02*
X173170000Y-96950000D01*
X173320000Y-101550000D02*
X173320000Y-96950000D01*
X173470000Y-101550000D02*
X173470000Y-96950000D01*
X173620000Y-101550000D02*
X173620000Y-96950000D01*
X173770000Y-101550000D02*
X173770000Y-96950000D01*
X173920000Y-101550000D02*
X173920000Y-96950000D01*
X174070000Y-101550000D02*
X174070000Y-96950000D01*
X174120000Y-96925000D02*
X171545000Y-96925000D01*
X174120000Y-101575000D02*
X171795000Y-101575000D01*
X174220000Y-101440000D02*
X174220000Y-97050000D01*
X174370000Y-101300000D02*
X174370000Y-97180000D01*
X174520000Y-101170000D02*
X174520000Y-97340000D01*
X174670000Y-101010000D02*
X174670000Y-97480000D01*
X174770000Y-100910000D02*
X174770000Y-97580000D01*
X174870000Y-100800000D02*
X174870000Y-97680000D01*
X174970000Y-100720000D02*
X174970000Y-97790000D01*
X175120000Y-97925000D02*
X174120000Y-96925000D01*
X175120000Y-97925000D02*
X175120000Y-100575000D01*
X175120000Y-100575000D02*
X174120000Y-101575000D01*
X165515000Y-95725000D02*
G75*
G02*
X166515000Y-94725000I999999J1D01*
G01*
X166515000Y-99375000D02*
G75*
G02*
X165515000Y-98375000I-1J999999D01*
G01*
X168520000Y-99367458D02*
G75*
G02*
X170520000Y-100550000I-2J-2282546D01*
G01*
X169508796Y-94725000D02*
G75*
G02*
X170370000Y-95426887I-38796J-926887D01*
G01*
X171545000Y-96925000D02*
G75*
G02*
X170370000Y-95750000I2J1175002D01*
G01*
X163320000Y-93950000D02*
G75*
G02*
X162320000Y-93950000I-500000J0D01*
G01*
X162320000Y-93950000D02*
G75*
G02*
X163320000Y-93950000I500000J0D01*
G01*
D12*
X184709381Y-112770000D02*
X184907819Y-112770000D01*
X184907819Y-112174686D02*
X184907819Y-113365314D01*
X184907819Y-113365314D02*
X186495323Y-113365314D01*
X185304695Y-113365314D02*
X185304695Y-112174686D01*
X186495323Y-112174686D02*
X184907819Y-112174686D01*
X186495323Y-112770000D02*
X186693761Y-112770000D01*
X186495323Y-113365314D02*
X186495323Y-112174686D01*
X127239381Y-47130000D02*
X127437819Y-47130000D01*
X127437819Y-46534686D02*
X127437819Y-47725314D01*
X127437819Y-47725314D02*
X129025323Y-47725314D01*
X127834695Y-47725314D02*
X127834695Y-46534686D01*
X129025323Y-46534686D02*
X127437819Y-46534686D01*
X129025323Y-47130000D02*
X129223761Y-47130000D01*
X129025323Y-47725314D02*
X129025323Y-46534686D01*
D13*
X181720000Y-62150000D02*
X181720000Y-63650000D01*
D11*
X184615000Y-62970000D02*
X184615000Y-65620000D01*
X184770000Y-66125000D02*
X184770000Y-62445000D01*
X184920000Y-66295000D02*
X184920000Y-62325000D01*
X185070000Y-66435000D02*
X185070000Y-62295000D01*
X185220000Y-66515000D02*
X185220000Y-62395000D01*
X185370000Y-66565000D02*
X185370000Y-62245000D01*
X185520000Y-66605000D02*
X185520000Y-62095000D01*
X185670000Y-66595000D02*
X185670000Y-61995000D01*
X185820000Y-66595000D02*
X185820000Y-61995000D01*
X185970000Y-66595000D02*
X185970000Y-61995000D01*
D13*
X186120000Y-62150000D02*
X181720000Y-62150000D01*
D11*
X186120000Y-66595000D02*
X186120000Y-61995000D01*
X186270000Y-66595000D02*
X186270000Y-61995000D01*
X186420000Y-66595000D02*
X186420000Y-61995000D01*
X186570000Y-66595000D02*
X186570000Y-61995000D01*
X186720000Y-66595000D02*
X186720000Y-61995000D01*
X186870000Y-66595000D02*
X186870000Y-61995000D01*
X187020000Y-66595000D02*
X187020000Y-61995000D01*
X187170000Y-66595000D02*
X187170000Y-61995000D01*
X187320000Y-66595000D02*
X187320000Y-61995000D01*
X187470000Y-66595000D02*
X187470000Y-61995000D01*
X187620000Y-66595000D02*
X187620000Y-61995000D01*
X187620000Y-66620000D02*
X185645000Y-66620000D01*
X187770000Y-66595000D02*
X187770000Y-62045000D01*
X187920000Y-66635000D02*
X187920000Y-61995000D01*
X188070000Y-66645000D02*
X188070000Y-61995000D01*
X188220000Y-66645000D02*
X188220000Y-62045000D01*
X188370000Y-66695000D02*
X188370000Y-61985000D01*
X188520000Y-66795000D02*
X188520000Y-61975000D01*
X188608796Y-61970000D02*
X185645000Y-61970000D01*
X188670000Y-66845000D02*
X188670000Y-61995000D01*
X188820000Y-66945000D02*
X188820000Y-62025000D01*
X188970000Y-67045000D02*
X188970000Y-62075000D01*
X189120000Y-67145000D02*
X189120000Y-62155000D01*
X189270000Y-67295000D02*
X189270000Y-62345000D01*
X189420000Y-67445000D02*
X189420000Y-62545000D01*
X189470000Y-62995000D02*
X189470000Y-62671887D01*
X189520000Y-67615000D02*
X189520000Y-63495000D01*
X189620000Y-67795000D02*
X189620000Y-63645000D01*
X189620000Y-67795000D02*
X190895000Y-68820000D01*
X189720000Y-67865000D02*
X189720000Y-63845000D01*
X189820000Y-67945000D02*
X189820000Y-63945000D01*
X189920000Y-68025000D02*
X189920000Y-63995000D01*
X190030000Y-68115000D02*
X190020000Y-64045000D01*
X190170000Y-68215000D02*
X190170000Y-64095000D01*
X190320000Y-68355000D02*
X190320000Y-64195000D01*
X190470000Y-68475000D02*
X190470000Y-64195000D01*
X190620000Y-68585000D02*
X190620000Y-64195000D01*
X190770000Y-68705000D02*
X190770000Y-64245000D01*
X190920000Y-68795000D02*
X190920000Y-64195000D01*
X191070000Y-68795000D02*
X191070000Y-64195000D01*
X191220000Y-68795000D02*
X191220000Y-64195000D01*
X191370000Y-68795000D02*
X191370000Y-64195000D01*
X191520000Y-68795000D02*
X191520000Y-64195000D01*
X191670000Y-68795000D02*
X191670000Y-64195000D01*
X191820000Y-68795000D02*
X191820000Y-64195000D01*
X191970000Y-68795000D02*
X191970000Y-64195000D01*
X192120000Y-68795000D02*
X192120000Y-64195000D01*
X192270000Y-68795000D02*
X192270000Y-64195000D01*
X192420000Y-68795000D02*
X192420000Y-64195000D01*
X192570000Y-68795000D02*
X192570000Y-64195000D01*
X192720000Y-68795000D02*
X192720000Y-64195000D01*
X192870000Y-68795000D02*
X192870000Y-64195000D01*
X193020000Y-68795000D02*
X193020000Y-64195000D01*
X193170000Y-68795000D02*
X193170000Y-64195000D01*
X193220000Y-64170000D02*
X190645000Y-64170000D01*
X193220000Y-68820000D02*
X190895000Y-68820000D01*
X193320000Y-68685000D02*
X193320000Y-64295000D01*
X193470000Y-68545000D02*
X193470000Y-64425000D01*
X193620000Y-68415000D02*
X193620000Y-64585000D01*
X193770000Y-68255000D02*
X193770000Y-64725000D01*
X193870000Y-68155000D02*
X193870000Y-64825000D01*
X193970000Y-68045000D02*
X193970000Y-64925000D01*
X194070000Y-67965000D02*
X194070000Y-65035000D01*
X194220000Y-65170000D02*
X193220000Y-64170000D01*
X194220000Y-65170000D02*
X194220000Y-67820000D01*
X194220000Y-67820000D02*
X193220000Y-68820000D01*
X184615000Y-62970000D02*
G75*
G02*
X185615000Y-61970000I999999J1D01*
G01*
X185615000Y-66620000D02*
G75*
G02*
X184615000Y-65620000I-1J999999D01*
G01*
X187620000Y-66612458D02*
G75*
G02*
X189620000Y-67795000I-2J-2282546D01*
G01*
X188608796Y-61970000D02*
G75*
G02*
X189470000Y-62671887I-38796J-926887D01*
G01*
X190645000Y-64170000D02*
G75*
G02*
X189470000Y-62995000I2J1175002D01*
G01*
X182420000Y-61195000D02*
G75*
G02*
X181420000Y-61195000I-500000J0D01*
G01*
X181420000Y-61195000D02*
G75*
G02*
X182420000Y-61195000I500000J0D01*
G01*
D13*
X200903437Y-100535000D02*
X200903437Y-102035000D01*
D11*
X203798437Y-101355000D02*
X203798437Y-104005000D01*
X203953437Y-104510000D02*
X203953437Y-100830000D01*
X204103437Y-104680000D02*
X204103437Y-100710000D01*
X204253437Y-104820000D02*
X204253437Y-100680000D01*
X204403437Y-104900000D02*
X204403437Y-100780000D01*
X204553437Y-104950000D02*
X204553437Y-100630000D01*
X204703437Y-104990000D02*
X204703437Y-100480000D01*
X204853437Y-104980000D02*
X204853437Y-100380000D01*
X205003437Y-104980000D02*
X205003437Y-100380000D01*
X205153437Y-104980000D02*
X205153437Y-100380000D01*
D13*
X205303437Y-100535000D02*
X200903437Y-100535000D01*
D11*
X205303437Y-104980000D02*
X205303437Y-100380000D01*
X205453437Y-104980000D02*
X205453437Y-100380000D01*
X205603437Y-104980000D02*
X205603437Y-100380000D01*
X205753437Y-104980000D02*
X205753437Y-100380000D01*
X205903437Y-104980000D02*
X205903437Y-100380000D01*
X206053437Y-104980000D02*
X206053437Y-100380000D01*
X206203437Y-104980000D02*
X206203437Y-100380000D01*
X206353437Y-104980000D02*
X206353437Y-100380000D01*
X206503437Y-104980000D02*
X206503437Y-100380000D01*
X206653437Y-104980000D02*
X206653437Y-100380000D01*
X206803437Y-104980000D02*
X206803437Y-100380000D01*
X206803437Y-105005000D02*
X204828437Y-105005000D01*
X206953437Y-104980000D02*
X206953437Y-100430000D01*
X207103437Y-105020000D02*
X207103437Y-100380000D01*
X207253437Y-105030000D02*
X207253437Y-100380000D01*
X207403437Y-105030000D02*
X207403437Y-100430000D01*
X207553437Y-105080000D02*
X207553437Y-100370000D01*
X207703437Y-105180000D02*
X207703437Y-100360000D01*
X207792233Y-100355000D02*
X204828437Y-100355000D01*
X207853437Y-105230000D02*
X207853437Y-100380000D01*
X208003437Y-105330000D02*
X208003437Y-100410000D01*
X208153437Y-105430000D02*
X208153437Y-100460000D01*
X208303437Y-105530000D02*
X208303437Y-100540000D01*
X208453437Y-105680000D02*
X208453437Y-100730000D01*
X208603437Y-105830000D02*
X208603437Y-100930000D01*
X208653437Y-101380000D02*
X208653437Y-101056887D01*
X208703437Y-106000000D02*
X208703437Y-101880000D01*
X208803437Y-106180000D02*
X208803437Y-102030000D01*
X208803437Y-106180000D02*
X210078437Y-107205000D01*
X208903437Y-106250000D02*
X208903437Y-102230000D01*
X209003437Y-106330000D02*
X209003437Y-102330000D01*
X209103437Y-106410000D02*
X209103437Y-102380000D01*
X209213437Y-106500000D02*
X209203437Y-102430000D01*
X209353437Y-106600000D02*
X209353437Y-102480000D01*
X209503437Y-106740000D02*
X209503437Y-102580000D01*
X209653437Y-106860000D02*
X209653437Y-102580000D01*
X209803437Y-106970000D02*
X209803437Y-102580000D01*
X209953437Y-107090000D02*
X209953437Y-102630000D01*
X210103437Y-107180000D02*
X210103437Y-102580000D01*
X210253437Y-107180000D02*
X210253437Y-102580000D01*
X210403437Y-107180000D02*
X210403437Y-102580000D01*
X210553437Y-107180000D02*
X210553437Y-102580000D01*
X210703437Y-107180000D02*
X210703437Y-102580000D01*
X210853437Y-107180000D02*
X210853437Y-102580000D01*
X211003437Y-107180000D02*
X211003437Y-102580000D01*
X211153437Y-107180000D02*
X211153437Y-102580000D01*
X211303437Y-107180000D02*
X211303437Y-102580000D01*
X211453437Y-107180000D02*
X211453437Y-102580000D01*
X211603437Y-107180000D02*
X211603437Y-102580000D01*
X211753437Y-107180000D02*
X211753437Y-102580000D01*
X211903437Y-107180000D02*
X211903437Y-102580000D01*
X212053437Y-107180000D02*
X212053437Y-102580000D01*
X212203437Y-107180000D02*
X212203437Y-102580000D01*
X212353437Y-107180000D02*
X212353437Y-102580000D01*
X212403437Y-102555000D02*
X209828437Y-102555000D01*
X212403437Y-107205000D02*
X210078437Y-107205000D01*
X212503437Y-107070000D02*
X212503437Y-102680000D01*
X212653437Y-106930000D02*
X212653437Y-102810000D01*
X212803437Y-106800000D02*
X212803437Y-102970000D01*
X212953437Y-106640000D02*
X212953437Y-103110000D01*
X213053437Y-106540000D02*
X213053437Y-103210000D01*
X213153437Y-106430000D02*
X213153437Y-103310000D01*
X213253437Y-106350000D02*
X213253437Y-103420000D01*
X213403437Y-103555000D02*
X212403437Y-102555000D01*
X213403437Y-103555000D02*
X213403437Y-106205000D01*
X213403437Y-106205000D02*
X212403437Y-107205000D01*
X203798437Y-101355000D02*
G75*
G02*
X204798437Y-100355000I999999J1D01*
G01*
X204798437Y-105005000D02*
G75*
G02*
X203798437Y-104005000I-1J999999D01*
G01*
X206803437Y-104997458D02*
G75*
G02*
X208803437Y-106180000I-2J-2282546D01*
G01*
X207792233Y-100355000D02*
G75*
G02*
X208653437Y-101056887I-38796J-926887D01*
G01*
X209828437Y-102555000D02*
G75*
G02*
X208653437Y-101380000I2J1175002D01*
G01*
X201603437Y-99580000D02*
G75*
G02*
X200603437Y-99580000I-500000J0D01*
G01*
X200603437Y-99580000D02*
G75*
G02*
X201603437Y-99580000I500000J0D01*
G01*
D13*
X143420000Y-70765000D02*
X143420000Y-72265000D01*
D11*
X146315000Y-71585000D02*
X146315000Y-74235000D01*
X146470000Y-74740000D02*
X146470000Y-71060000D01*
X146620000Y-74910000D02*
X146620000Y-70940000D01*
X146770000Y-75050000D02*
X146770000Y-70910000D01*
X146920000Y-75130000D02*
X146920000Y-71010000D01*
X147070000Y-75180000D02*
X147070000Y-70860000D01*
X147220000Y-75220000D02*
X147220000Y-70710000D01*
X147370000Y-75210000D02*
X147370000Y-70610000D01*
X147520000Y-75210000D02*
X147520000Y-70610000D01*
X147670000Y-75210000D02*
X147670000Y-70610000D01*
D13*
X147820000Y-70765000D02*
X143420000Y-70765000D01*
D11*
X147820000Y-75210000D02*
X147820000Y-70610000D01*
X147970000Y-75210000D02*
X147970000Y-70610000D01*
X148120000Y-75210000D02*
X148120000Y-70610000D01*
X148270000Y-75210000D02*
X148270000Y-70610000D01*
X148420000Y-75210000D02*
X148420000Y-70610000D01*
X148570000Y-75210000D02*
X148570000Y-70610000D01*
X148720000Y-75210000D02*
X148720000Y-70610000D01*
X148870000Y-75210000D02*
X148870000Y-70610000D01*
X149020000Y-75210000D02*
X149020000Y-70610000D01*
X149170000Y-75210000D02*
X149170000Y-70610000D01*
X149320000Y-75210000D02*
X149320000Y-70610000D01*
X149320000Y-75235000D02*
X147345000Y-75235000D01*
X149470000Y-75210000D02*
X149470000Y-70660000D01*
X149620000Y-75250000D02*
X149620000Y-70610000D01*
X149770000Y-75260000D02*
X149770000Y-70610000D01*
X149920000Y-75260000D02*
X149920000Y-70660000D01*
X150070000Y-75310000D02*
X150070000Y-70600000D01*
X150220000Y-75410000D02*
X150220000Y-70590000D01*
X150308796Y-70585000D02*
X147345000Y-70585000D01*
X150370000Y-75460000D02*
X150370000Y-70610000D01*
X150520000Y-75560000D02*
X150520000Y-70640000D01*
X150670000Y-75660000D02*
X150670000Y-70690000D01*
X150820000Y-75760000D02*
X150820000Y-70770000D01*
X150970000Y-75910000D02*
X150970000Y-70960000D01*
X151120000Y-76060000D02*
X151120000Y-71160000D01*
X151170000Y-71610000D02*
X151170000Y-71286887D01*
X151220000Y-76230000D02*
X151220000Y-72110000D01*
X151320000Y-76410000D02*
X151320000Y-72260000D01*
X151320000Y-76410000D02*
X152595000Y-77435000D01*
X151420000Y-76480000D02*
X151420000Y-72460000D01*
X151520000Y-76560000D02*
X151520000Y-72560000D01*
X151620000Y-76640000D02*
X151620000Y-72610000D01*
X151730000Y-76730000D02*
X151720000Y-72660000D01*
X151870000Y-76830000D02*
X151870000Y-72710000D01*
X152020000Y-76970000D02*
X152020000Y-72810000D01*
X152170000Y-77090000D02*
X152170000Y-72810000D01*
X152320000Y-77200000D02*
X152320000Y-72810000D01*
X152470000Y-77320000D02*
X152470000Y-72860000D01*
X152620000Y-77410000D02*
X152620000Y-72810000D01*
X152770000Y-77410000D02*
X152770000Y-72810000D01*
X152920000Y-77410000D02*
X152920000Y-72810000D01*
X153070000Y-77410000D02*
X153070000Y-72810000D01*
X153220000Y-77410000D02*
X153220000Y-72810000D01*
X153370000Y-77410000D02*
X153370000Y-72810000D01*
X153520000Y-77410000D02*
X153520000Y-72810000D01*
X153670000Y-77410000D02*
X153670000Y-72810000D01*
X153820000Y-77410000D02*
X153820000Y-72810000D01*
X153970000Y-77410000D02*
X153970000Y-72810000D01*
X154120000Y-77410000D02*
X154120000Y-72810000D01*
X154270000Y-77410000D02*
X154270000Y-72810000D01*
X154420000Y-77410000D02*
X154420000Y-72810000D01*
X154570000Y-77410000D02*
X154570000Y-72810000D01*
X154720000Y-77410000D02*
X154720000Y-72810000D01*
X154870000Y-77410000D02*
X154870000Y-72810000D01*
X154920000Y-72785000D02*
X152345000Y-72785000D01*
X154920000Y-77435000D02*
X152595000Y-77435000D01*
X155020000Y-77300000D02*
X155020000Y-72910000D01*
X155170000Y-77160000D02*
X155170000Y-73040000D01*
X155320000Y-77030000D02*
X155320000Y-73200000D01*
X155470000Y-76870000D02*
X155470000Y-73340000D01*
X155570000Y-76770000D02*
X155570000Y-73440000D01*
X155670000Y-76660000D02*
X155670000Y-73540000D01*
X155770000Y-76580000D02*
X155770000Y-73650000D01*
X155920000Y-73785000D02*
X154920000Y-72785000D01*
X155920000Y-73785000D02*
X155920000Y-76435000D01*
X155920000Y-76435000D02*
X154920000Y-77435000D01*
X146315000Y-71585000D02*
G75*
G02*
X147315000Y-70585000I999999J1D01*
G01*
X147315000Y-75235000D02*
G75*
G02*
X146315000Y-74235000I-1J999999D01*
G01*
X149320000Y-75227458D02*
G75*
G02*
X151320000Y-76410000I-2J-2282546D01*
G01*
X150308796Y-70585000D02*
G75*
G02*
X151170000Y-71286887I-38796J-926887D01*
G01*
X152345000Y-72785000D02*
G75*
G02*
X151170000Y-71610000I2J1175002D01*
G01*
X144120000Y-69810000D02*
G75*
G02*
X143120000Y-69810000I-500000J0D01*
G01*
X143120000Y-69810000D02*
G75*
G02*
X144120000Y-69810000I500000J0D01*
G01*
D12*
X184742818Y-55400000D02*
X184941256Y-55400000D01*
X184941256Y-54804686D02*
X184941256Y-55995314D01*
X184941256Y-55995314D02*
X186528760Y-55995314D01*
X185338132Y-55995314D02*
X185338132Y-54804686D01*
X186528760Y-54804686D02*
X184941256Y-54804686D01*
X186528760Y-55400000D02*
X186727198Y-55400000D01*
X186528760Y-55995314D02*
X186528760Y-54804686D01*
X127229381Y-66320000D02*
X127427819Y-66320000D01*
X127427819Y-65724686D02*
X127427819Y-66915314D01*
X127427819Y-66915314D02*
X129015323Y-66915314D01*
X127824695Y-66915314D02*
X127824695Y-65724686D01*
X129015323Y-65724686D02*
X127427819Y-65724686D01*
X129015323Y-66320000D02*
X129213761Y-66320000D01*
X129015323Y-66915314D02*
X129015323Y-65724686D01*
D13*
X143420000Y-89930000D02*
X143420000Y-91430000D01*
D11*
X146315000Y-90750000D02*
X146315000Y-93400000D01*
X146470000Y-93905000D02*
X146470000Y-90225000D01*
X146620000Y-94075000D02*
X146620000Y-90105000D01*
X146770000Y-94215000D02*
X146770000Y-90075000D01*
X146920000Y-94295000D02*
X146920000Y-90175000D01*
X147070000Y-94345000D02*
X147070000Y-90025000D01*
X147220000Y-94385000D02*
X147220000Y-89875000D01*
X147370000Y-94375000D02*
X147370000Y-89775000D01*
X147520000Y-94375000D02*
X147520000Y-89775000D01*
X147670000Y-94375000D02*
X147670000Y-89775000D01*
D13*
X147820000Y-89930000D02*
X143420000Y-89930000D01*
D11*
X147820000Y-94375000D02*
X147820000Y-89775000D01*
X147970000Y-94375000D02*
X147970000Y-89775000D01*
X148120000Y-94375000D02*
X148120000Y-89775000D01*
X148270000Y-94375000D02*
X148270000Y-89775000D01*
X148420000Y-94375000D02*
X148420000Y-89775000D01*
X148570000Y-94375000D02*
X148570000Y-89775000D01*
X148720000Y-94375000D02*
X148720000Y-89775000D01*
X148870000Y-94375000D02*
X148870000Y-89775000D01*
X149020000Y-94375000D02*
X149020000Y-89775000D01*
X149170000Y-94375000D02*
X149170000Y-89775000D01*
X149320000Y-94375000D02*
X149320000Y-89775000D01*
X149320000Y-94400000D02*
X147345000Y-94400000D01*
X149470000Y-94375000D02*
X149470000Y-89825000D01*
X149620000Y-94415000D02*
X149620000Y-89775000D01*
X149770000Y-94425000D02*
X149770000Y-89775000D01*
X149920000Y-94425000D02*
X149920000Y-89825000D01*
X150070000Y-94475000D02*
X150070000Y-89765000D01*
X150220000Y-94575000D02*
X150220000Y-89755000D01*
X150308796Y-89750000D02*
X147345000Y-89750000D01*
X150370000Y-94625000D02*
X150370000Y-89775000D01*
X150520000Y-94725000D02*
X150520000Y-89805000D01*
X150670000Y-94825000D02*
X150670000Y-89855000D01*
X150820000Y-94925000D02*
X150820000Y-89935000D01*
X150970000Y-95075000D02*
X150970000Y-90125000D01*
X151120000Y-95225000D02*
X151120000Y-90325000D01*
X151170000Y-90775000D02*
X151170000Y-90451887D01*
X151220000Y-95395000D02*
X151220000Y-91275000D01*
X151320000Y-95575000D02*
X151320000Y-91425000D01*
X151320000Y-95575000D02*
X152595000Y-96600000D01*
X151420000Y-95645000D02*
X151420000Y-91625000D01*
X151520000Y-95725000D02*
X151520000Y-91725000D01*
X151620000Y-95805000D02*
X151620000Y-91775000D01*
X151730000Y-95895000D02*
X151720000Y-91825000D01*
X151870000Y-95995000D02*
X151870000Y-91875000D01*
X152020000Y-96135000D02*
X152020000Y-91975000D01*
X152170000Y-96255000D02*
X152170000Y-91975000D01*
X152320000Y-96365000D02*
X152320000Y-91975000D01*
X152470000Y-96485000D02*
X152470000Y-92025000D01*
X152620000Y-96575000D02*
X152620000Y-91975000D01*
X152770000Y-96575000D02*
X152770000Y-91975000D01*
X152920000Y-96575000D02*
X152920000Y-91975000D01*
X153070000Y-96575000D02*
X153070000Y-91975000D01*
X153220000Y-96575000D02*
X153220000Y-91975000D01*
X153370000Y-96575000D02*
X153370000Y-91975000D01*
X153520000Y-96575000D02*
X153520000Y-91975000D01*
X153670000Y-96575000D02*
X153670000Y-91975000D01*
X153820000Y-96575000D02*
X153820000Y-91975000D01*
X153970000Y-96575000D02*
X153970000Y-91975000D01*
X154120000Y-96575000D02*
X154120000Y-91975000D01*
X154270000Y-96575000D02*
X154270000Y-91975000D01*
X154420000Y-96575000D02*
X154420000Y-91975000D01*
X154570000Y-96575000D02*
X154570000Y-91975000D01*
X154720000Y-96575000D02*
X154720000Y-91975000D01*
X154870000Y-96575000D02*
X154870000Y-91975000D01*
X154920000Y-91950000D02*
X152345000Y-91950000D01*
X154920000Y-96600000D02*
X152595000Y-96600000D01*
X155020000Y-96465000D02*
X155020000Y-92075000D01*
X155170000Y-96325000D02*
X155170000Y-92205000D01*
X155320000Y-96195000D02*
X155320000Y-92365000D01*
X155470000Y-96035000D02*
X155470000Y-92505000D01*
X155570000Y-95935000D02*
X155570000Y-92605000D01*
X155670000Y-95825000D02*
X155670000Y-92705000D01*
X155770000Y-95745000D02*
X155770000Y-92815000D01*
X155920000Y-92950000D02*
X154920000Y-91950000D01*
X155920000Y-92950000D02*
X155920000Y-95600000D01*
X155920000Y-95600000D02*
X154920000Y-96600000D01*
X146315000Y-90750000D02*
G75*
G02*
X147315000Y-89750000I999999J1D01*
G01*
X147315000Y-94400000D02*
G75*
G02*
X146315000Y-93400000I-1J999999D01*
G01*
X149320000Y-94392458D02*
G75*
G02*
X151320000Y-95575000I-2J-2282546D01*
G01*
X150308796Y-89750000D02*
G75*
G02*
X151170000Y-90451887I-38796J-926887D01*
G01*
X152345000Y-91950000D02*
G75*
G02*
X151170000Y-90775000I2J1175002D01*
G01*
X144120000Y-88975000D02*
G75*
G02*
X143120000Y-88975000I-500000J0D01*
G01*
X143120000Y-88975000D02*
G75*
G02*
X144120000Y-88975000I500000J0D01*
G01*
D12*
X146429381Y-83160000D02*
X146627819Y-83160000D01*
X146627819Y-82564686D02*
X146627819Y-83755314D01*
X146627819Y-83755314D02*
X148215323Y-83755314D01*
X147024695Y-83755314D02*
X147024695Y-82564686D01*
X148215323Y-82564686D02*
X146627819Y-82564686D01*
X148215323Y-83160000D02*
X148413761Y-83160000D01*
X148215323Y-83755314D02*
X148215323Y-82564686D01*
D14*
X100088388Y-122391846D02*
X100809028Y-126478798D01*
X101388256Y-126884378D02*
X104638121Y-126311339D01*
X104298441Y-121649500D02*
X100088388Y-122391846D01*
X105831307Y-127319460D02*
X105796577Y-127122499D01*
X106989763Y-128130620D02*
X105831307Y-127319460D01*
X107152874Y-123380125D02*
X108890520Y-123073731D01*
X108890520Y-123073731D02*
X110048976Y-123884891D01*
X109697984Y-127653087D02*
X106989763Y-128130620D01*
X110048976Y-123884891D02*
X110509144Y-126494631D01*
X110509144Y-126494631D02*
X109697984Y-127653087D01*
X101388256Y-126884378D02*
G75*
G02*
X100809027Y-126478798I-86824J492405D01*
G01*
X104326619Y-121644532D02*
G75*
G02*
X104891851Y-121991585I86824J-492405D01*
G01*
X104638121Y-126311339D02*
G75*
G02*
X105796577Y-127122499I173649J-984807D01*
G01*
X107152874Y-123380125D02*
G75*
G02*
X104891952Y-121991914I-347295J1969616D01*
G01*
D15*
X104648929Y-121753469D02*
X104891851Y-121991585D01*
X105182893Y-122663264D01*
X105732811Y-123157413D01*
X106422255Y-123424353D01*
X107152874Y-123380125D01*
X108890520Y-123073731D01*
X110048976Y-123884891D01*
X110509144Y-126494631D01*
X109697984Y-127653087D01*
X106989763Y-128130620D01*
X105831307Y-127319460D01*
X105702182Y-126731126D01*
X105414025Y-126436037D01*
X105039031Y-126271036D01*
X104638121Y-126311339D01*
X101388256Y-126884378D01*
X101043322Y-126760593D01*
X100809028Y-126478798D01*
X100088388Y-122391846D01*
X104326619Y-121644532D01*
X104648929Y-121753469D01*
G36*
X104648929Y-121753469D02*
G01*
X104891851Y-121991585D01*
X105182893Y-122663264D01*
X105732811Y-123157413D01*
X106422255Y-123424353D01*
X107152874Y-123380125D01*
X108890520Y-123073731D01*
X110048976Y-123884891D01*
X110509144Y-126494631D01*
X109697984Y-127653087D01*
X106989763Y-128130620D01*
X105831307Y-127319460D01*
X105702182Y-126731126D01*
X105414025Y-126436037D01*
X105039031Y-126271036D01*
X104638121Y-126311339D01*
X101388256Y-126884378D01*
X101043322Y-126760593D01*
X100809028Y-126478798D01*
X100088388Y-122391846D01*
X104326619Y-121644532D01*
X104648929Y-121753469D01*
G37*
D12*
X108059381Y-68560000D02*
X108257819Y-68560000D01*
X108257819Y-67964686D02*
X108257819Y-69155314D01*
X108257819Y-69155314D02*
X109845323Y-69155314D01*
X108654695Y-69155314D02*
X108654695Y-67964686D01*
X109845323Y-67964686D02*
X108257819Y-67964686D01*
X109845323Y-68560000D02*
X110043761Y-68560000D01*
X109845323Y-69155314D02*
X109845323Y-67964686D01*
X100109381Y-87930000D02*
X100307819Y-87930000D01*
X100307819Y-87334686D02*
X100307819Y-88525314D01*
X100307819Y-88525314D02*
X101895323Y-88525314D01*
X100704695Y-88525314D02*
X100704695Y-87334686D01*
X101895323Y-87334686D02*
X100307819Y-87334686D01*
X101895323Y-87930000D02*
X102093761Y-87930000D01*
X101895323Y-88525314D02*
X101895323Y-87334686D01*
D13*
X200903437Y-81355000D02*
X200903437Y-82855000D01*
D11*
X203798437Y-82175000D02*
X203798437Y-84825000D01*
X203953437Y-85330000D02*
X203953437Y-81650000D01*
X204103437Y-85500000D02*
X204103437Y-81530000D01*
X204253437Y-85640000D02*
X204253437Y-81500000D01*
X204403437Y-85720000D02*
X204403437Y-81600000D01*
X204553437Y-85770000D02*
X204553437Y-81450000D01*
X204703437Y-85810000D02*
X204703437Y-81300000D01*
X204853437Y-85800000D02*
X204853437Y-81200000D01*
X205003437Y-85800000D02*
X205003437Y-81200000D01*
X205153437Y-85800000D02*
X205153437Y-81200000D01*
D13*
X205303437Y-81355000D02*
X200903437Y-81355000D01*
D11*
X205303437Y-85800000D02*
X205303437Y-81200000D01*
X205453437Y-85800000D02*
X205453437Y-81200000D01*
X205603437Y-85800000D02*
X205603437Y-81200000D01*
X205753437Y-85800000D02*
X205753437Y-81200000D01*
X205903437Y-85800000D02*
X205903437Y-81200000D01*
X206053437Y-85800000D02*
X206053437Y-81200000D01*
X206203437Y-85800000D02*
X206203437Y-81200000D01*
X206353437Y-85800000D02*
X206353437Y-81200000D01*
X206503437Y-85800000D02*
X206503437Y-81200000D01*
X206653437Y-85800000D02*
X206653437Y-81200000D01*
X206803437Y-85800000D02*
X206803437Y-81200000D01*
X206803437Y-85825000D02*
X204828437Y-85825000D01*
X206953437Y-85800000D02*
X206953437Y-81250000D01*
X207103437Y-85840000D02*
X207103437Y-81200000D01*
X207253437Y-85850000D02*
X207253437Y-81200000D01*
X207403437Y-85850000D02*
X207403437Y-81250000D01*
X207553437Y-85900000D02*
X207553437Y-81190000D01*
X207703437Y-86000000D02*
X207703437Y-81180000D01*
X207792233Y-81175000D02*
X204828437Y-81175000D01*
X207853437Y-86050000D02*
X207853437Y-81200000D01*
X208003437Y-86150000D02*
X208003437Y-81230000D01*
X208153437Y-86250000D02*
X208153437Y-81280000D01*
X208303437Y-86350000D02*
X208303437Y-81360000D01*
X208453437Y-86500000D02*
X208453437Y-81550000D01*
X208603437Y-86650000D02*
X208603437Y-81750000D01*
X208653437Y-82200000D02*
X208653437Y-81876887D01*
X208703437Y-86820000D02*
X208703437Y-82700000D01*
X208803437Y-87000000D02*
X208803437Y-82850000D01*
X208803437Y-87000000D02*
X210078437Y-88025000D01*
X208903437Y-87070000D02*
X208903437Y-83050000D01*
X209003437Y-87150000D02*
X209003437Y-83150000D01*
X209103437Y-87230000D02*
X209103437Y-83200000D01*
X209213437Y-87320000D02*
X209203437Y-83250000D01*
X209353437Y-87420000D02*
X209353437Y-83300000D01*
X209503437Y-87560000D02*
X209503437Y-83400000D01*
X209653437Y-87680000D02*
X209653437Y-83400000D01*
X209803437Y-87790000D02*
X209803437Y-83400000D01*
X209953437Y-87910000D02*
X209953437Y-83450000D01*
X210103437Y-88000000D02*
X210103437Y-83400000D01*
X210253437Y-88000000D02*
X210253437Y-83400000D01*
X210403437Y-88000000D02*
X210403437Y-83400000D01*
X210553437Y-88000000D02*
X210553437Y-83400000D01*
X210703437Y-88000000D02*
X210703437Y-83400000D01*
X210853437Y-88000000D02*
X210853437Y-83400000D01*
X211003437Y-88000000D02*
X211003437Y-83400000D01*
X211153437Y-88000000D02*
X211153437Y-83400000D01*
X211303437Y-88000000D02*
X211303437Y-83400000D01*
X211453437Y-88000000D02*
X211453437Y-83400000D01*
X211603437Y-88000000D02*
X211603437Y-83400000D01*
X211753437Y-88000000D02*
X211753437Y-83400000D01*
X211903437Y-88000000D02*
X211903437Y-83400000D01*
X212053437Y-88000000D02*
X212053437Y-83400000D01*
X212203437Y-88000000D02*
X212203437Y-83400000D01*
X212353437Y-88000000D02*
X212353437Y-83400000D01*
X212403437Y-83375000D02*
X209828437Y-83375000D01*
X212403437Y-88025000D02*
X210078437Y-88025000D01*
X212503437Y-87890000D02*
X212503437Y-83500000D01*
X212653437Y-87750000D02*
X212653437Y-83630000D01*
X212803437Y-87620000D02*
X212803437Y-83790000D01*
X212953437Y-87460000D02*
X212953437Y-83930000D01*
X213053437Y-87360000D02*
X213053437Y-84030000D01*
X213153437Y-87250000D02*
X213153437Y-84130000D01*
X213253437Y-87170000D02*
X213253437Y-84240000D01*
X213403437Y-84375000D02*
X212403437Y-83375000D01*
X213403437Y-84375000D02*
X213403437Y-87025000D01*
X213403437Y-87025000D02*
X212403437Y-88025000D01*
X203798437Y-82175000D02*
G75*
G02*
X204798437Y-81175000I999999J1D01*
G01*
X204798437Y-85825000D02*
G75*
G02*
X203798437Y-84825000I-1J999999D01*
G01*
X206803437Y-85817458D02*
G75*
G02*
X208803437Y-87000000I-2J-2282546D01*
G01*
X207792233Y-81175000D02*
G75*
G02*
X208653437Y-81876887I-38796J-926887D01*
G01*
X209828437Y-83375000D02*
G75*
G02*
X208653437Y-82200000I2J1175002D01*
G01*
X201603437Y-80400000D02*
G75*
G02*
X200603437Y-80400000I-500000J0D01*
G01*
X200603437Y-80400000D02*
G75*
G02*
X201603437Y-80400000I500000J0D01*
G01*
D12*
X184742818Y-74580000D02*
X184941256Y-74580000D01*
X184941256Y-73984686D02*
X184941256Y-75175314D01*
X184941256Y-75175314D02*
X186528760Y-75175314D01*
X185338132Y-75175314D02*
X185338132Y-73984686D01*
X186528760Y-73984686D02*
X184941256Y-73984686D01*
X186528760Y-74580000D02*
X186727198Y-74580000D01*
X186528760Y-75175314D02*
X186528760Y-73984686D01*
D13*
X124230000Y-53915000D02*
X124230000Y-55415000D01*
D11*
X127125000Y-54735000D02*
X127125000Y-57385000D01*
X127280000Y-57890000D02*
X127280000Y-54210000D01*
X127430000Y-58060000D02*
X127430000Y-54090000D01*
X127580000Y-58200000D02*
X127580000Y-54060000D01*
X127730000Y-58280000D02*
X127730000Y-54160000D01*
X127880000Y-58330000D02*
X127880000Y-54010000D01*
X128030000Y-58370000D02*
X128030000Y-53860000D01*
X128180000Y-58360000D02*
X128180000Y-53760000D01*
X128330000Y-58360000D02*
X128330000Y-53760000D01*
X128480000Y-58360000D02*
X128480000Y-53760000D01*
D13*
X128630000Y-53915000D02*
X124230000Y-53915000D01*
D11*
X128630000Y-58360000D02*
X128630000Y-53760000D01*
X128780000Y-58360000D02*
X128780000Y-53760000D01*
X128930000Y-58360000D02*
X128930000Y-53760000D01*
X129080000Y-58360000D02*
X129080000Y-53760000D01*
X129230000Y-58360000D02*
X129230000Y-53760000D01*
X129380000Y-58360000D02*
X129380000Y-53760000D01*
X129530000Y-58360000D02*
X129530000Y-53760000D01*
X129680000Y-58360000D02*
X129680000Y-53760000D01*
X129830000Y-58360000D02*
X129830000Y-53760000D01*
X129980000Y-58360000D02*
X129980000Y-53760000D01*
X130130000Y-58360000D02*
X130130000Y-53760000D01*
X130130000Y-58385000D02*
X128155000Y-58385000D01*
X130280000Y-58360000D02*
X130280000Y-53810000D01*
X130430000Y-58400000D02*
X130430000Y-53760000D01*
X130580000Y-58410000D02*
X130580000Y-53760000D01*
X130730000Y-58410000D02*
X130730000Y-53810000D01*
X130880000Y-58460000D02*
X130880000Y-53750000D01*
X131030000Y-58560000D02*
X131030000Y-53740000D01*
X131118796Y-53735000D02*
X128155000Y-53735000D01*
X131180000Y-58610000D02*
X131180000Y-53760000D01*
X131330000Y-58710000D02*
X131330000Y-53790000D01*
X131480000Y-58810000D02*
X131480000Y-53840000D01*
X131630000Y-58910000D02*
X131630000Y-53920000D01*
X131780000Y-59060000D02*
X131780000Y-54110000D01*
X131930000Y-59210000D02*
X131930000Y-54310000D01*
X131980000Y-54760000D02*
X131980000Y-54436887D01*
X132030000Y-59380000D02*
X132030000Y-55260000D01*
X132130000Y-59560000D02*
X132130000Y-55410000D01*
X132130000Y-59560000D02*
X133405000Y-60585000D01*
X132230000Y-59630000D02*
X132230000Y-55610000D01*
X132330000Y-59710000D02*
X132330000Y-55710000D01*
X132430000Y-59790000D02*
X132430000Y-55760000D01*
X132540000Y-59880000D02*
X132530000Y-55810000D01*
X132680000Y-59980000D02*
X132680000Y-55860000D01*
X132830000Y-60120000D02*
X132830000Y-55960000D01*
X132980000Y-60240000D02*
X132980000Y-55960000D01*
X133130000Y-60350000D02*
X133130000Y-55960000D01*
X133280000Y-60470000D02*
X133280000Y-56010000D01*
X133430000Y-60560000D02*
X133430000Y-55960000D01*
X133580000Y-60560000D02*
X133580000Y-55960000D01*
X133730000Y-60560000D02*
X133730000Y-55960000D01*
X133880000Y-60560000D02*
X133880000Y-55960000D01*
X134030000Y-60560000D02*
X134030000Y-55960000D01*
X134180000Y-60560000D02*
X134180000Y-55960000D01*
X134330000Y-60560000D02*
X134330000Y-55960000D01*
X134480000Y-60560000D02*
X134480000Y-55960000D01*
X134630000Y-60560000D02*
X134630000Y-55960000D01*
X134780000Y-60560000D02*
X134780000Y-55960000D01*
X134930000Y-60560000D02*
X134930000Y-55960000D01*
X135080000Y-60560000D02*
X135080000Y-55960000D01*
X135230000Y-60560000D02*
X135230000Y-55960000D01*
X135380000Y-60560000D02*
X135380000Y-55960000D01*
X135530000Y-60560000D02*
X135530000Y-55960000D01*
X135680000Y-60560000D02*
X135680000Y-55960000D01*
X135730000Y-55935000D02*
X133155000Y-55935000D01*
X135730000Y-60585000D02*
X133405000Y-60585000D01*
X135830000Y-60450000D02*
X135830000Y-56060000D01*
X135980000Y-60310000D02*
X135980000Y-56190000D01*
X136130000Y-60180000D02*
X136130000Y-56350000D01*
X136280000Y-60020000D02*
X136280000Y-56490000D01*
X136380000Y-59920000D02*
X136380000Y-56590000D01*
X136480000Y-59810000D02*
X136480000Y-56690000D01*
X136580000Y-59730000D02*
X136580000Y-56800000D01*
X136730000Y-56935000D02*
X135730000Y-55935000D01*
X136730000Y-56935000D02*
X136730000Y-59585000D01*
X136730000Y-59585000D02*
X135730000Y-60585000D01*
X127125000Y-54735000D02*
G75*
G02*
X128125000Y-53735000I999999J1D01*
G01*
X128125000Y-58385000D02*
G75*
G02*
X127125000Y-57385000I-1J999999D01*
G01*
X130130000Y-58377458D02*
G75*
G02*
X132130000Y-59560000I-2J-2282546D01*
G01*
X131118796Y-53735000D02*
G75*
G02*
X131980000Y-54436887I-38796J-926887D01*
G01*
X133155000Y-55935000D02*
G75*
G02*
X131980000Y-54760000I2J1175002D01*
G01*
X124930000Y-52960000D02*
G75*
G02*
X123930000Y-52960000I-500000J0D01*
G01*
X123930000Y-52960000D02*
G75*
G02*
X124930000Y-52960000I500000J0D01*
G01*
D13*
X105050625Y-75340000D02*
X105050625Y-76840000D01*
D11*
X107945625Y-76160000D02*
X107945625Y-78810000D01*
X108100625Y-79315000D02*
X108100625Y-75635000D01*
X108250625Y-79485000D02*
X108250625Y-75515000D01*
X108400625Y-79625000D02*
X108400625Y-75485000D01*
X108550625Y-79705000D02*
X108550625Y-75585000D01*
X108700625Y-79755000D02*
X108700625Y-75435000D01*
X108850625Y-79795000D02*
X108850625Y-75285000D01*
X109000625Y-79785000D02*
X109000625Y-75185000D01*
X109150625Y-79785000D02*
X109150625Y-75185000D01*
X109300625Y-79785000D02*
X109300625Y-75185000D01*
D13*
X109450625Y-75340000D02*
X105050625Y-75340000D01*
D11*
X109450625Y-79785000D02*
X109450625Y-75185000D01*
X109600625Y-79785000D02*
X109600625Y-75185000D01*
X109750625Y-79785000D02*
X109750625Y-75185000D01*
X109900625Y-79785000D02*
X109900625Y-75185000D01*
X110050625Y-79785000D02*
X110050625Y-75185000D01*
X110200625Y-79785000D02*
X110200625Y-75185000D01*
X110350625Y-79785000D02*
X110350625Y-75185000D01*
X110500625Y-79785000D02*
X110500625Y-75185000D01*
X110650625Y-79785000D02*
X110650625Y-75185000D01*
X110800625Y-79785000D02*
X110800625Y-75185000D01*
X110950625Y-79785000D02*
X110950625Y-75185000D01*
X110950625Y-79810000D02*
X108975625Y-79810000D01*
X111100625Y-79785000D02*
X111100625Y-75235000D01*
X111250625Y-79825000D02*
X111250625Y-75185000D01*
X111400625Y-79835000D02*
X111400625Y-75185000D01*
X111550625Y-79835000D02*
X111550625Y-75235000D01*
X111700625Y-79885000D02*
X111700625Y-75175000D01*
X111850625Y-79985000D02*
X111850625Y-75165000D01*
X111939421Y-75160000D02*
X108975625Y-75160000D01*
X112000625Y-80035000D02*
X112000625Y-75185000D01*
X112150625Y-80135000D02*
X112150625Y-75215000D01*
X112300625Y-80235000D02*
X112300625Y-75265000D01*
X112450625Y-80335000D02*
X112450625Y-75345000D01*
X112600625Y-80485000D02*
X112600625Y-75535000D01*
X112750625Y-80635000D02*
X112750625Y-75735000D01*
X112800625Y-76185000D02*
X112800625Y-75861887D01*
X112850625Y-80805000D02*
X112850625Y-76685000D01*
X112950625Y-80985000D02*
X112950625Y-76835000D01*
X112950625Y-80985000D02*
X114225625Y-82010000D01*
X113050625Y-81055000D02*
X113050625Y-77035000D01*
X113150625Y-81135000D02*
X113150625Y-77135000D01*
X113250625Y-81215000D02*
X113250625Y-77185000D01*
X113360625Y-81305000D02*
X113350625Y-77235000D01*
X113500625Y-81405000D02*
X113500625Y-77285000D01*
X113650625Y-81545000D02*
X113650625Y-77385000D01*
X113800625Y-81665000D02*
X113800625Y-77385000D01*
X113950625Y-81775000D02*
X113950625Y-77385000D01*
X114100625Y-81895000D02*
X114100625Y-77435000D01*
X114250625Y-81985000D02*
X114250625Y-77385000D01*
X114400625Y-81985000D02*
X114400625Y-77385000D01*
X114550625Y-81985000D02*
X114550625Y-77385000D01*
X114700625Y-81985000D02*
X114700625Y-77385000D01*
X114850625Y-81985000D02*
X114850625Y-77385000D01*
X115000625Y-81985000D02*
X115000625Y-77385000D01*
X115150625Y-81985000D02*
X115150625Y-77385000D01*
X115300625Y-81985000D02*
X115300625Y-77385000D01*
X115450625Y-81985000D02*
X115450625Y-77385000D01*
X115600625Y-81985000D02*
X115600625Y-77385000D01*
X115750625Y-81985000D02*
X115750625Y-77385000D01*
X115900625Y-81985000D02*
X115900625Y-77385000D01*
X116050625Y-81985000D02*
X116050625Y-77385000D01*
X116200625Y-81985000D02*
X116200625Y-77385000D01*
X116350625Y-81985000D02*
X116350625Y-77385000D01*
X116500625Y-81985000D02*
X116500625Y-77385000D01*
X116550625Y-77360000D02*
X113975625Y-77360000D01*
X116550625Y-82010000D02*
X114225625Y-82010000D01*
X116650625Y-81875000D02*
X116650625Y-77485000D01*
X116800625Y-81735000D02*
X116800625Y-77615000D01*
X116950625Y-81605000D02*
X116950625Y-77775000D01*
X117100625Y-81445000D02*
X117100625Y-77915000D01*
X117200625Y-81345000D02*
X117200625Y-78015000D01*
X117300625Y-81235000D02*
X117300625Y-78115000D01*
X117400625Y-81155000D02*
X117400625Y-78225000D01*
X117550625Y-78360000D02*
X116550625Y-77360000D01*
X117550625Y-78360000D02*
X117550625Y-81010000D01*
X117550625Y-81010000D02*
X116550625Y-82010000D01*
X107945625Y-76160000D02*
G75*
G02*
X108945625Y-75160000I999999J1D01*
G01*
X108945625Y-79810000D02*
G75*
G02*
X107945625Y-78810000I-1J999999D01*
G01*
X110950625Y-79802458D02*
G75*
G02*
X112950625Y-80985000I-2J-2282546D01*
G01*
X111939421Y-75160000D02*
G75*
G02*
X112800625Y-75861887I-38796J-926887D01*
G01*
X113975625Y-77360000D02*
G75*
G02*
X112800625Y-76185000I2J1175002D01*
G01*
X105750625Y-74385000D02*
G75*
G02*
X104750625Y-74385000I-500000J0D01*
G01*
X104750625Y-74385000D02*
G75*
G02*
X105750625Y-74385000I500000J0D01*
G01*
D12*
X184712818Y-93770000D02*
X184911256Y-93770000D01*
X184911256Y-93174686D02*
X184911256Y-94365314D01*
X184911256Y-94365314D02*
X186498760Y-94365314D01*
X185308132Y-94365314D02*
X185308132Y-93174686D01*
X186498760Y-93174686D02*
X184911256Y-93174686D01*
X186498760Y-93770000D02*
X186697198Y-93770000D01*
X186498760Y-94365314D02*
X186498760Y-93174686D01*
X78317185Y-121822065D02*
X78724404Y-122940889D01*
X78334323Y-122449347D02*
X78520794Y-122381477D01*
X78724404Y-122940889D02*
X80216169Y-122397931D01*
X79097345Y-122805149D02*
X78690126Y-121686325D01*
X79808951Y-121279106D02*
X78317185Y-121822065D01*
X80012560Y-121838518D02*
X80199031Y-121770649D01*
X80216169Y-122397931D02*
X79808951Y-121279106D01*
D13*
X124230000Y-92300000D02*
X124230000Y-93800000D01*
D11*
X127125000Y-93120000D02*
X127125000Y-95770000D01*
X127280000Y-96275000D02*
X127280000Y-92595000D01*
X127430000Y-96445000D02*
X127430000Y-92475000D01*
X127580000Y-96585000D02*
X127580000Y-92445000D01*
X127730000Y-96665000D02*
X127730000Y-92545000D01*
X127880000Y-96715000D02*
X127880000Y-92395000D01*
X128030000Y-96755000D02*
X128030000Y-92245000D01*
X128180000Y-96745000D02*
X128180000Y-92145000D01*
X128330000Y-96745000D02*
X128330000Y-92145000D01*
X128480000Y-96745000D02*
X128480000Y-92145000D01*
D13*
X128630000Y-92300000D02*
X124230000Y-92300000D01*
D11*
X128630000Y-96745000D02*
X128630000Y-92145000D01*
X128780000Y-96745000D02*
X128780000Y-92145000D01*
X128930000Y-96745000D02*
X128930000Y-92145000D01*
X129080000Y-96745000D02*
X129080000Y-92145000D01*
X129230000Y-96745000D02*
X129230000Y-92145000D01*
X129380000Y-96745000D02*
X129380000Y-92145000D01*
X129530000Y-96745000D02*
X129530000Y-92145000D01*
X129680000Y-96745000D02*
X129680000Y-92145000D01*
X129830000Y-96745000D02*
X129830000Y-92145000D01*
X129980000Y-96745000D02*
X129980000Y-92145000D01*
X130130000Y-96745000D02*
X130130000Y-92145000D01*
X130130000Y-96770000D02*
X128155000Y-96770000D01*
X130280000Y-96745000D02*
X130280000Y-92195000D01*
X130430000Y-96785000D02*
X130430000Y-92145000D01*
X130580000Y-96795000D02*
X130580000Y-92145000D01*
X130730000Y-96795000D02*
X130730000Y-92195000D01*
X130880000Y-96845000D02*
X130880000Y-92135000D01*
X131030000Y-96945000D02*
X131030000Y-92125000D01*
X131118796Y-92120000D02*
X128155000Y-92120000D01*
X131180000Y-96995000D02*
X131180000Y-92145000D01*
X131330000Y-97095000D02*
X131330000Y-92175000D01*
X131480000Y-97195000D02*
X131480000Y-92225000D01*
X131630000Y-97295000D02*
X131630000Y-92305000D01*
X131780000Y-97445000D02*
X131780000Y-92495000D01*
X131930000Y-97595000D02*
X131930000Y-92695000D01*
X131980000Y-93145000D02*
X131980000Y-92821887D01*
X132030000Y-97765000D02*
X132030000Y-93645000D01*
X132130000Y-97945000D02*
X132130000Y-93795000D01*
X132130000Y-97945000D02*
X133405000Y-98970000D01*
X132230000Y-98015000D02*
X132230000Y-93995000D01*
X132330000Y-98095000D02*
X132330000Y-94095000D01*
X132430000Y-98175000D02*
X132430000Y-94145000D01*
X132540000Y-98265000D02*
X132530000Y-94195000D01*
X132680000Y-98365000D02*
X132680000Y-94245000D01*
X132830000Y-98505000D02*
X132830000Y-94345000D01*
X132980000Y-98625000D02*
X132980000Y-94345000D01*
X133130000Y-98735000D02*
X133130000Y-94345000D01*
X133280000Y-98855000D02*
X133280000Y-94395000D01*
X133430000Y-98945000D02*
X133430000Y-94345000D01*
X133580000Y-98945000D02*
X133580000Y-94345000D01*
X133730000Y-98945000D02*
X133730000Y-94345000D01*
X133880000Y-98945000D02*
X133880000Y-94345000D01*
X134030000Y-98945000D02*
X134030000Y-94345000D01*
X134180000Y-98945000D02*
X134180000Y-94345000D01*
X134330000Y-98945000D02*
X134330000Y-94345000D01*
X134480000Y-98945000D02*
X134480000Y-94345000D01*
X134630000Y-98945000D02*
X134630000Y-94345000D01*
X134780000Y-98945000D02*
X134780000Y-94345000D01*
X134930000Y-98945000D02*
X134930000Y-94345000D01*
X135080000Y-98945000D02*
X135080000Y-94345000D01*
X135230000Y-98945000D02*
X135230000Y-94345000D01*
X135380000Y-98945000D02*
X135380000Y-94345000D01*
X135530000Y-98945000D02*
X135530000Y-94345000D01*
X135680000Y-98945000D02*
X135680000Y-94345000D01*
X135730000Y-94320000D02*
X133155000Y-94320000D01*
X135730000Y-98970000D02*
X133405000Y-98970000D01*
X135830000Y-98835000D02*
X135830000Y-94445000D01*
X135980000Y-98695000D02*
X135980000Y-94575000D01*
X136130000Y-98565000D02*
X136130000Y-94735000D01*
X136280000Y-98405000D02*
X136280000Y-94875000D01*
X136380000Y-98305000D02*
X136380000Y-94975000D01*
X136480000Y-98195000D02*
X136480000Y-95075000D01*
X136580000Y-98115000D02*
X136580000Y-95185000D01*
X136730000Y-95320000D02*
X135730000Y-94320000D01*
X136730000Y-95320000D02*
X136730000Y-97970000D01*
X136730000Y-97970000D02*
X135730000Y-98970000D01*
X127125000Y-93120000D02*
G75*
G02*
X128125000Y-92120000I999999J1D01*
G01*
X128125000Y-96770000D02*
G75*
G02*
X127125000Y-95770000I-1J999999D01*
G01*
X130130000Y-96762458D02*
G75*
G02*
X132130000Y-97945000I-2J-2282546D01*
G01*
X131118796Y-92120000D02*
G75*
G02*
X131980000Y-92821887I-38796J-926887D01*
G01*
X133155000Y-94320000D02*
G75*
G02*
X131980000Y-93145000I2J1175002D01*
G01*
X124930000Y-91345000D02*
G75*
G02*
X123930000Y-91345000I-500000J0D01*
G01*
X123930000Y-91345000D02*
G75*
G02*
X124930000Y-91345000I500000J0D01*
G01*
D13*
X200903437Y-62150000D02*
X200903437Y-63650000D01*
D11*
X203798437Y-62970000D02*
X203798437Y-65620000D01*
X203953437Y-66125000D02*
X203953437Y-62445000D01*
X204103437Y-66295000D02*
X204103437Y-62325000D01*
X204253437Y-66435000D02*
X204253437Y-62295000D01*
X204403437Y-66515000D02*
X204403437Y-62395000D01*
X204553437Y-66565000D02*
X204553437Y-62245000D01*
X204703437Y-66605000D02*
X204703437Y-62095000D01*
X204853437Y-66595000D02*
X204853437Y-61995000D01*
X205003437Y-66595000D02*
X205003437Y-61995000D01*
X205153437Y-66595000D02*
X205153437Y-61995000D01*
D13*
X205303437Y-62150000D02*
X200903437Y-62150000D01*
D11*
X205303437Y-66595000D02*
X205303437Y-61995000D01*
X205453437Y-66595000D02*
X205453437Y-61995000D01*
X205603437Y-66595000D02*
X205603437Y-61995000D01*
X205753437Y-66595000D02*
X205753437Y-61995000D01*
X205903437Y-66595000D02*
X205903437Y-61995000D01*
X206053437Y-66595000D02*
X206053437Y-61995000D01*
X206203437Y-66595000D02*
X206203437Y-61995000D01*
X206353437Y-66595000D02*
X206353437Y-61995000D01*
X206503437Y-66595000D02*
X206503437Y-61995000D01*
X206653437Y-66595000D02*
X206653437Y-61995000D01*
X206803437Y-66595000D02*
X206803437Y-61995000D01*
X206803437Y-66620000D02*
X204828437Y-66620000D01*
X206953437Y-66595000D02*
X206953437Y-62045000D01*
X207103437Y-66635000D02*
X207103437Y-61995000D01*
X207253437Y-66645000D02*
X207253437Y-61995000D01*
X207403437Y-66645000D02*
X207403437Y-62045000D01*
X207553437Y-66695000D02*
X207553437Y-61985000D01*
X207703437Y-66795000D02*
X207703437Y-61975000D01*
X207792233Y-61970000D02*
X204828437Y-61970000D01*
X207853437Y-66845000D02*
X207853437Y-61995000D01*
X208003437Y-66945000D02*
X208003437Y-62025000D01*
X208153437Y-67045000D02*
X208153437Y-62075000D01*
X208303437Y-67145000D02*
X208303437Y-62155000D01*
X208453437Y-67295000D02*
X208453437Y-62345000D01*
X208603437Y-67445000D02*
X208603437Y-62545000D01*
X208653437Y-62995000D02*
X208653437Y-62671887D01*
X208703437Y-67615000D02*
X208703437Y-63495000D01*
X208803437Y-67795000D02*
X208803437Y-63645000D01*
X208803437Y-67795000D02*
X210078437Y-68820000D01*
X208903437Y-67865000D02*
X208903437Y-63845000D01*
X209003437Y-67945000D02*
X209003437Y-63945000D01*
X209103437Y-68025000D02*
X209103437Y-63995000D01*
X209213437Y-68115000D02*
X209203437Y-64045000D01*
X209353437Y-68215000D02*
X209353437Y-64095000D01*
X209503437Y-68355000D02*
X209503437Y-64195000D01*
X209653437Y-68475000D02*
X209653437Y-64195000D01*
X209803437Y-68585000D02*
X209803437Y-64195000D01*
X209953437Y-68705000D02*
X209953437Y-64245000D01*
X210103437Y-68795000D02*
X210103437Y-64195000D01*
X210253437Y-68795000D02*
X210253437Y-64195000D01*
X210403437Y-68795000D02*
X210403437Y-64195000D01*
X210553437Y-68795000D02*
X210553437Y-64195000D01*
X210703437Y-68795000D02*
X210703437Y-64195000D01*
X210853437Y-68795000D02*
X210853437Y-64195000D01*
X211003437Y-68795000D02*
X211003437Y-64195000D01*
X211153437Y-68795000D02*
X211153437Y-64195000D01*
X211303437Y-68795000D02*
X211303437Y-64195000D01*
X211453437Y-68795000D02*
X211453437Y-64195000D01*
X211603437Y-68795000D02*
X211603437Y-64195000D01*
X211753437Y-68795000D02*
X211753437Y-64195000D01*
X211903437Y-68795000D02*
X211903437Y-64195000D01*
X212053437Y-68795000D02*
X212053437Y-64195000D01*
X212203437Y-68795000D02*
X212203437Y-64195000D01*
X212353437Y-68795000D02*
X212353437Y-64195000D01*
X212403437Y-64170000D02*
X209828437Y-64170000D01*
X212403437Y-68820000D02*
X210078437Y-68820000D01*
X212503437Y-68685000D02*
X212503437Y-64295000D01*
X212653437Y-68545000D02*
X212653437Y-64425000D01*
X212803437Y-68415000D02*
X212803437Y-64585000D01*
X212953437Y-68255000D02*
X212953437Y-64725000D01*
X213053437Y-68155000D02*
X213053437Y-64825000D01*
X213153437Y-68045000D02*
X213153437Y-64925000D01*
X213253437Y-67965000D02*
X213253437Y-65035000D01*
X213403437Y-65170000D02*
X212403437Y-64170000D01*
X213403437Y-65170000D02*
X213403437Y-67820000D01*
X213403437Y-67820000D02*
X212403437Y-68820000D01*
X203798437Y-62970000D02*
G75*
G02*
X204798437Y-61970000I999999J1D01*
G01*
X204798437Y-66620000D02*
G75*
G02*
X203798437Y-65620000I-1J999999D01*
G01*
X206803437Y-66612458D02*
G75*
G02*
X208803437Y-67795000I-2J-2282546D01*
G01*
X207792233Y-61970000D02*
G75*
G02*
X208653437Y-62671887I-38796J-926887D01*
G01*
X209828437Y-64170000D02*
G75*
G02*
X208653437Y-62995000I2J1175002D01*
G01*
X201603437Y-61195000D02*
G75*
G02*
X200603437Y-61195000I-500000J0D01*
G01*
X200603437Y-61195000D02*
G75*
G02*
X201603437Y-61195000I500000J0D01*
G01*
D12*
X146429381Y-44790000D02*
X146627819Y-44790000D01*
X146627819Y-44194686D02*
X146627819Y-45385314D01*
X146627819Y-45385314D02*
X148215323Y-45385314D01*
X147024695Y-45385314D02*
X147024695Y-44194686D01*
X148215323Y-44194686D02*
X146627819Y-44194686D01*
X148215323Y-44790000D02*
X148413761Y-44790000D01*
X148215323Y-45385314D02*
X148215323Y-44194686D01*
X165619381Y-68970000D02*
X165817819Y-68970000D01*
X165817819Y-68374686D02*
X165817819Y-69565314D01*
X165817819Y-69565314D02*
X167405323Y-69565314D01*
X166214695Y-69565314D02*
X166214695Y-68374686D01*
X167405323Y-68374686D02*
X165817819Y-68374686D01*
X167405323Y-68970000D02*
X167603761Y-68970000D01*
X167405323Y-69565314D02*
X167405323Y-68374686D01*
D13*
X124230000Y-73105000D02*
X124230000Y-74605000D01*
D11*
X127125000Y-73925000D02*
X127125000Y-76575000D01*
X127280000Y-77080000D02*
X127280000Y-73400000D01*
X127430000Y-77250000D02*
X127430000Y-73280000D01*
X127580000Y-77390000D02*
X127580000Y-73250000D01*
X127730000Y-77470000D02*
X127730000Y-73350000D01*
X127880000Y-77520000D02*
X127880000Y-73200000D01*
X128030000Y-77560000D02*
X128030000Y-73050000D01*
X128180000Y-77550000D02*
X128180000Y-72950000D01*
X128330000Y-77550000D02*
X128330000Y-72950000D01*
X128480000Y-77550000D02*
X128480000Y-72950000D01*
D13*
X128630000Y-73105000D02*
X124230000Y-73105000D01*
D11*
X128630000Y-77550000D02*
X128630000Y-72950000D01*
X128780000Y-77550000D02*
X128780000Y-72950000D01*
X128930000Y-77550000D02*
X128930000Y-72950000D01*
X129080000Y-77550000D02*
X129080000Y-72950000D01*
X129230000Y-77550000D02*
X129230000Y-72950000D01*
X129380000Y-77550000D02*
X129380000Y-72950000D01*
X129530000Y-77550000D02*
X129530000Y-72950000D01*
X129680000Y-77550000D02*
X129680000Y-72950000D01*
X129830000Y-77550000D02*
X129830000Y-72950000D01*
X129980000Y-77550000D02*
X129980000Y-72950000D01*
X130130000Y-77550000D02*
X130130000Y-72950000D01*
X130130000Y-77575000D02*
X128155000Y-77575000D01*
X130280000Y-77550000D02*
X130280000Y-73000000D01*
X130430000Y-77590000D02*
X130430000Y-72950000D01*
X130580000Y-77600000D02*
X130580000Y-72950000D01*
X130730000Y-77600000D02*
X130730000Y-73000000D01*
X130880000Y-77650000D02*
X130880000Y-72940000D01*
X131030000Y-77750000D02*
X131030000Y-72930000D01*
X131118796Y-72925000D02*
X128155000Y-72925000D01*
X131180000Y-77800000D02*
X131180000Y-72950000D01*
X131330000Y-77900000D02*
X131330000Y-72980000D01*
X131480000Y-78000000D02*
X131480000Y-73030000D01*
X131630000Y-78100000D02*
X131630000Y-73110000D01*
X131780000Y-78250000D02*
X131780000Y-73300000D01*
X131930000Y-78400000D02*
X131930000Y-73500000D01*
X131980000Y-73950000D02*
X131980000Y-73626887D01*
X132030000Y-78570000D02*
X132030000Y-74450000D01*
X132130000Y-78750000D02*
X132130000Y-74600000D01*
X132130000Y-78750000D02*
X133405000Y-79775000D01*
X132230000Y-78820000D02*
X132230000Y-74800000D01*
X132330000Y-78900000D02*
X132330000Y-74900000D01*
X132430000Y-78980000D02*
X132430000Y-74950000D01*
X132540000Y-79070000D02*
X132530000Y-75000000D01*
X132680000Y-79170000D02*
X132680000Y-75050000D01*
X132830000Y-79310000D02*
X132830000Y-75150000D01*
X132980000Y-79430000D02*
X132980000Y-75150000D01*
X133130000Y-79540000D02*
X133130000Y-75150000D01*
X133280000Y-79660000D02*
X133280000Y-75200000D01*
X133430000Y-79750000D02*
X133430000Y-75150000D01*
X133580000Y-79750000D02*
X133580000Y-75150000D01*
X133730000Y-79750000D02*
X133730000Y-75150000D01*
X133880000Y-79750000D02*
X133880000Y-75150000D01*
X134030000Y-79750000D02*
X134030000Y-75150000D01*
X134180000Y-79750000D02*
X134180000Y-75150000D01*
X134330000Y-79750000D02*
X134330000Y-75150000D01*
X134480000Y-79750000D02*
X134480000Y-75150000D01*
X134630000Y-79750000D02*
X134630000Y-75150000D01*
X134780000Y-79750000D02*
X134780000Y-75150000D01*
X134930000Y-79750000D02*
X134930000Y-75150000D01*
X135080000Y-79750000D02*
X135080000Y-75150000D01*
X135230000Y-79750000D02*
X135230000Y-75150000D01*
X135380000Y-79750000D02*
X135380000Y-75150000D01*
X135530000Y-79750000D02*
X135530000Y-75150000D01*
X135680000Y-79750000D02*
X135680000Y-75150000D01*
X135730000Y-75125000D02*
X133155000Y-75125000D01*
X135730000Y-79775000D02*
X133405000Y-79775000D01*
X135830000Y-79640000D02*
X135830000Y-75250000D01*
X135980000Y-79500000D02*
X135980000Y-75380000D01*
X136130000Y-79370000D02*
X136130000Y-75540000D01*
X136280000Y-79210000D02*
X136280000Y-75680000D01*
X136380000Y-79110000D02*
X136380000Y-75780000D01*
X136480000Y-79000000D02*
X136480000Y-75880000D01*
X136580000Y-78920000D02*
X136580000Y-75990000D01*
X136730000Y-76125000D02*
X135730000Y-75125000D01*
X136730000Y-76125000D02*
X136730000Y-78775000D01*
X136730000Y-78775000D02*
X135730000Y-79775000D01*
X127125000Y-73925000D02*
G75*
G02*
X128125000Y-72925000I999999J1D01*
G01*
X128125000Y-77575000D02*
G75*
G02*
X127125000Y-76575000I-1J999999D01*
G01*
X130130000Y-77567458D02*
G75*
G02*
X132130000Y-78750000I-2J-2282546D01*
G01*
X131118796Y-72925000D02*
G75*
G02*
X131980000Y-73626887I-38796J-926887D01*
G01*
X133155000Y-75125000D02*
G75*
G02*
X131980000Y-73950000I2J1175002D01*
G01*
X124930000Y-72150000D02*
G75*
G02*
X123930000Y-72150000I-500000J0D01*
G01*
X123930000Y-72150000D02*
G75*
G02*
X124930000Y-72150000I500000J0D01*
G01*
D14*
X80514014Y-128700274D02*
X81933397Y-132599998D01*
X82574254Y-132898835D02*
X85675240Y-131770168D01*
X84531200Y-127238138D02*
X80514014Y-128700274D01*
X87025356Y-132555779D02*
X86956952Y-132367841D01*
X87642788Y-128446805D02*
X89300830Y-127843325D01*
X88307069Y-133153452D02*
X87025356Y-132555779D01*
X89300830Y-127843325D02*
X90582543Y-128440998D01*
X90582543Y-128440998D02*
X91488896Y-130931183D01*
X90891224Y-132212896D02*
X88307069Y-133153452D01*
X91488896Y-130931183D02*
X90891224Y-132212896D01*
X82574254Y-132898835D02*
G75*
G02*
X81933398Y-132599998I-171008J469850D01*
G01*
X84558087Y-127228352D02*
G75*
G02*
X85174996Y-127471981I171010J-469847D01*
G01*
X85675240Y-131770168D02*
G75*
G02*
X86956952Y-132367841I342020J-939691D01*
G01*
X87642788Y-128446805D02*
G75*
G02*
X85175151Y-127472289I-684040J1879389D01*
G01*
D15*
X84894417Y-127279666D02*
X85174997Y-127471981D01*
X85578253Y-128082917D01*
X86205624Y-128474066D01*
X86930949Y-128617230D01*
X87642788Y-128446805D01*
X89300830Y-127843325D01*
X90582543Y-128440998D01*
X91488896Y-130931183D01*
X90891224Y-132212896D01*
X88307069Y-133153452D01*
X87025356Y-132555779D01*
X86796030Y-131998806D01*
X86461009Y-131758238D01*
X86063060Y-131660859D01*
X85675240Y-131770168D01*
X82574254Y-132898835D01*
X82213066Y-132836827D01*
X81933397Y-132599998D01*
X80514014Y-128700274D01*
X84558087Y-127228352D01*
X84894417Y-127279666D01*
G36*
X84894417Y-127279666D02*
G01*
X85174997Y-127471981D01*
X85578253Y-128082917D01*
X86205624Y-128474066D01*
X86930949Y-128617230D01*
X87642788Y-128446805D01*
X89300830Y-127843325D01*
X90582543Y-128440998D01*
X91488896Y-130931183D01*
X90891224Y-132212896D01*
X88307069Y-133153452D01*
X87025356Y-132555779D01*
X86796030Y-131998806D01*
X86461009Y-131758238D01*
X86063060Y-131660859D01*
X85675240Y-131770168D01*
X82574254Y-132898835D01*
X82213066Y-132836827D01*
X81933397Y-132599998D01*
X80514014Y-128700274D01*
X84558087Y-127228352D01*
X84894417Y-127279666D01*
G37*
D12*
X203912818Y-93750000D02*
X204111256Y-93750000D01*
X204111256Y-93154686D02*
X204111256Y-94345314D01*
X204111256Y-94345314D02*
X205698760Y-94345314D01*
X204508132Y-94345314D02*
X204508132Y-93154686D01*
X205698760Y-93154686D02*
X204111256Y-93154686D01*
X205698760Y-93750000D02*
X205897198Y-93750000D01*
X205698760Y-94345314D02*
X205698760Y-93154686D01*
X203932818Y-55350000D02*
X204131256Y-55350000D01*
X204131256Y-54754686D02*
X204131256Y-55945314D01*
X204131256Y-55945314D02*
X205718760Y-55945314D01*
X204528132Y-55945314D02*
X204528132Y-54754686D01*
X205718760Y-54754686D02*
X204131256Y-54754686D01*
X205718760Y-55350000D02*
X205917198Y-55350000D01*
X205718760Y-55945314D02*
X205718760Y-54754686D01*
D13*
X162620000Y-75760000D02*
X162620000Y-77260000D01*
D11*
X165515000Y-76580000D02*
X165515000Y-79230000D01*
X165670000Y-79735000D02*
X165670000Y-76055000D01*
X165820000Y-79905000D02*
X165820000Y-75935000D01*
X165970000Y-80045000D02*
X165970000Y-75905000D01*
X166120000Y-80125000D02*
X166120000Y-76005000D01*
X166270000Y-80175000D02*
X166270000Y-75855000D01*
X166420000Y-80215000D02*
X166420000Y-75705000D01*
X166570000Y-80205000D02*
X166570000Y-75605000D01*
X166720000Y-80205000D02*
X166720000Y-75605000D01*
X166870000Y-80205000D02*
X166870000Y-75605000D01*
D13*
X167020000Y-75760000D02*
X162620000Y-75760000D01*
D11*
X167020000Y-80205000D02*
X167020000Y-75605000D01*
X167170000Y-80205000D02*
X167170000Y-75605000D01*
X167320000Y-80205000D02*
X167320000Y-75605000D01*
X167470000Y-80205000D02*
X167470000Y-75605000D01*
X167620000Y-80205000D02*
X167620000Y-75605000D01*
X167770000Y-80205000D02*
X167770000Y-75605000D01*
X167920000Y-80205000D02*
X167920000Y-75605000D01*
X168070000Y-80205000D02*
X168070000Y-75605000D01*
X168220000Y-80205000D02*
X168220000Y-75605000D01*
X168370000Y-80205000D02*
X168370000Y-75605000D01*
X168520000Y-80205000D02*
X168520000Y-75605000D01*
X168520000Y-80230000D02*
X166545000Y-80230000D01*
X168670000Y-80205000D02*
X168670000Y-75655000D01*
X168820000Y-80245000D02*
X168820000Y-75605000D01*
X168970000Y-80255000D02*
X168970000Y-75605000D01*
X169120000Y-80255000D02*
X169120000Y-75655000D01*
X169270000Y-80305000D02*
X169270000Y-75595000D01*
X169420000Y-80405000D02*
X169420000Y-75585000D01*
X169508796Y-75580000D02*
X166545000Y-75580000D01*
X169570000Y-80455000D02*
X169570000Y-75605000D01*
X169720000Y-80555000D02*
X169720000Y-75635000D01*
X169870000Y-80655000D02*
X169870000Y-75685000D01*
X170020000Y-80755000D02*
X170020000Y-75765000D01*
X170170000Y-80905000D02*
X170170000Y-75955000D01*
X170320000Y-81055000D02*
X170320000Y-76155000D01*
X170370000Y-76605000D02*
X170370000Y-76281887D01*
X170420000Y-81225000D02*
X170420000Y-77105000D01*
X170520000Y-81405000D02*
X170520000Y-77255000D01*
X170520000Y-81405000D02*
X171795000Y-82430000D01*
X170620000Y-81475000D02*
X170620000Y-77455000D01*
X170720000Y-81555000D02*
X170720000Y-77555000D01*
X170820000Y-81635000D02*
X170820000Y-77605000D01*
X170930000Y-81725000D02*
X170920000Y-77655000D01*
X171070000Y-81825000D02*
X171070000Y-77705000D01*
X171220000Y-81965000D02*
X171220000Y-77805000D01*
X171370000Y-82085000D02*
X171370000Y-77805000D01*
X171520000Y-82195000D02*
X171520000Y-77805000D01*
X171670000Y-82315000D02*
X171670000Y-77855000D01*
X171820000Y-82405000D02*
X171820000Y-77805000D01*
X171970000Y-82405000D02*
X171970000Y-77805000D01*
X172120000Y-82405000D02*
X172120000Y-77805000D01*
X172270000Y-82405000D02*
X172270000Y-77805000D01*
X172420000Y-82405000D02*
X172420000Y-77805000D01*
X172570000Y-82405000D02*
X172570000Y-77805000D01*
X172720000Y-82405000D02*
X172720000Y-77805000D01*
X172870000Y-82405000D02*
X172870000Y-77805000D01*
X173020000Y-82405000D02*
X173020000Y-77805000D01*
X173170000Y-82405000D02*
X173170000Y-77805000D01*
X173320000Y-82405000D02*
X173320000Y-77805000D01*
X173470000Y-82405000D02*
X173470000Y-77805000D01*
X173620000Y-82405000D02*
X173620000Y-77805000D01*
X173770000Y-82405000D02*
X173770000Y-77805000D01*
X173920000Y-82405000D02*
X173920000Y-77805000D01*
X174070000Y-82405000D02*
X174070000Y-77805000D01*
X174120000Y-77780000D02*
X171545000Y-77780000D01*
X174120000Y-82430000D02*
X171795000Y-82430000D01*
X174220000Y-82295000D02*
X174220000Y-77905000D01*
X174370000Y-82155000D02*
X174370000Y-78035000D01*
X174520000Y-82025000D02*
X174520000Y-78195000D01*
X174670000Y-81865000D02*
X174670000Y-78335000D01*
X174770000Y-81765000D02*
X174770000Y-78435000D01*
X174870000Y-81655000D02*
X174870000Y-78535000D01*
X174970000Y-81575000D02*
X174970000Y-78645000D01*
X175120000Y-78780000D02*
X174120000Y-77780000D01*
X175120000Y-78780000D02*
X175120000Y-81430000D01*
X175120000Y-81430000D02*
X174120000Y-82430000D01*
X165515000Y-76580000D02*
G75*
G02*
X166515000Y-75580000I999999J1D01*
G01*
X166515000Y-80230000D02*
G75*
G02*
X165515000Y-79230000I-1J999999D01*
G01*
X168520000Y-80222458D02*
G75*
G02*
X170520000Y-81405000I-2J-2282546D01*
G01*
X169508796Y-75580000D02*
G75*
G02*
X170370000Y-76281887I-38796J-926887D01*
G01*
X171545000Y-77780000D02*
G75*
G02*
X170370000Y-76605000I2J1175002D01*
G01*
X163320000Y-74805000D02*
G75*
G02*
X162320000Y-74805000I-500000J0D01*
G01*
X162320000Y-74805000D02*
G75*
G02*
X163320000Y-74805000I500000J0D01*
G01*
D13*
X181720000Y-119585000D02*
X181720000Y-121085000D01*
D11*
X184615000Y-120405000D02*
X184615000Y-123055000D01*
X184770000Y-123560000D02*
X184770000Y-119880000D01*
X184920000Y-123730000D02*
X184920000Y-119760000D01*
X185070000Y-123870000D02*
X185070000Y-119730000D01*
X185220000Y-123950000D02*
X185220000Y-119830000D01*
X185370000Y-124000000D02*
X185370000Y-119680000D01*
X185520000Y-124040000D02*
X185520000Y-119530000D01*
X185670000Y-124030000D02*
X185670000Y-119430000D01*
X185820000Y-124030000D02*
X185820000Y-119430000D01*
X185970000Y-124030000D02*
X185970000Y-119430000D01*
D13*
X186120000Y-119585000D02*
X181720000Y-119585000D01*
D11*
X186120000Y-124030000D02*
X186120000Y-119430000D01*
X186270000Y-124030000D02*
X186270000Y-119430000D01*
X186420000Y-124030000D02*
X186420000Y-119430000D01*
X186570000Y-124030000D02*
X186570000Y-119430000D01*
X186720000Y-124030000D02*
X186720000Y-119430000D01*
X186870000Y-124030000D02*
X186870000Y-119430000D01*
X187020000Y-124030000D02*
X187020000Y-119430000D01*
X187170000Y-124030000D02*
X187170000Y-119430000D01*
X187320000Y-124030000D02*
X187320000Y-119430000D01*
X187470000Y-124030000D02*
X187470000Y-119430000D01*
X187620000Y-124030000D02*
X187620000Y-119430000D01*
X187620000Y-124055000D02*
X185645000Y-124055000D01*
X187770000Y-124030000D02*
X187770000Y-119480000D01*
X187920000Y-124070000D02*
X187920000Y-119430000D01*
X188070000Y-124080000D02*
X188070000Y-119430000D01*
X188220000Y-124080000D02*
X188220000Y-119480000D01*
X188370000Y-124130000D02*
X188370000Y-119420000D01*
X188520000Y-124230000D02*
X188520000Y-119410000D01*
X188608796Y-119405000D02*
X185645000Y-119405000D01*
X188670000Y-124280000D02*
X188670000Y-119430000D01*
X188820000Y-124380000D02*
X188820000Y-119460000D01*
X188970000Y-124480000D02*
X188970000Y-119510000D01*
X189120000Y-124580000D02*
X189120000Y-119590000D01*
X189270000Y-124730000D02*
X189270000Y-119780000D01*
X189420000Y-124880000D02*
X189420000Y-119980000D01*
X189470000Y-120430000D02*
X189470000Y-120106887D01*
X189520000Y-125050000D02*
X189520000Y-120930000D01*
X189620000Y-125230000D02*
X189620000Y-121080000D01*
X189620000Y-125230000D02*
X190895000Y-126255000D01*
X189720000Y-125300000D02*
X189720000Y-121280000D01*
X189820000Y-125380000D02*
X189820000Y-121380000D01*
X189920000Y-125460000D02*
X189920000Y-121430000D01*
X190030000Y-125550000D02*
X190020000Y-121480000D01*
X190170000Y-125650000D02*
X190170000Y-121530000D01*
X190320000Y-125790000D02*
X190320000Y-121630000D01*
X190470000Y-125910000D02*
X190470000Y-121630000D01*
X190620000Y-126020000D02*
X190620000Y-121630000D01*
X190770000Y-126140000D02*
X190770000Y-121680000D01*
X190920000Y-126230000D02*
X190920000Y-121630000D01*
X191070000Y-126230000D02*
X191070000Y-121630000D01*
X191220000Y-126230000D02*
X191220000Y-121630000D01*
X191370000Y-126230000D02*
X191370000Y-121630000D01*
X191520000Y-126230000D02*
X191520000Y-121630000D01*
X191670000Y-126230000D02*
X191670000Y-121630000D01*
X191820000Y-126230000D02*
X191820000Y-121630000D01*
X191970000Y-126230000D02*
X191970000Y-121630000D01*
X192120000Y-126230000D02*
X192120000Y-121630000D01*
X192270000Y-126230000D02*
X192270000Y-121630000D01*
X192420000Y-126230000D02*
X192420000Y-121630000D01*
X192570000Y-126230000D02*
X192570000Y-121630000D01*
X192720000Y-126230000D02*
X192720000Y-121630000D01*
X192870000Y-126230000D02*
X192870000Y-121630000D01*
X193020000Y-126230000D02*
X193020000Y-121630000D01*
X193170000Y-126230000D02*
X193170000Y-121630000D01*
X193220000Y-121605000D02*
X190645000Y-121605000D01*
X193220000Y-126255000D02*
X190895000Y-126255000D01*
X193320000Y-126120000D02*
X193320000Y-121730000D01*
X193470000Y-125980000D02*
X193470000Y-121860000D01*
X193620000Y-125850000D02*
X193620000Y-122020000D01*
X193770000Y-125690000D02*
X193770000Y-122160000D01*
X193870000Y-125590000D02*
X193870000Y-122260000D01*
X193970000Y-125480000D02*
X193970000Y-122360000D01*
X194070000Y-125400000D02*
X194070000Y-122470000D01*
X194220000Y-122605000D02*
X193220000Y-121605000D01*
X194220000Y-122605000D02*
X194220000Y-125255000D01*
X194220000Y-125255000D02*
X193220000Y-126255000D01*
X184615000Y-120405000D02*
G75*
G02*
X185615000Y-119405000I999999J1D01*
G01*
X185615000Y-124055000D02*
G75*
G02*
X184615000Y-123055000I-1J999999D01*
G01*
X187620000Y-124047458D02*
G75*
G02*
X189620000Y-125230000I-2J-2282546D01*
G01*
X188608796Y-119405000D02*
G75*
G02*
X189470000Y-120106887I-38796J-926887D01*
G01*
X190645000Y-121605000D02*
G75*
G02*
X189470000Y-120430000I2J1175002D01*
G01*
X182420000Y-118630000D02*
G75*
G02*
X181420000Y-118630000I-500000J0D01*
G01*
X181420000Y-118630000D02*
G75*
G02*
X182420000Y-118630000I500000J0D01*
G01*
D13*
X105050625Y-94530000D02*
X105050625Y-96030000D01*
D11*
X107945625Y-95350000D02*
X107945625Y-98000000D01*
X108100625Y-98505000D02*
X108100625Y-94825000D01*
X108250625Y-98675000D02*
X108250625Y-94705000D01*
X108400625Y-98815000D02*
X108400625Y-94675000D01*
X108550625Y-98895000D02*
X108550625Y-94775000D01*
X108700625Y-98945000D02*
X108700625Y-94625000D01*
X108850625Y-98985000D02*
X108850625Y-94475000D01*
X109000625Y-98975000D02*
X109000625Y-94375000D01*
X109150625Y-98975000D02*
X109150625Y-94375000D01*
X109300625Y-98975000D02*
X109300625Y-94375000D01*
D13*
X109450625Y-94530000D02*
X105050625Y-94530000D01*
D11*
X109450625Y-98975000D02*
X109450625Y-94375000D01*
X109600625Y-98975000D02*
X109600625Y-94375000D01*
X109750625Y-98975000D02*
X109750625Y-94375000D01*
X109900625Y-98975000D02*
X109900625Y-94375000D01*
X110050625Y-98975000D02*
X110050625Y-94375000D01*
X110200625Y-98975000D02*
X110200625Y-94375000D01*
X110350625Y-98975000D02*
X110350625Y-94375000D01*
X110500625Y-98975000D02*
X110500625Y-94375000D01*
X110650625Y-98975000D02*
X110650625Y-94375000D01*
X110800625Y-98975000D02*
X110800625Y-94375000D01*
X110950625Y-98975000D02*
X110950625Y-94375000D01*
X110950625Y-99000000D02*
X108975625Y-99000000D01*
X111100625Y-98975000D02*
X111100625Y-94425000D01*
X111250625Y-99015000D02*
X111250625Y-94375000D01*
X111400625Y-99025000D02*
X111400625Y-94375000D01*
X111550625Y-99025000D02*
X111550625Y-94425000D01*
X111700625Y-99075000D02*
X111700625Y-94365000D01*
X111850625Y-99175000D02*
X111850625Y-94355000D01*
X111939421Y-94350000D02*
X108975625Y-94350000D01*
X112000625Y-99225000D02*
X112000625Y-94375000D01*
X112150625Y-99325000D02*
X112150625Y-94405000D01*
X112300625Y-99425000D02*
X112300625Y-94455000D01*
X112450625Y-99525000D02*
X112450625Y-94535000D01*
X112600625Y-99675000D02*
X112600625Y-94725000D01*
X112750625Y-99825000D02*
X112750625Y-94925000D01*
X112800625Y-95375000D02*
X112800625Y-95051887D01*
X112850625Y-99995000D02*
X112850625Y-95875000D01*
X112950625Y-100175000D02*
X112950625Y-96025000D01*
X112950625Y-100175000D02*
X114225625Y-101200000D01*
X113050625Y-100245000D02*
X113050625Y-96225000D01*
X113150625Y-100325000D02*
X113150625Y-96325000D01*
X113250625Y-100405000D02*
X113250625Y-96375000D01*
X113360625Y-100495000D02*
X113350625Y-96425000D01*
X113500625Y-100595000D02*
X113500625Y-96475000D01*
X113650625Y-100735000D02*
X113650625Y-96575000D01*
X113800625Y-100855000D02*
X113800625Y-96575000D01*
X113950625Y-100965000D02*
X113950625Y-96575000D01*
X114100625Y-101085000D02*
X114100625Y-96625000D01*
X114250625Y-101175000D02*
X114250625Y-96575000D01*
X114400625Y-101175000D02*
X114400625Y-96575000D01*
X114550625Y-101175000D02*
X114550625Y-96575000D01*
X114700625Y-101175000D02*
X114700625Y-96575000D01*
X114850625Y-101175000D02*
X114850625Y-96575000D01*
X115000625Y-101175000D02*
X115000625Y-96575000D01*
X115150625Y-101175000D02*
X115150625Y-96575000D01*
X115300625Y-101175000D02*
X115300625Y-96575000D01*
X115450625Y-101175000D02*
X115450625Y-96575000D01*
X115600625Y-101175000D02*
X115600625Y-96575000D01*
X115750625Y-101175000D02*
X115750625Y-96575000D01*
X115900625Y-101175000D02*
X115900625Y-96575000D01*
X116050625Y-101175000D02*
X116050625Y-96575000D01*
X116200625Y-101175000D02*
X116200625Y-96575000D01*
X116350625Y-101175000D02*
X116350625Y-96575000D01*
X116500625Y-101175000D02*
X116500625Y-96575000D01*
X116550625Y-96550000D02*
X113975625Y-96550000D01*
X116550625Y-101200000D02*
X114225625Y-101200000D01*
X116650625Y-101065000D02*
X116650625Y-96675000D01*
X116800625Y-100925000D02*
X116800625Y-96805000D01*
X116950625Y-100795000D02*
X116950625Y-96965000D01*
X117100625Y-100635000D02*
X117100625Y-97105000D01*
X117200625Y-100535000D02*
X117200625Y-97205000D01*
X117300625Y-100425000D02*
X117300625Y-97305000D01*
X117400625Y-100345000D02*
X117400625Y-97415000D01*
X117550625Y-97550000D02*
X116550625Y-96550000D01*
X117550625Y-97550000D02*
X117550625Y-100200000D01*
X117550625Y-100200000D02*
X116550625Y-101200000D01*
X107945625Y-95350000D02*
G75*
G02*
X108945625Y-94350000I999999J1D01*
G01*
X108945625Y-99000000D02*
G75*
G02*
X107945625Y-98000000I-1J999999D01*
G01*
X110950625Y-98992458D02*
G75*
G02*
X112950625Y-100175000I-2J-2282546D01*
G01*
X111939421Y-94350000D02*
G75*
G02*
X112800625Y-95051887I-38796J-926887D01*
G01*
X113975625Y-96550000D02*
G75*
G02*
X112800625Y-95375000I2J1175002D01*
G01*
X105750625Y-93575000D02*
G75*
G02*
X104750625Y-93575000I-500000J0D01*
G01*
X104750625Y-93575000D02*
G75*
G02*
X105750625Y-93575000I500000J0D01*
G01*
D12*
X108049381Y-87750000D02*
X108247819Y-87750000D01*
X108247819Y-87154686D02*
X108247819Y-88345314D01*
X108247819Y-88345314D02*
X109835323Y-88345314D01*
X108644695Y-88345314D02*
X108644695Y-87154686D01*
X109835323Y-87154686D02*
X108247819Y-87154686D01*
X109835323Y-87750000D02*
X110033761Y-87750000D01*
X109835323Y-88345314D02*
X109835323Y-87154686D01*
D13*
X105050625Y-56165000D02*
X105050625Y-57665000D01*
D11*
X107945625Y-56985000D02*
X107945625Y-59635000D01*
X108100625Y-60140000D02*
X108100625Y-56460000D01*
X108250625Y-60310000D02*
X108250625Y-56340000D01*
X108400625Y-60450000D02*
X108400625Y-56310000D01*
X108550625Y-60530000D02*
X108550625Y-56410000D01*
X108700625Y-60580000D02*
X108700625Y-56260000D01*
X108850625Y-60620000D02*
X108850625Y-56110000D01*
X109000625Y-60610000D02*
X109000625Y-56010000D01*
X109150625Y-60610000D02*
X109150625Y-56010000D01*
X109300625Y-60610000D02*
X109300625Y-56010000D01*
D13*
X109450625Y-56165000D02*
X105050625Y-56165000D01*
D11*
X109450625Y-60610000D02*
X109450625Y-56010000D01*
X109600625Y-60610000D02*
X109600625Y-56010000D01*
X109750625Y-60610000D02*
X109750625Y-56010000D01*
X109900625Y-60610000D02*
X109900625Y-56010000D01*
X110050625Y-60610000D02*
X110050625Y-56010000D01*
X110200625Y-60610000D02*
X110200625Y-56010000D01*
X110350625Y-60610000D02*
X110350625Y-56010000D01*
X110500625Y-60610000D02*
X110500625Y-56010000D01*
X110650625Y-60610000D02*
X110650625Y-56010000D01*
X110800625Y-60610000D02*
X110800625Y-56010000D01*
X110950625Y-60610000D02*
X110950625Y-56010000D01*
X110950625Y-60635000D02*
X108975625Y-60635000D01*
X111100625Y-60610000D02*
X111100625Y-56060000D01*
X111250625Y-60650000D02*
X111250625Y-56010000D01*
X111400625Y-60660000D02*
X111400625Y-56010000D01*
X111550625Y-60660000D02*
X111550625Y-56060000D01*
X111700625Y-60710000D02*
X111700625Y-56000000D01*
X111850625Y-60810000D02*
X111850625Y-55990000D01*
X111939421Y-55985000D02*
X108975625Y-55985000D01*
X112000625Y-60860000D02*
X112000625Y-56010000D01*
X112150625Y-60960000D02*
X112150625Y-56040000D01*
X112300625Y-61060000D02*
X112300625Y-56090000D01*
X112450625Y-61160000D02*
X112450625Y-56170000D01*
X112600625Y-61310000D02*
X112600625Y-56360000D01*
X112750625Y-61460000D02*
X112750625Y-56560000D01*
X112800625Y-57010000D02*
X112800625Y-56686887D01*
X112850625Y-61630000D02*
X112850625Y-57510000D01*
X112950625Y-61810000D02*
X112950625Y-57660000D01*
X112950625Y-61810000D02*
X114225625Y-62835000D01*
X113050625Y-61880000D02*
X113050625Y-57860000D01*
X113150625Y-61960000D02*
X113150625Y-57960000D01*
X113250625Y-62040000D02*
X113250625Y-58010000D01*
X113360625Y-62130000D02*
X113350625Y-58060000D01*
X113500625Y-62230000D02*
X113500625Y-58110000D01*
X113650625Y-62370000D02*
X113650625Y-58210000D01*
X113800625Y-62490000D02*
X113800625Y-58210000D01*
X113950625Y-62600000D02*
X113950625Y-58210000D01*
X114100625Y-62720000D02*
X114100625Y-58260000D01*
X114250625Y-62810000D02*
X114250625Y-58210000D01*
X114400625Y-62810000D02*
X114400625Y-58210000D01*
X114550625Y-62810000D02*
X114550625Y-58210000D01*
X114700625Y-62810000D02*
X114700625Y-58210000D01*
X114850625Y-62810000D02*
X114850625Y-58210000D01*
X115000625Y-62810000D02*
X115000625Y-58210000D01*
X115150625Y-62810000D02*
X115150625Y-58210000D01*
X115300625Y-62810000D02*
X115300625Y-58210000D01*
X115450625Y-62810000D02*
X115450625Y-58210000D01*
X115600625Y-62810000D02*
X115600625Y-58210000D01*
X115750625Y-62810000D02*
X115750625Y-58210000D01*
X115900625Y-62810000D02*
X115900625Y-58210000D01*
X116050625Y-62810000D02*
X116050625Y-58210000D01*
X116200625Y-62810000D02*
X116200625Y-58210000D01*
X116350625Y-62810000D02*
X116350625Y-58210000D01*
X116500625Y-62810000D02*
X116500625Y-58210000D01*
X116550625Y-58185000D02*
X113975625Y-58185000D01*
X116550625Y-62835000D02*
X114225625Y-62835000D01*
X116650625Y-62700000D02*
X116650625Y-58310000D01*
X116800625Y-62560000D02*
X116800625Y-58440000D01*
X116950625Y-62430000D02*
X116950625Y-58600000D01*
X117100625Y-62270000D02*
X117100625Y-58740000D01*
X117200625Y-62170000D02*
X117200625Y-58840000D01*
X117300625Y-62060000D02*
X117300625Y-58940000D01*
X117400625Y-61980000D02*
X117400625Y-59050000D01*
X117550625Y-59185000D02*
X116550625Y-58185000D01*
X117550625Y-59185000D02*
X117550625Y-61835000D01*
X117550625Y-61835000D02*
X116550625Y-62835000D01*
X107945625Y-56985000D02*
G75*
G02*
X108945625Y-55985000I999999J1D01*
G01*
X108945625Y-60635000D02*
G75*
G02*
X107945625Y-59635000I-1J999999D01*
G01*
X110950625Y-60627458D02*
G75*
G02*
X112950625Y-61810000I-2J-2282546D01*
G01*
X111939421Y-55985000D02*
G75*
G02*
X112800625Y-56686887I-38796J-926887D01*
G01*
X113975625Y-58185000D02*
G75*
G02*
X112800625Y-57010000I2J1175002D01*
G01*
X105750625Y-55210000D02*
G75*
G02*
X104750625Y-55210000I-500000J0D01*
G01*
X104750625Y-55210000D02*
G75*
G02*
X105750625Y-55210000I500000J0D01*
G01*
D13*
X181720000Y-100535000D02*
X181720000Y-102035000D01*
D11*
X184615000Y-101355000D02*
X184615000Y-104005000D01*
X184770000Y-104510000D02*
X184770000Y-100830000D01*
X184920000Y-104680000D02*
X184920000Y-100710000D01*
X185070000Y-104820000D02*
X185070000Y-100680000D01*
X185220000Y-104900000D02*
X185220000Y-100780000D01*
X185370000Y-104950000D02*
X185370000Y-100630000D01*
X185520000Y-104990000D02*
X185520000Y-100480000D01*
X185670000Y-104980000D02*
X185670000Y-100380000D01*
X185820000Y-104980000D02*
X185820000Y-100380000D01*
X185970000Y-104980000D02*
X185970000Y-100380000D01*
D13*
X186120000Y-100535000D02*
X181720000Y-100535000D01*
D11*
X186120000Y-104980000D02*
X186120000Y-100380000D01*
X186270000Y-104980000D02*
X186270000Y-100380000D01*
X186420000Y-104980000D02*
X186420000Y-100380000D01*
X186570000Y-104980000D02*
X186570000Y-100380000D01*
X186720000Y-104980000D02*
X186720000Y-100380000D01*
X186870000Y-104980000D02*
X186870000Y-100380000D01*
X187020000Y-104980000D02*
X187020000Y-100380000D01*
X187170000Y-104980000D02*
X187170000Y-100380000D01*
X187320000Y-104980000D02*
X187320000Y-100380000D01*
X187470000Y-104980000D02*
X187470000Y-100380000D01*
X187620000Y-104980000D02*
X187620000Y-100380000D01*
X187620000Y-105005000D02*
X185645000Y-105005000D01*
X187770000Y-104980000D02*
X187770000Y-100430000D01*
X187920000Y-105020000D02*
X187920000Y-100380000D01*
X188070000Y-105030000D02*
X188070000Y-100380000D01*
X188220000Y-105030000D02*
X188220000Y-100430000D01*
X188370000Y-105080000D02*
X188370000Y-100370000D01*
X188520000Y-105180000D02*
X188520000Y-100360000D01*
X188608796Y-100355000D02*
X185645000Y-100355000D01*
X188670000Y-105230000D02*
X188670000Y-100380000D01*
X188820000Y-105330000D02*
X188820000Y-100410000D01*
X188970000Y-105430000D02*
X188970000Y-100460000D01*
X189120000Y-105530000D02*
X189120000Y-100540000D01*
X189270000Y-105680000D02*
X189270000Y-100730000D01*
X189420000Y-105830000D02*
X189420000Y-100930000D01*
X189470000Y-101380000D02*
X189470000Y-101056887D01*
X189520000Y-106000000D02*
X189520000Y-101880000D01*
X189620000Y-106180000D02*
X189620000Y-102030000D01*
X189620000Y-106180000D02*
X190895000Y-107205000D01*
X189720000Y-106250000D02*
X189720000Y-102230000D01*
X189820000Y-106330000D02*
X189820000Y-102330000D01*
X189920000Y-106410000D02*
X189920000Y-102380000D01*
X190030000Y-106500000D02*
X190020000Y-102430000D01*
X190170000Y-106600000D02*
X190170000Y-102480000D01*
X190320000Y-106740000D02*
X190320000Y-102580000D01*
X190470000Y-106860000D02*
X190470000Y-102580000D01*
X190620000Y-106970000D02*
X190620000Y-102580000D01*
X190770000Y-107090000D02*
X190770000Y-102630000D01*
X190920000Y-107180000D02*
X190920000Y-102580000D01*
X191070000Y-107180000D02*
X191070000Y-102580000D01*
X191220000Y-107180000D02*
X191220000Y-102580000D01*
X191370000Y-107180000D02*
X191370000Y-102580000D01*
X191520000Y-107180000D02*
X191520000Y-102580000D01*
X191670000Y-107180000D02*
X191670000Y-102580000D01*
X191820000Y-107180000D02*
X191820000Y-102580000D01*
X191970000Y-107180000D02*
X191970000Y-102580000D01*
X192120000Y-107180000D02*
X192120000Y-102580000D01*
X192270000Y-107180000D02*
X192270000Y-102580000D01*
X192420000Y-107180000D02*
X192420000Y-102580000D01*
X192570000Y-107180000D02*
X192570000Y-102580000D01*
X192720000Y-107180000D02*
X192720000Y-102580000D01*
X192870000Y-107180000D02*
X192870000Y-102580000D01*
X193020000Y-107180000D02*
X193020000Y-102580000D01*
X193170000Y-107180000D02*
X193170000Y-102580000D01*
X193220000Y-102555000D02*
X190645000Y-102555000D01*
X193220000Y-107205000D02*
X190895000Y-107205000D01*
X193320000Y-107070000D02*
X193320000Y-102680000D01*
X193470000Y-106930000D02*
X193470000Y-102810000D01*
X193620000Y-106800000D02*
X193620000Y-102970000D01*
X193770000Y-106640000D02*
X193770000Y-103110000D01*
X193870000Y-106540000D02*
X193870000Y-103210000D01*
X193970000Y-106430000D02*
X193970000Y-103310000D01*
X194070000Y-106350000D02*
X194070000Y-103420000D01*
X194220000Y-103555000D02*
X193220000Y-102555000D01*
X194220000Y-103555000D02*
X194220000Y-106205000D01*
X194220000Y-106205000D02*
X193220000Y-107205000D01*
X184615000Y-101355000D02*
G75*
G02*
X185615000Y-100355000I999999J1D01*
G01*
X185615000Y-105005000D02*
G75*
G02*
X184615000Y-104005000I-1J999999D01*
G01*
X187620000Y-104997458D02*
G75*
G02*
X189620000Y-106180000I-2J-2282546D01*
G01*
X188608796Y-100355000D02*
G75*
G02*
X189470000Y-101056887I-38796J-926887D01*
G01*
X190645000Y-102555000D02*
G75*
G02*
X189470000Y-101380000I2J1175002D01*
G01*
X182420000Y-99580000D02*
G75*
G02*
X181420000Y-99580000I-500000J0D01*
G01*
X181420000Y-99580000D02*
G75*
G02*
X182420000Y-99580000I500000J0D01*
G01*
D13*
X143420000Y-51575000D02*
X143420000Y-53075000D01*
D11*
X146315000Y-52395000D02*
X146315000Y-55045000D01*
X146470000Y-55550000D02*
X146470000Y-51870000D01*
X146620000Y-55720000D02*
X146620000Y-51750000D01*
X146770000Y-55860000D02*
X146770000Y-51720000D01*
X146920000Y-55940000D02*
X146920000Y-51820000D01*
X147070000Y-55990000D02*
X147070000Y-51670000D01*
X147220000Y-56030000D02*
X147220000Y-51520000D01*
X147370000Y-56020000D02*
X147370000Y-51420000D01*
X147520000Y-56020000D02*
X147520000Y-51420000D01*
X147670000Y-56020000D02*
X147670000Y-51420000D01*
D13*
X147820000Y-51575000D02*
X143420000Y-51575000D01*
D11*
X147820000Y-56020000D02*
X147820000Y-51420000D01*
X147970000Y-56020000D02*
X147970000Y-51420000D01*
X148120000Y-56020000D02*
X148120000Y-51420000D01*
X148270000Y-56020000D02*
X148270000Y-51420000D01*
X148420000Y-56020000D02*
X148420000Y-51420000D01*
X148570000Y-56020000D02*
X148570000Y-51420000D01*
X148720000Y-56020000D02*
X148720000Y-51420000D01*
X148870000Y-56020000D02*
X148870000Y-51420000D01*
X149020000Y-56020000D02*
X149020000Y-51420000D01*
X149170000Y-56020000D02*
X149170000Y-51420000D01*
X149320000Y-56020000D02*
X149320000Y-51420000D01*
X149320000Y-56045000D02*
X147345000Y-56045000D01*
X149470000Y-56020000D02*
X149470000Y-51470000D01*
X149620000Y-56060000D02*
X149620000Y-51420000D01*
X149770000Y-56070000D02*
X149770000Y-51420000D01*
X149920000Y-56070000D02*
X149920000Y-51470000D01*
X150070000Y-56120000D02*
X150070000Y-51410000D01*
X150220000Y-56220000D02*
X150220000Y-51400000D01*
X150308796Y-51395000D02*
X147345000Y-51395000D01*
X150370000Y-56270000D02*
X150370000Y-51420000D01*
X150520000Y-56370000D02*
X150520000Y-51450000D01*
X150670000Y-56470000D02*
X150670000Y-51500000D01*
X150820000Y-56570000D02*
X150820000Y-51580000D01*
X150970000Y-56720000D02*
X150970000Y-51770000D01*
X151120000Y-56870000D02*
X151120000Y-51970000D01*
X151170000Y-52420000D02*
X151170000Y-52096887D01*
X151220000Y-57040000D02*
X151220000Y-52920000D01*
X151320000Y-57220000D02*
X151320000Y-53070000D01*
X151320000Y-57220000D02*
X152595000Y-58245000D01*
X151420000Y-57290000D02*
X151420000Y-53270000D01*
X151520000Y-57370000D02*
X151520000Y-53370000D01*
X151620000Y-57450000D02*
X151620000Y-53420000D01*
X151730000Y-57540000D02*
X151720000Y-53470000D01*
X151870000Y-57640000D02*
X151870000Y-53520000D01*
X152020000Y-57780000D02*
X152020000Y-53620000D01*
X152170000Y-57900000D02*
X152170000Y-53620000D01*
X152320000Y-58010000D02*
X152320000Y-53620000D01*
X152470000Y-58130000D02*
X152470000Y-53670000D01*
X152620000Y-58220000D02*
X152620000Y-53620000D01*
X152770000Y-58220000D02*
X152770000Y-53620000D01*
X152920000Y-58220000D02*
X152920000Y-53620000D01*
X153070000Y-58220000D02*
X153070000Y-53620000D01*
X153220000Y-58220000D02*
X153220000Y-53620000D01*
X153370000Y-58220000D02*
X153370000Y-53620000D01*
X153520000Y-58220000D02*
X153520000Y-53620000D01*
X153670000Y-58220000D02*
X153670000Y-53620000D01*
X153820000Y-58220000D02*
X153820000Y-53620000D01*
X153970000Y-58220000D02*
X153970000Y-53620000D01*
X154120000Y-58220000D02*
X154120000Y-53620000D01*
X154270000Y-58220000D02*
X154270000Y-53620000D01*
X154420000Y-58220000D02*
X154420000Y-53620000D01*
X154570000Y-58220000D02*
X154570000Y-53620000D01*
X154720000Y-58220000D02*
X154720000Y-53620000D01*
X154870000Y-58220000D02*
X154870000Y-53620000D01*
X154920000Y-53595000D02*
X152345000Y-53595000D01*
X154920000Y-58245000D02*
X152595000Y-58245000D01*
X155020000Y-58110000D02*
X155020000Y-53720000D01*
X155170000Y-57970000D02*
X155170000Y-53850000D01*
X155320000Y-57840000D02*
X155320000Y-54010000D01*
X155470000Y-57680000D02*
X155470000Y-54150000D01*
X155570000Y-57580000D02*
X155570000Y-54250000D01*
X155670000Y-57470000D02*
X155670000Y-54350000D01*
X155770000Y-57390000D02*
X155770000Y-54460000D01*
X155920000Y-54595000D02*
X154920000Y-53595000D01*
X155920000Y-54595000D02*
X155920000Y-57245000D01*
X155920000Y-57245000D02*
X154920000Y-58245000D01*
X146315000Y-52395000D02*
G75*
G02*
X147315000Y-51395000I999999J1D01*
G01*
X147315000Y-56045000D02*
G75*
G02*
X146315000Y-55045000I-1J999999D01*
G01*
X149320000Y-56037458D02*
G75*
G02*
X151320000Y-57220000I-2J-2282546D01*
G01*
X150308796Y-51395000D02*
G75*
G02*
X151170000Y-52096887I-38796J-926887D01*
G01*
X152345000Y-53595000D02*
G75*
G02*
X151170000Y-52420000I2J1175002D01*
G01*
X144120000Y-50620000D02*
G75*
G02*
X143120000Y-50620000I-500000J0D01*
G01*
X143120000Y-50620000D02*
G75*
G02*
X144120000Y-50620000I500000J0D01*
G01*
D12*
X146439381Y-63990000D02*
X146637819Y-63990000D01*
X146637819Y-63394686D02*
X146637819Y-64585314D01*
X146637819Y-64585314D02*
X148225323Y-64585314D01*
X147034695Y-64585314D02*
X147034695Y-63394686D01*
X148225323Y-63394686D02*
X146637819Y-63394686D01*
X148225323Y-63990000D02*
X148423761Y-63990000D01*
X148225323Y-64585314D02*
X148225323Y-63394686D01*
D16*
X90163500Y-77490000D02*
G75*
G02*
X90036500Y-77490000I-63500J0D01*
G01*
X90036500Y-77490000D02*
G75*
G02*
X90163500Y-77490000I63500J0D01*
G01*
M02*
