G04 #@! TF.GenerationSoftware,KiCad,Pcbnew,9.0.7*
G04 #@! TF.CreationDate,2026-03-12T17:10:57+09:00*
G04 #@! TF.ProjectId,NomadBall44_R,4e6f6d61-6442-4616-9c6c-34345f522e6b,rev?*
G04 #@! TF.SameCoordinates,Original*
G04 #@! TF.FileFunction,Profile,NP*
%FSLAX46Y46*%
G04 Gerber Fmt 4.6, Leading zero omitted, Abs format (unit mm)*
G04 Created by KiCad (PCBNEW 9.0.7) date 2026-03-12 17:10:57*
%MOMM*%
%LPD*%
G01*
G04 APERTURE LIST*
G04 #@! TA.AperFunction,Profile*
%ADD10C,0.050000*%
G04 #@! TD*
G04 APERTURE END LIST*
D10*
X164257107Y-45412896D02*
G75*
G02*
X163257104Y-44412896I-7J999996D01*
G01*
X79988666Y-136530838D02*
X73362087Y-118311601D01*
X173264264Y-127612893D02*
G75*
G02*
X172764307Y-127112893I36J499993D01*
G01*
X73960000Y-117030000D02*
X78312905Y-115440312D01*
X182440000Y-46409093D02*
X182440000Y-49930906D01*
X105658639Y-48710974D02*
X105654812Y-46714808D01*
X115060844Y-110254552D02*
G75*
G02*
X115000081Y-109559959I3939156J694552D01*
G01*
X220690000Y-107570000D02*
G75*
G02*
X219690000Y-108570000I-1000000J0D01*
G01*
X123279757Y-101912894D02*
X117200075Y-101889594D01*
X164257100Y-45412896D02*
X181440000Y-45409093D01*
X200497107Y-127607106D02*
X173264264Y-127612893D01*
X201497107Y-109557107D02*
X201497107Y-126607106D01*
X115060844Y-110254552D02*
X117933870Y-126552935D01*
X219690000Y-50947106D02*
G75*
G02*
X220689994Y-51947106I0J-999994D01*
G01*
X171764264Y-102862894D02*
X163294324Y-102862894D01*
X125002894Y-44712891D02*
X125002894Y-44212896D01*
X172764264Y-127112893D02*
X172764264Y-103862894D01*
X78971061Y-114500515D02*
X78977107Y-50707107D01*
X181440000Y-45409093D02*
G75*
G02*
X182440007Y-46409093I0J-1000007D01*
G01*
X144052894Y-42212896D02*
G75*
G02*
X143052894Y-43212894I-999994J-4D01*
G01*
X145052894Y-40712896D02*
X162257100Y-40712896D01*
X78971061Y-114500555D02*
G75*
G02*
X78312911Y-115440327I-999961J-45D01*
G01*
X220690000Y-51947106D02*
X220690000Y-107570000D01*
X162257107Y-40712896D02*
G75*
G02*
X163257104Y-41712896I-7J-1000004D01*
G01*
X183440000Y-50940242D02*
X219690000Y-50947106D01*
X117124583Y-127711323D02*
X98015452Y-131085733D01*
X115000075Y-104089594D02*
G75*
G02*
X117200075Y-101889575I2200025J-6D01*
G01*
X163257107Y-41712896D02*
X163257107Y-44412896D01*
X161294324Y-100362895D02*
G75*
G02*
X162294305Y-101362895I-24J-1000005D01*
G01*
X219690000Y-108562894D02*
X202497100Y-108557107D01*
X144052894Y-42212896D02*
X144052894Y-41712896D01*
X161294324Y-100362895D02*
X124973126Y-100362895D01*
X123977027Y-101274659D02*
G75*
G02*
X123279757Y-101912857I-697227J61759D01*
G01*
X171764264Y-102862894D02*
G75*
G02*
X172764306Y-103862894I36J-1000006D01*
G01*
X162294324Y-101862894D02*
X162294324Y-101362895D01*
X79977107Y-49712892D02*
X104648802Y-49712892D01*
X201497107Y-109557107D02*
G75*
G02*
X202497107Y-108557107I999993J7D01*
G01*
X125002894Y-44712891D02*
G75*
G02*
X124002894Y-45712894I-999994J-9D01*
G01*
X163294324Y-102862894D02*
G75*
G02*
X162294306Y-101862894I-24J999994D01*
G01*
X126002894Y-43212896D02*
X143052894Y-43212896D01*
X97512014Y-131220683D02*
X81270267Y-137128751D01*
X123977026Y-101274659D02*
G75*
G02*
X124973126Y-100362925I996074J-88241D01*
G01*
X105654812Y-46714808D02*
G75*
G02*
X106654810Y-45712910I999988J1908D01*
G01*
X97512013Y-131220683D02*
G75*
G02*
X98015453Y-131085738I1025487J-2819217D01*
G01*
X201497107Y-126607106D02*
G75*
G02*
X200497107Y-127607107I-1000007J6D01*
G01*
X115000075Y-104089594D02*
X115000075Y-109559959D01*
X183440000Y-50936219D02*
G75*
G02*
X182439981Y-49936219I0J1000019D01*
G01*
X144052894Y-41712896D02*
G75*
G02*
X145052894Y-40712894I1000006J-4D01*
G01*
X106654810Y-45712891D02*
X124002894Y-45712891D01*
X117935544Y-126552935D02*
G75*
G02*
X117124776Y-127711372I-984844J-173665D01*
G01*
X78977107Y-50707107D02*
G75*
G02*
X79977107Y-49707107I999993J7D01*
G01*
X73362087Y-118311601D02*
G75*
G02*
X73960007Y-117030020I939813J341801D01*
G01*
X125002894Y-44212896D02*
G75*
G02*
X126002894Y-43212894I1000006J-4D01*
G01*
X105658639Y-48710974D02*
G75*
G02*
X104658641Y-49712941I-1000039J-1926D01*
G01*
X81270267Y-137128751D02*
G75*
G02*
X79988642Y-136530847I-341867J939751D01*
G01*
X90770848Y-65864096D02*
X90790000Y-61235000D01*
X91290000Y-60735001D02*
X92390000Y-60734999D01*
X91355183Y-66350792D02*
X92390000Y-66360014D01*
X92918013Y-65857041D02*
X92890000Y-61234999D01*
X90770848Y-65864095D02*
G75*
G02*
X91355183Y-66350792I52828J-530703D01*
G01*
X90790000Y-61235000D02*
G75*
G02*
X91290000Y-60735000I500001J-1D01*
G01*
X92390000Y-66360000D02*
G75*
G02*
X92918013Y-65857039I530741J-28540D01*
G01*
X92390001Y-60734999D02*
G75*
G02*
X92890001Y-61234999I-1J-500001D01*
G01*
M02*
