G04 #@! TF.GenerationSoftware,KiCad,Pcbnew,9.0.7*
G04 #@! TF.CreationDate,2026-03-12T17:10:57+09:00*
G04 #@! TF.ProjectId,NomadBall44_R,4e6f6d61-6442-4616-9c6c-34345f522e6b,rev?*
G04 #@! TF.SameCoordinates,Original*
G04 #@! TF.FileFunction,Copper,L2,Bot*
G04 #@! TF.FilePolarity,Positive*
%FSLAX46Y46*%
G04 Gerber Fmt 4.6, Leading zero omitted, Abs format (unit mm)*
G04 Created by KiCad (PCBNEW 9.0.7) date 2026-03-12 17:10:57*
%MOMM*%
%LPD*%
G01*
G04 APERTURE LIST*
G04 Aperture macros list*
%AMRoundRect*
0 Rectangle with rounded corners*
0 $1 Rounding radius*
0 $2 $3 $4 $5 $6 $7 $8 $9 X,Y pos of 4 corners*
0 Add a 4 corners polygon primitive as box body*
4,1,4,$2,$3,$4,$5,$6,$7,$8,$9,$2,$3,0*
0 Add four circle primitives for the rounded corners*
1,1,$1+$1,$2,$3*
1,1,$1+$1,$4,$5*
1,1,$1+$1,$6,$7*
1,1,$1+$1,$8,$9*
0 Add four rect primitives between the rounded corners*
20,1,$1+$1,$2,$3,$4,$5,0*
20,1,$1+$1,$4,$5,$6,$7,0*
20,1,$1+$1,$6,$7,$8,$9,0*
20,1,$1+$1,$8,$9,$2,$3,0*%
%AMRotRect*
0 Rectangle, with rotation*
0 The origin of the aperture is its center*
0 $1 length*
0 $2 width*
0 $3 Rotation angle, in degrees counterclockwise*
0 Add horizontal line*
21,1,$1,$2,0,0,$3*%
G04 Aperture macros list end*
G04 #@! TA.AperFunction,SMDPad,CuDef*
%ADD10RotRect,1.200000X0.950000X10.000000*%
G04 #@! TD*
G04 #@! TA.AperFunction,SMDPad,CuDef*
%ADD11R,1.200000X0.950000*%
G04 #@! TD*
G04 #@! TA.AperFunction,ComponentPad*
%ADD12O,1.000000X1.300000*%
G04 #@! TD*
G04 #@! TA.AperFunction,SMDPad,CuDef*
%ADD13R,3.000000X3.500000*%
G04 #@! TD*
G04 #@! TA.AperFunction,ComponentPad*
%ADD14R,1.700000X1.700000*%
G04 #@! TD*
G04 #@! TA.AperFunction,ComponentPad*
%ADD15O,1.700000X1.700000*%
G04 #@! TD*
G04 #@! TA.AperFunction,ComponentPad*
%ADD16C,1.500000*%
G04 #@! TD*
G04 #@! TA.AperFunction,ComponentPad*
%ADD17C,0.500000*%
G04 #@! TD*
G04 #@! TA.AperFunction,SMDPad,CuDef*
%ADD18RoundRect,0.172225X0.534740X1.950260X-1.169519X1.649754X-0.534740X-1.950260X1.169519X-1.649754X0*%
G04 #@! TD*
G04 #@! TA.AperFunction,SMDPad,CuDef*
%ADD19RotRect,1.200000X0.950000X20.000000*%
G04 #@! TD*
G04 #@! TA.AperFunction,ComponentPad*
%ADD20R,2.000000X2.000000*%
G04 #@! TD*
G04 #@! TA.AperFunction,ComponentPad*
%ADD21C,2.000000*%
G04 #@! TD*
G04 #@! TA.AperFunction,ComponentPad*
%ADD22R,3.000000X2.500000*%
G04 #@! TD*
G04 #@! TA.AperFunction,SMDPad,CuDef*
%ADD23RoundRect,0.172225X0.187957X2.013488X-1.438228X1.421605X-0.187957X-2.013488X1.438228X-1.421605X0*%
G04 #@! TD*
G04 #@! TA.AperFunction,SMDPad,CuDef*
%ADD24R,1.000000X3.500000*%
G04 #@! TD*
G04 #@! TA.AperFunction,SMDPad,CuDef*
%ADD25R,1.500000X3.400000*%
G04 #@! TD*
G04 #@! TA.AperFunction,ViaPad*
%ADD26C,0.600000*%
G04 #@! TD*
G04 #@! TA.AperFunction,Conductor*
%ADD27C,0.500000*%
G04 #@! TD*
G04 APERTURE END LIST*
D10*
X98312414Y-115979086D03*
X101710000Y-115380000D03*
D11*
X126526563Y-85510000D03*
X129976563Y-85510000D03*
X164896563Y-88130000D03*
X168346563Y-88130000D03*
X203210000Y-74550000D03*
X206660000Y-74550000D03*
X164880000Y-49790000D03*
X168330000Y-49790000D03*
D12*
X81580000Y-86720000D03*
X81580000Y-84220000D03*
X81580000Y-81720000D03*
D13*
X164470000Y-58710000D03*
X176370000Y-60910000D03*
D11*
X107326563Y-49380000D03*
X110776563Y-49380000D03*
D13*
X183570000Y-83500000D03*
X195470000Y-85700000D03*
X164470000Y-97050000D03*
X176370000Y-99250000D03*
D11*
X183976563Y-112770000D03*
X187426563Y-112770000D03*
X126506563Y-47130000D03*
X129956563Y-47130000D03*
D14*
X175270000Y-109290000D03*
D15*
X175270000Y-111830000D03*
X175270000Y-114370000D03*
X175270000Y-116910000D03*
X175270000Y-119450000D03*
X175270000Y-121990000D03*
X175270000Y-124530000D03*
D13*
X183570000Y-64295000D03*
X195470000Y-66495000D03*
X202753437Y-102680000D03*
X214653437Y-104880000D03*
D16*
X90865000Y-66335000D03*
X92865000Y-66335000D03*
D13*
X145270000Y-72910000D03*
X157170000Y-75110000D03*
D11*
X184010000Y-55400000D03*
X187460000Y-55400000D03*
X126496563Y-66320000D03*
X129946563Y-66320000D03*
D13*
X145270000Y-92075000D03*
X157170000Y-94275000D03*
D11*
X145696563Y-83160000D03*
X149146563Y-83160000D03*
D17*
X98719706Y-123267823D03*
X99310110Y-126616170D03*
D18*
X99741204Y-124813931D03*
D17*
X100172298Y-123011692D03*
X100762702Y-126360040D03*
X110008478Y-123511247D03*
X110598882Y-126859593D03*
D18*
X111029976Y-125057354D03*
D17*
X111461070Y-123255116D03*
X112051473Y-126603462D03*
D11*
X107326563Y-68560000D03*
X110776563Y-68560000D03*
X99376563Y-87930000D03*
X102826563Y-87930000D03*
D13*
X202753437Y-83500000D03*
X214653437Y-85700000D03*
D11*
X184010000Y-74580000D03*
X187460000Y-74580000D03*
D13*
X126080000Y-56060000D03*
X137980000Y-58260000D03*
X106900625Y-77485000D03*
X118800625Y-79685000D03*
D11*
X183980000Y-93770000D03*
X187430000Y-93770000D03*
D19*
X77645700Y-122699985D03*
X80887639Y-121520016D03*
D20*
X88390000Y-93720000D03*
D21*
X88390000Y-98720000D03*
X88390000Y-96220000D03*
D22*
X95890000Y-90620000D03*
X95890000Y-101820000D03*
D21*
X102890000Y-93720000D03*
X102890000Y-98720000D03*
D13*
X126080000Y-94445000D03*
X137980000Y-96645000D03*
X202753437Y-64295000D03*
X214653437Y-66495000D03*
D11*
X145696563Y-44790000D03*
X149146563Y-44790000D03*
X164886563Y-68970000D03*
X168336563Y-68970000D03*
D13*
X126080000Y-75250000D03*
X137980000Y-77450000D03*
D17*
X79318238Y-129800612D03*
X80481106Y-132995567D03*
D23*
X80592695Y-131145850D03*
D17*
X80704284Y-129296132D03*
X81867153Y-132491087D03*
X90477778Y-128080063D03*
X91640646Y-131275018D03*
D23*
X91752235Y-129425300D03*
D17*
X91863824Y-127575583D03*
X93026693Y-130770538D03*
D11*
X203180000Y-93750000D03*
X206630000Y-93750000D03*
X203200000Y-55350000D03*
X206650000Y-55350000D03*
D13*
X164470000Y-77905000D03*
X176370000Y-80105000D03*
X183570000Y-121730000D03*
X195470000Y-123930000D03*
X106900625Y-96675000D03*
X118800625Y-98875000D03*
D11*
X107316563Y-87750000D03*
X110766563Y-87750000D03*
D13*
X106900625Y-58310000D03*
X118800625Y-60510000D03*
X183570000Y-102680000D03*
X195470000Y-104880000D03*
X145270000Y-53720000D03*
X157170000Y-55920000D03*
D11*
X145706563Y-63990000D03*
X149156563Y-63990000D03*
D24*
X93000000Y-75890000D03*
X91000000Y-75890000D03*
D25*
X88650000Y-70140000D03*
X95350000Y-70140000D03*
D26*
X83020000Y-75890000D03*
X89160000Y-75890000D03*
X89980000Y-73410000D03*
X144280000Y-44780000D03*
X162120000Y-42790000D03*
X124910000Y-47120000D03*
X107330000Y-50830000D03*
X107330000Y-47120000D03*
X180940000Y-46740000D03*
X163620000Y-49780000D03*
X162110000Y-49780000D03*
X98460000Y-50850000D03*
X145700000Y-42810000D03*
X98450000Y-60320000D03*
X126520000Y-44820000D03*
X164880000Y-46740000D03*
X118820000Y-49390000D03*
X112090000Y-49390000D03*
X131320000Y-47130000D03*
X137980000Y-47140000D03*
X145720000Y-66450000D03*
X131140000Y-63430000D03*
X105620000Y-68480000D03*
X164900000Y-72150000D03*
X133510331Y-63409000D03*
X183990000Y-68420000D03*
X104060000Y-68486000D03*
X107320000Y-70180000D03*
X126500000Y-70770000D03*
X144160000Y-63410000D03*
X185160000Y-74590000D03*
X203210000Y-75950000D03*
X126490000Y-64140000D03*
X164890000Y-66500000D03*
X104060000Y-62860000D03*
X129950000Y-65400000D03*
X137340000Y-65430000D03*
X214650000Y-74600000D03*
X208070000Y-74540000D03*
X164900000Y-86210000D03*
X107340000Y-89280000D03*
X126540000Y-83160000D03*
X103320000Y-85320000D03*
X144450000Y-83160000D03*
X145730000Y-81690000D03*
X156930000Y-81690000D03*
X156930000Y-88140000D03*
X103310000Y-65430000D03*
X139880000Y-83160000D03*
X176161177Y-86258364D03*
X176170000Y-91860000D03*
X163640000Y-88140000D03*
X203180000Y-91910000D03*
X107310000Y-85350000D03*
X183970000Y-91910000D03*
X126540000Y-89250000D03*
X137490000Y-83160000D03*
X138000000Y-84440000D03*
X129980000Y-84510000D03*
X157890000Y-83880000D03*
X150220000Y-83160000D03*
X174550000Y-89570000D03*
X177010000Y-89620000D03*
X206640000Y-95000000D03*
X214640000Y-94950000D03*
X117570000Y-86946000D03*
X128490000Y-90450000D03*
X82410000Y-112610000D03*
X163790000Y-100750000D03*
X96550000Y-112630000D03*
X142980000Y-87090000D03*
X120810000Y-90230000D03*
X100360000Y-86946000D03*
X98360000Y-67940000D03*
X159680000Y-97820000D03*
X183980000Y-111010000D03*
X128500000Y-87150000D03*
X142980000Y-97820000D03*
X82260000Y-60320000D03*
X82260000Y-78193991D03*
X181860000Y-86320000D03*
X180850000Y-124500000D03*
X81510000Y-78560000D03*
X81510000Y-57770000D03*
X180890000Y-84690000D03*
X180920000Y-111810000D03*
X182460000Y-105250000D03*
X182640000Y-85920000D03*
X182640000Y-80100000D03*
X182460000Y-99690000D03*
X182630000Y-66780000D03*
X182460000Y-116890000D03*
X180130000Y-96860000D03*
X85900000Y-87750000D03*
X95450000Y-66340000D03*
X95490000Y-55260000D03*
X180130000Y-114370000D03*
X94080000Y-87750000D03*
X178630000Y-101270000D03*
X80010000Y-52700000D03*
X80080000Y-101080000D03*
X176110000Y-85460000D03*
X80770000Y-79140000D03*
X80760000Y-55250000D03*
X179380000Y-109300000D03*
X83100000Y-120530000D03*
X83100000Y-122420000D03*
X106890000Y-53970000D03*
X104570000Y-104580000D03*
X83140000Y-104620000D03*
X83100000Y-123770000D03*
X89620000Y-53960000D03*
X79650000Y-123770000D03*
X86900000Y-53990000D03*
X119550625Y-96060000D03*
X126080000Y-51680000D03*
X112690000Y-101860000D03*
X99750000Y-101860000D03*
X117880000Y-96060000D03*
X87401000Y-91240000D03*
X145260000Y-98720000D03*
X87410000Y-59040000D03*
X177430000Y-118290000D03*
X164480000Y-61230000D03*
X170000000Y-100950000D03*
X86600000Y-61620000D03*
X177430000Y-106770000D03*
X86580000Y-56920000D03*
X183560000Y-118310000D03*
X164990000Y-100380000D03*
X174470000Y-106740000D03*
X92067529Y-69236000D03*
X88350000Y-64140000D03*
X88350000Y-67250000D03*
X88350000Y-72570000D03*
X183580000Y-67640000D03*
X131170000Y-64660000D03*
X118920000Y-67530000D03*
X131160000Y-70040000D03*
X118930000Y-70020000D03*
X199480000Y-63560000D03*
X86150000Y-62880000D03*
X85430000Y-65390000D03*
D27*
X81580000Y-84220000D02*
X83020000Y-82780000D01*
X89160000Y-75890000D02*
X91000000Y-75890000D01*
X83020000Y-82780000D02*
X83020000Y-75890000D01*
X91770000Y-73410000D02*
X89980000Y-73410000D01*
X90865000Y-66335000D02*
X90960327Y-66335000D01*
X90960327Y-66335000D02*
X91115976Y-66490649D01*
X91115976Y-66490649D02*
X91239901Y-66584666D01*
X93000000Y-74640000D02*
X91770000Y-73410000D01*
X90985748Y-66335000D02*
X91103267Y-66452519D01*
X93000000Y-75890000D02*
X93000000Y-74640000D01*
X91103267Y-66452519D02*
X91236429Y-66588077D01*
X90865000Y-66335000D02*
X90985748Y-66335000D01*
X184010000Y-55400000D02*
X187680000Y-51730000D01*
X107330000Y-50830000D02*
X107330000Y-49383437D01*
X124910000Y-47120000D02*
X126496563Y-47120000D01*
X180940000Y-52330000D02*
X184010000Y-55400000D01*
X145696563Y-42813437D02*
X145700000Y-42810000D01*
X145686563Y-44780000D02*
X145696563Y-44790000D01*
X199580000Y-51730000D02*
X203200000Y-55350000D01*
X107330000Y-49383437D02*
X107326563Y-49380000D01*
X164880000Y-49790000D02*
X164880000Y-46740000D01*
X98450000Y-60320000D02*
X98450000Y-50860000D01*
X98450000Y-50860000D02*
X98460000Y-50850000D01*
X126496563Y-47120000D02*
X126506563Y-47130000D01*
X144280000Y-44780000D02*
X145686563Y-44780000D01*
X180940000Y-46740000D02*
X180940000Y-52330000D01*
X163620000Y-49780000D02*
X164870000Y-49780000D01*
X162120000Y-49770000D02*
X162110000Y-49780000D01*
X126506563Y-47130000D02*
X126506563Y-44833437D01*
X162120000Y-42790000D02*
X162120000Y-49770000D01*
X145696563Y-44790000D02*
X145696563Y-42813437D01*
X107326563Y-47123437D02*
X107330000Y-47120000D01*
X107326563Y-49380000D02*
X107326563Y-47123437D01*
X187680000Y-51730000D02*
X199580000Y-51730000D01*
X126506563Y-44833437D02*
X126520000Y-44820000D01*
X164870000Y-49780000D02*
X164880000Y-49790000D01*
X118800625Y-49409375D02*
X118800625Y-60510000D01*
X110776563Y-49380000D02*
X112080000Y-49380000D01*
X118820000Y-49390000D02*
X118800625Y-49409375D01*
X112080000Y-49380000D02*
X112090000Y-49390000D01*
X137980000Y-47140000D02*
X137980000Y-58260000D01*
X129956563Y-47130000D02*
X131320000Y-47130000D01*
X157170000Y-47390000D02*
X157170000Y-55920000D01*
X149146563Y-44790000D02*
X154570000Y-44790000D01*
X154570000Y-44790000D02*
X157170000Y-47390000D01*
X168330000Y-49790000D02*
X173880000Y-49790000D01*
X176370000Y-52280000D02*
X176370000Y-60910000D01*
X173880000Y-49790000D02*
X176370000Y-52280000D01*
X187460000Y-55400000D02*
X190827634Y-55400000D01*
X195470000Y-60042366D02*
X195470000Y-66495000D01*
X190827634Y-55400000D02*
X195470000Y-60042366D01*
X214653437Y-57923437D02*
X214653437Y-66495000D01*
X212080000Y-55350000D02*
X214653437Y-57923437D01*
X206650000Y-55350000D02*
X212080000Y-55350000D01*
X133489331Y-63430000D02*
X133510331Y-63409000D01*
X145706563Y-63990000D02*
X145706563Y-66436563D01*
X185150000Y-74580000D02*
X185160000Y-74590000D01*
X164886563Y-66503437D02*
X164890000Y-66500000D01*
X164886563Y-68970000D02*
X164886563Y-66503437D01*
X184010000Y-74580000D02*
X185150000Y-74580000D01*
X126500000Y-66323437D02*
X126496563Y-66320000D01*
X184010000Y-68770000D02*
X184010000Y-74580000D01*
X104060000Y-62860000D02*
X104060000Y-68486000D01*
X126500000Y-70770000D02*
X126500000Y-66323437D01*
X131140000Y-63430000D02*
X133489331Y-63430000D01*
X126496563Y-66320000D02*
X126496563Y-64146563D01*
X183990000Y-68750000D02*
X184010000Y-68770000D01*
X144160000Y-63410000D02*
X145126563Y-63410000D01*
X164900000Y-72150000D02*
X164900000Y-68983437D01*
X145706563Y-66436563D02*
X145720000Y-66450000D01*
X164900000Y-68983437D02*
X164886563Y-68970000D01*
X105620000Y-68480000D02*
X107246563Y-68480000D01*
X107326563Y-68560000D02*
X107326563Y-70173437D01*
X203210000Y-75950000D02*
X203210000Y-74550000D01*
X107326563Y-70173437D02*
X107320000Y-70180000D01*
X107246563Y-68480000D02*
X107326563Y-68560000D01*
X145126563Y-63410000D02*
X145706563Y-63990000D01*
X183990000Y-68420000D02*
X183990000Y-68750000D01*
X126496563Y-64146563D02*
X126490000Y-64140000D01*
X110776563Y-68560000D02*
X115410000Y-68560000D01*
X115410000Y-68560000D02*
X118800625Y-71950625D01*
X118800625Y-71950625D02*
X118800625Y-79685000D01*
X137340000Y-67900000D02*
X137980000Y-68540000D01*
X129946563Y-65403437D02*
X129950000Y-65400000D01*
X137980000Y-68540000D02*
X137980000Y-77450000D01*
X137340000Y-65430000D02*
X137340000Y-67900000D01*
X129946563Y-66320000D02*
X129946563Y-65403437D01*
X154420000Y-63990000D02*
X157170000Y-66740000D01*
X157170000Y-66740000D02*
X157170000Y-75110000D01*
X149156563Y-63990000D02*
X154420000Y-63990000D01*
X176370000Y-72210000D02*
X176370000Y-80105000D01*
X168336563Y-68970000D02*
X173130000Y-68970000D01*
X173130000Y-68970000D02*
X176370000Y-72210000D01*
X195470000Y-79247366D02*
X195470000Y-85700000D01*
X190802634Y-74580000D02*
X195470000Y-79247366D01*
X187460000Y-74580000D02*
X190802634Y-74580000D01*
X214650000Y-74950000D02*
X214653437Y-74953437D01*
X206660000Y-74550000D02*
X208060000Y-74550000D01*
X214653437Y-74953437D02*
X214653437Y-85700000D01*
X214650000Y-74600000D02*
X214650000Y-74950000D01*
X208060000Y-74550000D02*
X208070000Y-74540000D01*
X164896563Y-86213437D02*
X164900000Y-86210000D01*
X107310000Y-85350000D02*
X107310000Y-87743437D01*
X126540000Y-89250000D02*
X126540000Y-85523437D01*
X126540000Y-85523437D02*
X126526563Y-85510000D01*
X144450000Y-83160000D02*
X145696563Y-83160000D01*
X103310000Y-65430000D02*
X103310000Y-85310000D01*
X203180000Y-91910000D02*
X203180000Y-93750000D01*
X107310000Y-87743437D02*
X107316563Y-87750000D01*
X145696563Y-83160000D02*
X145696563Y-81723437D01*
X183970000Y-93760000D02*
X183980000Y-93770000D01*
X163640000Y-88140000D02*
X164886563Y-88140000D01*
X145696563Y-81723437D02*
X145730000Y-81690000D01*
X164896563Y-88130000D02*
X164896563Y-86213437D01*
X137490000Y-83160000D02*
X139880000Y-83160000D01*
X176161177Y-86258364D02*
X176161177Y-91851177D01*
X183970000Y-91910000D02*
X183970000Y-93760000D01*
X107316563Y-87750000D02*
X107316563Y-89256563D01*
X176161177Y-91851177D02*
X176170000Y-91860000D01*
X107316563Y-89256563D02*
X107340000Y-89280000D01*
X126526563Y-83173437D02*
X126540000Y-83160000D01*
X156930000Y-81690000D02*
X156930000Y-88140000D01*
X164886563Y-88140000D02*
X164896563Y-88130000D01*
X103310000Y-85310000D02*
X103320000Y-85320000D01*
X126526563Y-85510000D02*
X126526563Y-83173437D01*
X118820000Y-90490000D02*
X118800625Y-90509375D01*
X118800625Y-90509375D02*
X118800625Y-98875000D01*
X116080000Y-87750000D02*
X118820000Y-90490000D01*
X110766563Y-87750000D02*
X116080000Y-87750000D01*
X129976563Y-85510000D02*
X129976563Y-84513437D01*
X138000000Y-96625000D02*
X137980000Y-96645000D01*
X129976563Y-84513437D02*
X129980000Y-84510000D01*
X138000000Y-84440000D02*
X138000000Y-96625000D01*
X157170000Y-91210000D02*
X157170000Y-94275000D01*
X157890000Y-90490000D02*
X157170000Y-91210000D01*
X157890000Y-83880000D02*
X157890000Y-90490000D01*
X149146563Y-83160000D02*
X150220000Y-83160000D01*
X173110000Y-88130000D02*
X174550000Y-89570000D01*
X177010000Y-98610000D02*
X176370000Y-99250000D01*
X177010000Y-89620000D02*
X177010000Y-98610000D01*
X168346563Y-88130000D02*
X173110000Y-88130000D01*
X187430000Y-93770000D02*
X190812634Y-93770000D01*
X190812634Y-93770000D02*
X195470000Y-98427366D01*
X195470000Y-98427366D02*
X195470000Y-104880000D01*
X214653437Y-95403437D02*
X214653437Y-104880000D01*
X206630000Y-93750000D02*
X206630000Y-94990000D01*
X214640000Y-94950000D02*
X214640000Y-95390000D01*
X214640000Y-95390000D02*
X214653437Y-95403437D01*
X206630000Y-94990000D02*
X206640000Y-95000000D01*
X87900016Y-121520016D02*
X91752235Y-125372235D01*
X91752235Y-125372235D02*
X91752235Y-129425300D01*
X80887639Y-121520016D02*
X87900016Y-121520016D01*
X183980000Y-111010000D02*
X183980000Y-112766563D01*
X117570000Y-86990000D02*
X120810000Y-90230000D01*
X128490000Y-90450000D02*
X128490000Y-87160000D01*
X98312414Y-89237586D02*
X98312414Y-112520000D01*
X160860000Y-97820000D02*
X163790000Y-100750000D01*
X117570000Y-86946000D02*
X117570000Y-86990000D01*
X82410000Y-117935685D02*
X82410000Y-112610000D01*
X98202414Y-112630000D02*
X98312414Y-112520000D01*
X142980000Y-87090000D02*
X142980000Y-97820000D01*
X99376563Y-87930000D02*
X99376563Y-87929437D01*
X96550000Y-112630000D02*
X98202414Y-112630000D01*
X99376563Y-87929437D02*
X100360000Y-86946000D01*
X159680000Y-97820000D02*
X160860000Y-97820000D01*
X99376563Y-88173437D02*
X98312414Y-89237586D01*
X98312414Y-112520000D02*
X98312414Y-115979086D01*
X99376563Y-87930000D02*
X99376563Y-88173437D01*
X128490000Y-87160000D02*
X128500000Y-87150000D01*
X99376563Y-68956563D02*
X99376563Y-87930000D01*
X77645700Y-122699985D02*
X82410000Y-117935685D01*
X183980000Y-112766563D02*
X183976563Y-112770000D01*
X98360000Y-67940000D02*
X99376563Y-68956563D01*
X111029976Y-119749976D02*
X111029976Y-125057354D01*
X101710000Y-115380000D02*
X106660000Y-115380000D01*
X106660000Y-115380000D02*
X111029976Y-119749976D01*
X101439000Y-89317563D02*
X101439000Y-97269000D01*
X102826563Y-87930000D02*
X101439000Y-89317563D01*
X101439000Y-97269000D02*
X102890000Y-98720000D01*
X195470000Y-115420000D02*
X195470000Y-123930000D01*
X187426563Y-112770000D02*
X192900000Y-112770000D01*
X195510000Y-115380000D02*
X195470000Y-115420000D01*
X192900000Y-112770000D02*
X195510000Y-115380000D01*
X181619000Y-86561000D02*
X181619000Y-111446925D01*
X181671000Y-119529000D02*
X180850000Y-120350000D01*
X82260000Y-60320000D02*
X82260000Y-78193991D01*
X181671000Y-111498925D02*
X181671000Y-119529000D01*
X181860000Y-86320000D02*
X181619000Y-86561000D01*
X180850000Y-120350000D02*
X180850000Y-124500000D01*
X181619000Y-111446925D02*
X181671000Y-111498925D01*
X180890000Y-111780000D02*
X180920000Y-111810000D01*
X81510000Y-57770000D02*
X81510000Y-78560000D01*
X180890000Y-84690000D02*
X180890000Y-111780000D01*
X182640000Y-99510000D02*
X182640000Y-85920000D01*
X182460000Y-99690000D02*
X182640000Y-99510000D01*
X182640000Y-66790000D02*
X182630000Y-66780000D01*
X182640000Y-80100000D02*
X182640000Y-66790000D01*
X182460000Y-116890000D02*
X182460000Y-105250000D01*
X85900000Y-95144213D02*
X86975787Y-96220000D01*
X85900000Y-87750000D02*
X85900000Y-95144213D01*
X95490000Y-66300000D02*
X95450000Y-66340000D01*
X95490000Y-55260000D02*
X95490000Y-66300000D01*
X92865000Y-66335000D02*
X94080000Y-67550000D01*
X180130000Y-96860000D02*
X180130000Y-114370000D01*
X86975787Y-96220000D02*
X88390000Y-96220000D01*
X94080000Y-67550000D02*
X94080000Y-87750000D01*
X92865000Y-66335000D02*
X92735000Y-66335000D01*
X92735000Y-66335000D02*
X92670000Y-66400000D01*
X178630000Y-101270000D02*
X178630000Y-118630000D01*
X80010000Y-52700000D02*
X80010000Y-101010000D01*
X178630000Y-118630000D02*
X175270000Y-121990000D01*
X80010000Y-101010000D02*
X80080000Y-101080000D01*
X80760000Y-55250000D02*
X80760000Y-79130000D01*
X80760000Y-79130000D02*
X80770000Y-79140000D01*
X176895628Y-85460000D02*
X179380000Y-87944372D01*
X179380000Y-87944372D02*
X179380000Y-109300000D01*
X176110000Y-85460000D02*
X176895628Y-85460000D01*
X106900625Y-102139375D02*
X106900625Y-96675000D01*
X106900625Y-58310000D02*
X106280000Y-58310000D01*
X106265563Y-78120062D02*
X106265563Y-96039938D01*
X80592695Y-131145850D02*
X79650000Y-130203155D01*
X104869000Y-75453375D02*
X106900625Y-77485000D01*
X83100000Y-120530000D02*
X83161000Y-120469000D01*
X106900625Y-58310000D02*
X104869000Y-60341625D01*
X106900625Y-77485000D02*
X106265563Y-78120062D01*
X83161000Y-120469000D02*
X83161000Y-104641000D01*
X104869000Y-60341625D02*
X104869000Y-75453375D01*
X104570000Y-104580000D02*
X104570000Y-104470000D01*
X83161000Y-104641000D02*
X83140000Y-104620000D01*
X106890000Y-53970000D02*
X106890000Y-58299375D01*
X106890000Y-58299375D02*
X106900625Y-58310000D01*
X106265563Y-96039938D02*
X106900625Y-96675000D01*
X83100000Y-123770000D02*
X83100000Y-122420000D01*
X104570000Y-104470000D02*
X106900625Y-102139375D01*
X89590000Y-53990000D02*
X89620000Y-53960000D01*
X86900000Y-53990000D02*
X89590000Y-53990000D01*
X79650000Y-130203155D02*
X79650000Y-123770000D01*
X127547563Y-57527563D02*
X127547563Y-73782437D01*
X127547563Y-73782437D02*
X126080000Y-75250000D01*
X99741204Y-101868796D02*
X99750000Y-101860000D01*
X112690000Y-98295077D02*
X114925077Y-96060000D01*
X112690000Y-101860000D02*
X112690000Y-98295077D01*
X126080000Y-51680000D02*
X126080000Y-56060000D01*
X121165625Y-94445000D02*
X126080000Y-94445000D01*
X126080000Y-56060000D02*
X127547563Y-57527563D01*
X99741204Y-124813931D02*
X99741204Y-101868796D01*
X114925077Y-96060000D02*
X117880000Y-96060000D01*
X119550625Y-96060000D02*
X121165625Y-94445000D01*
X127577563Y-76747563D02*
X127577563Y-92947437D01*
X126080000Y-75250000D02*
X127577563Y-76747563D01*
X127577563Y-92947437D02*
X126080000Y-94445000D01*
X145270000Y-98710000D02*
X145270000Y-92075000D01*
X145260000Y-98720000D02*
X145270000Y-98710000D01*
X87410000Y-59040000D02*
X87410000Y-91231000D01*
X146757563Y-71422437D02*
X146757563Y-55207563D01*
X145270000Y-72910000D02*
X146757563Y-71422437D01*
X146747563Y-90597437D02*
X146747563Y-74387563D01*
X87410000Y-91231000D02*
X87401000Y-91240000D01*
X145270000Y-92075000D02*
X146747563Y-90597437D01*
X146757563Y-55207563D02*
X145270000Y-53720000D01*
X146747563Y-74387563D02*
X145270000Y-72910000D01*
X164470000Y-58710000D02*
X165937563Y-60177563D01*
X171690159Y-100950000D02*
X170000000Y-100950000D01*
X164470000Y-77905000D02*
X166470000Y-79905000D01*
X164990000Y-100380000D02*
X164990000Y-97570000D01*
X177430000Y-118290000D02*
X177430000Y-106770000D01*
X166470000Y-79905000D02*
X166470000Y-95050000D01*
X165937563Y-76437437D02*
X164470000Y-77905000D01*
X183570000Y-121730000D02*
X183570000Y-118320000D01*
X164480000Y-61230000D02*
X164480000Y-58720000D01*
X164480000Y-58720000D02*
X164470000Y-58710000D01*
X183570000Y-118320000D02*
X183560000Y-118310000D01*
X164990000Y-97570000D02*
X164470000Y-97050000D01*
X86600000Y-61620000D02*
X86600000Y-56940000D01*
X86600000Y-56940000D02*
X86580000Y-56920000D01*
X174470000Y-103729841D02*
X171690159Y-100950000D01*
X174470000Y-106740000D02*
X174470000Y-103729841D01*
X166470000Y-95050000D02*
X164470000Y-97050000D01*
X165937563Y-60177563D02*
X165937563Y-76437437D01*
X183580000Y-67640000D02*
X183580000Y-64305000D01*
X92067529Y-70074471D02*
X92067529Y-69236000D01*
X88350000Y-72570000D02*
X89572000Y-72570000D01*
X185031000Y-101219000D02*
X183570000Y-102680000D01*
X89572000Y-72570000D02*
X92067529Y-70074471D01*
X186409000Y-80661000D02*
X183570000Y-83500000D01*
X183570000Y-83500000D02*
X185031000Y-84961000D01*
X88350000Y-64140000D02*
X88350000Y-67250000D01*
X183580000Y-64305000D02*
X183570000Y-64295000D01*
X185031000Y-84961000D02*
X185031000Y-101219000D01*
X186409000Y-67134000D02*
X186409000Y-80661000D01*
X183570000Y-64295000D02*
X186409000Y-67134000D01*
X202018437Y-63560000D02*
X202753437Y-64295000D01*
X202753437Y-64295000D02*
X209030000Y-70571563D01*
X202753437Y-83500000D02*
X207681000Y-88427563D01*
X199480000Y-63560000D02*
X202018437Y-63560000D01*
X209030000Y-77223437D02*
X202753437Y-83500000D01*
X131160000Y-64670000D02*
X131170000Y-64660000D01*
X118920000Y-70010000D02*
X118930000Y-70020000D01*
X207681000Y-97752437D02*
X202753437Y-102680000D01*
X207681000Y-88427563D02*
X207681000Y-97752437D01*
X209030000Y-70571563D02*
X209030000Y-77223437D01*
X118920000Y-67530000D02*
X118920000Y-70010000D01*
X131160000Y-70040000D02*
X131160000Y-64670000D01*
X86651000Y-63381000D02*
X86651000Y-91981000D01*
X86150000Y-62880000D02*
X86651000Y-63381000D01*
X86651000Y-91981000D02*
X88390000Y-93720000D01*
X85430000Y-65390000D02*
X85149000Y-65671000D01*
X85149000Y-95479000D02*
X88390000Y-98720000D01*
X85149000Y-65671000D02*
X85149000Y-95479000D01*
M02*
