G04 #@! TF.GenerationSoftware,KiCad,Pcbnew,9.0.7*
G04 #@! TF.CreationDate,2026-03-12T16:08:55+09:00*
G04 #@! TF.ProjectId,NomadBall44_L_Top_Thumb,4e6f6d61-6442-4616-9c6c-34345f4c5f54,rev?*
G04 #@! TF.SameCoordinates,Original*
G04 #@! TF.FileFunction,Profile,NP*
%FSLAX46Y46*%
G04 Gerber Fmt 4.6, Leading zero omitted, Abs format (unit mm)*
G04 Created by KiCad (PCBNEW 9.0.7) date 2026-03-12 16:08:55*
%MOMM*%
%LPD*%
G01*
G04 APERTURE LIST*
G04 #@! TA.AperFunction,Profile*
%ADD10C,0.050000*%
G04 #@! TD*
G04 #@! TA.AperFunction,Profile*
%ADD11C,0.150000*%
G04 #@! TD*
G04 APERTURE END LIST*
D10*
X280244757Y-131469999D02*
X245130000Y-118580000D01*
X244337440Y-117270000D02*
G75*
G02*
X244837815Y-117750000I19960J-480000D01*
G01*
X216210000Y-118890000D02*
G75*
G02*
X217830000Y-117270000I1620000J0D01*
G01*
X274216091Y-150970837D02*
G75*
G02*
X272934474Y-151568795I-939791J341837D01*
G01*
X256189305Y-145525732D02*
G75*
G02*
X256692742Y-145660686I-522105J-2954168D01*
G01*
X274216091Y-150970837D02*
X280842670Y-132751600D01*
X236080000Y-141970000D02*
X256189305Y-145525732D01*
X244337460Y-117270000D02*
X217830000Y-117270000D01*
X216124422Y-141310000D02*
X216210000Y-118890000D01*
X256692743Y-145660682D02*
X272934490Y-151568750D01*
X245130000Y-118580000D02*
G75*
G02*
X244835293Y-118090000I260000J490000D01*
G01*
X216784422Y-141970000D02*
G75*
G02*
X216124400Y-141310000I-22J660000D01*
G01*
X236080000Y-141970000D02*
X216784400Y-141970000D01*
X280244757Y-131469999D02*
G75*
G02*
X280842660Y-132751596I-341957J-939801D01*
G01*
X244837856Y-117750000D02*
X244835293Y-118090000D01*
D11*
X239023545Y-139933119D02*
X241471984Y-126047330D01*
X241471984Y-126047330D02*
X255357773Y-128495769D01*
X252909334Y-142381558D02*
X239023545Y-139933119D01*
X255357773Y-128495769D02*
X252909334Y-142381558D01*
X258288682Y-143573590D02*
X263111166Y-130323924D01*
X263111166Y-130323924D02*
X276360832Y-135146408D01*
X271538348Y-148396074D02*
X258288682Y-143573590D01*
X276360832Y-135146408D02*
X271538348Y-148396074D01*
X219370659Y-125344444D02*
X233470659Y-125344444D01*
X219370659Y-139444444D02*
X219370659Y-125344444D01*
X233470659Y-125344444D02*
X233470659Y-139444444D01*
X233470659Y-139444444D02*
X219370659Y-139444444D01*
M02*
