M48
; DRILL file {KiCad 9.0.7} date 2026-03-12T16:12:24+0900
; FORMAT={-:-/ absolute / metric / decimal}
; #@! TF.CreationDate,2026-03-12T16:12:24+09:00
; #@! TF.GenerationSoftware,Kicad,Pcbnew,9.0.7
; #@! TF.FileFunction,Plated,1,2,PTH
FMAT,2
METRIC
; #@! TA.AperFunction,Plated,PTH,ViaDrill
T1C0.300
; #@! TA.AperFunction,Plated,PTH,ComponentDrill
T2C0.300
; #@! TA.AperFunction,Plated,PTH,ComponentDrill
T3C0.500
; #@! TA.AperFunction,Plated,PTH,ComponentDrill
T4C1.000
%
G90
G05
T1
X134.77Y-103.33
X135.16Y-90.69
X135.17Y-67.99
X135.19Y-104.49
X140.75Y-69.83
X145.78Y-69.86
X152.98Y-90.66
X153.94Y-76.0
X154.3Y-123.95
X154.35Y-67.99
X154.43Y-88.85
X156.51Y-104.48
X157.23Y-87.02
X157.23Y-88.85
X159.87Y-69.88
X159.92Y-90.67
X165.47Y-123.87
X165.77Y-69.88
X165.81Y-90.69
X168.97Y-100.68
X168.97Y-103.36
X169.84Y-119.49
X173.05Y-66.14
X173.42Y-86.95
X173.44Y-78.05
X173.46Y-97.69
X173.46Y-104.44
X173.63Y-64.22
X174.98Y-59.83
X175.71Y-119.49
X187.81Y-104.31
X187.83Y-119.49
X189.33Y-94.66
X189.35Y-100.71
X190.65Y-78.0
X191.32Y-97.69
X192.25Y-75.23
X192.62Y-80.21
X192.67Y-98.81
X194.88Y-59.82
X194.9Y-56.41
X197.57Y-113.73
X210.36Y-80.8
X211.44Y-63.06
X211.46Y-112.82
X211.81Y-58.83
X211.81Y-82.35
X211.84Y-98.82
X211.84Y-101.73
X216.91Y-112.82
X216.97Y-116.3
X217.03Y-61.64
X217.69Y-114.01
X217.72Y-128.67
X217.75Y-124.31
X219.43Y-117.79
X220.02Y-125.96
X223.11Y-82.36
X223.11Y-83.72
X223.22Y-61.66
X226.1Y-107.94
X226.17Y-117.75
X228.68Y-63.06
X228.68Y-65.76
X229.39Y-101.71
X229.458Y-138.294
X229.56Y-83.72
X230.62Y-64.785
X230.62Y-115.17
X231.04Y-61.67
X235.2Y-80.4
X235.94Y-63.82
X236.05Y-115.19
X236.05Y-119.04
X236.25Y-99.38
X238.67Y-116.31
X240.31Y-125.95
X242.47Y-83.74
X242.49Y-91.68
X242.5Y-63.82
X242.5Y-103.37
X242.5Y-110.69
X244.89Y-65.76
X244.91Y-67.68
X245.8Y-64.78
X245.8Y-66.57
X246.74Y-61.67
X246.74Y-65.58
X247.28Y-128.3
X249.15Y-80.4
X249.19Y-94.56
X249.96Y-128.3
X250.26Y-72.19
X250.32Y-75.98
X250.98Y-67.7
X250.98Y-70.88
X251.78Y-73.44
X251.78Y-77.26
X251.84Y-68.36
X251.86Y-66.57
X255.13Y-119.07
X259.49Y-82.24
X261.14Y-98.35
X264.63Y-125.94
X264.64Y-129.5
X265.72Y-87.66
X265.72Y-100.88
X267.62Y-87.6
X267.62Y-94.57
X268.02Y-81.83
X268.03Y-86.32
X268.04Y-69.64
X268.73Y-99.38
X268.77Y-88.63
X270.13Y-96.68
X270.14Y-89.77
X270.27Y-83.71
X270.99Y-129.5
X271.97Y-77.24
X271.98Y-87.59
X272.0Y-74.69
X272.01Y-65.59
X272.96Y-79.79
X273.0Y-88.6
X274.04Y-89.77
X274.05Y-81.05
T2
X217.646Y-134.394
X217.646Y-137.794
X219.121Y-134.394
X219.121Y-137.794
X228.721Y-136.594
X228.721Y-139.994
X230.196Y-136.594
X230.196Y-139.994
X237.611Y-138.009
X238.202Y-134.66
X239.064Y-138.265
X239.654Y-134.916
X248.136Y-142.098
X248.726Y-138.75
X249.589Y-142.355
X250.179Y-139.006
X257.232Y-141.433
X258.395Y-138.238
X258.618Y-141.938
X259.781Y-138.743
X266.887Y-147.288
X268.05Y-144.093
X268.273Y-147.793
X269.436Y-144.598
T4
X261.015Y-80.71
X263.015Y-80.71
T3
G00X272.63Y-95.74
M15
G01X272.63Y-96.04
M16
G05
G00X272.63Y-98.24
M15
G01X272.63Y-98.54
M16
G05
G00X272.63Y-100.74
M15
G01X272.63Y-101.04
M16
G05
M30
