G04 #@! TF.GenerationSoftware,KiCad,Pcbnew,9.0.7*
G04 #@! TF.CreationDate,2026-03-12T16:12:17+09:00*
G04 #@! TF.ProjectId,NomadBall44_L,4e6f6d61-6442-4616-9c6c-34345f4c2e6b,rev?*
G04 #@! TF.SameCoordinates,Original*
G04 #@! TF.FileFunction,Copper,L2,Bot*
G04 #@! TF.FilePolarity,Positive*
%FSLAX46Y46*%
G04 Gerber Fmt 4.6, Leading zero omitted, Abs format (unit mm)*
G04 Created by KiCad (PCBNEW 9.0.7) date 2026-03-12 16:12:17*
%MOMM*%
%LPD*%
G01*
G04 APERTURE LIST*
G04 Aperture macros list*
%AMRoundRect*
0 Rectangle with rounded corners*
0 $1 Rounding radius*
0 $2 $3 $4 $5 $6 $7 $8 $9 X,Y pos of 4 corners*
0 Add a 4 corners polygon primitive as box body*
4,1,4,$2,$3,$4,$5,$6,$7,$8,$9,$2,$3,0*
0 Add four circle primitives for the rounded corners*
1,1,$1+$1,$2,$3*
1,1,$1+$1,$4,$5*
1,1,$1+$1,$6,$7*
1,1,$1+$1,$8,$9*
0 Add four rect primitives between the rounded corners*
20,1,$1+$1,$2,$3,$4,$5,0*
20,1,$1+$1,$4,$5,$6,$7,0*
20,1,$1+$1,$6,$7,$8,$9,0*
20,1,$1+$1,$8,$9,$2,$3,0*%
%AMRotRect*
0 Rectangle, with rotation*
0 The origin of the aperture is its center*
0 $1 length*
0 $2 width*
0 $3 Rotation angle, in degrees counterclockwise*
0 Add horizontal line*
21,1,$1,$2,0,0,$3*%
G04 Aperture macros list end*
G04 #@! TA.AperFunction,SMDPad,CuDef*
%ADD10R,1.200000X0.950000*%
G04 #@! TD*
G04 #@! TA.AperFunction,SMDPad,CuDef*
%ADD11R,3.000000X3.500000*%
G04 #@! TD*
G04 #@! TA.AperFunction,ComponentPad*
%ADD12O,1.000000X1.300000*%
G04 #@! TD*
G04 #@! TA.AperFunction,ComponentPad*
%ADD13C,0.500000*%
G04 #@! TD*
G04 #@! TA.AperFunction,SMDPad,CuDef*
%ADD14RoundRect,0.172225X1.169519X1.649754X-0.534740X1.950260X-1.169519X-1.649754X0.534740X-1.950260X0*%
G04 #@! TD*
G04 #@! TA.AperFunction,SMDPad,CuDef*
%ADD15RoundRect,0.172225X1.438228X1.421605X-0.187957X2.013488X-1.438228X-1.421605X0.187957X-2.013488X0*%
G04 #@! TD*
G04 #@! TA.AperFunction,ComponentPad*
%ADD16C,1.500000*%
G04 #@! TD*
G04 #@! TA.AperFunction,SMDPad,CuDef*
%ADD17RotRect,1.200000X0.950000X350.000000*%
G04 #@! TD*
G04 #@! TA.AperFunction,SMDPad,CuDef*
%ADD18RotRect,1.200000X0.950000X340.000000*%
G04 #@! TD*
G04 #@! TA.AperFunction,SMDPad,CuDef*
%ADD19RoundRect,0.172225X0.865275X1.827775X-0.865275X1.827775X-0.865275X-1.827775X0.865275X-1.827775X0*%
G04 #@! TD*
G04 #@! TA.AperFunction,SMDPad,CuDef*
%ADD20R,1.000000X3.500000*%
G04 #@! TD*
G04 #@! TA.AperFunction,SMDPad,CuDef*
%ADD21R,1.500000X3.400000*%
G04 #@! TD*
G04 #@! TA.AperFunction,ViaPad*
%ADD22C,0.600000*%
G04 #@! TD*
G04 #@! TA.AperFunction,Conductor*
%ADD23C,0.500000*%
G04 #@! TD*
G04 APERTURE END LIST*
D10*
X174970000Y-64230000D03*
X178420000Y-64230000D03*
D11*
X173034757Y-130690000D03*
X184934757Y-132890000D03*
D10*
X135160000Y-108210000D03*
X138610000Y-108210000D03*
D12*
X272630000Y-95890000D03*
X272630000Y-98390000D03*
X272630000Y-100890000D03*
D11*
X153934757Y-117119999D03*
X165834757Y-119319999D03*
D10*
X175700000Y-121540000D03*
X179150000Y-121540000D03*
X192620000Y-78480000D03*
X196070000Y-78480000D03*
D11*
X173034757Y-111489999D03*
X184934757Y-113689999D03*
D13*
X238201675Y-134660297D03*
X237611271Y-138008643D03*
D14*
X238632767Y-136462535D03*
D13*
X239654266Y-134916428D03*
X239063862Y-138264774D03*
X248726394Y-138750027D03*
X248135991Y-142098374D03*
D14*
X249157488Y-140552266D03*
D13*
X250178986Y-139006158D03*
X249588582Y-142354505D03*
D11*
X134751320Y-97939999D03*
X146651320Y-100139999D03*
D10*
X218500000Y-127170000D03*
X221950000Y-127170000D03*
D13*
X257232045Y-141433112D03*
X258394914Y-138238157D03*
D15*
X258506503Y-140087875D03*
D13*
X259780961Y-138742637D03*
X258618092Y-141937592D03*
X268049564Y-144093354D03*
X266886697Y-147288309D03*
D15*
X268161154Y-145943072D03*
D13*
X269435612Y-144597834D03*
X268272744Y-147792789D03*
D10*
X135170000Y-69830000D03*
X138620000Y-69830000D03*
D11*
X211424757Y-89689999D03*
X223324757Y-91889999D03*
X192234757Y-68159999D03*
X204134757Y-70359999D03*
X230604132Y-111114999D03*
X242504132Y-113314999D03*
X211424757Y-70499999D03*
X223324757Y-72699999D03*
D10*
X211800000Y-61640000D03*
X215250000Y-61640000D03*
D16*
X261015000Y-80710000D03*
X263015000Y-80710000D03*
D17*
X240314001Y-127682873D03*
X243711587Y-128281959D03*
D10*
X231046563Y-63810000D03*
X234496563Y-63810000D03*
X211830000Y-99960000D03*
X215280000Y-99960000D03*
X194890000Y-58410000D03*
X198340000Y-58410000D03*
D11*
X173034757Y-92344999D03*
X184934757Y-94544999D03*
X134751320Y-78734999D03*
X146651320Y-80934999D03*
D10*
X192660000Y-97690000D03*
X196110000Y-97690000D03*
D18*
X264626489Y-131690190D03*
X267868428Y-132870159D03*
D10*
X231046563Y-83720000D03*
X234496563Y-83720000D03*
X156510000Y-107300000D03*
X159960000Y-107300000D03*
X135160000Y-89060000D03*
X138610000Y-89060000D03*
D11*
X153934757Y-78734999D03*
X165834757Y-80934999D03*
D10*
X154420000Y-90670000D03*
X157870000Y-90670000D03*
X173460000Y-102590000D03*
X176910000Y-102590000D03*
D11*
X192234757Y-87349999D03*
X204134757Y-89549999D03*
X173034757Y-73149999D03*
X184934757Y-75349999D03*
X134751320Y-117119999D03*
X146651320Y-119319999D03*
D10*
X154290000Y-127300000D03*
X157740000Y-127300000D03*
X231060000Y-103370000D03*
X234510000Y-103370000D03*
X154340000Y-69860000D03*
X157790000Y-69860000D03*
D11*
X153934757Y-136169999D03*
X165834757Y-138369999D03*
X230604132Y-91924999D03*
X242504132Y-94124999D03*
D10*
X173430000Y-83420000D03*
X176880000Y-83420000D03*
D11*
X230604132Y-72749999D03*
X242504132Y-74949999D03*
X153934757Y-97939999D03*
X165834757Y-100139999D03*
X192234757Y-106514999D03*
X204134757Y-108714999D03*
X211424757Y-108884999D03*
X223324757Y-111084999D03*
D10*
X211790000Y-80810000D03*
X215240000Y-80810000D03*
D13*
X217645659Y-134394444D03*
X217645659Y-137794444D03*
D19*
X218383159Y-136094444D03*
D13*
X219120659Y-134394444D03*
X219120659Y-137794444D03*
X228720659Y-136594444D03*
X228720659Y-139994444D03*
D19*
X229458159Y-138294444D03*
D13*
X230195659Y-136594444D03*
X230195659Y-139994444D03*
D20*
X263120000Y-90640000D03*
X261120000Y-90640000D03*
D21*
X258770000Y-84890000D03*
X265470000Y-84890000D03*
D22*
X259490000Y-82240000D03*
X261140000Y-98350000D03*
X242500000Y-63820000D03*
X235940000Y-63820000D03*
X174980000Y-59830000D03*
X194880000Y-59820000D03*
X211810000Y-58830000D03*
X272010000Y-65590000D03*
X173630000Y-64220000D03*
X135170000Y-67990000D03*
X154350000Y-67990000D03*
X231040000Y-61670000D03*
X272000000Y-74690000D03*
X194900000Y-56410000D03*
X246740000Y-65580000D03*
X246740000Y-61670000D03*
X223220000Y-61660000D03*
X217030000Y-61640000D03*
X165770000Y-69880000D03*
X159870000Y-69880000D03*
X145780000Y-69860000D03*
X140750000Y-69830000D03*
X173420000Y-86950000D03*
X271970000Y-77240000D03*
X271980000Y-87590000D03*
X173440000Y-78050000D03*
X210360000Y-80800000D03*
X223110000Y-83720000D03*
X192620000Y-80210000D03*
X157230000Y-87020000D03*
X229560000Y-83720000D03*
X135160000Y-90690000D03*
X249190000Y-94560000D03*
X211810000Y-82350000D03*
X223110000Y-82360000D03*
X152980000Y-90660000D03*
X157230000Y-88850000D03*
X154430000Y-88850000D03*
X235200000Y-80400000D03*
X190650000Y-78000000D03*
X267620000Y-94570000D03*
X267620000Y-87600000D03*
X249150000Y-80400000D03*
X242470000Y-83740000D03*
X242490000Y-91680000D03*
X159920000Y-90670000D03*
X165810000Y-90690000D03*
X173460000Y-97690000D03*
X173460000Y-104440000D03*
X135190000Y-104490000D03*
X211840000Y-98820000D03*
X229390000Y-101710000D03*
X192670000Y-98810000D03*
X211840000Y-101730000D03*
X191320000Y-97690000D03*
X268770000Y-88630000D03*
X268730000Y-99380000D03*
X236250000Y-99380000D03*
X156510000Y-104480000D03*
X272960000Y-79790000D03*
X273000000Y-88600000D03*
X242500000Y-103370000D03*
X242500000Y-110690000D03*
X169840000Y-119490000D03*
X187830000Y-119490000D03*
X219430000Y-117790000D03*
X187810000Y-104310000D03*
X264630000Y-125940000D03*
X226100000Y-107940000D03*
X240310000Y-125950000D03*
X226170000Y-117750000D03*
X264640000Y-129500000D03*
X175710000Y-119490000D03*
X270990000Y-129500000D03*
X154300000Y-123950000D03*
X165470000Y-123870000D03*
X220020000Y-125960000D03*
X270270000Y-83710000D03*
X249960000Y-128300000D03*
X247280000Y-128300000D03*
X229458159Y-138294444D03*
X236050000Y-115190000D03*
X245800000Y-64780000D03*
X236050000Y-119040000D03*
X230620000Y-115170000D03*
X245800000Y-66570000D03*
X251840000Y-68360000D03*
X230620000Y-64785002D03*
X251860000Y-66570000D03*
X255130000Y-119070000D03*
X244890000Y-65760000D03*
X228680000Y-63060000D03*
X211460000Y-112820000D03*
X216970000Y-116300000D03*
X211440000Y-63060000D03*
X238670000Y-116310000D03*
X250980000Y-70880000D03*
X216910000Y-112820000D03*
X250980000Y-67700000D03*
X228680000Y-65760000D03*
X244910000Y-67680000D03*
X217750000Y-124310000D03*
X251780000Y-73440000D03*
X197570000Y-113730000D03*
X192250000Y-75230000D03*
X217720000Y-128670000D03*
X251780000Y-77260000D03*
X217690000Y-114010000D03*
X250320000Y-75980000D03*
X173050000Y-66140000D03*
X250260000Y-72190000D03*
X153940000Y-76000000D03*
X189330000Y-94660000D03*
X168970000Y-103360000D03*
X274050000Y-81050000D03*
X134770000Y-103330000D03*
X189350000Y-100710000D03*
X168970000Y-100680000D03*
X270140000Y-89770000D03*
X270130000Y-96680000D03*
X274040000Y-89770000D03*
X268030000Y-86320000D03*
X268020000Y-81830000D03*
X265720000Y-100880000D03*
X265720000Y-87660000D03*
X268040000Y-69640000D03*
D23*
X263120000Y-85870000D02*
X263120000Y-90640000D01*
X259490000Y-82240000D02*
X263120000Y-85870000D01*
X261120000Y-90640000D02*
X261120000Y-98330000D01*
X261120000Y-98330000D02*
X261140000Y-98350000D01*
X242504132Y-74949999D02*
X242504132Y-63824132D01*
X242504132Y-63824132D02*
X242500000Y-63820000D01*
X234506563Y-63820000D02*
X234496563Y-63810000D01*
X235940000Y-63820000D02*
X234506563Y-63820000D01*
X135170000Y-67990000D02*
X135170000Y-69830000D01*
X194890000Y-58410000D02*
X194890000Y-59810000D01*
X246740000Y-65580000D02*
X246740000Y-61670000D01*
X154350000Y-67990000D02*
X154350000Y-69850000D01*
X174980000Y-64220000D02*
X174970000Y-64230000D01*
X154350000Y-69850000D02*
X154340000Y-69860000D01*
X272000000Y-74690000D02*
X272000000Y-65600000D01*
X194900000Y-56410000D02*
X194900000Y-58400000D01*
X231040000Y-63803437D02*
X231046563Y-63810000D01*
X231040000Y-61670000D02*
X231040000Y-63803437D01*
X174980000Y-59830000D02*
X174980000Y-64220000D01*
X272000000Y-65600000D02*
X272010000Y-65590000D01*
X173640000Y-64230000D02*
X173630000Y-64220000D01*
X194900000Y-58400000D02*
X194890000Y-58410000D01*
X174970000Y-64230000D02*
X173640000Y-64230000D01*
X211810000Y-58830000D02*
X211810000Y-61630000D01*
X211810000Y-61630000D02*
X211800000Y-61640000D01*
X194890000Y-59810000D02*
X194880000Y-59820000D01*
X223220000Y-61660000D02*
X223324757Y-61764757D01*
X223324757Y-61764757D02*
X223324757Y-72699999D01*
X215250000Y-61640000D02*
X217030000Y-61640000D01*
X198340000Y-58410000D02*
X199440000Y-58410000D01*
X204134757Y-63104757D02*
X204134757Y-70359999D01*
X199440000Y-58410000D02*
X204134757Y-63104757D01*
X178420000Y-64230000D02*
X181870000Y-64230000D01*
X184934757Y-67294757D02*
X184934757Y-75349999D01*
X181870000Y-64230000D02*
X184934757Y-67294757D01*
X165834757Y-69944757D02*
X165834757Y-80934999D01*
X159850000Y-69860000D02*
X159870000Y-69880000D01*
X157790000Y-69860000D02*
X159850000Y-69860000D01*
X165770000Y-69880000D02*
X165834757Y-69944757D01*
X145780000Y-69860000D02*
X146651320Y-70731320D01*
X138620000Y-69830000D02*
X140750000Y-69830000D01*
X146651320Y-70731320D02*
X146651320Y-80934999D01*
X231046563Y-83720000D02*
X229560000Y-83720000D01*
X173430000Y-83420000D02*
X173430000Y-86940000D01*
X267620000Y-87600000D02*
X267620000Y-94570000D01*
X235200000Y-80400000D02*
X234366563Y-80400000D01*
X249190000Y-94560000D02*
X249190000Y-80440000D01*
X135160000Y-90690000D02*
X135160000Y-89060000D01*
X192620000Y-80210000D02*
X192620000Y-78480000D01*
X249190000Y-80440000D02*
X249150000Y-80400000D01*
X211810000Y-80830000D02*
X211790000Y-80810000D01*
X157230000Y-87020000D02*
X157230000Y-88850000D01*
X271980000Y-77250000D02*
X271980000Y-87590000D01*
X173430000Y-78430000D02*
X173430000Y-83420000D01*
X234366563Y-80400000D02*
X231046563Y-83720000D01*
X271970000Y-77240000D02*
X271980000Y-77250000D01*
X173430000Y-86940000D02*
X173420000Y-86950000D01*
X173440000Y-78420000D02*
X173430000Y-78430000D01*
X210370000Y-80810000D02*
X210360000Y-80800000D01*
X173440000Y-78050000D02*
X173440000Y-78420000D01*
X211790000Y-80810000D02*
X210370000Y-80810000D01*
X211810000Y-82350000D02*
X211810000Y-80830000D01*
X191130000Y-78480000D02*
X190650000Y-78000000D01*
X154430000Y-88850000D02*
X154430000Y-90660000D01*
X154420000Y-90670000D02*
X152990000Y-90670000D01*
X223110000Y-83720000D02*
X223110000Y-82360000D01*
X152990000Y-90670000D02*
X152980000Y-90660000D01*
X192620000Y-78480000D02*
X191130000Y-78480000D01*
X154430000Y-90660000D02*
X154420000Y-90670000D01*
X242450000Y-83720000D02*
X242470000Y-83740000D01*
X234496563Y-83720000D02*
X242450000Y-83720000D01*
X242490000Y-94110867D02*
X242504132Y-94124999D01*
X242490000Y-91680000D02*
X242490000Y-94110867D01*
X218697392Y-80810000D02*
X223324757Y-85437365D01*
X215240000Y-80810000D02*
X218697392Y-80810000D01*
X223324757Y-85437365D02*
X223324757Y-91889999D01*
X204134757Y-81765757D02*
X204134757Y-89549999D01*
X200849000Y-78480000D02*
X204134757Y-81765757D01*
X196070000Y-78480000D02*
X200849000Y-78480000D01*
X181550000Y-83420000D02*
X184934757Y-86804757D01*
X184934757Y-86804757D02*
X184934757Y-94544999D01*
X176880000Y-83420000D02*
X181550000Y-83420000D01*
X157870000Y-90670000D02*
X159920000Y-90670000D01*
X165810000Y-90690000D02*
X165834757Y-90714757D01*
X165834757Y-90714757D02*
X165834757Y-100139999D01*
X142618392Y-89060000D02*
X146651320Y-93092928D01*
X138610000Y-89060000D02*
X142618392Y-89060000D01*
X146651320Y-93092928D02*
X146651320Y-100139999D01*
X156510000Y-104480000D02*
X156510000Y-107300000D01*
X232260000Y-103370000D02*
X231060000Y-103370000D01*
X236250000Y-99380000D02*
X232260000Y-103370000D01*
X272960000Y-88560000D02*
X273000000Y-88600000D01*
X135190000Y-108180000D02*
X135160000Y-108210000D01*
X192670000Y-98810000D02*
X192670000Y-97700000D01*
X231050000Y-103370000D02*
X229390000Y-101710000D01*
X173460000Y-102590000D02*
X173460000Y-104440000D01*
X272960000Y-79790000D02*
X272960000Y-88560000D01*
X231060000Y-103370000D02*
X231050000Y-103370000D01*
X135190000Y-104490000D02*
X135190000Y-108180000D01*
X192660000Y-97690000D02*
X191320000Y-97690000D01*
X211840000Y-99970000D02*
X211830000Y-99960000D01*
X268770000Y-88630000D02*
X268770000Y-99340000D01*
X268770000Y-99340000D02*
X268730000Y-99380000D01*
X192670000Y-97700000D02*
X192660000Y-97690000D01*
X211840000Y-101730000D02*
X211840000Y-99970000D01*
X173460000Y-97690000D02*
X173460000Y-102590000D01*
X211830000Y-99960000D02*
X211830000Y-98830000D01*
X211830000Y-98830000D02*
X211840000Y-98820000D01*
X234510000Y-103370000D02*
X242500000Y-103370000D01*
X242500000Y-113310867D02*
X242504132Y-113314999D01*
X242500000Y-110690000D02*
X242500000Y-113310867D01*
X223324757Y-104632365D02*
X223324757Y-111084999D01*
X218652392Y-99960000D02*
X223324757Y-104632365D01*
X215280000Y-99960000D02*
X218652392Y-99960000D01*
X204134757Y-100740756D02*
X204134757Y-108714999D01*
X196110000Y-97690000D02*
X201084001Y-97690000D01*
X201084001Y-97690000D02*
X204134757Y-100740756D01*
X181120000Y-102590000D02*
X184934757Y-106404757D01*
X184934757Y-106404757D02*
X184934757Y-113689999D01*
X176910000Y-102590000D02*
X181120000Y-102590000D01*
X163819000Y-107300000D02*
X165834757Y-109315757D01*
X165834757Y-109315757D02*
X165834757Y-119319999D01*
X159960000Y-107300000D02*
X163819000Y-107300000D01*
X146651320Y-110851320D02*
X146651320Y-119319999D01*
X138610000Y-108210000D02*
X144010000Y-108210000D01*
X144010000Y-108210000D02*
X146651320Y-110851320D01*
X270730000Y-135731731D02*
X270730000Y-143374226D01*
X267868428Y-132870159D02*
X270730000Y-135731731D01*
X270730000Y-143374226D02*
X268161154Y-145943072D01*
X264640000Y-129500000D02*
X264640000Y-131676679D01*
X154300000Y-127290000D02*
X154290000Y-127300000D01*
X264640000Y-129500000D02*
X264640000Y-125950000D01*
X264640000Y-125950000D02*
X264630000Y-125940000D01*
X240310000Y-125950000D02*
X240310000Y-127678872D01*
X187810000Y-104310000D02*
X187810000Y-119470000D01*
X226170000Y-117750000D02*
X226100000Y-117680000D01*
X154300000Y-123950000D02*
X154300000Y-127290000D01*
X175710000Y-121530000D02*
X175700000Y-121540000D01*
X218500000Y-118720000D02*
X219430000Y-117790000D01*
X264640000Y-131676679D02*
X264626489Y-131690190D01*
X219710000Y-125960000D02*
X218500000Y-127170000D01*
X226100000Y-117680000D02*
X226100000Y-107940000D01*
X240310000Y-127678872D02*
X240314001Y-127682873D01*
X220020000Y-125960000D02*
X219710000Y-125960000D01*
X169840000Y-119500000D02*
X165470000Y-123870000D01*
X175710000Y-119490000D02*
X175710000Y-121530000D01*
X270270000Y-83710000D02*
X270990000Y-84430000D01*
X218500000Y-127170000D02*
X218500000Y-118720000D01*
X169840000Y-119490000D02*
X169840000Y-119500000D01*
X187810000Y-119470000D02*
X187830000Y-119490000D01*
X270990000Y-84430000D02*
X270990000Y-129500000D01*
X243711587Y-128281959D02*
X247261959Y-128281959D01*
X249960000Y-139749754D02*
X249157488Y-140552266D01*
X247261959Y-128281959D02*
X247280000Y-128300000D01*
X249960000Y-128300000D02*
X249960000Y-139749754D01*
X229458159Y-129858159D02*
X229458159Y-138294444D01*
X226770000Y-127170000D02*
X229458159Y-129858159D01*
X221950000Y-127170000D02*
X226770000Y-127170000D01*
X181645850Y-121540000D02*
X184934757Y-124828907D01*
X179150000Y-121540000D02*
X181645850Y-121540000D01*
X184934757Y-124828907D02*
X184934757Y-132890000D01*
X163653757Y-127300000D02*
X165834757Y-129481000D01*
X165834757Y-129481000D02*
X165834757Y-138369999D01*
X157740000Y-127300000D02*
X163653757Y-127300000D01*
X230604132Y-91924999D02*
X228073757Y-94455374D01*
X230620000Y-111130867D02*
X230604132Y-111114999D01*
X245800000Y-66570000D02*
X245800000Y-64780000D01*
X228063757Y-89384624D02*
X230604132Y-91924999D01*
X255130000Y-136711372D02*
X255130000Y-119070000D01*
X230620000Y-64785002D02*
X230604132Y-64800870D01*
X230604132Y-64800870D02*
X230604132Y-72749999D01*
X230620000Y-115170000D02*
X230620000Y-111130867D01*
X258506503Y-140087875D02*
X255130000Y-136711372D01*
X236050000Y-119040000D02*
X236050000Y-115190000D01*
X228073757Y-108584624D02*
X230604132Y-111114999D01*
X251840000Y-66590000D02*
X251860000Y-66570000D01*
X251840000Y-68360000D02*
X251840000Y-66590000D01*
X228073757Y-94455374D02*
X228073757Y-108584624D01*
X228063757Y-75290374D02*
X228063757Y-89384624D01*
X230604132Y-72749999D02*
X228063757Y-75290374D01*
X207490000Y-85755242D02*
X211424757Y-89689999D01*
X211440000Y-63710000D02*
X211424757Y-63725243D01*
X216910000Y-116240000D02*
X216910000Y-112820000D01*
X211440000Y-63060000D02*
X211440000Y-63710000D01*
X211424757Y-89689999D02*
X210779000Y-90335756D01*
X250980000Y-70880000D02*
X250980000Y-67700000D01*
X244910000Y-67680000D02*
X244910000Y-65780000D01*
X228680000Y-65760000D02*
X228680000Y-63060000D01*
X207490000Y-74434756D02*
X207490000Y-85755242D01*
X211424757Y-70499999D02*
X207490000Y-74434756D01*
X238632767Y-116347233D02*
X238670000Y-116310000D01*
X211460000Y-108920242D02*
X211424757Y-108884999D01*
X211424757Y-63725243D02*
X211424757Y-70499999D01*
X244910000Y-65780000D02*
X244890000Y-65760000D01*
X216970000Y-116300000D02*
X216910000Y-116240000D01*
X211460000Y-112820000D02*
X211460000Y-108920242D01*
X210779000Y-90335756D02*
X210779000Y-108239242D01*
X238632767Y-136462535D02*
X238632767Y-116347233D01*
X210779000Y-108239242D02*
X211424757Y-108884999D01*
X188450000Y-83565242D02*
X192234757Y-87349999D01*
X188450000Y-71944756D02*
X188450000Y-83565242D01*
X192234757Y-87349999D02*
X190569000Y-89015756D01*
X251780000Y-73440000D02*
X251780000Y-77260000D01*
X218383159Y-129333159D02*
X218383159Y-136094444D01*
X217690000Y-114010000D02*
X217750000Y-114070000D01*
X197570000Y-111850242D02*
X197570000Y-113730000D01*
X192234757Y-106514999D02*
X197570000Y-111850242D01*
X190569000Y-104849242D02*
X192234757Y-106514999D01*
X192250000Y-74880000D02*
X192234757Y-74864757D01*
X190569000Y-89015756D02*
X190569000Y-104849242D01*
X192234757Y-68159999D02*
X188450000Y-71944756D01*
X192250000Y-75230000D02*
X192250000Y-74880000D01*
X217750000Y-114070000D02*
X217750000Y-124310000D01*
X192234757Y-74864757D02*
X192234757Y-68159999D01*
X217720000Y-128670000D02*
X218383159Y-129333159D01*
X250320000Y-72250000D02*
X250260000Y-72190000D01*
X172379000Y-91689242D02*
X173034757Y-92344999D01*
X173034757Y-111489999D02*
X173034757Y-130690000D01*
X172379000Y-73805756D02*
X172379000Y-91689242D01*
X173034757Y-66155243D02*
X173034757Y-73149999D01*
X250320000Y-75980000D02*
X250320000Y-72250000D01*
X173034757Y-73149999D02*
X172379000Y-73805756D01*
X173050000Y-66140000D02*
X173034757Y-66155243D01*
X173034757Y-92344999D02*
X170080000Y-95299756D01*
X170080000Y-108535242D02*
X173034757Y-111489999D01*
X170080000Y-95299756D02*
X170080000Y-108535242D01*
X152410000Y-134645242D02*
X153934757Y-136169999D01*
X152410000Y-118644756D02*
X152410000Y-134645242D01*
X153940000Y-78729756D02*
X153934757Y-78734999D01*
X150013757Y-113198999D02*
X153934757Y-117119999D01*
X150073757Y-94078999D02*
X153934757Y-97939999D01*
X153934757Y-97939999D02*
X150013757Y-101860999D01*
X150073757Y-82595999D02*
X150073757Y-94078999D01*
X153934757Y-117119999D02*
X152410000Y-118644756D01*
X150013757Y-101860999D02*
X150013757Y-113198999D01*
X153940000Y-76000000D02*
X153940000Y-78729756D01*
X153934757Y-78734999D02*
X150073757Y-82595999D01*
X134751320Y-78734999D02*
X134050000Y-79436319D01*
X270130000Y-89780000D02*
X270130000Y-96680000D01*
X168970000Y-100680000D02*
X168970000Y-103360000D01*
X270140000Y-89770000D02*
X270130000Y-89780000D01*
X189330000Y-100690000D02*
X189350000Y-100710000D01*
X134770000Y-103330000D02*
X134751320Y-103311320D01*
X134109000Y-98582319D02*
X134109000Y-116477679D01*
X134109000Y-116477679D02*
X134751320Y-117119999D01*
X134050000Y-79436319D02*
X134050000Y-97238679D01*
X274040000Y-81060000D02*
X274040000Y-89770000D01*
X134050000Y-97238679D02*
X134751320Y-97939999D01*
X134751320Y-97939999D02*
X134109000Y-98582319D01*
X189330000Y-94660000D02*
X189330000Y-100690000D01*
X134751320Y-103311320D02*
X134751320Y-97939999D01*
X274050000Y-81050000D02*
X274040000Y-81060000D01*
X268040000Y-69640000D02*
X268020000Y-69660000D01*
X265720000Y-87660000D02*
X265720000Y-100880000D01*
X268020000Y-69660000D02*
X268020000Y-81830000D01*
X268020000Y-86310000D02*
X268030000Y-86320000D01*
X268020000Y-81830000D02*
X268020000Y-86310000D01*
M02*
