G04 #@! TF.GenerationSoftware,KiCad,Pcbnew,9.0.7*
G04 #@! TF.CreationDate,2026-03-12T16:12:17+09:00*
G04 #@! TF.ProjectId,NomadBall44_L,4e6f6d61-6442-4616-9c6c-34345f4c2e6b,rev?*
G04 #@! TF.SameCoordinates,Original*
G04 #@! TF.FileFunction,Copper,L1,Top*
G04 #@! TF.FilePolarity,Positive*
%FSLAX46Y46*%
G04 Gerber Fmt 4.6, Leading zero omitted, Abs format (unit mm)*
G04 Created by KiCad (PCBNEW 9.0.7) date 2026-03-12 16:12:17*
%MOMM*%
%LPD*%
G01*
G04 APERTURE LIST*
G04 Aperture macros list*
%AMRoundRect*
0 Rectangle with rounded corners*
0 $1 Rounding radius*
0 $2 $3 $4 $5 $6 $7 $8 $9 X,Y pos of 4 corners*
0 Add a 4 corners polygon primitive as box body*
4,1,4,$2,$3,$4,$5,$6,$7,$8,$9,$2,$3,0*
0 Add four circle primitives for the rounded corners*
1,1,$1+$1,$2,$3*
1,1,$1+$1,$4,$5*
1,1,$1+$1,$6,$7*
1,1,$1+$1,$8,$9*
0 Add four rect primitives between the rounded corners*
20,1,$1+$1,$2,$3,$4,$5,0*
20,1,$1+$1,$4,$5,$6,$7,0*
20,1,$1+$1,$6,$7,$8,$9,0*
20,1,$1+$1,$8,$9,$2,$3,0*%
%AMFreePoly0*
4,1,15,-0.616000,0.142500,-0.283500,0.475000,0.521000,0.475000,0.557355,0.467769,0.588175,0.447175,0.608769,0.416355,0.616000,0.380000,0.616000,-0.380000,0.608769,-0.416355,0.588175,-0.447175,0.557355,-0.467769,0.521000,-0.475000,-0.283500,-0.475000,-0.616000,-0.142500,-0.616000,0.142500,-0.616000,0.142500,$1*%
G04 Aperture macros list end*
G04 #@! TA.AperFunction,ComponentPad*
%ADD10O,1.000000X1.300000*%
G04 #@! TD*
G04 #@! TA.AperFunction,ComponentPad*
%ADD11C,0.500000*%
G04 #@! TD*
G04 #@! TA.AperFunction,SMDPad,CuDef*
%ADD12RoundRect,0.172225X1.169519X1.649754X-0.534740X1.950260X-1.169519X-1.649754X0.534740X-1.950260X0*%
G04 #@! TD*
G04 #@! TA.AperFunction,SMDPad,CuDef*
%ADD13RoundRect,0.172225X1.438228X1.421605X-0.187957X2.013488X-1.438228X-1.421605X0.187957X-2.013488X0*%
G04 #@! TD*
G04 #@! TA.AperFunction,SMDPad,CuDef*
%ADD14RoundRect,0.095000X0.921000X0.380000X-0.921000X0.380000X-0.921000X-0.380000X0.921000X-0.380000X0*%
G04 #@! TD*
G04 #@! TA.AperFunction,SMDPad,CuDef*
%ADD15RoundRect,0.095000X-0.921000X-0.380000X0.921000X-0.380000X0.921000X0.380000X-0.921000X0.380000X0*%
G04 #@! TD*
G04 #@! TA.AperFunction,SMDPad,CuDef*
%ADD16FreePoly0,180.000000*%
G04 #@! TD*
G04 #@! TA.AperFunction,SMDPad,CuDef*
%ADD17FreePoly0,0.000000*%
G04 #@! TD*
G04 #@! TA.AperFunction,ComponentPad*
%ADD18C,1.500000*%
G04 #@! TD*
G04 #@! TA.AperFunction,SMDPad,CuDef*
%ADD19RoundRect,0.172225X0.865275X1.827775X-0.865275X1.827775X-0.865275X-1.827775X0.865275X-1.827775X0*%
G04 #@! TD*
G04 #@! TA.AperFunction,ViaPad*
%ADD20C,0.600000*%
G04 #@! TD*
G04 #@! TA.AperFunction,Conductor*
%ADD21C,0.500000*%
G04 #@! TD*
G04 APERTURE END LIST*
D10*
X272630000Y-95890000D03*
X272630000Y-98390000D03*
X272630000Y-100890000D03*
D11*
X238201675Y-134660297D03*
X237611271Y-138008643D03*
D12*
X238632767Y-136462535D03*
D11*
X239654266Y-134916428D03*
X239063862Y-138264774D03*
X248726394Y-138750027D03*
X248135991Y-142098374D03*
D12*
X249157488Y-140552266D03*
D11*
X250178986Y-139006158D03*
X249588582Y-142354505D03*
X257232045Y-141433112D03*
X258394914Y-138238157D03*
D13*
X258506503Y-140087875D03*
D11*
X259780961Y-138742637D03*
X258618092Y-141937592D03*
X268049564Y-144093354D03*
X266886697Y-147288309D03*
D13*
X268161154Y-145943072D03*
D11*
X269435612Y-144597834D03*
X268272744Y-147792789D03*
D14*
X253760000Y-67090000D03*
X253760000Y-69630000D03*
X253760000Y-72170000D03*
X253760000Y-74710000D03*
X253760000Y-77250000D03*
X253760000Y-79790000D03*
X253760000Y-82330000D03*
D15*
X270270000Y-82330000D03*
X270270000Y-79790000D03*
X270270000Y-77250000D03*
X270270000Y-74710000D03*
X270270000Y-72170000D03*
X270270000Y-69630000D03*
X270270000Y-67090000D03*
D16*
X253360000Y-68360000D03*
X253360000Y-70900000D03*
X253360000Y-73440000D03*
X253360000Y-75980000D03*
X253360000Y-78520000D03*
X253360000Y-81060000D03*
D17*
X270670000Y-81060000D03*
X270670000Y-78520000D03*
X270670000Y-75980000D03*
D18*
X261015000Y-80710000D03*
X263015000Y-80710000D03*
D11*
X217645659Y-134394444D03*
X217645659Y-137794444D03*
D19*
X218383159Y-136094444D03*
D11*
X219120659Y-134394444D03*
X219120659Y-137794444D03*
X228720659Y-136594444D03*
X228720659Y-139994444D03*
D19*
X229458159Y-138294444D03*
D11*
X230195659Y-136594444D03*
X230195659Y-139994444D03*
D20*
X259490000Y-82240000D03*
X261140000Y-98350000D03*
X242500000Y-63820000D03*
X235940000Y-63820000D03*
X174980000Y-59830000D03*
X194880000Y-59820000D03*
X211810000Y-58830000D03*
X272010000Y-65590000D03*
X173630000Y-64220000D03*
X135170000Y-67990000D03*
X154350000Y-67990000D03*
X231040000Y-61670000D03*
X272000000Y-74690000D03*
X194900000Y-56410000D03*
X246740000Y-65580000D03*
X246740000Y-61670000D03*
X223220000Y-61660000D03*
X217030000Y-61640000D03*
X165770000Y-69880000D03*
X159870000Y-69880000D03*
X145780000Y-69860000D03*
X140750000Y-69830000D03*
X173420000Y-86950000D03*
X271970000Y-77240000D03*
X271980000Y-87590000D03*
X173440000Y-78050000D03*
X210360000Y-80800000D03*
X223110000Y-83720000D03*
X192620000Y-80210000D03*
X157230000Y-87020000D03*
X229560000Y-83720000D03*
X135160000Y-90690000D03*
X249190000Y-94560000D03*
X211810000Y-82350000D03*
X223110000Y-82360000D03*
X152980000Y-90660000D03*
X157230000Y-88850000D03*
X154430000Y-88850000D03*
X235200000Y-80400000D03*
X190650000Y-78000000D03*
X267620000Y-94570000D03*
X267620000Y-87600000D03*
X249150000Y-80400000D03*
X242470000Y-83740000D03*
X242490000Y-91680000D03*
X159920000Y-90670000D03*
X165810000Y-90690000D03*
X173460000Y-97690000D03*
X173460000Y-104440000D03*
X135190000Y-104490000D03*
X211840000Y-98820000D03*
X229390000Y-101710000D03*
X192670000Y-98810000D03*
X211840000Y-101730000D03*
X191320000Y-97690000D03*
X268770000Y-88630000D03*
X268730000Y-99380000D03*
X236250000Y-99380000D03*
X156510000Y-104480000D03*
X272960000Y-79790000D03*
X273000000Y-88600000D03*
X242500000Y-103370000D03*
X242500000Y-110690000D03*
X169840000Y-119490000D03*
X187830000Y-119490000D03*
X219430000Y-117790000D03*
X187810000Y-104310000D03*
X264630000Y-125940000D03*
X226100000Y-107940000D03*
X240310000Y-125950000D03*
X226170000Y-117750000D03*
X264640000Y-129500000D03*
X175710000Y-119490000D03*
X270990000Y-129500000D03*
X154300000Y-123950000D03*
X165470000Y-123870000D03*
X220020000Y-125960000D03*
X270270000Y-83710000D03*
X249960000Y-128300000D03*
X247280000Y-128300000D03*
X229458159Y-138294444D03*
X236050000Y-115190000D03*
X245800000Y-64780000D03*
X236050000Y-119040000D03*
X230620000Y-115170000D03*
X245800000Y-66570000D03*
X251840000Y-68360000D03*
X230620000Y-64785002D03*
X251860000Y-66570000D03*
X255130000Y-119070000D03*
X244890000Y-65760000D03*
X228680000Y-63060000D03*
X211460000Y-112820000D03*
X216970000Y-116300000D03*
X211440000Y-63060000D03*
X238670000Y-116310000D03*
X250980000Y-70880000D03*
X216910000Y-112820000D03*
X250980000Y-67700000D03*
X228680000Y-65760000D03*
X244910000Y-67680000D03*
X217750000Y-124310000D03*
X251780000Y-73440000D03*
X197570000Y-113730000D03*
X192250000Y-75230000D03*
X217720000Y-128670000D03*
X251780000Y-77260000D03*
X217690000Y-114010000D03*
X250320000Y-75980000D03*
X173050000Y-66140000D03*
X250260000Y-72190000D03*
X153940000Y-76000000D03*
X189330000Y-94660000D03*
X168970000Y-103360000D03*
X274050000Y-81050000D03*
X134770000Y-103330000D03*
X189350000Y-100710000D03*
X168970000Y-100680000D03*
X270140000Y-89770000D03*
X270130000Y-96680000D03*
X274040000Y-89770000D03*
X268030000Y-86320000D03*
X268020000Y-81830000D03*
X265720000Y-100880000D03*
X265720000Y-87660000D03*
X268040000Y-69640000D03*
D21*
X261015000Y-80715000D02*
X259490000Y-82240000D01*
X261015000Y-80710000D02*
X261015000Y-80715000D01*
X261140000Y-98350000D02*
X261180000Y-98390000D01*
X261180000Y-98390000D02*
X272630000Y-98390000D01*
X242500000Y-63820000D02*
X235940000Y-63820000D01*
X229878002Y-61670000D02*
X227038002Y-58830000D01*
X173630000Y-64220000D02*
X169860000Y-67990000D01*
X207228002Y-56410000D02*
X194900000Y-56410000D01*
X270270000Y-74710000D02*
X271980000Y-74710000D01*
X271980000Y-74710000D02*
X272000000Y-74690000D01*
X154350000Y-67990000D02*
X135170000Y-67990000D01*
X272010000Y-65590000D02*
X272000000Y-65580000D01*
X211810000Y-58830000D02*
X209648002Y-58830000D01*
X209648002Y-58830000D02*
X207228002Y-56410000D01*
X227038002Y-58830000D02*
X211810000Y-58830000D01*
X169860000Y-67990000D02*
X154350000Y-67990000D01*
X246740000Y-61670000D02*
X231040000Y-61670000D01*
X272000000Y-65580000D02*
X246740000Y-65580000D01*
X194880000Y-59820000D02*
X174990000Y-59820000D01*
X231040000Y-61670000D02*
X229878002Y-61670000D01*
X174990000Y-59820000D02*
X174980000Y-59830000D01*
X223200000Y-61640000D02*
X223220000Y-61660000D01*
X217030000Y-61640000D02*
X223200000Y-61640000D01*
X159870000Y-69880000D02*
X165770000Y-69880000D01*
X140750000Y-69830000D02*
X145750000Y-69830000D01*
X145750000Y-69830000D02*
X145780000Y-69860000D01*
X210360000Y-80800000D02*
X209770000Y-80210000D01*
X271980000Y-87590000D02*
X267630000Y-87590000D01*
X211820000Y-82360000D02*
X211810000Y-82350000D01*
X249150000Y-80400000D02*
X235200000Y-80400000D01*
X223110000Y-82360000D02*
X211820000Y-82360000D01*
X249200000Y-94570000D02*
X249190000Y-94560000D01*
X152920000Y-90720000D02*
X135190000Y-90720000D01*
X229560000Y-83720000D02*
X223110000Y-83720000D01*
X190600000Y-78050000D02*
X173440000Y-78050000D01*
X270270000Y-77250000D02*
X271960000Y-77250000D01*
X157230000Y-88850000D02*
X154430000Y-88850000D01*
X135190000Y-90720000D02*
X135160000Y-90690000D01*
X173350000Y-87020000D02*
X157230000Y-87020000D01*
X152980000Y-90660000D02*
X152920000Y-90720000D01*
X173420000Y-86950000D02*
X173350000Y-87020000D01*
X271960000Y-77250000D02*
X271970000Y-77240000D01*
X190650000Y-78000000D02*
X190600000Y-78050000D01*
X267620000Y-94570000D02*
X249200000Y-94570000D01*
X267630000Y-87590000D02*
X267620000Y-87600000D01*
X209770000Y-80210000D02*
X192620000Y-80210000D01*
X242470000Y-83740000D02*
X242490000Y-83760000D01*
X242490000Y-83760000D02*
X242490000Y-91680000D01*
X165790000Y-90670000D02*
X165810000Y-90690000D01*
X159920000Y-90670000D02*
X165790000Y-90670000D01*
X156510000Y-104480000D02*
X135200000Y-104480000D01*
X270270000Y-79790000D02*
X272960000Y-79790000D01*
X211840000Y-98820000D02*
X211830000Y-98810000D01*
X268800000Y-88600000D02*
X268770000Y-88630000D01*
X191320000Y-97690000D02*
X173460000Y-97690000D01*
X135200000Y-104480000D02*
X135190000Y-104490000D01*
X229390000Y-101710000D02*
X229370000Y-101730000D01*
X211830000Y-98810000D02*
X192670000Y-98810000D01*
X229370000Y-101730000D02*
X211840000Y-101730000D01*
X273000000Y-88600000D02*
X268800000Y-88600000D01*
X173460000Y-104440000D02*
X173420000Y-104480000D01*
X268730000Y-99380000D02*
X236250000Y-99380000D01*
X173420000Y-104480000D02*
X156510000Y-104480000D01*
X242500000Y-103370000D02*
X242500000Y-110690000D01*
X219470000Y-117750000D02*
X226170000Y-117750000D01*
X154380000Y-123870000D02*
X154300000Y-123950000D01*
X219430000Y-117790000D02*
X219470000Y-117750000D01*
X197977124Y-104310000D02*
X187810000Y-104310000D01*
X264620000Y-125950000D02*
X240310000Y-125950000D01*
X220030000Y-125950000D02*
X220020000Y-125960000D01*
X264630000Y-125940000D02*
X264620000Y-125950000D01*
X165470000Y-123870000D02*
X154380000Y-123870000D01*
X270270000Y-82330000D02*
X270270000Y-83710000D01*
X187830000Y-119490000D02*
X175710000Y-119490000D01*
X225954001Y-108085999D02*
X218573123Y-108085999D01*
X226100000Y-107940000D02*
X225954001Y-108085999D01*
X175710000Y-119490000D02*
X169840000Y-119490000D01*
X270990000Y-129500000D02*
X264640000Y-129500000D01*
X240310000Y-125950000D02*
X220030000Y-125950000D01*
X216203123Y-105715999D02*
X199383123Y-105715999D01*
X218573123Y-108085999D02*
X216203123Y-105715999D01*
X199383123Y-105715999D02*
X197977124Y-104310000D01*
X247280000Y-128300000D02*
X249960000Y-128300000D01*
X230625002Y-64780000D02*
X230620000Y-64785002D01*
X255100000Y-119040000D02*
X236050000Y-119040000D01*
X251860000Y-66570000D02*
X245800000Y-66570000D01*
X230640000Y-115190000D02*
X230620000Y-115170000D01*
X255130000Y-119070000D02*
X255100000Y-119040000D01*
X236050000Y-115190000D02*
X230640000Y-115190000D01*
X253360000Y-68360000D02*
X251840000Y-68360000D01*
X245800000Y-64780000D02*
X230625002Y-64780000D01*
X238670000Y-116310000D02*
X216980000Y-116310000D01*
X250980000Y-67700000D02*
X244930000Y-67700000D01*
X251000000Y-70900000D02*
X250980000Y-70880000D01*
X244930000Y-67700000D02*
X244910000Y-67680000D01*
X244890000Y-65760000D02*
X228680000Y-65760000D01*
X216910000Y-112820000D02*
X211460000Y-112820000D01*
X253360000Y-70900000D02*
X251000000Y-70900000D01*
X216980000Y-116310000D02*
X216970000Y-116300000D01*
X228680000Y-63060000D02*
X211440000Y-63060000D01*
X217646809Y-114053191D02*
X217690000Y-114010000D01*
X197893191Y-114053191D02*
X217646809Y-114053191D01*
X217750000Y-124310000D02*
X217750000Y-128640000D01*
X235553836Y-77260000D02*
X233523836Y-75230000D01*
X253360000Y-73440000D02*
X251780000Y-73440000D01*
X251780000Y-77260000D02*
X235553836Y-77260000D01*
X217750000Y-128640000D02*
X217720000Y-128670000D01*
X233523836Y-75230000D02*
X192250000Y-75230000D01*
X197570000Y-113730000D02*
X197893191Y-114053191D01*
X250260000Y-72190000D02*
X237991499Y-72190000D01*
X237991499Y-72190000D02*
X236101499Y-70300000D01*
X217404599Y-70300000D02*
X214465598Y-67360999D01*
X199213598Y-67360999D02*
X197992599Y-66140000D01*
X197992599Y-66140000D02*
X173050000Y-66140000D01*
X253360000Y-75980000D02*
X250320000Y-75980000D01*
X214465598Y-67360999D02*
X199213598Y-67360999D01*
X236101499Y-70300000D02*
X217404599Y-70300000D01*
X253360000Y-78520000D02*
X234293836Y-78520000D01*
X234293836Y-78520000D02*
X231812837Y-81000999D01*
X231812837Y-81000999D02*
X229616677Y-81000999D01*
X163690999Y-79100999D02*
X162525999Y-77935999D01*
X159315598Y-77935999D02*
X157379599Y-76000000D01*
X157379599Y-76000000D02*
X153940000Y-76000000D01*
X162525999Y-77935999D02*
X159315598Y-77935999D01*
X227716677Y-79100999D02*
X163690999Y-79100999D01*
X229616677Y-81000999D02*
X227716677Y-79100999D01*
X189350000Y-100710000D02*
X169000000Y-100710000D01*
X134800000Y-103360000D02*
X134770000Y-103330000D01*
X270670000Y-81060000D02*
X274040000Y-81060000D01*
X270130000Y-96680000D02*
X234236162Y-96680000D01*
X274040000Y-81060000D02*
X274050000Y-81050000D01*
X169000000Y-100710000D02*
X168970000Y-100680000D01*
X168970000Y-103360000D02*
X134800000Y-103360000D01*
X274040000Y-89770000D02*
X270140000Y-89770000D01*
X234236162Y-96680000D02*
X232216162Y-94660000D01*
X232216162Y-94660000D02*
X189330000Y-94660000D01*
X263288812Y-80983812D02*
X263288831Y-80981716D01*
X268020000Y-81830000D02*
X264135000Y-81830000D01*
X265730000Y-100890000D02*
X272630000Y-100890000D01*
X267060000Y-86320000D02*
X265720000Y-87660000D01*
X265720000Y-100880000D02*
X265730000Y-100890000D01*
X268030000Y-86320000D02*
X267060000Y-86320000D01*
X264135000Y-81830000D02*
X263015000Y-80710000D01*
X268050000Y-69630000D02*
X268040000Y-69640000D01*
X270270000Y-69630000D02*
X268050000Y-69630000D01*
M02*
