G04 #@! TF.GenerationSoftware,KiCad,Pcbnew,9.0.7*
G04 #@! TF.CreationDate,2026-03-12T16:12:17+09:00*
G04 #@! TF.ProjectId,NomadBall44_L,4e6f6d61-6442-4616-9c6c-34345f4c2e6b,rev?*
G04 #@! TF.SameCoordinates,Original*
G04 #@! TF.FileFunction,Legend,Bot*
G04 #@! TF.FilePolarity,Positive*
%FSLAX46Y46*%
G04 Gerber Fmt 4.6, Leading zero omitted, Abs format (unit mm)*
G04 Created by KiCad (PCBNEW 9.0.7) date 2026-03-12 16:12:17*
%MOMM*%
%LPD*%
G01*
G04 APERTURE LIST*
%ADD10C,0.100000*%
%ADD11C,0.150000*%
%ADD12C,0.200000*%
%ADD13C,0.500000*%
%ADD14C,0.120000*%
%ADD15C,0.080000*%
%ADD16C,0.127000*%
G04 APERTURE END LIST*
D10*
X177285922Y-63456109D02*
X177285922Y-62956109D01*
X177285922Y-62956109D02*
X177166874Y-62956109D01*
X177166874Y-62956109D02*
X177095446Y-62979919D01*
X177095446Y-62979919D02*
X177047827Y-63027538D01*
X177047827Y-63027538D02*
X177024017Y-63075157D01*
X177024017Y-63075157D02*
X177000208Y-63170395D01*
X177000208Y-63170395D02*
X177000208Y-63241823D01*
X177000208Y-63241823D02*
X177024017Y-63337061D01*
X177024017Y-63337061D02*
X177047827Y-63384680D01*
X177047827Y-63384680D02*
X177095446Y-63432300D01*
X177095446Y-63432300D02*
X177166874Y-63456109D01*
X177166874Y-63456109D02*
X177285922Y-63456109D01*
X176571636Y-63122776D02*
X176571636Y-63456109D01*
X176690684Y-62932300D02*
X176809731Y-63289442D01*
X176809731Y-63289442D02*
X176500208Y-63289442D01*
D11*
X183694280Y-121897200D02*
X183551423Y-121944819D01*
X183551423Y-121944819D02*
X183313328Y-121944819D01*
X183313328Y-121944819D02*
X183218090Y-121897200D01*
X183218090Y-121897200D02*
X183170471Y-121849580D01*
X183170471Y-121849580D02*
X183122852Y-121754342D01*
X183122852Y-121754342D02*
X183122852Y-121659104D01*
X183122852Y-121659104D02*
X183170471Y-121563866D01*
X183170471Y-121563866D02*
X183218090Y-121516247D01*
X183218090Y-121516247D02*
X183313328Y-121468628D01*
X183313328Y-121468628D02*
X183503804Y-121421009D01*
X183503804Y-121421009D02*
X183599042Y-121373390D01*
X183599042Y-121373390D02*
X183646661Y-121325771D01*
X183646661Y-121325771D02*
X183694280Y-121230533D01*
X183694280Y-121230533D02*
X183694280Y-121135295D01*
X183694280Y-121135295D02*
X183646661Y-121040057D01*
X183646661Y-121040057D02*
X183599042Y-120992438D01*
X183599042Y-120992438D02*
X183503804Y-120944819D01*
X183503804Y-120944819D02*
X183265709Y-120944819D01*
X183265709Y-120944819D02*
X183122852Y-120992438D01*
X182789518Y-120944819D02*
X182551423Y-121944819D01*
X182551423Y-121944819D02*
X182360947Y-121230533D01*
X182360947Y-121230533D02*
X182170471Y-121944819D01*
X182170471Y-121944819D02*
X181932376Y-120944819D01*
X181599042Y-121040057D02*
X181551423Y-120992438D01*
X181551423Y-120992438D02*
X181456185Y-120944819D01*
X181456185Y-120944819D02*
X181218090Y-120944819D01*
X181218090Y-120944819D02*
X181122852Y-120992438D01*
X181122852Y-120992438D02*
X181075233Y-121040057D01*
X181075233Y-121040057D02*
X181027614Y-121135295D01*
X181027614Y-121135295D02*
X181027614Y-121230533D01*
X181027614Y-121230533D02*
X181075233Y-121373390D01*
X181075233Y-121373390D02*
X181646661Y-121944819D01*
X181646661Y-121944819D02*
X181027614Y-121944819D01*
X180646661Y-121040057D02*
X180599042Y-120992438D01*
X180599042Y-120992438D02*
X180503804Y-120944819D01*
X180503804Y-120944819D02*
X180265709Y-120944819D01*
X180265709Y-120944819D02*
X180170471Y-120992438D01*
X180170471Y-120992438D02*
X180122852Y-121040057D01*
X180122852Y-121040057D02*
X180075233Y-121135295D01*
X180075233Y-121135295D02*
X180075233Y-121230533D01*
X180075233Y-121230533D02*
X180122852Y-121373390D01*
X180122852Y-121373390D02*
X180694280Y-121944819D01*
X180694280Y-121944819D02*
X180075233Y-121944819D01*
D10*
X137714017Y-107436109D02*
X137714017Y-106936109D01*
X137714017Y-106936109D02*
X137594969Y-106936109D01*
X137594969Y-106936109D02*
X137523541Y-106959919D01*
X137523541Y-106959919D02*
X137475922Y-107007538D01*
X137475922Y-107007538D02*
X137452112Y-107055157D01*
X137452112Y-107055157D02*
X137428303Y-107150395D01*
X137428303Y-107150395D02*
X137428303Y-107221823D01*
X137428303Y-107221823D02*
X137452112Y-107317061D01*
X137452112Y-107317061D02*
X137475922Y-107364680D01*
X137475922Y-107364680D02*
X137523541Y-107412300D01*
X137523541Y-107412300D02*
X137594969Y-107436109D01*
X137594969Y-107436109D02*
X137714017Y-107436109D01*
X136952112Y-107436109D02*
X137237826Y-107436109D01*
X137094969Y-107436109D02*
X137094969Y-106936109D01*
X137094969Y-106936109D02*
X137142588Y-107007538D01*
X137142588Y-107007538D02*
X137190207Y-107055157D01*
X137190207Y-107055157D02*
X137237826Y-107078966D01*
X136666398Y-107150395D02*
X136714017Y-107126585D01*
X136714017Y-107126585D02*
X136737827Y-107102776D01*
X136737827Y-107102776D02*
X136761636Y-107055157D01*
X136761636Y-107055157D02*
X136761636Y-107031347D01*
X136761636Y-107031347D02*
X136737827Y-106983728D01*
X136737827Y-106983728D02*
X136714017Y-106959919D01*
X136714017Y-106959919D02*
X136666398Y-106936109D01*
X136666398Y-106936109D02*
X136571160Y-106936109D01*
X136571160Y-106936109D02*
X136523541Y-106959919D01*
X136523541Y-106959919D02*
X136499732Y-106983728D01*
X136499732Y-106983728D02*
X136475922Y-107031347D01*
X136475922Y-107031347D02*
X136475922Y-107055157D01*
X136475922Y-107055157D02*
X136499732Y-107102776D01*
X136499732Y-107102776D02*
X136523541Y-107126585D01*
X136523541Y-107126585D02*
X136571160Y-107150395D01*
X136571160Y-107150395D02*
X136666398Y-107150395D01*
X136666398Y-107150395D02*
X136714017Y-107174204D01*
X136714017Y-107174204D02*
X136737827Y-107198014D01*
X136737827Y-107198014D02*
X136761636Y-107245633D01*
X136761636Y-107245633D02*
X136761636Y-107340871D01*
X136761636Y-107340871D02*
X136737827Y-107388490D01*
X136737827Y-107388490D02*
X136714017Y-107412300D01*
X136714017Y-107412300D02*
X136666398Y-107436109D01*
X136666398Y-107436109D02*
X136571160Y-107436109D01*
X136571160Y-107436109D02*
X136523541Y-107412300D01*
X136523541Y-107412300D02*
X136499732Y-107388490D01*
X136499732Y-107388490D02*
X136475922Y-107340871D01*
X136475922Y-107340871D02*
X136475922Y-107245633D01*
X136475922Y-107245633D02*
X136499732Y-107198014D01*
X136499732Y-107198014D02*
X136523541Y-107174204D01*
X136523541Y-107174204D02*
X136571160Y-107150395D01*
D11*
X164594280Y-108327199D02*
X164451423Y-108374818D01*
X164451423Y-108374818D02*
X164213328Y-108374818D01*
X164213328Y-108374818D02*
X164118090Y-108327199D01*
X164118090Y-108327199D02*
X164070471Y-108279579D01*
X164070471Y-108279579D02*
X164022852Y-108184341D01*
X164022852Y-108184341D02*
X164022852Y-108089103D01*
X164022852Y-108089103D02*
X164070471Y-107993865D01*
X164070471Y-107993865D02*
X164118090Y-107946246D01*
X164118090Y-107946246D02*
X164213328Y-107898627D01*
X164213328Y-107898627D02*
X164403804Y-107851008D01*
X164403804Y-107851008D02*
X164499042Y-107803389D01*
X164499042Y-107803389D02*
X164546661Y-107755770D01*
X164546661Y-107755770D02*
X164594280Y-107660532D01*
X164594280Y-107660532D02*
X164594280Y-107565294D01*
X164594280Y-107565294D02*
X164546661Y-107470056D01*
X164546661Y-107470056D02*
X164499042Y-107422437D01*
X164499042Y-107422437D02*
X164403804Y-107374818D01*
X164403804Y-107374818D02*
X164165709Y-107374818D01*
X164165709Y-107374818D02*
X164022852Y-107422437D01*
X163689518Y-107374818D02*
X163451423Y-108374818D01*
X163451423Y-108374818D02*
X163260947Y-107660532D01*
X163260947Y-107660532D02*
X163070471Y-108374818D01*
X163070471Y-108374818D02*
X162832376Y-107374818D01*
X161927614Y-108374818D02*
X162499042Y-108374818D01*
X162213328Y-108374818D02*
X162213328Y-107374818D01*
X162213328Y-107374818D02*
X162308566Y-107517675D01*
X162308566Y-107517675D02*
X162403804Y-107612913D01*
X162403804Y-107612913D02*
X162499042Y-107660532D01*
X161594280Y-107374818D02*
X160927614Y-107374818D01*
X160927614Y-107374818D02*
X161356185Y-108374818D01*
D10*
X178254017Y-120766109D02*
X178254017Y-120266109D01*
X178254017Y-120266109D02*
X178134969Y-120266109D01*
X178134969Y-120266109D02*
X178063541Y-120289919D01*
X178063541Y-120289919D02*
X178015922Y-120337538D01*
X178015922Y-120337538D02*
X177992112Y-120385157D01*
X177992112Y-120385157D02*
X177968303Y-120480395D01*
X177968303Y-120480395D02*
X177968303Y-120551823D01*
X177968303Y-120551823D02*
X177992112Y-120647061D01*
X177992112Y-120647061D02*
X178015922Y-120694680D01*
X178015922Y-120694680D02*
X178063541Y-120742300D01*
X178063541Y-120742300D02*
X178134969Y-120766109D01*
X178134969Y-120766109D02*
X178254017Y-120766109D01*
X177777826Y-120313728D02*
X177754017Y-120289919D01*
X177754017Y-120289919D02*
X177706398Y-120266109D01*
X177706398Y-120266109D02*
X177587350Y-120266109D01*
X177587350Y-120266109D02*
X177539731Y-120289919D01*
X177539731Y-120289919D02*
X177515922Y-120313728D01*
X177515922Y-120313728D02*
X177492112Y-120361347D01*
X177492112Y-120361347D02*
X177492112Y-120408966D01*
X177492112Y-120408966D02*
X177515922Y-120480395D01*
X177515922Y-120480395D02*
X177801636Y-120766109D01*
X177801636Y-120766109D02*
X177492112Y-120766109D01*
X177301636Y-120313728D02*
X177277827Y-120289919D01*
X177277827Y-120289919D02*
X177230208Y-120266109D01*
X177230208Y-120266109D02*
X177111160Y-120266109D01*
X177111160Y-120266109D02*
X177063541Y-120289919D01*
X177063541Y-120289919D02*
X177039732Y-120313728D01*
X177039732Y-120313728D02*
X177015922Y-120361347D01*
X177015922Y-120361347D02*
X177015922Y-120408966D01*
X177015922Y-120408966D02*
X177039732Y-120480395D01*
X177039732Y-120480395D02*
X177325446Y-120766109D01*
X177325446Y-120766109D02*
X177015922Y-120766109D01*
X194935922Y-77706109D02*
X194935922Y-77206109D01*
X194935922Y-77206109D02*
X194816874Y-77206109D01*
X194816874Y-77206109D02*
X194745446Y-77229919D01*
X194745446Y-77229919D02*
X194697827Y-77277538D01*
X194697827Y-77277538D02*
X194674017Y-77325157D01*
X194674017Y-77325157D02*
X194650208Y-77420395D01*
X194650208Y-77420395D02*
X194650208Y-77491823D01*
X194650208Y-77491823D02*
X194674017Y-77587061D01*
X194674017Y-77587061D02*
X194697827Y-77634680D01*
X194697827Y-77634680D02*
X194745446Y-77682300D01*
X194745446Y-77682300D02*
X194816874Y-77706109D01*
X194816874Y-77706109D02*
X194935922Y-77706109D01*
X194412112Y-77706109D02*
X194316874Y-77706109D01*
X194316874Y-77706109D02*
X194269255Y-77682300D01*
X194269255Y-77682300D02*
X194245446Y-77658490D01*
X194245446Y-77658490D02*
X194197827Y-77587061D01*
X194197827Y-77587061D02*
X194174017Y-77491823D01*
X194174017Y-77491823D02*
X194174017Y-77301347D01*
X194174017Y-77301347D02*
X194197827Y-77253728D01*
X194197827Y-77253728D02*
X194221636Y-77229919D01*
X194221636Y-77229919D02*
X194269255Y-77206109D01*
X194269255Y-77206109D02*
X194364493Y-77206109D01*
X194364493Y-77206109D02*
X194412112Y-77229919D01*
X194412112Y-77229919D02*
X194435922Y-77253728D01*
X194435922Y-77253728D02*
X194459731Y-77301347D01*
X194459731Y-77301347D02*
X194459731Y-77420395D01*
X194459731Y-77420395D02*
X194435922Y-77468014D01*
X194435922Y-77468014D02*
X194412112Y-77491823D01*
X194412112Y-77491823D02*
X194364493Y-77515633D01*
X194364493Y-77515633D02*
X194269255Y-77515633D01*
X194269255Y-77515633D02*
X194221636Y-77491823D01*
X194221636Y-77491823D02*
X194197827Y-77468014D01*
X194197827Y-77468014D02*
X194174017Y-77420395D01*
D11*
X183694280Y-102697199D02*
X183551423Y-102744818D01*
X183551423Y-102744818D02*
X183313328Y-102744818D01*
X183313328Y-102744818D02*
X183218090Y-102697199D01*
X183218090Y-102697199D02*
X183170471Y-102649579D01*
X183170471Y-102649579D02*
X183122852Y-102554341D01*
X183122852Y-102554341D02*
X183122852Y-102459103D01*
X183122852Y-102459103D02*
X183170471Y-102363865D01*
X183170471Y-102363865D02*
X183218090Y-102316246D01*
X183218090Y-102316246D02*
X183313328Y-102268627D01*
X183313328Y-102268627D02*
X183503804Y-102221008D01*
X183503804Y-102221008D02*
X183599042Y-102173389D01*
X183599042Y-102173389D02*
X183646661Y-102125770D01*
X183646661Y-102125770D02*
X183694280Y-102030532D01*
X183694280Y-102030532D02*
X183694280Y-101935294D01*
X183694280Y-101935294D02*
X183646661Y-101840056D01*
X183646661Y-101840056D02*
X183599042Y-101792437D01*
X183599042Y-101792437D02*
X183503804Y-101744818D01*
X183503804Y-101744818D02*
X183265709Y-101744818D01*
X183265709Y-101744818D02*
X183122852Y-101792437D01*
X182789518Y-101744818D02*
X182551423Y-102744818D01*
X182551423Y-102744818D02*
X182360947Y-102030532D01*
X182360947Y-102030532D02*
X182170471Y-102744818D01*
X182170471Y-102744818D02*
X181932376Y-101744818D01*
X181027614Y-102744818D02*
X181599042Y-102744818D01*
X181313328Y-102744818D02*
X181313328Y-101744818D01*
X181313328Y-101744818D02*
X181408566Y-101887675D01*
X181408566Y-101887675D02*
X181503804Y-101982913D01*
X181503804Y-101982913D02*
X181599042Y-102030532D01*
X180170471Y-101744818D02*
X180360947Y-101744818D01*
X180360947Y-101744818D02*
X180456185Y-101792437D01*
X180456185Y-101792437D02*
X180503804Y-101840056D01*
X180503804Y-101840056D02*
X180599042Y-101982913D01*
X180599042Y-101982913D02*
X180646661Y-102173389D01*
X180646661Y-102173389D02*
X180646661Y-102554341D01*
X180646661Y-102554341D02*
X180599042Y-102649579D01*
X180599042Y-102649579D02*
X180551423Y-102697199D01*
X180551423Y-102697199D02*
X180456185Y-102744818D01*
X180456185Y-102744818D02*
X180265709Y-102744818D01*
X180265709Y-102744818D02*
X180170471Y-102697199D01*
X180170471Y-102697199D02*
X180122852Y-102649579D01*
X180122852Y-102649579D02*
X180075233Y-102554341D01*
X180075233Y-102554341D02*
X180075233Y-102316246D01*
X180075233Y-102316246D02*
X180122852Y-102221008D01*
X180122852Y-102221008D02*
X180170471Y-102173389D01*
X180170471Y-102173389D02*
X180265709Y-102125770D01*
X180265709Y-102125770D02*
X180456185Y-102125770D01*
X180456185Y-102125770D02*
X180551423Y-102173389D01*
X180551423Y-102173389D02*
X180599042Y-102221008D01*
X180599042Y-102221008D02*
X180646661Y-102316246D01*
X254180588Y-144440794D02*
X254031632Y-144462882D01*
X254031632Y-144462882D02*
X253797154Y-144421538D01*
X253797154Y-144421538D02*
X253711632Y-144358104D01*
X253711632Y-144358104D02*
X253673005Y-144302940D01*
X253673005Y-144302940D02*
X253642648Y-144200879D01*
X253642648Y-144200879D02*
X253659186Y-144107088D01*
X253659186Y-144107088D02*
X253722619Y-144021566D01*
X253722619Y-144021566D02*
X253777784Y-143982939D01*
X253777784Y-143982939D02*
X253879844Y-143952582D01*
X253879844Y-143952582D02*
X254075695Y-143938762D01*
X254075695Y-143938762D02*
X254177755Y-143908404D01*
X254177755Y-143908404D02*
X254232920Y-143869777D01*
X254232920Y-143869777D02*
X254296353Y-143784255D01*
X254296353Y-143784255D02*
X254312891Y-143690464D01*
X254312891Y-143690464D02*
X254282534Y-143588404D01*
X254282534Y-143588404D02*
X254243907Y-143533239D01*
X254243907Y-143533239D02*
X254158385Y-143469806D01*
X254158385Y-143469806D02*
X253923907Y-143428461D01*
X253923907Y-143428461D02*
X253774951Y-143450550D01*
X253454951Y-143345771D02*
X253046824Y-144289234D01*
X253046824Y-144289234D02*
X252983276Y-143552724D01*
X252983276Y-143552724D02*
X252671660Y-144223083D01*
X252671660Y-144223083D02*
X252610830Y-143196930D01*
X252266023Y-143232839D02*
X252227396Y-143177674D01*
X252227396Y-143177674D02*
X252141874Y-143114240D01*
X252141874Y-143114240D02*
X251907396Y-143072896D01*
X251907396Y-143072896D02*
X251805336Y-143103253D01*
X251805336Y-143103253D02*
X251750171Y-143141880D01*
X251750171Y-143141880D02*
X251686737Y-143227402D01*
X251686737Y-143227402D02*
X251670200Y-143321193D01*
X251670200Y-143321193D02*
X251692288Y-143470149D01*
X251692288Y-143470149D02*
X252155808Y-144132124D01*
X252155808Y-144132124D02*
X251546165Y-144024628D01*
X251110170Y-142932323D02*
X251016379Y-142915785D01*
X251016379Y-142915785D02*
X250914319Y-142946143D01*
X250914319Y-142946143D02*
X250859154Y-142984770D01*
X250859154Y-142984770D02*
X250795721Y-143070292D01*
X250795721Y-143070292D02*
X250715749Y-143249605D01*
X250715749Y-143249605D02*
X250674405Y-143484083D01*
X250674405Y-143484083D02*
X250688224Y-143679935D01*
X250688224Y-143679935D02*
X250718582Y-143781995D01*
X250718582Y-143781995D02*
X250757209Y-143837160D01*
X250757209Y-143837160D02*
X250842731Y-143900593D01*
X250842731Y-143900593D02*
X250936522Y-143917131D01*
X250936522Y-143917131D02*
X251038582Y-143886773D01*
X251038582Y-143886773D02*
X251093747Y-143848147D01*
X251093747Y-143848147D02*
X251157180Y-143762624D01*
X251157180Y-143762624D02*
X251237152Y-143583311D01*
X251237152Y-143583311D02*
X251278497Y-143348833D01*
X251278497Y-143348833D02*
X251264677Y-143152982D01*
X251264677Y-143152982D02*
X251234319Y-143050921D01*
X251234319Y-143050921D02*
X251195693Y-142995757D01*
X251195693Y-142995757D02*
X251110170Y-142932323D01*
X145410843Y-89147199D02*
X145267986Y-89194818D01*
X145267986Y-89194818D02*
X145029891Y-89194818D01*
X145029891Y-89194818D02*
X144934653Y-89147199D01*
X144934653Y-89147199D02*
X144887034Y-89099579D01*
X144887034Y-89099579D02*
X144839415Y-89004341D01*
X144839415Y-89004341D02*
X144839415Y-88909103D01*
X144839415Y-88909103D02*
X144887034Y-88813865D01*
X144887034Y-88813865D02*
X144934653Y-88766246D01*
X144934653Y-88766246D02*
X145029891Y-88718627D01*
X145029891Y-88718627D02*
X145220367Y-88671008D01*
X145220367Y-88671008D02*
X145315605Y-88623389D01*
X145315605Y-88623389D02*
X145363224Y-88575770D01*
X145363224Y-88575770D02*
X145410843Y-88480532D01*
X145410843Y-88480532D02*
X145410843Y-88385294D01*
X145410843Y-88385294D02*
X145363224Y-88290056D01*
X145363224Y-88290056D02*
X145315605Y-88242437D01*
X145315605Y-88242437D02*
X145220367Y-88194818D01*
X145220367Y-88194818D02*
X144982272Y-88194818D01*
X144982272Y-88194818D02*
X144839415Y-88242437D01*
X144506081Y-88194818D02*
X144267986Y-89194818D01*
X144267986Y-89194818D02*
X144077510Y-88480532D01*
X144077510Y-88480532D02*
X143887034Y-89194818D01*
X143887034Y-89194818D02*
X143648939Y-88194818D01*
X142744177Y-89194818D02*
X143315605Y-89194818D01*
X143029891Y-89194818D02*
X143029891Y-88194818D01*
X143029891Y-88194818D02*
X143125129Y-88337675D01*
X143125129Y-88337675D02*
X143220367Y-88432913D01*
X143220367Y-88432913D02*
X143315605Y-88480532D01*
X142363224Y-88290056D02*
X142315605Y-88242437D01*
X142315605Y-88242437D02*
X142220367Y-88194818D01*
X142220367Y-88194818D02*
X141982272Y-88194818D01*
X141982272Y-88194818D02*
X141887034Y-88242437D01*
X141887034Y-88242437D02*
X141839415Y-88290056D01*
X141839415Y-88290056D02*
X141791796Y-88385294D01*
X141791796Y-88385294D02*
X141791796Y-88480532D01*
X141791796Y-88480532D02*
X141839415Y-88623389D01*
X141839415Y-88623389D02*
X142410843Y-89194818D01*
X142410843Y-89194818D02*
X141791796Y-89194818D01*
D10*
X221054017Y-126396109D02*
X221054017Y-125896109D01*
X221054017Y-125896109D02*
X220934969Y-125896109D01*
X220934969Y-125896109D02*
X220863541Y-125919919D01*
X220863541Y-125919919D02*
X220815922Y-125967538D01*
X220815922Y-125967538D02*
X220792112Y-126015157D01*
X220792112Y-126015157D02*
X220768303Y-126110395D01*
X220768303Y-126110395D02*
X220768303Y-126181823D01*
X220768303Y-126181823D02*
X220792112Y-126277061D01*
X220792112Y-126277061D02*
X220815922Y-126324680D01*
X220815922Y-126324680D02*
X220863541Y-126372300D01*
X220863541Y-126372300D02*
X220934969Y-126396109D01*
X220934969Y-126396109D02*
X221054017Y-126396109D01*
X220577826Y-125943728D02*
X220554017Y-125919919D01*
X220554017Y-125919919D02*
X220506398Y-125896109D01*
X220506398Y-125896109D02*
X220387350Y-125896109D01*
X220387350Y-125896109D02*
X220339731Y-125919919D01*
X220339731Y-125919919D02*
X220315922Y-125943728D01*
X220315922Y-125943728D02*
X220292112Y-125991347D01*
X220292112Y-125991347D02*
X220292112Y-126038966D01*
X220292112Y-126038966D02*
X220315922Y-126110395D01*
X220315922Y-126110395D02*
X220601636Y-126396109D01*
X220601636Y-126396109D02*
X220292112Y-126396109D01*
X219815922Y-126396109D02*
X220101636Y-126396109D01*
X219958779Y-126396109D02*
X219958779Y-125896109D01*
X219958779Y-125896109D02*
X220006398Y-125967538D01*
X220006398Y-125967538D02*
X220054017Y-126015157D01*
X220054017Y-126015157D02*
X220101636Y-126038966D01*
D11*
X272432706Y-150644776D02*
X272282178Y-150640663D01*
X272282178Y-150640663D02*
X272058441Y-150559230D01*
X272058441Y-150559230D02*
X271985233Y-150481909D01*
X271985233Y-150481909D02*
X271956773Y-150420875D01*
X271956773Y-150420875D02*
X271944599Y-150315094D01*
X271944599Y-150315094D02*
X271977172Y-150225600D01*
X271977172Y-150225600D02*
X272054493Y-150152392D01*
X272054493Y-150152392D02*
X272115527Y-150123931D01*
X272115527Y-150123931D02*
X272221308Y-150111757D01*
X272221308Y-150111757D02*
X272416584Y-150132157D01*
X272416584Y-150132157D02*
X272522365Y-150119983D01*
X272522365Y-150119983D02*
X272583399Y-150091522D01*
X272583399Y-150091522D02*
X272660719Y-150018314D01*
X272660719Y-150018314D02*
X272693293Y-149928820D01*
X272693293Y-149928820D02*
X272681119Y-149823038D01*
X272681119Y-149823038D02*
X272652658Y-149762004D01*
X272652658Y-149762004D02*
X272579450Y-149684684D01*
X272579450Y-149684684D02*
X272355714Y-149603251D01*
X272355714Y-149603251D02*
X272205186Y-149599138D01*
X271908241Y-149440384D02*
X271342485Y-150298643D01*
X271342485Y-150298643D02*
X271407796Y-149562287D01*
X271407796Y-149562287D02*
X270984507Y-150168350D01*
X270984507Y-150168350D02*
X271102791Y-149147224D01*
X269910572Y-149777470D02*
X270447540Y-149972910D01*
X270179056Y-149875190D02*
X270521076Y-148935497D01*
X270521076Y-148935497D02*
X270561711Y-149102312D01*
X270561711Y-149102312D02*
X270618632Y-149224380D01*
X270618632Y-149224380D02*
X270691840Y-149301701D01*
X269463100Y-149614603D02*
X269284111Y-149549456D01*
X269284111Y-149549456D02*
X269210903Y-149472135D01*
X269210903Y-149472135D02*
X269182442Y-149411102D01*
X269182442Y-149411102D02*
X269141808Y-149244286D01*
X269141808Y-149244286D02*
X269162207Y-149049011D01*
X269162207Y-149049011D02*
X269292501Y-148691032D01*
X269292501Y-148691032D02*
X269369821Y-148617825D01*
X269369821Y-148617825D02*
X269430855Y-148589364D01*
X269430855Y-148589364D02*
X269536636Y-148577190D01*
X269536636Y-148577190D02*
X269715625Y-148642337D01*
X269715625Y-148642337D02*
X269788833Y-148719657D01*
X269788833Y-148719657D02*
X269817294Y-148780691D01*
X269817294Y-148780691D02*
X269829468Y-148886473D01*
X269829468Y-148886473D02*
X269748034Y-149110209D01*
X269748034Y-149110209D02*
X269670714Y-149183417D01*
X269670714Y-149183417D02*
X269609680Y-149211877D01*
X269609680Y-149211877D02*
X269503899Y-149224051D01*
X269503899Y-149224051D02*
X269324910Y-149158905D01*
X269324910Y-149158905D02*
X269251702Y-149081584D01*
X269251702Y-149081584D02*
X269223241Y-149020550D01*
X269223241Y-149020550D02*
X269211067Y-148914769D01*
D10*
X137485922Y-69056109D02*
X137485922Y-68556109D01*
X137485922Y-68556109D02*
X137366874Y-68556109D01*
X137366874Y-68556109D02*
X137295446Y-68579919D01*
X137295446Y-68579919D02*
X137247827Y-68627538D01*
X137247827Y-68627538D02*
X137224017Y-68675157D01*
X137224017Y-68675157D02*
X137200208Y-68770395D01*
X137200208Y-68770395D02*
X137200208Y-68841823D01*
X137200208Y-68841823D02*
X137224017Y-68937061D01*
X137224017Y-68937061D02*
X137247827Y-68984680D01*
X137247827Y-68984680D02*
X137295446Y-69032300D01*
X137295446Y-69032300D02*
X137366874Y-69056109D01*
X137366874Y-69056109D02*
X137485922Y-69056109D01*
X136771636Y-68556109D02*
X136866874Y-68556109D01*
X136866874Y-68556109D02*
X136914493Y-68579919D01*
X136914493Y-68579919D02*
X136938303Y-68603728D01*
X136938303Y-68603728D02*
X136985922Y-68675157D01*
X136985922Y-68675157D02*
X137009731Y-68770395D01*
X137009731Y-68770395D02*
X137009731Y-68960871D01*
X137009731Y-68960871D02*
X136985922Y-69008490D01*
X136985922Y-69008490D02*
X136962112Y-69032300D01*
X136962112Y-69032300D02*
X136914493Y-69056109D01*
X136914493Y-69056109D02*
X136819255Y-69056109D01*
X136819255Y-69056109D02*
X136771636Y-69032300D01*
X136771636Y-69032300D02*
X136747827Y-69008490D01*
X136747827Y-69008490D02*
X136724017Y-68960871D01*
X136724017Y-68960871D02*
X136724017Y-68841823D01*
X136724017Y-68841823D02*
X136747827Y-68794204D01*
X136747827Y-68794204D02*
X136771636Y-68770395D01*
X136771636Y-68770395D02*
X136819255Y-68746585D01*
X136819255Y-68746585D02*
X136914493Y-68746585D01*
X136914493Y-68746585D02*
X136962112Y-68770395D01*
X136962112Y-68770395D02*
X136985922Y-68794204D01*
X136985922Y-68794204D02*
X137009731Y-68841823D01*
D11*
X221608089Y-80897199D02*
X221465232Y-80944818D01*
X221465232Y-80944818D02*
X221227137Y-80944818D01*
X221227137Y-80944818D02*
X221131899Y-80897199D01*
X221131899Y-80897199D02*
X221084280Y-80849579D01*
X221084280Y-80849579D02*
X221036661Y-80754341D01*
X221036661Y-80754341D02*
X221036661Y-80659103D01*
X221036661Y-80659103D02*
X221084280Y-80563865D01*
X221084280Y-80563865D02*
X221131899Y-80516246D01*
X221131899Y-80516246D02*
X221227137Y-80468627D01*
X221227137Y-80468627D02*
X221417613Y-80421008D01*
X221417613Y-80421008D02*
X221512851Y-80373389D01*
X221512851Y-80373389D02*
X221560470Y-80325770D01*
X221560470Y-80325770D02*
X221608089Y-80230532D01*
X221608089Y-80230532D02*
X221608089Y-80135294D01*
X221608089Y-80135294D02*
X221560470Y-80040056D01*
X221560470Y-80040056D02*
X221512851Y-79992437D01*
X221512851Y-79992437D02*
X221417613Y-79944818D01*
X221417613Y-79944818D02*
X221179518Y-79944818D01*
X221179518Y-79944818D02*
X221036661Y-79992437D01*
X220703327Y-79944818D02*
X220465232Y-80944818D01*
X220465232Y-80944818D02*
X220274756Y-80230532D01*
X220274756Y-80230532D02*
X220084280Y-80944818D01*
X220084280Y-80944818D02*
X219846185Y-79944818D01*
X219322375Y-80373389D02*
X219417613Y-80325770D01*
X219417613Y-80325770D02*
X219465232Y-80278151D01*
X219465232Y-80278151D02*
X219512851Y-80182913D01*
X219512851Y-80182913D02*
X219512851Y-80135294D01*
X219512851Y-80135294D02*
X219465232Y-80040056D01*
X219465232Y-80040056D02*
X219417613Y-79992437D01*
X219417613Y-79992437D02*
X219322375Y-79944818D01*
X219322375Y-79944818D02*
X219131899Y-79944818D01*
X219131899Y-79944818D02*
X219036661Y-79992437D01*
X219036661Y-79992437D02*
X218989042Y-80040056D01*
X218989042Y-80040056D02*
X218941423Y-80135294D01*
X218941423Y-80135294D02*
X218941423Y-80182913D01*
X218941423Y-80182913D02*
X218989042Y-80278151D01*
X218989042Y-80278151D02*
X219036661Y-80325770D01*
X219036661Y-80325770D02*
X219131899Y-80373389D01*
X219131899Y-80373389D02*
X219322375Y-80373389D01*
X219322375Y-80373389D02*
X219417613Y-80421008D01*
X219417613Y-80421008D02*
X219465232Y-80468627D01*
X219465232Y-80468627D02*
X219512851Y-80563865D01*
X219512851Y-80563865D02*
X219512851Y-80754341D01*
X219512851Y-80754341D02*
X219465232Y-80849579D01*
X219465232Y-80849579D02*
X219417613Y-80897199D01*
X219417613Y-80897199D02*
X219322375Y-80944818D01*
X219322375Y-80944818D02*
X219131899Y-80944818D01*
X219131899Y-80944818D02*
X219036661Y-80897199D01*
X219036661Y-80897199D02*
X218989042Y-80849579D01*
X218989042Y-80849579D02*
X218941423Y-80754341D01*
X218941423Y-80754341D02*
X218941423Y-80563865D01*
X218941423Y-80563865D02*
X218989042Y-80468627D01*
X218989042Y-80468627D02*
X219036661Y-80421008D01*
X219036661Y-80421008D02*
X219131899Y-80373389D01*
X202418089Y-59367199D02*
X202275232Y-59414818D01*
X202275232Y-59414818D02*
X202037137Y-59414818D01*
X202037137Y-59414818D02*
X201941899Y-59367199D01*
X201941899Y-59367199D02*
X201894280Y-59319579D01*
X201894280Y-59319579D02*
X201846661Y-59224341D01*
X201846661Y-59224341D02*
X201846661Y-59129103D01*
X201846661Y-59129103D02*
X201894280Y-59033865D01*
X201894280Y-59033865D02*
X201941899Y-58986246D01*
X201941899Y-58986246D02*
X202037137Y-58938627D01*
X202037137Y-58938627D02*
X202227613Y-58891008D01*
X202227613Y-58891008D02*
X202322851Y-58843389D01*
X202322851Y-58843389D02*
X202370470Y-58795770D01*
X202370470Y-58795770D02*
X202418089Y-58700532D01*
X202418089Y-58700532D02*
X202418089Y-58605294D01*
X202418089Y-58605294D02*
X202370470Y-58510056D01*
X202370470Y-58510056D02*
X202322851Y-58462437D01*
X202322851Y-58462437D02*
X202227613Y-58414818D01*
X202227613Y-58414818D02*
X201989518Y-58414818D01*
X201989518Y-58414818D02*
X201846661Y-58462437D01*
X201513327Y-58414818D02*
X201275232Y-59414818D01*
X201275232Y-59414818D02*
X201084756Y-58700532D01*
X201084756Y-58700532D02*
X200894280Y-59414818D01*
X200894280Y-59414818D02*
X200656185Y-58414818D01*
X200370470Y-58414818D02*
X199751423Y-58414818D01*
X199751423Y-58414818D02*
X200084756Y-58795770D01*
X200084756Y-58795770D02*
X199941899Y-58795770D01*
X199941899Y-58795770D02*
X199846661Y-58843389D01*
X199846661Y-58843389D02*
X199799042Y-58891008D01*
X199799042Y-58891008D02*
X199751423Y-58986246D01*
X199751423Y-58986246D02*
X199751423Y-59224341D01*
X199751423Y-59224341D02*
X199799042Y-59319579D01*
X199799042Y-59319579D02*
X199846661Y-59367199D01*
X199846661Y-59367199D02*
X199941899Y-59414818D01*
X199941899Y-59414818D02*
X200227613Y-59414818D01*
X200227613Y-59414818D02*
X200322851Y-59367199D01*
X200322851Y-59367199D02*
X200370470Y-59319579D01*
X241263655Y-102322199D02*
X241120798Y-102369818D01*
X241120798Y-102369818D02*
X240882703Y-102369818D01*
X240882703Y-102369818D02*
X240787465Y-102322199D01*
X240787465Y-102322199D02*
X240739846Y-102274579D01*
X240739846Y-102274579D02*
X240692227Y-102179341D01*
X240692227Y-102179341D02*
X240692227Y-102084103D01*
X240692227Y-102084103D02*
X240739846Y-101988865D01*
X240739846Y-101988865D02*
X240787465Y-101941246D01*
X240787465Y-101941246D02*
X240882703Y-101893627D01*
X240882703Y-101893627D02*
X241073179Y-101846008D01*
X241073179Y-101846008D02*
X241168417Y-101798389D01*
X241168417Y-101798389D02*
X241216036Y-101750770D01*
X241216036Y-101750770D02*
X241263655Y-101655532D01*
X241263655Y-101655532D02*
X241263655Y-101560294D01*
X241263655Y-101560294D02*
X241216036Y-101465056D01*
X241216036Y-101465056D02*
X241168417Y-101417437D01*
X241168417Y-101417437D02*
X241073179Y-101369818D01*
X241073179Y-101369818D02*
X240835084Y-101369818D01*
X240835084Y-101369818D02*
X240692227Y-101417437D01*
X240358893Y-101369818D02*
X240120798Y-102369818D01*
X240120798Y-102369818D02*
X239930322Y-101655532D01*
X239930322Y-101655532D02*
X239739846Y-102369818D01*
X239739846Y-102369818D02*
X239501751Y-101369818D01*
X238596989Y-102369818D02*
X239168417Y-102369818D01*
X238882703Y-102369818D02*
X238882703Y-101369818D01*
X238882703Y-101369818D02*
X238977941Y-101512675D01*
X238977941Y-101512675D02*
X239073179Y-101607913D01*
X239073179Y-101607913D02*
X239168417Y-101655532D01*
X238263655Y-101369818D02*
X237644608Y-101369818D01*
X237644608Y-101369818D02*
X237977941Y-101750770D01*
X237977941Y-101750770D02*
X237835084Y-101750770D01*
X237835084Y-101750770D02*
X237739846Y-101798389D01*
X237739846Y-101798389D02*
X237692227Y-101846008D01*
X237692227Y-101846008D02*
X237644608Y-101941246D01*
X237644608Y-101941246D02*
X237644608Y-102179341D01*
X237644608Y-102179341D02*
X237692227Y-102274579D01*
X237692227Y-102274579D02*
X237739846Y-102322199D01*
X237739846Y-102322199D02*
X237835084Y-102369818D01*
X237835084Y-102369818D02*
X238120798Y-102369818D01*
X238120798Y-102369818D02*
X238216036Y-102322199D01*
X238216036Y-102322199D02*
X238263655Y-102274579D01*
X221608089Y-61707199D02*
X221465232Y-61754818D01*
X221465232Y-61754818D02*
X221227137Y-61754818D01*
X221227137Y-61754818D02*
X221131899Y-61707199D01*
X221131899Y-61707199D02*
X221084280Y-61659579D01*
X221084280Y-61659579D02*
X221036661Y-61564341D01*
X221036661Y-61564341D02*
X221036661Y-61469103D01*
X221036661Y-61469103D02*
X221084280Y-61373865D01*
X221084280Y-61373865D02*
X221131899Y-61326246D01*
X221131899Y-61326246D02*
X221227137Y-61278627D01*
X221227137Y-61278627D02*
X221417613Y-61231008D01*
X221417613Y-61231008D02*
X221512851Y-61183389D01*
X221512851Y-61183389D02*
X221560470Y-61135770D01*
X221560470Y-61135770D02*
X221608089Y-61040532D01*
X221608089Y-61040532D02*
X221608089Y-60945294D01*
X221608089Y-60945294D02*
X221560470Y-60850056D01*
X221560470Y-60850056D02*
X221512851Y-60802437D01*
X221512851Y-60802437D02*
X221417613Y-60754818D01*
X221417613Y-60754818D02*
X221179518Y-60754818D01*
X221179518Y-60754818D02*
X221036661Y-60802437D01*
X220703327Y-60754818D02*
X220465232Y-61754818D01*
X220465232Y-61754818D02*
X220274756Y-61040532D01*
X220274756Y-61040532D02*
X220084280Y-61754818D01*
X220084280Y-61754818D02*
X219846185Y-60754818D01*
X219512851Y-60850056D02*
X219465232Y-60802437D01*
X219465232Y-60802437D02*
X219369994Y-60754818D01*
X219369994Y-60754818D02*
X219131899Y-60754818D01*
X219131899Y-60754818D02*
X219036661Y-60802437D01*
X219036661Y-60802437D02*
X218989042Y-60850056D01*
X218989042Y-60850056D02*
X218941423Y-60945294D01*
X218941423Y-60945294D02*
X218941423Y-61040532D01*
X218941423Y-61040532D02*
X218989042Y-61183389D01*
X218989042Y-61183389D02*
X219560470Y-61754818D01*
X219560470Y-61754818D02*
X218941423Y-61754818D01*
D10*
X214115922Y-60866109D02*
X214115922Y-60366109D01*
X214115922Y-60366109D02*
X213996874Y-60366109D01*
X213996874Y-60366109D02*
X213925446Y-60389919D01*
X213925446Y-60389919D02*
X213877827Y-60437538D01*
X213877827Y-60437538D02*
X213854017Y-60485157D01*
X213854017Y-60485157D02*
X213830208Y-60580395D01*
X213830208Y-60580395D02*
X213830208Y-60651823D01*
X213830208Y-60651823D02*
X213854017Y-60747061D01*
X213854017Y-60747061D02*
X213877827Y-60794680D01*
X213877827Y-60794680D02*
X213925446Y-60842300D01*
X213925446Y-60842300D02*
X213996874Y-60866109D01*
X213996874Y-60866109D02*
X214115922Y-60866109D01*
X213639731Y-60413728D02*
X213615922Y-60389919D01*
X213615922Y-60389919D02*
X213568303Y-60366109D01*
X213568303Y-60366109D02*
X213449255Y-60366109D01*
X213449255Y-60366109D02*
X213401636Y-60389919D01*
X213401636Y-60389919D02*
X213377827Y-60413728D01*
X213377827Y-60413728D02*
X213354017Y-60461347D01*
X213354017Y-60461347D02*
X213354017Y-60508966D01*
X213354017Y-60508966D02*
X213377827Y-60580395D01*
X213377827Y-60580395D02*
X213663541Y-60866109D01*
X213663541Y-60866109D02*
X213354017Y-60866109D01*
X242963601Y-127364240D02*
X243050425Y-126871836D01*
X243050425Y-126871836D02*
X242933186Y-126851164D01*
X242933186Y-126851164D02*
X242858708Y-126862208D01*
X242858708Y-126862208D02*
X242803543Y-126900835D01*
X242803543Y-126900835D02*
X242771826Y-126943596D01*
X242771826Y-126943596D02*
X242731841Y-127033253D01*
X242731841Y-127033253D02*
X242719437Y-127103596D01*
X242719437Y-127103596D02*
X242726347Y-127201522D01*
X242726347Y-127201522D02*
X242741526Y-127252552D01*
X242741526Y-127252552D02*
X242780153Y-127307716D01*
X242780153Y-127307716D02*
X242846361Y-127343568D01*
X242846361Y-127343568D02*
X242963601Y-127364240D01*
X242573200Y-126836042D02*
X242553886Y-126808460D01*
X242553886Y-126808460D02*
X242511125Y-126776743D01*
X242511125Y-126776743D02*
X242393886Y-126756071D01*
X242393886Y-126756071D02*
X242342856Y-126771250D01*
X242342856Y-126771250D02*
X242315274Y-126790563D01*
X242315274Y-126790563D02*
X242283557Y-126833324D01*
X242283557Y-126833324D02*
X242275288Y-126880220D01*
X242275288Y-126880220D02*
X242286332Y-126954698D01*
X242286332Y-126954698D02*
X242518092Y-127285685D01*
X242518092Y-127285685D02*
X242213271Y-127231937D01*
X241995274Y-126685785D02*
X241948378Y-126677516D01*
X241948378Y-126677516D02*
X241897348Y-126692695D01*
X241897348Y-126692695D02*
X241869766Y-126712008D01*
X241869766Y-126712008D02*
X241838049Y-126754769D01*
X241838049Y-126754769D02*
X241798063Y-126844426D01*
X241798063Y-126844426D02*
X241777391Y-126961665D01*
X241777391Y-126961665D02*
X241784301Y-127059590D01*
X241784301Y-127059590D02*
X241799480Y-127110621D01*
X241799480Y-127110621D02*
X241818793Y-127138203D01*
X241818793Y-127138203D02*
X241861554Y-127169920D01*
X241861554Y-127169920D02*
X241908450Y-127178189D01*
X241908450Y-127178189D02*
X241959480Y-127163010D01*
X241959480Y-127163010D02*
X241987062Y-127143696D01*
X241987062Y-127143696D02*
X242018779Y-127100935D01*
X242018779Y-127100935D02*
X242058765Y-127011279D01*
X242058765Y-127011279D02*
X242079437Y-126894039D01*
X242079437Y-126894039D02*
X242072527Y-126796114D01*
X242072527Y-126796114D02*
X242057348Y-126745084D01*
X242057348Y-126745084D02*
X242038035Y-126717501D01*
X242038035Y-126717501D02*
X241995274Y-126685785D01*
X233362485Y-63036109D02*
X233362485Y-62536109D01*
X233362485Y-62536109D02*
X233243437Y-62536109D01*
X233243437Y-62536109D02*
X233172009Y-62559919D01*
X233172009Y-62559919D02*
X233124390Y-62607538D01*
X233124390Y-62607538D02*
X233100580Y-62655157D01*
X233100580Y-62655157D02*
X233076771Y-62750395D01*
X233076771Y-62750395D02*
X233076771Y-62821823D01*
X233076771Y-62821823D02*
X233100580Y-62917061D01*
X233100580Y-62917061D02*
X233124390Y-62964680D01*
X233124390Y-62964680D02*
X233172009Y-63012300D01*
X233172009Y-63012300D02*
X233243437Y-63036109D01*
X233243437Y-63036109D02*
X233362485Y-63036109D01*
X232600580Y-63036109D02*
X232886294Y-63036109D01*
X232743437Y-63036109D02*
X232743437Y-62536109D01*
X232743437Y-62536109D02*
X232791056Y-62607538D01*
X232791056Y-62607538D02*
X232838675Y-62655157D01*
X232838675Y-62655157D02*
X232886294Y-62678966D01*
X214384017Y-99186109D02*
X214384017Y-98686109D01*
X214384017Y-98686109D02*
X214264969Y-98686109D01*
X214264969Y-98686109D02*
X214193541Y-98709919D01*
X214193541Y-98709919D02*
X214145922Y-98757538D01*
X214145922Y-98757538D02*
X214122112Y-98805157D01*
X214122112Y-98805157D02*
X214098303Y-98900395D01*
X214098303Y-98900395D02*
X214098303Y-98971823D01*
X214098303Y-98971823D02*
X214122112Y-99067061D01*
X214122112Y-99067061D02*
X214145922Y-99114680D01*
X214145922Y-99114680D02*
X214193541Y-99162300D01*
X214193541Y-99162300D02*
X214264969Y-99186109D01*
X214264969Y-99186109D02*
X214384017Y-99186109D01*
X213622112Y-99186109D02*
X213907826Y-99186109D01*
X213764969Y-99186109D02*
X213764969Y-98686109D01*
X213764969Y-98686109D02*
X213812588Y-98757538D01*
X213812588Y-98757538D02*
X213860207Y-98805157D01*
X213860207Y-98805157D02*
X213907826Y-98828966D01*
X213193541Y-98852776D02*
X213193541Y-99186109D01*
X213312589Y-98662300D02*
X213431636Y-99019442D01*
X213431636Y-99019442D02*
X213122113Y-99019442D01*
X197205922Y-57636109D02*
X197205922Y-57136109D01*
X197205922Y-57136109D02*
X197086874Y-57136109D01*
X197086874Y-57136109D02*
X197015446Y-57159919D01*
X197015446Y-57159919D02*
X196967827Y-57207538D01*
X196967827Y-57207538D02*
X196944017Y-57255157D01*
X196944017Y-57255157D02*
X196920208Y-57350395D01*
X196920208Y-57350395D02*
X196920208Y-57421823D01*
X196920208Y-57421823D02*
X196944017Y-57517061D01*
X196944017Y-57517061D02*
X196967827Y-57564680D01*
X196967827Y-57564680D02*
X197015446Y-57612300D01*
X197015446Y-57612300D02*
X197086874Y-57636109D01*
X197086874Y-57636109D02*
X197205922Y-57636109D01*
X196753541Y-57136109D02*
X196444017Y-57136109D01*
X196444017Y-57136109D02*
X196610684Y-57326585D01*
X196610684Y-57326585D02*
X196539255Y-57326585D01*
X196539255Y-57326585D02*
X196491636Y-57350395D01*
X196491636Y-57350395D02*
X196467827Y-57374204D01*
X196467827Y-57374204D02*
X196444017Y-57421823D01*
X196444017Y-57421823D02*
X196444017Y-57540871D01*
X196444017Y-57540871D02*
X196467827Y-57588490D01*
X196467827Y-57588490D02*
X196491636Y-57612300D01*
X196491636Y-57612300D02*
X196539255Y-57636109D01*
X196539255Y-57636109D02*
X196682112Y-57636109D01*
X196682112Y-57636109D02*
X196729731Y-57612300D01*
X196729731Y-57612300D02*
X196753541Y-57588490D01*
D11*
X183694280Y-83552199D02*
X183551423Y-83599818D01*
X183551423Y-83599818D02*
X183313328Y-83599818D01*
X183313328Y-83599818D02*
X183218090Y-83552199D01*
X183218090Y-83552199D02*
X183170471Y-83504579D01*
X183170471Y-83504579D02*
X183122852Y-83409341D01*
X183122852Y-83409341D02*
X183122852Y-83314103D01*
X183122852Y-83314103D02*
X183170471Y-83218865D01*
X183170471Y-83218865D02*
X183218090Y-83171246D01*
X183218090Y-83171246D02*
X183313328Y-83123627D01*
X183313328Y-83123627D02*
X183503804Y-83076008D01*
X183503804Y-83076008D02*
X183599042Y-83028389D01*
X183599042Y-83028389D02*
X183646661Y-82980770D01*
X183646661Y-82980770D02*
X183694280Y-82885532D01*
X183694280Y-82885532D02*
X183694280Y-82790294D01*
X183694280Y-82790294D02*
X183646661Y-82695056D01*
X183646661Y-82695056D02*
X183599042Y-82647437D01*
X183599042Y-82647437D02*
X183503804Y-82599818D01*
X183503804Y-82599818D02*
X183265709Y-82599818D01*
X183265709Y-82599818D02*
X183122852Y-82647437D01*
X182789518Y-82599818D02*
X182551423Y-83599818D01*
X182551423Y-83599818D02*
X182360947Y-82885532D01*
X182360947Y-82885532D02*
X182170471Y-83599818D01*
X182170471Y-83599818D02*
X181932376Y-82599818D01*
X181027614Y-83599818D02*
X181599042Y-83599818D01*
X181313328Y-83599818D02*
X181313328Y-82599818D01*
X181313328Y-82599818D02*
X181408566Y-82742675D01*
X181408566Y-82742675D02*
X181503804Y-82837913D01*
X181503804Y-82837913D02*
X181599042Y-82885532D01*
X180408566Y-82599818D02*
X180313328Y-82599818D01*
X180313328Y-82599818D02*
X180218090Y-82647437D01*
X180218090Y-82647437D02*
X180170471Y-82695056D01*
X180170471Y-82695056D02*
X180122852Y-82790294D01*
X180122852Y-82790294D02*
X180075233Y-82980770D01*
X180075233Y-82980770D02*
X180075233Y-83218865D01*
X180075233Y-83218865D02*
X180122852Y-83409341D01*
X180122852Y-83409341D02*
X180170471Y-83504579D01*
X180170471Y-83504579D02*
X180218090Y-83552199D01*
X180218090Y-83552199D02*
X180313328Y-83599818D01*
X180313328Y-83599818D02*
X180408566Y-83599818D01*
X180408566Y-83599818D02*
X180503804Y-83552199D01*
X180503804Y-83552199D02*
X180551423Y-83504579D01*
X180551423Y-83504579D02*
X180599042Y-83409341D01*
X180599042Y-83409341D02*
X180646661Y-83218865D01*
X180646661Y-83218865D02*
X180646661Y-82980770D01*
X180646661Y-82980770D02*
X180599042Y-82790294D01*
X180599042Y-82790294D02*
X180551423Y-82695056D01*
X180551423Y-82695056D02*
X180503804Y-82647437D01*
X180503804Y-82647437D02*
X180408566Y-82599818D01*
X144934652Y-69942199D02*
X144791795Y-69989818D01*
X144791795Y-69989818D02*
X144553700Y-69989818D01*
X144553700Y-69989818D02*
X144458462Y-69942199D01*
X144458462Y-69942199D02*
X144410843Y-69894579D01*
X144410843Y-69894579D02*
X144363224Y-69799341D01*
X144363224Y-69799341D02*
X144363224Y-69704103D01*
X144363224Y-69704103D02*
X144410843Y-69608865D01*
X144410843Y-69608865D02*
X144458462Y-69561246D01*
X144458462Y-69561246D02*
X144553700Y-69513627D01*
X144553700Y-69513627D02*
X144744176Y-69466008D01*
X144744176Y-69466008D02*
X144839414Y-69418389D01*
X144839414Y-69418389D02*
X144887033Y-69370770D01*
X144887033Y-69370770D02*
X144934652Y-69275532D01*
X144934652Y-69275532D02*
X144934652Y-69180294D01*
X144934652Y-69180294D02*
X144887033Y-69085056D01*
X144887033Y-69085056D02*
X144839414Y-69037437D01*
X144839414Y-69037437D02*
X144744176Y-68989818D01*
X144744176Y-68989818D02*
X144506081Y-68989818D01*
X144506081Y-68989818D02*
X144363224Y-69037437D01*
X144029890Y-68989818D02*
X143791795Y-69989818D01*
X143791795Y-69989818D02*
X143601319Y-69275532D01*
X143601319Y-69275532D02*
X143410843Y-69989818D01*
X143410843Y-69989818D02*
X143172748Y-68989818D01*
X142363224Y-68989818D02*
X142553700Y-68989818D01*
X142553700Y-68989818D02*
X142648938Y-69037437D01*
X142648938Y-69037437D02*
X142696557Y-69085056D01*
X142696557Y-69085056D02*
X142791795Y-69227913D01*
X142791795Y-69227913D02*
X142839414Y-69418389D01*
X142839414Y-69418389D02*
X142839414Y-69799341D01*
X142839414Y-69799341D02*
X142791795Y-69894579D01*
X142791795Y-69894579D02*
X142744176Y-69942199D01*
X142744176Y-69942199D02*
X142648938Y-69989818D01*
X142648938Y-69989818D02*
X142458462Y-69989818D01*
X142458462Y-69989818D02*
X142363224Y-69942199D01*
X142363224Y-69942199D02*
X142315605Y-69894579D01*
X142315605Y-69894579D02*
X142267986Y-69799341D01*
X142267986Y-69799341D02*
X142267986Y-69561246D01*
X142267986Y-69561246D02*
X142315605Y-69466008D01*
X142315605Y-69466008D02*
X142363224Y-69418389D01*
X142363224Y-69418389D02*
X142458462Y-69370770D01*
X142458462Y-69370770D02*
X142648938Y-69370770D01*
X142648938Y-69370770D02*
X142744176Y-69418389D01*
X142744176Y-69418389D02*
X142791795Y-69466008D01*
X142791795Y-69466008D02*
X142839414Y-69561246D01*
D10*
X195214017Y-96916109D02*
X195214017Y-96416109D01*
X195214017Y-96416109D02*
X195094969Y-96416109D01*
X195094969Y-96416109D02*
X195023541Y-96439919D01*
X195023541Y-96439919D02*
X194975922Y-96487538D01*
X194975922Y-96487538D02*
X194952112Y-96535157D01*
X194952112Y-96535157D02*
X194928303Y-96630395D01*
X194928303Y-96630395D02*
X194928303Y-96701823D01*
X194928303Y-96701823D02*
X194952112Y-96797061D01*
X194952112Y-96797061D02*
X194975922Y-96844680D01*
X194975922Y-96844680D02*
X195023541Y-96892300D01*
X195023541Y-96892300D02*
X195094969Y-96916109D01*
X195094969Y-96916109D02*
X195214017Y-96916109D01*
X194452112Y-96916109D02*
X194737826Y-96916109D01*
X194594969Y-96916109D02*
X194594969Y-96416109D01*
X194594969Y-96416109D02*
X194642588Y-96487538D01*
X194642588Y-96487538D02*
X194690207Y-96535157D01*
X194690207Y-96535157D02*
X194737826Y-96558966D01*
X193999732Y-96416109D02*
X194237827Y-96416109D01*
X194237827Y-96416109D02*
X194261636Y-96654204D01*
X194261636Y-96654204D02*
X194237827Y-96630395D01*
X194237827Y-96630395D02*
X194190208Y-96606585D01*
X194190208Y-96606585D02*
X194071160Y-96606585D01*
X194071160Y-96606585D02*
X194023541Y-96630395D01*
X194023541Y-96630395D02*
X193999732Y-96654204D01*
X193999732Y-96654204D02*
X193975922Y-96701823D01*
X193975922Y-96701823D02*
X193975922Y-96820871D01*
X193975922Y-96820871D02*
X193999732Y-96868490D01*
X193999732Y-96868490D02*
X194023541Y-96892300D01*
X194023541Y-96892300D02*
X194071160Y-96916109D01*
X194071160Y-96916109D02*
X194190208Y-96916109D01*
X194190208Y-96916109D02*
X194237827Y-96892300D01*
X194237827Y-96892300D02*
X194261636Y-96868490D01*
X267291166Y-131836496D02*
X267462176Y-131366650D01*
X267462176Y-131366650D02*
X267350308Y-131325933D01*
X267350308Y-131325933D02*
X267275043Y-131323877D01*
X267275043Y-131323877D02*
X267214009Y-131352337D01*
X267214009Y-131352337D02*
X267175349Y-131388941D01*
X267175349Y-131388941D02*
X267120402Y-131470292D01*
X267120402Y-131470292D02*
X267095972Y-131537413D01*
X267095972Y-131537413D02*
X267085772Y-131635051D01*
X267085772Y-131635051D02*
X267091859Y-131687942D01*
X267091859Y-131687942D02*
X267120320Y-131748976D01*
X267120320Y-131748976D02*
X267179298Y-131795779D01*
X267179298Y-131795779D02*
X267291166Y-131836496D01*
X266575209Y-131575909D02*
X266843693Y-131673629D01*
X266709451Y-131624769D02*
X266880461Y-131154923D01*
X266880461Y-131154923D02*
X266900779Y-131238330D01*
X266900779Y-131238330D02*
X266929239Y-131299364D01*
X266929239Y-131299364D02*
X266965843Y-131338025D01*
X266351474Y-131494476D02*
X266261979Y-131461903D01*
X266261979Y-131461903D02*
X266225375Y-131423242D01*
X266225375Y-131423242D02*
X266211145Y-131392725D01*
X266211145Y-131392725D02*
X266190828Y-131309318D01*
X266190828Y-131309318D02*
X266201027Y-131211680D01*
X266201027Y-131211680D02*
X266266174Y-131032691D01*
X266266174Y-131032691D02*
X266304834Y-130996087D01*
X266304834Y-130996087D02*
X266335351Y-130981857D01*
X266335351Y-130981857D02*
X266388242Y-130975770D01*
X266388242Y-130975770D02*
X266477736Y-131008343D01*
X266477736Y-131008343D02*
X266514340Y-131047003D01*
X266514340Y-131047003D02*
X266528571Y-131077520D01*
X266528571Y-131077520D02*
X266534658Y-131130411D01*
X266534658Y-131130411D02*
X266493941Y-131242279D01*
X266493941Y-131242279D02*
X266455281Y-131278883D01*
X266455281Y-131278883D02*
X266424764Y-131293113D01*
X266424764Y-131293113D02*
X266371873Y-131299200D01*
X266371873Y-131299200D02*
X266282378Y-131266627D01*
X266282378Y-131266627D02*
X266245774Y-131227966D01*
X266245774Y-131227966D02*
X266231544Y-131197450D01*
X266231544Y-131197450D02*
X266225457Y-131144559D01*
X233362485Y-82946109D02*
X233362485Y-82446109D01*
X233362485Y-82446109D02*
X233243437Y-82446109D01*
X233243437Y-82446109D02*
X233172009Y-82469919D01*
X233172009Y-82469919D02*
X233124390Y-82517538D01*
X233124390Y-82517538D02*
X233100580Y-82565157D01*
X233100580Y-82565157D02*
X233076771Y-82660395D01*
X233076771Y-82660395D02*
X233076771Y-82731823D01*
X233076771Y-82731823D02*
X233100580Y-82827061D01*
X233100580Y-82827061D02*
X233124390Y-82874680D01*
X233124390Y-82874680D02*
X233172009Y-82922300D01*
X233172009Y-82922300D02*
X233243437Y-82946109D01*
X233243437Y-82946109D02*
X233362485Y-82946109D01*
X232910104Y-82446109D02*
X232576771Y-82446109D01*
X232576771Y-82446109D02*
X232791056Y-82946109D01*
X159064017Y-106526109D02*
X159064017Y-106026109D01*
X159064017Y-106026109D02*
X158944969Y-106026109D01*
X158944969Y-106026109D02*
X158873541Y-106049919D01*
X158873541Y-106049919D02*
X158825922Y-106097538D01*
X158825922Y-106097538D02*
X158802112Y-106145157D01*
X158802112Y-106145157D02*
X158778303Y-106240395D01*
X158778303Y-106240395D02*
X158778303Y-106311823D01*
X158778303Y-106311823D02*
X158802112Y-106407061D01*
X158802112Y-106407061D02*
X158825922Y-106454680D01*
X158825922Y-106454680D02*
X158873541Y-106502300D01*
X158873541Y-106502300D02*
X158944969Y-106526109D01*
X158944969Y-106526109D02*
X159064017Y-106526109D01*
X158302112Y-106526109D02*
X158587826Y-106526109D01*
X158444969Y-106526109D02*
X158444969Y-106026109D01*
X158444969Y-106026109D02*
X158492588Y-106097538D01*
X158492588Y-106097538D02*
X158540207Y-106145157D01*
X158540207Y-106145157D02*
X158587826Y-106168966D01*
X158135446Y-106026109D02*
X157802113Y-106026109D01*
X157802113Y-106026109D02*
X158016398Y-106526109D01*
X137714017Y-88286109D02*
X137714017Y-87786109D01*
X137714017Y-87786109D02*
X137594969Y-87786109D01*
X137594969Y-87786109D02*
X137523541Y-87809919D01*
X137523541Y-87809919D02*
X137475922Y-87857538D01*
X137475922Y-87857538D02*
X137452112Y-87905157D01*
X137452112Y-87905157D02*
X137428303Y-88000395D01*
X137428303Y-88000395D02*
X137428303Y-88071823D01*
X137428303Y-88071823D02*
X137452112Y-88167061D01*
X137452112Y-88167061D02*
X137475922Y-88214680D01*
X137475922Y-88214680D02*
X137523541Y-88262300D01*
X137523541Y-88262300D02*
X137594969Y-88286109D01*
X137594969Y-88286109D02*
X137714017Y-88286109D01*
X136952112Y-88286109D02*
X137237826Y-88286109D01*
X137094969Y-88286109D02*
X137094969Y-87786109D01*
X137094969Y-87786109D02*
X137142588Y-87857538D01*
X137142588Y-87857538D02*
X137190207Y-87905157D01*
X137190207Y-87905157D02*
X137237826Y-87928966D01*
X136761636Y-87833728D02*
X136737827Y-87809919D01*
X136737827Y-87809919D02*
X136690208Y-87786109D01*
X136690208Y-87786109D02*
X136571160Y-87786109D01*
X136571160Y-87786109D02*
X136523541Y-87809919D01*
X136523541Y-87809919D02*
X136499732Y-87833728D01*
X136499732Y-87833728D02*
X136475922Y-87881347D01*
X136475922Y-87881347D02*
X136475922Y-87928966D01*
X136475922Y-87928966D02*
X136499732Y-88000395D01*
X136499732Y-88000395D02*
X136785446Y-88286109D01*
X136785446Y-88286109D02*
X136475922Y-88286109D01*
D11*
X164118089Y-69942199D02*
X163975232Y-69989818D01*
X163975232Y-69989818D02*
X163737137Y-69989818D01*
X163737137Y-69989818D02*
X163641899Y-69942199D01*
X163641899Y-69942199D02*
X163594280Y-69894579D01*
X163594280Y-69894579D02*
X163546661Y-69799341D01*
X163546661Y-69799341D02*
X163546661Y-69704103D01*
X163546661Y-69704103D02*
X163594280Y-69608865D01*
X163594280Y-69608865D02*
X163641899Y-69561246D01*
X163641899Y-69561246D02*
X163737137Y-69513627D01*
X163737137Y-69513627D02*
X163927613Y-69466008D01*
X163927613Y-69466008D02*
X164022851Y-69418389D01*
X164022851Y-69418389D02*
X164070470Y-69370770D01*
X164070470Y-69370770D02*
X164118089Y-69275532D01*
X164118089Y-69275532D02*
X164118089Y-69180294D01*
X164118089Y-69180294D02*
X164070470Y-69085056D01*
X164070470Y-69085056D02*
X164022851Y-69037437D01*
X164022851Y-69037437D02*
X163927613Y-68989818D01*
X163927613Y-68989818D02*
X163689518Y-68989818D01*
X163689518Y-68989818D02*
X163546661Y-69037437D01*
X163213327Y-68989818D02*
X162975232Y-69989818D01*
X162975232Y-69989818D02*
X162784756Y-69275532D01*
X162784756Y-69275532D02*
X162594280Y-69989818D01*
X162594280Y-69989818D02*
X162356185Y-68989818D01*
X161499042Y-68989818D02*
X161975232Y-68989818D01*
X161975232Y-68989818D02*
X162022851Y-69466008D01*
X162022851Y-69466008D02*
X161975232Y-69418389D01*
X161975232Y-69418389D02*
X161879994Y-69370770D01*
X161879994Y-69370770D02*
X161641899Y-69370770D01*
X161641899Y-69370770D02*
X161546661Y-69418389D01*
X161546661Y-69418389D02*
X161499042Y-69466008D01*
X161499042Y-69466008D02*
X161451423Y-69561246D01*
X161451423Y-69561246D02*
X161451423Y-69799341D01*
X161451423Y-69799341D02*
X161499042Y-69894579D01*
X161499042Y-69894579D02*
X161546661Y-69942199D01*
X161546661Y-69942199D02*
X161641899Y-69989818D01*
X161641899Y-69989818D02*
X161879994Y-69989818D01*
X161879994Y-69989818D02*
X161975232Y-69942199D01*
X161975232Y-69942199D02*
X162022851Y-69894579D01*
D10*
X156974017Y-89896109D02*
X156974017Y-89396109D01*
X156974017Y-89396109D02*
X156854969Y-89396109D01*
X156854969Y-89396109D02*
X156783541Y-89419919D01*
X156783541Y-89419919D02*
X156735922Y-89467538D01*
X156735922Y-89467538D02*
X156712112Y-89515157D01*
X156712112Y-89515157D02*
X156688303Y-89610395D01*
X156688303Y-89610395D02*
X156688303Y-89681823D01*
X156688303Y-89681823D02*
X156712112Y-89777061D01*
X156712112Y-89777061D02*
X156735922Y-89824680D01*
X156735922Y-89824680D02*
X156783541Y-89872300D01*
X156783541Y-89872300D02*
X156854969Y-89896109D01*
X156854969Y-89896109D02*
X156974017Y-89896109D01*
X156212112Y-89896109D02*
X156497826Y-89896109D01*
X156354969Y-89896109D02*
X156354969Y-89396109D01*
X156354969Y-89396109D02*
X156402588Y-89467538D01*
X156402588Y-89467538D02*
X156450207Y-89515157D01*
X156450207Y-89515157D02*
X156497826Y-89538966D01*
X155735922Y-89896109D02*
X156021636Y-89896109D01*
X155878779Y-89896109D02*
X155878779Y-89396109D01*
X155878779Y-89396109D02*
X155926398Y-89467538D01*
X155926398Y-89467538D02*
X155974017Y-89515157D01*
X155974017Y-89515157D02*
X156021636Y-89538966D01*
X176014017Y-101816109D02*
X176014017Y-101316109D01*
X176014017Y-101316109D02*
X175894969Y-101316109D01*
X175894969Y-101316109D02*
X175823541Y-101339919D01*
X175823541Y-101339919D02*
X175775922Y-101387538D01*
X175775922Y-101387538D02*
X175752112Y-101435157D01*
X175752112Y-101435157D02*
X175728303Y-101530395D01*
X175728303Y-101530395D02*
X175728303Y-101601823D01*
X175728303Y-101601823D02*
X175752112Y-101697061D01*
X175752112Y-101697061D02*
X175775922Y-101744680D01*
X175775922Y-101744680D02*
X175823541Y-101792300D01*
X175823541Y-101792300D02*
X175894969Y-101816109D01*
X175894969Y-101816109D02*
X176014017Y-101816109D01*
X175252112Y-101816109D02*
X175537826Y-101816109D01*
X175394969Y-101816109D02*
X175394969Y-101316109D01*
X175394969Y-101316109D02*
X175442588Y-101387538D01*
X175442588Y-101387538D02*
X175490207Y-101435157D01*
X175490207Y-101435157D02*
X175537826Y-101458966D01*
X174823541Y-101316109D02*
X174918779Y-101316109D01*
X174918779Y-101316109D02*
X174966398Y-101339919D01*
X174966398Y-101339919D02*
X174990208Y-101363728D01*
X174990208Y-101363728D02*
X175037827Y-101435157D01*
X175037827Y-101435157D02*
X175061636Y-101530395D01*
X175061636Y-101530395D02*
X175061636Y-101720871D01*
X175061636Y-101720871D02*
X175037827Y-101768490D01*
X175037827Y-101768490D02*
X175014017Y-101792300D01*
X175014017Y-101792300D02*
X174966398Y-101816109D01*
X174966398Y-101816109D02*
X174871160Y-101816109D01*
X174871160Y-101816109D02*
X174823541Y-101792300D01*
X174823541Y-101792300D02*
X174799732Y-101768490D01*
X174799732Y-101768490D02*
X174775922Y-101720871D01*
X174775922Y-101720871D02*
X174775922Y-101601823D01*
X174775922Y-101601823D02*
X174799732Y-101554204D01*
X174799732Y-101554204D02*
X174823541Y-101530395D01*
X174823541Y-101530395D02*
X174871160Y-101506585D01*
X174871160Y-101506585D02*
X174966398Y-101506585D01*
X174966398Y-101506585D02*
X175014017Y-101530395D01*
X175014017Y-101530395D02*
X175037827Y-101554204D01*
X175037827Y-101554204D02*
X175061636Y-101601823D01*
D11*
X202418089Y-78557199D02*
X202275232Y-78604818D01*
X202275232Y-78604818D02*
X202037137Y-78604818D01*
X202037137Y-78604818D02*
X201941899Y-78557199D01*
X201941899Y-78557199D02*
X201894280Y-78509579D01*
X201894280Y-78509579D02*
X201846661Y-78414341D01*
X201846661Y-78414341D02*
X201846661Y-78319103D01*
X201846661Y-78319103D02*
X201894280Y-78223865D01*
X201894280Y-78223865D02*
X201941899Y-78176246D01*
X201941899Y-78176246D02*
X202037137Y-78128627D01*
X202037137Y-78128627D02*
X202227613Y-78081008D01*
X202227613Y-78081008D02*
X202322851Y-78033389D01*
X202322851Y-78033389D02*
X202370470Y-77985770D01*
X202370470Y-77985770D02*
X202418089Y-77890532D01*
X202418089Y-77890532D02*
X202418089Y-77795294D01*
X202418089Y-77795294D02*
X202370470Y-77700056D01*
X202370470Y-77700056D02*
X202322851Y-77652437D01*
X202322851Y-77652437D02*
X202227613Y-77604818D01*
X202227613Y-77604818D02*
X201989518Y-77604818D01*
X201989518Y-77604818D02*
X201846661Y-77652437D01*
X201513327Y-77604818D02*
X201275232Y-78604818D01*
X201275232Y-78604818D02*
X201084756Y-77890532D01*
X201084756Y-77890532D02*
X200894280Y-78604818D01*
X200894280Y-78604818D02*
X200656185Y-77604818D01*
X200227613Y-78604818D02*
X200037137Y-78604818D01*
X200037137Y-78604818D02*
X199941899Y-78557199D01*
X199941899Y-78557199D02*
X199894280Y-78509579D01*
X199894280Y-78509579D02*
X199799042Y-78366722D01*
X199799042Y-78366722D02*
X199751423Y-78176246D01*
X199751423Y-78176246D02*
X199751423Y-77795294D01*
X199751423Y-77795294D02*
X199799042Y-77700056D01*
X199799042Y-77700056D02*
X199846661Y-77652437D01*
X199846661Y-77652437D02*
X199941899Y-77604818D01*
X199941899Y-77604818D02*
X200132375Y-77604818D01*
X200132375Y-77604818D02*
X200227613Y-77652437D01*
X200227613Y-77652437D02*
X200275232Y-77700056D01*
X200275232Y-77700056D02*
X200322851Y-77795294D01*
X200322851Y-77795294D02*
X200322851Y-78033389D01*
X200322851Y-78033389D02*
X200275232Y-78128627D01*
X200275232Y-78128627D02*
X200227613Y-78176246D01*
X200227613Y-78176246D02*
X200132375Y-78223865D01*
X200132375Y-78223865D02*
X199941899Y-78223865D01*
X199941899Y-78223865D02*
X199846661Y-78176246D01*
X199846661Y-78176246D02*
X199799042Y-78128627D01*
X199799042Y-78128627D02*
X199751423Y-78033389D01*
X183218089Y-64357199D02*
X183075232Y-64404818D01*
X183075232Y-64404818D02*
X182837137Y-64404818D01*
X182837137Y-64404818D02*
X182741899Y-64357199D01*
X182741899Y-64357199D02*
X182694280Y-64309579D01*
X182694280Y-64309579D02*
X182646661Y-64214341D01*
X182646661Y-64214341D02*
X182646661Y-64119103D01*
X182646661Y-64119103D02*
X182694280Y-64023865D01*
X182694280Y-64023865D02*
X182741899Y-63976246D01*
X182741899Y-63976246D02*
X182837137Y-63928627D01*
X182837137Y-63928627D02*
X183027613Y-63881008D01*
X183027613Y-63881008D02*
X183122851Y-63833389D01*
X183122851Y-63833389D02*
X183170470Y-63785770D01*
X183170470Y-63785770D02*
X183218089Y-63690532D01*
X183218089Y-63690532D02*
X183218089Y-63595294D01*
X183218089Y-63595294D02*
X183170470Y-63500056D01*
X183170470Y-63500056D02*
X183122851Y-63452437D01*
X183122851Y-63452437D02*
X183027613Y-63404818D01*
X183027613Y-63404818D02*
X182789518Y-63404818D01*
X182789518Y-63404818D02*
X182646661Y-63452437D01*
X182313327Y-63404818D02*
X182075232Y-64404818D01*
X182075232Y-64404818D02*
X181884756Y-63690532D01*
X181884756Y-63690532D02*
X181694280Y-64404818D01*
X181694280Y-64404818D02*
X181456185Y-63404818D01*
X180646661Y-63738151D02*
X180646661Y-64404818D01*
X180884756Y-63357199D02*
X181122851Y-64071484D01*
X181122851Y-64071484D02*
X180503804Y-64071484D01*
X145410843Y-108327199D02*
X145267986Y-108374818D01*
X145267986Y-108374818D02*
X145029891Y-108374818D01*
X145029891Y-108374818D02*
X144934653Y-108327199D01*
X144934653Y-108327199D02*
X144887034Y-108279579D01*
X144887034Y-108279579D02*
X144839415Y-108184341D01*
X144839415Y-108184341D02*
X144839415Y-108089103D01*
X144839415Y-108089103D02*
X144887034Y-107993865D01*
X144887034Y-107993865D02*
X144934653Y-107946246D01*
X144934653Y-107946246D02*
X145029891Y-107898627D01*
X145029891Y-107898627D02*
X145220367Y-107851008D01*
X145220367Y-107851008D02*
X145315605Y-107803389D01*
X145315605Y-107803389D02*
X145363224Y-107755770D01*
X145363224Y-107755770D02*
X145410843Y-107660532D01*
X145410843Y-107660532D02*
X145410843Y-107565294D01*
X145410843Y-107565294D02*
X145363224Y-107470056D01*
X145363224Y-107470056D02*
X145315605Y-107422437D01*
X145315605Y-107422437D02*
X145220367Y-107374818D01*
X145220367Y-107374818D02*
X144982272Y-107374818D01*
X144982272Y-107374818D02*
X144839415Y-107422437D01*
X144506081Y-107374818D02*
X144267986Y-108374818D01*
X144267986Y-108374818D02*
X144077510Y-107660532D01*
X144077510Y-107660532D02*
X143887034Y-108374818D01*
X143887034Y-108374818D02*
X143648939Y-107374818D01*
X142744177Y-108374818D02*
X143315605Y-108374818D01*
X143029891Y-108374818D02*
X143029891Y-107374818D01*
X143029891Y-107374818D02*
X143125129Y-107517675D01*
X143125129Y-107517675D02*
X143220367Y-107612913D01*
X143220367Y-107612913D02*
X143315605Y-107660532D01*
X142172748Y-107803389D02*
X142267986Y-107755770D01*
X142267986Y-107755770D02*
X142315605Y-107708151D01*
X142315605Y-107708151D02*
X142363224Y-107612913D01*
X142363224Y-107612913D02*
X142363224Y-107565294D01*
X142363224Y-107565294D02*
X142315605Y-107470056D01*
X142315605Y-107470056D02*
X142267986Y-107422437D01*
X142267986Y-107422437D02*
X142172748Y-107374818D01*
X142172748Y-107374818D02*
X141982272Y-107374818D01*
X141982272Y-107374818D02*
X141887034Y-107422437D01*
X141887034Y-107422437D02*
X141839415Y-107470056D01*
X141839415Y-107470056D02*
X141791796Y-107565294D01*
X141791796Y-107565294D02*
X141791796Y-107612913D01*
X141791796Y-107612913D02*
X141839415Y-107708151D01*
X141839415Y-107708151D02*
X141887034Y-107755770D01*
X141887034Y-107755770D02*
X141982272Y-107803389D01*
X141982272Y-107803389D02*
X142172748Y-107803389D01*
X142172748Y-107803389D02*
X142267986Y-107851008D01*
X142267986Y-107851008D02*
X142315605Y-107898627D01*
X142315605Y-107898627D02*
X142363224Y-107993865D01*
X142363224Y-107993865D02*
X142363224Y-108184341D01*
X142363224Y-108184341D02*
X142315605Y-108279579D01*
X142315605Y-108279579D02*
X142267986Y-108327199D01*
X142267986Y-108327199D02*
X142172748Y-108374818D01*
X142172748Y-108374818D02*
X141982272Y-108374818D01*
X141982272Y-108374818D02*
X141887034Y-108327199D01*
X141887034Y-108327199D02*
X141839415Y-108279579D01*
X141839415Y-108279579D02*
X141791796Y-108184341D01*
X141791796Y-108184341D02*
X141791796Y-107993865D01*
X141791796Y-107993865D02*
X141839415Y-107898627D01*
X141839415Y-107898627D02*
X141887034Y-107851008D01*
X141887034Y-107851008D02*
X141982272Y-107803389D01*
D10*
X156844017Y-126526109D02*
X156844017Y-126026109D01*
X156844017Y-126026109D02*
X156724969Y-126026109D01*
X156724969Y-126026109D02*
X156653541Y-126049919D01*
X156653541Y-126049919D02*
X156605922Y-126097538D01*
X156605922Y-126097538D02*
X156582112Y-126145157D01*
X156582112Y-126145157D02*
X156558303Y-126240395D01*
X156558303Y-126240395D02*
X156558303Y-126311823D01*
X156558303Y-126311823D02*
X156582112Y-126407061D01*
X156582112Y-126407061D02*
X156605922Y-126454680D01*
X156605922Y-126454680D02*
X156653541Y-126502300D01*
X156653541Y-126502300D02*
X156724969Y-126526109D01*
X156724969Y-126526109D02*
X156844017Y-126526109D01*
X156367826Y-126073728D02*
X156344017Y-126049919D01*
X156344017Y-126049919D02*
X156296398Y-126026109D01*
X156296398Y-126026109D02*
X156177350Y-126026109D01*
X156177350Y-126026109D02*
X156129731Y-126049919D01*
X156129731Y-126049919D02*
X156105922Y-126073728D01*
X156105922Y-126073728D02*
X156082112Y-126121347D01*
X156082112Y-126121347D02*
X156082112Y-126168966D01*
X156082112Y-126168966D02*
X156105922Y-126240395D01*
X156105922Y-126240395D02*
X156391636Y-126526109D01*
X156391636Y-126526109D02*
X156082112Y-126526109D01*
X155915446Y-126026109D02*
X155605922Y-126026109D01*
X155605922Y-126026109D02*
X155772589Y-126216585D01*
X155772589Y-126216585D02*
X155701160Y-126216585D01*
X155701160Y-126216585D02*
X155653541Y-126240395D01*
X155653541Y-126240395D02*
X155629732Y-126264204D01*
X155629732Y-126264204D02*
X155605922Y-126311823D01*
X155605922Y-126311823D02*
X155605922Y-126430871D01*
X155605922Y-126430871D02*
X155629732Y-126478490D01*
X155629732Y-126478490D02*
X155653541Y-126502300D01*
X155653541Y-126502300D02*
X155701160Y-126526109D01*
X155701160Y-126526109D02*
X155844017Y-126526109D01*
X155844017Y-126526109D02*
X155891636Y-126502300D01*
X155891636Y-126502300D02*
X155915446Y-126478490D01*
X233614017Y-102596109D02*
X233614017Y-102096109D01*
X233614017Y-102096109D02*
X233494969Y-102096109D01*
X233494969Y-102096109D02*
X233423541Y-102119919D01*
X233423541Y-102119919D02*
X233375922Y-102167538D01*
X233375922Y-102167538D02*
X233352112Y-102215157D01*
X233352112Y-102215157D02*
X233328303Y-102310395D01*
X233328303Y-102310395D02*
X233328303Y-102381823D01*
X233328303Y-102381823D02*
X233352112Y-102477061D01*
X233352112Y-102477061D02*
X233375922Y-102524680D01*
X233375922Y-102524680D02*
X233423541Y-102572300D01*
X233423541Y-102572300D02*
X233494969Y-102596109D01*
X233494969Y-102596109D02*
X233614017Y-102596109D01*
X232852112Y-102596109D02*
X233137826Y-102596109D01*
X232994969Y-102596109D02*
X232994969Y-102096109D01*
X232994969Y-102096109D02*
X233042588Y-102167538D01*
X233042588Y-102167538D02*
X233090207Y-102215157D01*
X233090207Y-102215157D02*
X233137826Y-102238966D01*
X232685446Y-102096109D02*
X232375922Y-102096109D01*
X232375922Y-102096109D02*
X232542589Y-102286585D01*
X232542589Y-102286585D02*
X232471160Y-102286585D01*
X232471160Y-102286585D02*
X232423541Y-102310395D01*
X232423541Y-102310395D02*
X232399732Y-102334204D01*
X232399732Y-102334204D02*
X232375922Y-102381823D01*
X232375922Y-102381823D02*
X232375922Y-102500871D01*
X232375922Y-102500871D02*
X232399732Y-102548490D01*
X232399732Y-102548490D02*
X232423541Y-102572300D01*
X232423541Y-102572300D02*
X232471160Y-102596109D01*
X232471160Y-102596109D02*
X232614017Y-102596109D01*
X232614017Y-102596109D02*
X232661636Y-102572300D01*
X232661636Y-102572300D02*
X232685446Y-102548490D01*
X156655922Y-69086109D02*
X156655922Y-68586109D01*
X156655922Y-68586109D02*
X156536874Y-68586109D01*
X156536874Y-68586109D02*
X156465446Y-68609919D01*
X156465446Y-68609919D02*
X156417827Y-68657538D01*
X156417827Y-68657538D02*
X156394017Y-68705157D01*
X156394017Y-68705157D02*
X156370208Y-68800395D01*
X156370208Y-68800395D02*
X156370208Y-68871823D01*
X156370208Y-68871823D02*
X156394017Y-68967061D01*
X156394017Y-68967061D02*
X156417827Y-69014680D01*
X156417827Y-69014680D02*
X156465446Y-69062300D01*
X156465446Y-69062300D02*
X156536874Y-69086109D01*
X156536874Y-69086109D02*
X156655922Y-69086109D01*
X155917827Y-68586109D02*
X156155922Y-68586109D01*
X156155922Y-68586109D02*
X156179731Y-68824204D01*
X156179731Y-68824204D02*
X156155922Y-68800395D01*
X156155922Y-68800395D02*
X156108303Y-68776585D01*
X156108303Y-68776585D02*
X155989255Y-68776585D01*
X155989255Y-68776585D02*
X155941636Y-68800395D01*
X155941636Y-68800395D02*
X155917827Y-68824204D01*
X155917827Y-68824204D02*
X155894017Y-68871823D01*
X155894017Y-68871823D02*
X155894017Y-68990871D01*
X155894017Y-68990871D02*
X155917827Y-69038490D01*
X155917827Y-69038490D02*
X155941636Y-69062300D01*
X155941636Y-69062300D02*
X155989255Y-69086109D01*
X155989255Y-69086109D02*
X156108303Y-69086109D01*
X156108303Y-69086109D02*
X156155922Y-69062300D01*
X156155922Y-69062300D02*
X156179731Y-69038490D01*
D11*
X164594280Y-127377199D02*
X164451423Y-127424818D01*
X164451423Y-127424818D02*
X164213328Y-127424818D01*
X164213328Y-127424818D02*
X164118090Y-127377199D01*
X164118090Y-127377199D02*
X164070471Y-127329579D01*
X164070471Y-127329579D02*
X164022852Y-127234341D01*
X164022852Y-127234341D02*
X164022852Y-127139103D01*
X164022852Y-127139103D02*
X164070471Y-127043865D01*
X164070471Y-127043865D02*
X164118090Y-126996246D01*
X164118090Y-126996246D02*
X164213328Y-126948627D01*
X164213328Y-126948627D02*
X164403804Y-126901008D01*
X164403804Y-126901008D02*
X164499042Y-126853389D01*
X164499042Y-126853389D02*
X164546661Y-126805770D01*
X164546661Y-126805770D02*
X164594280Y-126710532D01*
X164594280Y-126710532D02*
X164594280Y-126615294D01*
X164594280Y-126615294D02*
X164546661Y-126520056D01*
X164546661Y-126520056D02*
X164499042Y-126472437D01*
X164499042Y-126472437D02*
X164403804Y-126424818D01*
X164403804Y-126424818D02*
X164165709Y-126424818D01*
X164165709Y-126424818D02*
X164022852Y-126472437D01*
X163689518Y-126424818D02*
X163451423Y-127424818D01*
X163451423Y-127424818D02*
X163260947Y-126710532D01*
X163260947Y-126710532D02*
X163070471Y-127424818D01*
X163070471Y-127424818D02*
X162832376Y-126424818D01*
X162499042Y-126520056D02*
X162451423Y-126472437D01*
X162451423Y-126472437D02*
X162356185Y-126424818D01*
X162356185Y-126424818D02*
X162118090Y-126424818D01*
X162118090Y-126424818D02*
X162022852Y-126472437D01*
X162022852Y-126472437D02*
X161975233Y-126520056D01*
X161975233Y-126520056D02*
X161927614Y-126615294D01*
X161927614Y-126615294D02*
X161927614Y-126710532D01*
X161927614Y-126710532D02*
X161975233Y-126853389D01*
X161975233Y-126853389D02*
X162546661Y-127424818D01*
X162546661Y-127424818D02*
X161927614Y-127424818D01*
X161594280Y-126424818D02*
X160975233Y-126424818D01*
X160975233Y-126424818D02*
X161308566Y-126805770D01*
X161308566Y-126805770D02*
X161165709Y-126805770D01*
X161165709Y-126805770D02*
X161070471Y-126853389D01*
X161070471Y-126853389D02*
X161022852Y-126901008D01*
X161022852Y-126901008D02*
X160975233Y-126996246D01*
X160975233Y-126996246D02*
X160975233Y-127234341D01*
X160975233Y-127234341D02*
X161022852Y-127329579D01*
X161022852Y-127329579D02*
X161070471Y-127377199D01*
X161070471Y-127377199D02*
X161165709Y-127424818D01*
X161165709Y-127424818D02*
X161451423Y-127424818D01*
X161451423Y-127424818D02*
X161546661Y-127377199D01*
X161546661Y-127377199D02*
X161594280Y-127329579D01*
X240787464Y-83132199D02*
X240644607Y-83179818D01*
X240644607Y-83179818D02*
X240406512Y-83179818D01*
X240406512Y-83179818D02*
X240311274Y-83132199D01*
X240311274Y-83132199D02*
X240263655Y-83084579D01*
X240263655Y-83084579D02*
X240216036Y-82989341D01*
X240216036Y-82989341D02*
X240216036Y-82894103D01*
X240216036Y-82894103D02*
X240263655Y-82798865D01*
X240263655Y-82798865D02*
X240311274Y-82751246D01*
X240311274Y-82751246D02*
X240406512Y-82703627D01*
X240406512Y-82703627D02*
X240596988Y-82656008D01*
X240596988Y-82656008D02*
X240692226Y-82608389D01*
X240692226Y-82608389D02*
X240739845Y-82560770D01*
X240739845Y-82560770D02*
X240787464Y-82465532D01*
X240787464Y-82465532D02*
X240787464Y-82370294D01*
X240787464Y-82370294D02*
X240739845Y-82275056D01*
X240739845Y-82275056D02*
X240692226Y-82227437D01*
X240692226Y-82227437D02*
X240596988Y-82179818D01*
X240596988Y-82179818D02*
X240358893Y-82179818D01*
X240358893Y-82179818D02*
X240216036Y-82227437D01*
X239882702Y-82179818D02*
X239644607Y-83179818D01*
X239644607Y-83179818D02*
X239454131Y-82465532D01*
X239454131Y-82465532D02*
X239263655Y-83179818D01*
X239263655Y-83179818D02*
X239025560Y-82179818D01*
X238739845Y-82179818D02*
X238073179Y-82179818D01*
X238073179Y-82179818D02*
X238501750Y-83179818D01*
D10*
X175984017Y-82646109D02*
X175984017Y-82146109D01*
X175984017Y-82146109D02*
X175864969Y-82146109D01*
X175864969Y-82146109D02*
X175793541Y-82169919D01*
X175793541Y-82169919D02*
X175745922Y-82217538D01*
X175745922Y-82217538D02*
X175722112Y-82265157D01*
X175722112Y-82265157D02*
X175698303Y-82360395D01*
X175698303Y-82360395D02*
X175698303Y-82431823D01*
X175698303Y-82431823D02*
X175722112Y-82527061D01*
X175722112Y-82527061D02*
X175745922Y-82574680D01*
X175745922Y-82574680D02*
X175793541Y-82622300D01*
X175793541Y-82622300D02*
X175864969Y-82646109D01*
X175864969Y-82646109D02*
X175984017Y-82646109D01*
X175222112Y-82646109D02*
X175507826Y-82646109D01*
X175364969Y-82646109D02*
X175364969Y-82146109D01*
X175364969Y-82146109D02*
X175412588Y-82217538D01*
X175412588Y-82217538D02*
X175460207Y-82265157D01*
X175460207Y-82265157D02*
X175507826Y-82288966D01*
X174912589Y-82146109D02*
X174864970Y-82146109D01*
X174864970Y-82146109D02*
X174817351Y-82169919D01*
X174817351Y-82169919D02*
X174793541Y-82193728D01*
X174793541Y-82193728D02*
X174769732Y-82241347D01*
X174769732Y-82241347D02*
X174745922Y-82336585D01*
X174745922Y-82336585D02*
X174745922Y-82455633D01*
X174745922Y-82455633D02*
X174769732Y-82550871D01*
X174769732Y-82550871D02*
X174793541Y-82598490D01*
X174793541Y-82598490D02*
X174817351Y-82622300D01*
X174817351Y-82622300D02*
X174864970Y-82646109D01*
X174864970Y-82646109D02*
X174912589Y-82646109D01*
X174912589Y-82646109D02*
X174960208Y-82622300D01*
X174960208Y-82622300D02*
X174984017Y-82598490D01*
X174984017Y-82598490D02*
X175007827Y-82550871D01*
X175007827Y-82550871D02*
X175031636Y-82455633D01*
X175031636Y-82455633D02*
X175031636Y-82336585D01*
X175031636Y-82336585D02*
X175007827Y-82241347D01*
X175007827Y-82241347D02*
X174984017Y-82193728D01*
X174984017Y-82193728D02*
X174960208Y-82169919D01*
X174960208Y-82169919D02*
X174912589Y-82146109D01*
D11*
X240787464Y-63957199D02*
X240644607Y-64004818D01*
X240644607Y-64004818D02*
X240406512Y-64004818D01*
X240406512Y-64004818D02*
X240311274Y-63957199D01*
X240311274Y-63957199D02*
X240263655Y-63909579D01*
X240263655Y-63909579D02*
X240216036Y-63814341D01*
X240216036Y-63814341D02*
X240216036Y-63719103D01*
X240216036Y-63719103D02*
X240263655Y-63623865D01*
X240263655Y-63623865D02*
X240311274Y-63576246D01*
X240311274Y-63576246D02*
X240406512Y-63528627D01*
X240406512Y-63528627D02*
X240596988Y-63481008D01*
X240596988Y-63481008D02*
X240692226Y-63433389D01*
X240692226Y-63433389D02*
X240739845Y-63385770D01*
X240739845Y-63385770D02*
X240787464Y-63290532D01*
X240787464Y-63290532D02*
X240787464Y-63195294D01*
X240787464Y-63195294D02*
X240739845Y-63100056D01*
X240739845Y-63100056D02*
X240692226Y-63052437D01*
X240692226Y-63052437D02*
X240596988Y-63004818D01*
X240596988Y-63004818D02*
X240358893Y-63004818D01*
X240358893Y-63004818D02*
X240216036Y-63052437D01*
X239882702Y-63004818D02*
X239644607Y-64004818D01*
X239644607Y-64004818D02*
X239454131Y-63290532D01*
X239454131Y-63290532D02*
X239263655Y-64004818D01*
X239263655Y-64004818D02*
X239025560Y-63004818D01*
X238120798Y-64004818D02*
X238692226Y-64004818D01*
X238406512Y-64004818D02*
X238406512Y-63004818D01*
X238406512Y-63004818D02*
X238501750Y-63147675D01*
X238501750Y-63147675D02*
X238596988Y-63242913D01*
X238596988Y-63242913D02*
X238692226Y-63290532D01*
X164594280Y-89147199D02*
X164451423Y-89194818D01*
X164451423Y-89194818D02*
X164213328Y-89194818D01*
X164213328Y-89194818D02*
X164118090Y-89147199D01*
X164118090Y-89147199D02*
X164070471Y-89099579D01*
X164070471Y-89099579D02*
X164022852Y-89004341D01*
X164022852Y-89004341D02*
X164022852Y-88909103D01*
X164022852Y-88909103D02*
X164070471Y-88813865D01*
X164070471Y-88813865D02*
X164118090Y-88766246D01*
X164118090Y-88766246D02*
X164213328Y-88718627D01*
X164213328Y-88718627D02*
X164403804Y-88671008D01*
X164403804Y-88671008D02*
X164499042Y-88623389D01*
X164499042Y-88623389D02*
X164546661Y-88575770D01*
X164546661Y-88575770D02*
X164594280Y-88480532D01*
X164594280Y-88480532D02*
X164594280Y-88385294D01*
X164594280Y-88385294D02*
X164546661Y-88290056D01*
X164546661Y-88290056D02*
X164499042Y-88242437D01*
X164499042Y-88242437D02*
X164403804Y-88194818D01*
X164403804Y-88194818D02*
X164165709Y-88194818D01*
X164165709Y-88194818D02*
X164022852Y-88242437D01*
X163689518Y-88194818D02*
X163451423Y-89194818D01*
X163451423Y-89194818D02*
X163260947Y-88480532D01*
X163260947Y-88480532D02*
X163070471Y-89194818D01*
X163070471Y-89194818D02*
X162832376Y-88194818D01*
X161927614Y-89194818D02*
X162499042Y-89194818D01*
X162213328Y-89194818D02*
X162213328Y-88194818D01*
X162213328Y-88194818D02*
X162308566Y-88337675D01*
X162308566Y-88337675D02*
X162403804Y-88432913D01*
X162403804Y-88432913D02*
X162499042Y-88480532D01*
X160975233Y-89194818D02*
X161546661Y-89194818D01*
X161260947Y-89194818D02*
X161260947Y-88194818D01*
X161260947Y-88194818D02*
X161356185Y-88337675D01*
X161356185Y-88337675D02*
X161451423Y-88432913D01*
X161451423Y-88432913D02*
X161546661Y-88480532D01*
X202894280Y-97722199D02*
X202751423Y-97769818D01*
X202751423Y-97769818D02*
X202513328Y-97769818D01*
X202513328Y-97769818D02*
X202418090Y-97722199D01*
X202418090Y-97722199D02*
X202370471Y-97674579D01*
X202370471Y-97674579D02*
X202322852Y-97579341D01*
X202322852Y-97579341D02*
X202322852Y-97484103D01*
X202322852Y-97484103D02*
X202370471Y-97388865D01*
X202370471Y-97388865D02*
X202418090Y-97341246D01*
X202418090Y-97341246D02*
X202513328Y-97293627D01*
X202513328Y-97293627D02*
X202703804Y-97246008D01*
X202703804Y-97246008D02*
X202799042Y-97198389D01*
X202799042Y-97198389D02*
X202846661Y-97150770D01*
X202846661Y-97150770D02*
X202894280Y-97055532D01*
X202894280Y-97055532D02*
X202894280Y-96960294D01*
X202894280Y-96960294D02*
X202846661Y-96865056D01*
X202846661Y-96865056D02*
X202799042Y-96817437D01*
X202799042Y-96817437D02*
X202703804Y-96769818D01*
X202703804Y-96769818D02*
X202465709Y-96769818D01*
X202465709Y-96769818D02*
X202322852Y-96817437D01*
X201989518Y-96769818D02*
X201751423Y-97769818D01*
X201751423Y-97769818D02*
X201560947Y-97055532D01*
X201560947Y-97055532D02*
X201370471Y-97769818D01*
X201370471Y-97769818D02*
X201132376Y-96769818D01*
X200227614Y-97769818D02*
X200799042Y-97769818D01*
X200513328Y-97769818D02*
X200513328Y-96769818D01*
X200513328Y-96769818D02*
X200608566Y-96912675D01*
X200608566Y-96912675D02*
X200703804Y-97007913D01*
X200703804Y-97007913D02*
X200799042Y-97055532D01*
X199322852Y-96769818D02*
X199799042Y-96769818D01*
X199799042Y-96769818D02*
X199846661Y-97246008D01*
X199846661Y-97246008D02*
X199799042Y-97198389D01*
X199799042Y-97198389D02*
X199703804Y-97150770D01*
X199703804Y-97150770D02*
X199465709Y-97150770D01*
X199465709Y-97150770D02*
X199370471Y-97198389D01*
X199370471Y-97198389D02*
X199322852Y-97246008D01*
X199322852Y-97246008D02*
X199275233Y-97341246D01*
X199275233Y-97341246D02*
X199275233Y-97579341D01*
X199275233Y-97579341D02*
X199322852Y-97674579D01*
X199322852Y-97674579D02*
X199370471Y-97722199D01*
X199370471Y-97722199D02*
X199465709Y-97769818D01*
X199465709Y-97769818D02*
X199703804Y-97769818D01*
X199703804Y-97769818D02*
X199799042Y-97722199D01*
X199799042Y-97722199D02*
X199846661Y-97674579D01*
X222084280Y-100092199D02*
X221941423Y-100139818D01*
X221941423Y-100139818D02*
X221703328Y-100139818D01*
X221703328Y-100139818D02*
X221608090Y-100092199D01*
X221608090Y-100092199D02*
X221560471Y-100044579D01*
X221560471Y-100044579D02*
X221512852Y-99949341D01*
X221512852Y-99949341D02*
X221512852Y-99854103D01*
X221512852Y-99854103D02*
X221560471Y-99758865D01*
X221560471Y-99758865D02*
X221608090Y-99711246D01*
X221608090Y-99711246D02*
X221703328Y-99663627D01*
X221703328Y-99663627D02*
X221893804Y-99616008D01*
X221893804Y-99616008D02*
X221989042Y-99568389D01*
X221989042Y-99568389D02*
X222036661Y-99520770D01*
X222036661Y-99520770D02*
X222084280Y-99425532D01*
X222084280Y-99425532D02*
X222084280Y-99330294D01*
X222084280Y-99330294D02*
X222036661Y-99235056D01*
X222036661Y-99235056D02*
X221989042Y-99187437D01*
X221989042Y-99187437D02*
X221893804Y-99139818D01*
X221893804Y-99139818D02*
X221655709Y-99139818D01*
X221655709Y-99139818D02*
X221512852Y-99187437D01*
X221179518Y-99139818D02*
X220941423Y-100139818D01*
X220941423Y-100139818D02*
X220750947Y-99425532D01*
X220750947Y-99425532D02*
X220560471Y-100139818D01*
X220560471Y-100139818D02*
X220322376Y-99139818D01*
X219417614Y-100139818D02*
X219989042Y-100139818D01*
X219703328Y-100139818D02*
X219703328Y-99139818D01*
X219703328Y-99139818D02*
X219798566Y-99282675D01*
X219798566Y-99282675D02*
X219893804Y-99377913D01*
X219893804Y-99377913D02*
X219989042Y-99425532D01*
X218560471Y-99473151D02*
X218560471Y-100139818D01*
X218798566Y-99092199D02*
X219036661Y-99806484D01*
X219036661Y-99806484D02*
X218417614Y-99806484D01*
D10*
X214105922Y-80036109D02*
X214105922Y-79536109D01*
X214105922Y-79536109D02*
X213986874Y-79536109D01*
X213986874Y-79536109D02*
X213915446Y-79559919D01*
X213915446Y-79559919D02*
X213867827Y-79607538D01*
X213867827Y-79607538D02*
X213844017Y-79655157D01*
X213844017Y-79655157D02*
X213820208Y-79750395D01*
X213820208Y-79750395D02*
X213820208Y-79821823D01*
X213820208Y-79821823D02*
X213844017Y-79917061D01*
X213844017Y-79917061D02*
X213867827Y-79964680D01*
X213867827Y-79964680D02*
X213915446Y-80012300D01*
X213915446Y-80012300D02*
X213986874Y-80036109D01*
X213986874Y-80036109D02*
X214105922Y-80036109D01*
X213534493Y-79750395D02*
X213582112Y-79726585D01*
X213582112Y-79726585D02*
X213605922Y-79702776D01*
X213605922Y-79702776D02*
X213629731Y-79655157D01*
X213629731Y-79655157D02*
X213629731Y-79631347D01*
X213629731Y-79631347D02*
X213605922Y-79583728D01*
X213605922Y-79583728D02*
X213582112Y-79559919D01*
X213582112Y-79559919D02*
X213534493Y-79536109D01*
X213534493Y-79536109D02*
X213439255Y-79536109D01*
X213439255Y-79536109D02*
X213391636Y-79559919D01*
X213391636Y-79559919D02*
X213367827Y-79583728D01*
X213367827Y-79583728D02*
X213344017Y-79631347D01*
X213344017Y-79631347D02*
X213344017Y-79655157D01*
X213344017Y-79655157D02*
X213367827Y-79702776D01*
X213367827Y-79702776D02*
X213391636Y-79726585D01*
X213391636Y-79726585D02*
X213439255Y-79750395D01*
X213439255Y-79750395D02*
X213534493Y-79750395D01*
X213534493Y-79750395D02*
X213582112Y-79774204D01*
X213582112Y-79774204D02*
X213605922Y-79798014D01*
X213605922Y-79798014D02*
X213629731Y-79845633D01*
X213629731Y-79845633D02*
X213629731Y-79940871D01*
X213629731Y-79940871D02*
X213605922Y-79988490D01*
X213605922Y-79988490D02*
X213582112Y-80012300D01*
X213582112Y-80012300D02*
X213534493Y-80036109D01*
X213534493Y-80036109D02*
X213439255Y-80036109D01*
X213439255Y-80036109D02*
X213391636Y-80012300D01*
X213391636Y-80012300D02*
X213367827Y-79988490D01*
X213367827Y-79988490D02*
X213344017Y-79940871D01*
X213344017Y-79940871D02*
X213344017Y-79845633D01*
X213344017Y-79845633D02*
X213367827Y-79798014D01*
X213367827Y-79798014D02*
X213391636Y-79774204D01*
X213391636Y-79774204D02*
X213439255Y-79750395D01*
D11*
X235080182Y-141251644D02*
X234937325Y-141299263D01*
X234937325Y-141299263D02*
X234699230Y-141299263D01*
X234699230Y-141299263D02*
X234603992Y-141251644D01*
X234603992Y-141251644D02*
X234556373Y-141204024D01*
X234556373Y-141204024D02*
X234508754Y-141108786D01*
X234508754Y-141108786D02*
X234508754Y-141013548D01*
X234508754Y-141013548D02*
X234556373Y-140918310D01*
X234556373Y-140918310D02*
X234603992Y-140870691D01*
X234603992Y-140870691D02*
X234699230Y-140823072D01*
X234699230Y-140823072D02*
X234889706Y-140775453D01*
X234889706Y-140775453D02*
X234984944Y-140727834D01*
X234984944Y-140727834D02*
X235032563Y-140680215D01*
X235032563Y-140680215D02*
X235080182Y-140584977D01*
X235080182Y-140584977D02*
X235080182Y-140489739D01*
X235080182Y-140489739D02*
X235032563Y-140394501D01*
X235032563Y-140394501D02*
X234984944Y-140346882D01*
X234984944Y-140346882D02*
X234889706Y-140299263D01*
X234889706Y-140299263D02*
X234651611Y-140299263D01*
X234651611Y-140299263D02*
X234508754Y-140346882D01*
X234175420Y-140299263D02*
X233937325Y-141299263D01*
X233937325Y-141299263D02*
X233746849Y-140584977D01*
X233746849Y-140584977D02*
X233556373Y-141299263D01*
X233556373Y-141299263D02*
X233318278Y-140299263D01*
X232984944Y-140394501D02*
X232937325Y-140346882D01*
X232937325Y-140346882D02*
X232842087Y-140299263D01*
X232842087Y-140299263D02*
X232603992Y-140299263D01*
X232603992Y-140299263D02*
X232508754Y-140346882D01*
X232508754Y-140346882D02*
X232461135Y-140394501D01*
X232461135Y-140394501D02*
X232413516Y-140489739D01*
X232413516Y-140489739D02*
X232413516Y-140584977D01*
X232413516Y-140584977D02*
X232461135Y-140727834D01*
X232461135Y-140727834D02*
X233032563Y-141299263D01*
X233032563Y-141299263D02*
X232413516Y-141299263D01*
X231461135Y-141299263D02*
X232032563Y-141299263D01*
X231746849Y-141299263D02*
X231746849Y-140299263D01*
X231746849Y-140299263D02*
X231842087Y-140442120D01*
X231842087Y-140442120D02*
X231937325Y-140537358D01*
X231937325Y-140537358D02*
X232032563Y-140584977D01*
D12*
X175702818Y-64230000D02*
X175901256Y-64230000D01*
X175901256Y-63634686D02*
X175901256Y-64825314D01*
X175901256Y-64825314D02*
X177488760Y-64825314D01*
X176298132Y-64825314D02*
X176298132Y-63634686D01*
X177488760Y-63634686D02*
X175901256Y-63634686D01*
X177488760Y-64230000D02*
X177687198Y-64230000D01*
X177488760Y-64825314D02*
X177488760Y-63634686D01*
D13*
X171184757Y-128545000D02*
X171184757Y-130045000D01*
D11*
X174079757Y-129365000D02*
X174079757Y-132015000D01*
X174234757Y-132520000D02*
X174234757Y-128840000D01*
X174384757Y-132690000D02*
X174384757Y-128720000D01*
X174534757Y-132830000D02*
X174534757Y-128690000D01*
X174684757Y-132910000D02*
X174684757Y-128790000D01*
X174834757Y-132960000D02*
X174834757Y-128640000D01*
X174984757Y-133000000D02*
X174984757Y-128490000D01*
X175134757Y-132990000D02*
X175134757Y-128390000D01*
X175284757Y-132990000D02*
X175284757Y-128390000D01*
X175434757Y-132990000D02*
X175434757Y-128390000D01*
D13*
X175584757Y-128545000D02*
X171184757Y-128545000D01*
D11*
X175584757Y-132990000D02*
X175584757Y-128390000D01*
X175734757Y-132990000D02*
X175734757Y-128390000D01*
X175884757Y-132990000D02*
X175884757Y-128390000D01*
X176034757Y-132990000D02*
X176034757Y-128390000D01*
X176184757Y-132990000D02*
X176184757Y-128390000D01*
X176334757Y-132990000D02*
X176334757Y-128390000D01*
X176484757Y-132990000D02*
X176484757Y-128390000D01*
X176634757Y-132990000D02*
X176634757Y-128390000D01*
X176784757Y-132990000D02*
X176784757Y-128390000D01*
X176934757Y-132990000D02*
X176934757Y-128390000D01*
X177084757Y-132990000D02*
X177084757Y-128390000D01*
X177084757Y-133015000D02*
X175109757Y-133015000D01*
X177234757Y-132990000D02*
X177234757Y-128440000D01*
X177384757Y-133030000D02*
X177384757Y-128390000D01*
X177534757Y-133040000D02*
X177534757Y-128390000D01*
X177684757Y-133040000D02*
X177684757Y-128440000D01*
X177834757Y-133090000D02*
X177834757Y-128380000D01*
X177984757Y-133190000D02*
X177984757Y-128370000D01*
X178073553Y-128365000D02*
X175109757Y-128365000D01*
X178134757Y-133240000D02*
X178134757Y-128390000D01*
X178284757Y-133340000D02*
X178284757Y-128420000D01*
X178434757Y-133440000D02*
X178434757Y-128470000D01*
X178584757Y-133540000D02*
X178584757Y-128550000D01*
X178734757Y-133690000D02*
X178734757Y-128740000D01*
X178884757Y-133840000D02*
X178884757Y-128940000D01*
X178934757Y-129390000D02*
X178934757Y-129066887D01*
X178984757Y-134010000D02*
X178984757Y-129890000D01*
X179084757Y-134190000D02*
X179084757Y-130040000D01*
X179084757Y-134190000D02*
X180359757Y-135215000D01*
X179184757Y-134260000D02*
X179184757Y-130240000D01*
X179284757Y-134340000D02*
X179284757Y-130340000D01*
X179384757Y-134420000D02*
X179384757Y-130390000D01*
X179494757Y-134510000D02*
X179484757Y-130440000D01*
X179634757Y-134610000D02*
X179634757Y-130490000D01*
X179784757Y-134750000D02*
X179784757Y-130590000D01*
X179934757Y-134870000D02*
X179934757Y-130590000D01*
X180084757Y-134980000D02*
X180084757Y-130590000D01*
X180234757Y-135100000D02*
X180234757Y-130640000D01*
X180384757Y-135190000D02*
X180384757Y-130590000D01*
X180534757Y-135190000D02*
X180534757Y-130590000D01*
X180684757Y-135190000D02*
X180684757Y-130590000D01*
X180834757Y-135190000D02*
X180834757Y-130590000D01*
X180984757Y-135190000D02*
X180984757Y-130590000D01*
X181134757Y-135190000D02*
X181134757Y-130590000D01*
X181284757Y-135190000D02*
X181284757Y-130590000D01*
X181434757Y-135190000D02*
X181434757Y-130590000D01*
X181584757Y-135190000D02*
X181584757Y-130590000D01*
X181734757Y-135190000D02*
X181734757Y-130590000D01*
X181884757Y-135190000D02*
X181884757Y-130590000D01*
X182034757Y-135190000D02*
X182034757Y-130590000D01*
X182184757Y-135190000D02*
X182184757Y-130590000D01*
X182334757Y-135190000D02*
X182334757Y-130590000D01*
X182484757Y-135190000D02*
X182484757Y-130590000D01*
X182634757Y-135190000D02*
X182634757Y-130590000D01*
X182684757Y-130565000D02*
X180109757Y-130565000D01*
X182684757Y-135215000D02*
X180359757Y-135215000D01*
X182784757Y-135080000D02*
X182784757Y-130690000D01*
X182934757Y-134940000D02*
X182934757Y-130820000D01*
X183084757Y-134810000D02*
X183084757Y-130980000D01*
X183234757Y-134650000D02*
X183234757Y-131120000D01*
X183334757Y-134550000D02*
X183334757Y-131220000D01*
X183434757Y-134440000D02*
X183434757Y-131320000D01*
X183534757Y-134360000D02*
X183534757Y-131430000D01*
X183684757Y-131565000D02*
X182684757Y-130565000D01*
X183684757Y-131565000D02*
X183684757Y-134215000D01*
X183684757Y-134215000D02*
X182684757Y-135215000D01*
X174079757Y-129365000D02*
G75*
G02*
X175079757Y-128365000I999999J1D01*
G01*
X175079757Y-133015000D02*
G75*
G02*
X174079757Y-132015000I-1J999999D01*
G01*
X177084757Y-133007458D02*
G75*
G02*
X179084757Y-134190000I-2J-2282546D01*
G01*
X178073553Y-128365000D02*
G75*
G02*
X178934757Y-129066887I-38796J-926887D01*
G01*
X180109757Y-130565000D02*
G75*
G02*
X178934757Y-129390000I2J1175002D01*
G01*
X171884757Y-127590000D02*
G75*
G02*
X170884757Y-127590000I-500000J0D01*
G01*
X170884757Y-127590000D02*
G75*
G02*
X171884757Y-127590000I500000J0D01*
G01*
D12*
X135892818Y-108210000D02*
X136091256Y-108210000D01*
X136091256Y-107614686D02*
X136091256Y-108805314D01*
X136091256Y-108805314D02*
X137678760Y-108805314D01*
X136488132Y-108805314D02*
X136488132Y-107614686D01*
X137678760Y-107614686D02*
X136091256Y-107614686D01*
X137678760Y-108210000D02*
X137877198Y-108210000D01*
X137678760Y-108805314D02*
X137678760Y-107614686D01*
D13*
X152084757Y-114974999D02*
X152084757Y-116474999D01*
D11*
X154979757Y-115794999D02*
X154979757Y-118444999D01*
X155134757Y-118949999D02*
X155134757Y-115269999D01*
X155284757Y-119119999D02*
X155284757Y-115149999D01*
X155434757Y-119259999D02*
X155434757Y-115119999D01*
X155584757Y-119339999D02*
X155584757Y-115219999D01*
X155734757Y-119389999D02*
X155734757Y-115069999D01*
X155884757Y-119429999D02*
X155884757Y-114919999D01*
X156034757Y-119419999D02*
X156034757Y-114819999D01*
X156184757Y-119419999D02*
X156184757Y-114819999D01*
X156334757Y-119419999D02*
X156334757Y-114819999D01*
D13*
X156484757Y-114974999D02*
X152084757Y-114974999D01*
D11*
X156484757Y-119419999D02*
X156484757Y-114819999D01*
X156634757Y-119419999D02*
X156634757Y-114819999D01*
X156784757Y-119419999D02*
X156784757Y-114819999D01*
X156934757Y-119419999D02*
X156934757Y-114819999D01*
X157084757Y-119419999D02*
X157084757Y-114819999D01*
X157234757Y-119419999D02*
X157234757Y-114819999D01*
X157384757Y-119419999D02*
X157384757Y-114819999D01*
X157534757Y-119419999D02*
X157534757Y-114819999D01*
X157684757Y-119419999D02*
X157684757Y-114819999D01*
X157834757Y-119419999D02*
X157834757Y-114819999D01*
X157984757Y-119419999D02*
X157984757Y-114819999D01*
X157984757Y-119444999D02*
X156009757Y-119444999D01*
X158134757Y-119419999D02*
X158134757Y-114869999D01*
X158284757Y-119459999D02*
X158284757Y-114819999D01*
X158434757Y-119469999D02*
X158434757Y-114819999D01*
X158584757Y-119469999D02*
X158584757Y-114869999D01*
X158734757Y-119519999D02*
X158734757Y-114809999D01*
X158884757Y-119619999D02*
X158884757Y-114799999D01*
X158973553Y-114794999D02*
X156009757Y-114794999D01*
X159034757Y-119669999D02*
X159034757Y-114819999D01*
X159184757Y-119769999D02*
X159184757Y-114849999D01*
X159334757Y-119869999D02*
X159334757Y-114899999D01*
X159484757Y-119969999D02*
X159484757Y-114979999D01*
X159634757Y-120119999D02*
X159634757Y-115169999D01*
X159784757Y-120269999D02*
X159784757Y-115369999D01*
X159834757Y-115819999D02*
X159834757Y-115496886D01*
X159884757Y-120439999D02*
X159884757Y-116319999D01*
X159984757Y-120619999D02*
X159984757Y-116469999D01*
X159984757Y-120619999D02*
X161259757Y-121644999D01*
X160084757Y-120689999D02*
X160084757Y-116669999D01*
X160184757Y-120769999D02*
X160184757Y-116769999D01*
X160284757Y-120849999D02*
X160284757Y-116819999D01*
X160394757Y-120939999D02*
X160384757Y-116869999D01*
X160534757Y-121039999D02*
X160534757Y-116919999D01*
X160684757Y-121179999D02*
X160684757Y-117019999D01*
X160834757Y-121299999D02*
X160834757Y-117019999D01*
X160984757Y-121409999D02*
X160984757Y-117019999D01*
X161134757Y-121529999D02*
X161134757Y-117069999D01*
X161284757Y-121619999D02*
X161284757Y-117019999D01*
X161434757Y-121619999D02*
X161434757Y-117019999D01*
X161584757Y-121619999D02*
X161584757Y-117019999D01*
X161734757Y-121619999D02*
X161734757Y-117019999D01*
X161884757Y-121619999D02*
X161884757Y-117019999D01*
X162034757Y-121619999D02*
X162034757Y-117019999D01*
X162184757Y-121619999D02*
X162184757Y-117019999D01*
X162334757Y-121619999D02*
X162334757Y-117019999D01*
X162484757Y-121619999D02*
X162484757Y-117019999D01*
X162634757Y-121619999D02*
X162634757Y-117019999D01*
X162784757Y-121619999D02*
X162784757Y-117019999D01*
X162934757Y-121619999D02*
X162934757Y-117019999D01*
X163084757Y-121619999D02*
X163084757Y-117019999D01*
X163234757Y-121619999D02*
X163234757Y-117019999D01*
X163384757Y-121619999D02*
X163384757Y-117019999D01*
X163534757Y-121619999D02*
X163534757Y-117019999D01*
X163584757Y-116994999D02*
X161009757Y-116994999D01*
X163584757Y-121644999D02*
X161259757Y-121644999D01*
X163684757Y-121509999D02*
X163684757Y-117119999D01*
X163834757Y-121369999D02*
X163834757Y-117249999D01*
X163984757Y-121239999D02*
X163984757Y-117409999D01*
X164134757Y-121079999D02*
X164134757Y-117549999D01*
X164234757Y-120979999D02*
X164234757Y-117649999D01*
X164334757Y-120869999D02*
X164334757Y-117749999D01*
X164434757Y-120789999D02*
X164434757Y-117859999D01*
X164584757Y-117994999D02*
X163584757Y-116994999D01*
X164584757Y-117994999D02*
X164584757Y-120644999D01*
X164584757Y-120644999D02*
X163584757Y-121644999D01*
X154979757Y-115794999D02*
G75*
G02*
X155979757Y-114794999I999999J1D01*
G01*
X155979757Y-119444999D02*
G75*
G02*
X154979757Y-118444999I-1J999999D01*
G01*
X157984757Y-119437457D02*
G75*
G02*
X159984757Y-120619999I-2J-2282546D01*
G01*
X158973553Y-114794999D02*
G75*
G02*
X159834757Y-115496886I-38796J-926887D01*
G01*
X161009757Y-116994999D02*
G75*
G02*
X159834757Y-115819999I2J1175002D01*
G01*
X152784757Y-114019999D02*
G75*
G02*
X151784757Y-114019999I-500000J0D01*
G01*
X151784757Y-114019999D02*
G75*
G02*
X152784757Y-114019999I500000J0D01*
G01*
D12*
X176432818Y-121540000D02*
X176631256Y-121540000D01*
X176631256Y-120944686D02*
X176631256Y-122135314D01*
X176631256Y-122135314D02*
X178218760Y-122135314D01*
X177028132Y-122135314D02*
X177028132Y-120944686D01*
X178218760Y-120944686D02*
X176631256Y-120944686D01*
X178218760Y-121540000D02*
X178417198Y-121540000D01*
X178218760Y-122135314D02*
X178218760Y-120944686D01*
X193352818Y-78480000D02*
X193551256Y-78480000D01*
X193551256Y-77884686D02*
X193551256Y-79075314D01*
X193551256Y-79075314D02*
X195138760Y-79075314D01*
X193948132Y-79075314D02*
X193948132Y-77884686D01*
X195138760Y-77884686D02*
X193551256Y-77884686D01*
X195138760Y-78480000D02*
X195337198Y-78480000D01*
X195138760Y-79075314D02*
X195138760Y-77884686D01*
D13*
X171184757Y-109344999D02*
X171184757Y-110844999D01*
D11*
X174079757Y-110164999D02*
X174079757Y-112814999D01*
X174234757Y-113319999D02*
X174234757Y-109639999D01*
X174384757Y-113489999D02*
X174384757Y-109519999D01*
X174534757Y-113629999D02*
X174534757Y-109489999D01*
X174684757Y-113709999D02*
X174684757Y-109589999D01*
X174834757Y-113759999D02*
X174834757Y-109439999D01*
X174984757Y-113799999D02*
X174984757Y-109289999D01*
X175134757Y-113789999D02*
X175134757Y-109189999D01*
X175284757Y-113789999D02*
X175284757Y-109189999D01*
X175434757Y-113789999D02*
X175434757Y-109189999D01*
D13*
X175584757Y-109344999D02*
X171184757Y-109344999D01*
D11*
X175584757Y-113789999D02*
X175584757Y-109189999D01*
X175734757Y-113789999D02*
X175734757Y-109189999D01*
X175884757Y-113789999D02*
X175884757Y-109189999D01*
X176034757Y-113789999D02*
X176034757Y-109189999D01*
X176184757Y-113789999D02*
X176184757Y-109189999D01*
X176334757Y-113789999D02*
X176334757Y-109189999D01*
X176484757Y-113789999D02*
X176484757Y-109189999D01*
X176634757Y-113789999D02*
X176634757Y-109189999D01*
X176784757Y-113789999D02*
X176784757Y-109189999D01*
X176934757Y-113789999D02*
X176934757Y-109189999D01*
X177084757Y-113789999D02*
X177084757Y-109189999D01*
X177084757Y-113814999D02*
X175109757Y-113814999D01*
X177234757Y-113789999D02*
X177234757Y-109239999D01*
X177384757Y-113829999D02*
X177384757Y-109189999D01*
X177534757Y-113839999D02*
X177534757Y-109189999D01*
X177684757Y-113839999D02*
X177684757Y-109239999D01*
X177834757Y-113889999D02*
X177834757Y-109179999D01*
X177984757Y-113989999D02*
X177984757Y-109169999D01*
X178073553Y-109164999D02*
X175109757Y-109164999D01*
X178134757Y-114039999D02*
X178134757Y-109189999D01*
X178284757Y-114139999D02*
X178284757Y-109219999D01*
X178434757Y-114239999D02*
X178434757Y-109269999D01*
X178584757Y-114339999D02*
X178584757Y-109349999D01*
X178734757Y-114489999D02*
X178734757Y-109539999D01*
X178884757Y-114639999D02*
X178884757Y-109739999D01*
X178934757Y-110189999D02*
X178934757Y-109866886D01*
X178984757Y-114809999D02*
X178984757Y-110689999D01*
X179084757Y-114989999D02*
X179084757Y-110839999D01*
X179084757Y-114989999D02*
X180359757Y-116014999D01*
X179184757Y-115059999D02*
X179184757Y-111039999D01*
X179284757Y-115139999D02*
X179284757Y-111139999D01*
X179384757Y-115219999D02*
X179384757Y-111189999D01*
X179494757Y-115309999D02*
X179484757Y-111239999D01*
X179634757Y-115409999D02*
X179634757Y-111289999D01*
X179784757Y-115549999D02*
X179784757Y-111389999D01*
X179934757Y-115669999D02*
X179934757Y-111389999D01*
X180084757Y-115779999D02*
X180084757Y-111389999D01*
X180234757Y-115899999D02*
X180234757Y-111439999D01*
X180384757Y-115989999D02*
X180384757Y-111389999D01*
X180534757Y-115989999D02*
X180534757Y-111389999D01*
X180684757Y-115989999D02*
X180684757Y-111389999D01*
X180834757Y-115989999D02*
X180834757Y-111389999D01*
X180984757Y-115989999D02*
X180984757Y-111389999D01*
X181134757Y-115989999D02*
X181134757Y-111389999D01*
X181284757Y-115989999D02*
X181284757Y-111389999D01*
X181434757Y-115989999D02*
X181434757Y-111389999D01*
X181584757Y-115989999D02*
X181584757Y-111389999D01*
X181734757Y-115989999D02*
X181734757Y-111389999D01*
X181884757Y-115989999D02*
X181884757Y-111389999D01*
X182034757Y-115989999D02*
X182034757Y-111389999D01*
X182184757Y-115989999D02*
X182184757Y-111389999D01*
X182334757Y-115989999D02*
X182334757Y-111389999D01*
X182484757Y-115989999D02*
X182484757Y-111389999D01*
X182634757Y-115989999D02*
X182634757Y-111389999D01*
X182684757Y-111364999D02*
X180109757Y-111364999D01*
X182684757Y-116014999D02*
X180359757Y-116014999D01*
X182784757Y-115879999D02*
X182784757Y-111489999D01*
X182934757Y-115739999D02*
X182934757Y-111619999D01*
X183084757Y-115609999D02*
X183084757Y-111779999D01*
X183234757Y-115449999D02*
X183234757Y-111919999D01*
X183334757Y-115349999D02*
X183334757Y-112019999D01*
X183434757Y-115239999D02*
X183434757Y-112119999D01*
X183534757Y-115159999D02*
X183534757Y-112229999D01*
X183684757Y-112364999D02*
X182684757Y-111364999D01*
X183684757Y-112364999D02*
X183684757Y-115014999D01*
X183684757Y-115014999D02*
X182684757Y-116014999D01*
X174079757Y-110164999D02*
G75*
G02*
X175079757Y-109164999I999999J1D01*
G01*
X175079757Y-113814999D02*
G75*
G02*
X174079757Y-112814999I-1J999999D01*
G01*
X177084757Y-113807457D02*
G75*
G02*
X179084757Y-114989999I-2J-2282546D01*
G01*
X178073553Y-109164999D02*
G75*
G02*
X178934757Y-109866886I-38796J-926887D01*
G01*
X180109757Y-111364999D02*
G75*
G02*
X178934757Y-110189999I2J1175002D01*
G01*
X171884757Y-108389999D02*
G75*
G02*
X170884757Y-108389999I-500000J0D01*
G01*
X170884757Y-108389999D02*
G75*
G02*
X171884757Y-108389999I500000J0D01*
G01*
D14*
X239472356Y-138971444D02*
X242722222Y-139544483D01*
X239787416Y-134305264D02*
X239066776Y-138392216D01*
X243498652Y-140899901D02*
X243533381Y-140702939D01*
X243997469Y-135047610D02*
X239787416Y-134305264D01*
X244309811Y-142058357D02*
X243498652Y-140899901D01*
X246087851Y-137650139D02*
X247825497Y-137956533D01*
X247018033Y-142535889D02*
X244309811Y-142058357D01*
X247825497Y-137956533D02*
X248636656Y-139114989D01*
X248176490Y-141724730D02*
X247018033Y-142535889D01*
X248636656Y-139114989D02*
X248176490Y-141724730D01*
X239472356Y-138971444D02*
G75*
G02*
X239066777Y-138392216I86825J492404D01*
G01*
X242722222Y-139544483D02*
G75*
G02*
X243533382Y-140702939I-173647J-984807D01*
G01*
X244025648Y-135052579D02*
G75*
G02*
X244438093Y-135572022I-86830J-492409D01*
G01*
X246087851Y-137650139D02*
G75*
G02*
X244438074Y-135572366I347297J1969616D01*
G01*
D15*
X244025648Y-135052579D02*
X244291261Y-135265183D01*
X244438092Y-135572022D01*
X244481855Y-136302737D01*
X244829599Y-136955168D01*
X245386167Y-137441813D01*
X246087851Y-137650139D01*
X247825497Y-137956533D01*
X248636656Y-139114989D01*
X248176490Y-141724730D01*
X247018033Y-142535889D01*
X244309811Y-142058357D01*
X243498652Y-140899901D01*
X243578536Y-140302885D01*
X243408683Y-139927036D01*
X243112739Y-139643730D01*
X242722222Y-139544483D01*
X239472356Y-138971444D01*
X239190562Y-138737150D01*
X239066776Y-138392216D01*
X239787416Y-134305264D01*
X244025648Y-135052579D01*
G36*
X244025648Y-135052579D02*
G01*
X244291261Y-135265183D01*
X244438092Y-135572022D01*
X244481855Y-136302737D01*
X244829599Y-136955168D01*
X245386167Y-137441813D01*
X246087851Y-137650139D01*
X247825497Y-137956533D01*
X248636656Y-139114989D01*
X248176490Y-141724730D01*
X247018033Y-142535889D01*
X244309811Y-142058357D01*
X243498652Y-140899901D01*
X243578536Y-140302885D01*
X243408683Y-139927036D01*
X243112739Y-139643730D01*
X242722222Y-139544483D01*
X239472356Y-138971444D01*
X239190562Y-138737150D01*
X239066776Y-138392216D01*
X239787416Y-134305264D01*
X244025648Y-135052579D01*
G37*
D13*
X132901320Y-95794999D02*
X132901320Y-97294999D01*
D11*
X135796320Y-96614999D02*
X135796320Y-99264999D01*
X135951320Y-99769999D02*
X135951320Y-96089999D01*
X136101320Y-99939999D02*
X136101320Y-95969999D01*
X136251320Y-100079999D02*
X136251320Y-95939999D01*
X136401320Y-100159999D02*
X136401320Y-96039999D01*
X136551320Y-100209999D02*
X136551320Y-95889999D01*
X136701320Y-100249999D02*
X136701320Y-95739999D01*
X136851320Y-100239999D02*
X136851320Y-95639999D01*
X137001320Y-100239999D02*
X137001320Y-95639999D01*
X137151320Y-100239999D02*
X137151320Y-95639999D01*
D13*
X137301320Y-95794999D02*
X132901320Y-95794999D01*
D11*
X137301320Y-100239999D02*
X137301320Y-95639999D01*
X137451320Y-100239999D02*
X137451320Y-95639999D01*
X137601320Y-100239999D02*
X137601320Y-95639999D01*
X137751320Y-100239999D02*
X137751320Y-95639999D01*
X137901320Y-100239999D02*
X137901320Y-95639999D01*
X138051320Y-100239999D02*
X138051320Y-95639999D01*
X138201320Y-100239999D02*
X138201320Y-95639999D01*
X138351320Y-100239999D02*
X138351320Y-95639999D01*
X138501320Y-100239999D02*
X138501320Y-95639999D01*
X138651320Y-100239999D02*
X138651320Y-95639999D01*
X138801320Y-100239999D02*
X138801320Y-95639999D01*
X138801320Y-100264999D02*
X136826320Y-100264999D01*
X138951320Y-100239999D02*
X138951320Y-95689999D01*
X139101320Y-100279999D02*
X139101320Y-95639999D01*
X139251320Y-100289999D02*
X139251320Y-95639999D01*
X139401320Y-100289999D02*
X139401320Y-95689999D01*
X139551320Y-100339999D02*
X139551320Y-95629999D01*
X139701320Y-100439999D02*
X139701320Y-95619999D01*
X139790116Y-95614999D02*
X136826320Y-95614999D01*
X139851320Y-100489999D02*
X139851320Y-95639999D01*
X140001320Y-100589999D02*
X140001320Y-95669999D01*
X140151320Y-100689999D02*
X140151320Y-95719999D01*
X140301320Y-100789999D02*
X140301320Y-95799999D01*
X140451320Y-100939999D02*
X140451320Y-95989999D01*
X140601320Y-101089999D02*
X140601320Y-96189999D01*
X140651320Y-96639999D02*
X140651320Y-96316886D01*
X140701320Y-101259999D02*
X140701320Y-97139999D01*
X140801320Y-101439999D02*
X140801320Y-97289999D01*
X140801320Y-101439999D02*
X142076320Y-102464999D01*
X140901320Y-101509999D02*
X140901320Y-97489999D01*
X141001320Y-101589999D02*
X141001320Y-97589999D01*
X141101320Y-101669999D02*
X141101320Y-97639999D01*
X141211320Y-101759999D02*
X141201320Y-97689999D01*
X141351320Y-101859999D02*
X141351320Y-97739999D01*
X141501320Y-101999999D02*
X141501320Y-97839999D01*
X141651320Y-102119999D02*
X141651320Y-97839999D01*
X141801320Y-102229999D02*
X141801320Y-97839999D01*
X141951320Y-102349999D02*
X141951320Y-97889999D01*
X142101320Y-102439999D02*
X142101320Y-97839999D01*
X142251320Y-102439999D02*
X142251320Y-97839999D01*
X142401320Y-102439999D02*
X142401320Y-97839999D01*
X142551320Y-102439999D02*
X142551320Y-97839999D01*
X142701320Y-102439999D02*
X142701320Y-97839999D01*
X142851320Y-102439999D02*
X142851320Y-97839999D01*
X143001320Y-102439999D02*
X143001320Y-97839999D01*
X143151320Y-102439999D02*
X143151320Y-97839999D01*
X143301320Y-102439999D02*
X143301320Y-97839999D01*
X143451320Y-102439999D02*
X143451320Y-97839999D01*
X143601320Y-102439999D02*
X143601320Y-97839999D01*
X143751320Y-102439999D02*
X143751320Y-97839999D01*
X143901320Y-102439999D02*
X143901320Y-97839999D01*
X144051320Y-102439999D02*
X144051320Y-97839999D01*
X144201320Y-102439999D02*
X144201320Y-97839999D01*
X144351320Y-102439999D02*
X144351320Y-97839999D01*
X144401320Y-97814999D02*
X141826320Y-97814999D01*
X144401320Y-102464999D02*
X142076320Y-102464999D01*
X144501320Y-102329999D02*
X144501320Y-97939999D01*
X144651320Y-102189999D02*
X144651320Y-98069999D01*
X144801320Y-102059999D02*
X144801320Y-98229999D01*
X144951320Y-101899999D02*
X144951320Y-98369999D01*
X145051320Y-101799999D02*
X145051320Y-98469999D01*
X145151320Y-101689999D02*
X145151320Y-98569999D01*
X145251320Y-101609999D02*
X145251320Y-98679999D01*
X145401320Y-98814999D02*
X144401320Y-97814999D01*
X145401320Y-98814999D02*
X145401320Y-101464999D01*
X145401320Y-101464999D02*
X144401320Y-102464999D01*
X135796320Y-96614999D02*
G75*
G02*
X136796320Y-95614999I999999J1D01*
G01*
X136796320Y-100264999D02*
G75*
G02*
X135796320Y-99264999I-1J999999D01*
G01*
X138801320Y-100257457D02*
G75*
G02*
X140801320Y-101439999I-2J-2282546D01*
G01*
X139790116Y-95614999D02*
G75*
G02*
X140651320Y-96316886I-38796J-926887D01*
G01*
X141826320Y-97814999D02*
G75*
G02*
X140651320Y-96639999I2J1175002D01*
G01*
X133601320Y-94839999D02*
G75*
G02*
X132601320Y-94839999I-500000J0D01*
G01*
X132601320Y-94839999D02*
G75*
G02*
X133601320Y-94839999I500000J0D01*
G01*
D12*
X219232818Y-127170000D02*
X219431256Y-127170000D01*
X219431256Y-126574686D02*
X219431256Y-127765314D01*
X219431256Y-127765314D02*
X221018760Y-127765314D01*
X219828132Y-127765314D02*
X219828132Y-126574686D01*
X221018760Y-126574686D02*
X219431256Y-126574686D01*
X221018760Y-127170000D02*
X221217198Y-127170000D01*
X221018760Y-127765314D02*
X221018760Y-126574686D01*
D14*
X258897668Y-142704461D02*
X261998654Y-143833127D01*
X260018215Y-138163880D02*
X258598832Y-142063604D01*
X262527922Y-145302778D02*
X262596326Y-145114840D01*
X263125595Y-146584491D02*
X262527922Y-145302778D01*
X264035401Y-139626016D02*
X260018215Y-138163880D01*
X265642101Y-142551998D02*
X267300143Y-143155476D01*
X265709748Y-147525046D02*
X263125595Y-146584491D01*
X266991462Y-146927374D02*
X265709748Y-147525046D01*
X267300143Y-143155476D02*
X267897816Y-144437189D01*
X267897816Y-144437189D02*
X266991462Y-146927374D01*
X258897668Y-142704461D02*
G75*
G02*
X258598832Y-142063604I171011J469847D01*
G01*
X261998654Y-143833127D02*
G75*
G02*
X262596326Y-145114840I-342019J-939692D01*
G01*
X264062289Y-139635802D02*
G75*
G02*
X264378266Y-140218975I-171014J-469848D01*
G01*
X265642101Y-142551998D02*
G75*
G02*
X264378189Y-140219310I684041J1879386D01*
G01*
D15*
X264062289Y-139635802D02*
X264286948Y-139891300D01*
X264378267Y-140218975D01*
X264294477Y-140946187D01*
X264523646Y-141649092D01*
X264987251Y-142224990D01*
X265642101Y-142551998D01*
X267300143Y-143155476D01*
X267897816Y-144437189D01*
X266991462Y-146927374D01*
X265709748Y-147525046D01*
X263125595Y-146584491D01*
X262527922Y-145302778D01*
X262710264Y-144728704D01*
X262608257Y-144329071D01*
X262366004Y-143998678D01*
X261998654Y-143833127D01*
X258897668Y-142704461D01*
X258660840Y-142424792D01*
X258598832Y-142063604D01*
X260018215Y-138163880D01*
X264062289Y-139635802D01*
G36*
X264062289Y-139635802D02*
G01*
X264286948Y-139891300D01*
X264378267Y-140218975D01*
X264294477Y-140946187D01*
X264523646Y-141649092D01*
X264987251Y-142224990D01*
X265642101Y-142551998D01*
X267300143Y-143155476D01*
X267897816Y-144437189D01*
X266991462Y-146927374D01*
X265709748Y-147525046D01*
X263125595Y-146584491D01*
X262527922Y-145302778D01*
X262710264Y-144728704D01*
X262608257Y-144329071D01*
X262366004Y-143998678D01*
X261998654Y-143833127D01*
X258897668Y-142704461D01*
X258660840Y-142424792D01*
X258598832Y-142063604D01*
X260018215Y-138163880D01*
X264062289Y-139635802D01*
G37*
D12*
X135902818Y-69830000D02*
X136101256Y-69830000D01*
X136101256Y-69234686D02*
X136101256Y-70425314D01*
X136101256Y-70425314D02*
X137688760Y-70425314D01*
X136498132Y-70425314D02*
X136498132Y-69234686D01*
X137688760Y-69234686D02*
X136101256Y-69234686D01*
X137688760Y-69830000D02*
X137887198Y-69830000D01*
X137688760Y-70425314D02*
X137688760Y-69234686D01*
D13*
X209574757Y-87544999D02*
X209574757Y-89044999D01*
D11*
X212469757Y-88364999D02*
X212469757Y-91014999D01*
X212624757Y-91519999D02*
X212624757Y-87839999D01*
X212774757Y-91689999D02*
X212774757Y-87719999D01*
X212924757Y-91829999D02*
X212924757Y-87689999D01*
X213074757Y-91909999D02*
X213074757Y-87789999D01*
X213224757Y-91959999D02*
X213224757Y-87639999D01*
X213374757Y-91999999D02*
X213374757Y-87489999D01*
X213524757Y-91989999D02*
X213524757Y-87389999D01*
X213674757Y-91989999D02*
X213674757Y-87389999D01*
X213824757Y-91989999D02*
X213824757Y-87389999D01*
D13*
X213974757Y-87544999D02*
X209574757Y-87544999D01*
D11*
X213974757Y-91989999D02*
X213974757Y-87389999D01*
X214124757Y-91989999D02*
X214124757Y-87389999D01*
X214274757Y-91989999D02*
X214274757Y-87389999D01*
X214424757Y-91989999D02*
X214424757Y-87389999D01*
X214574757Y-91989999D02*
X214574757Y-87389999D01*
X214724757Y-91989999D02*
X214724757Y-87389999D01*
X214874757Y-91989999D02*
X214874757Y-87389999D01*
X215024757Y-91989999D02*
X215024757Y-87389999D01*
X215174757Y-91989999D02*
X215174757Y-87389999D01*
X215324757Y-91989999D02*
X215324757Y-87389999D01*
X215474757Y-91989999D02*
X215474757Y-87389999D01*
X215474757Y-92014999D02*
X213499757Y-92014999D01*
X215624757Y-91989999D02*
X215624757Y-87439999D01*
X215774757Y-92029999D02*
X215774757Y-87389999D01*
X215924757Y-92039999D02*
X215924757Y-87389999D01*
X216074757Y-92039999D02*
X216074757Y-87439999D01*
X216224757Y-92089999D02*
X216224757Y-87379999D01*
X216374757Y-92189999D02*
X216374757Y-87369999D01*
X216463553Y-87364999D02*
X213499757Y-87364999D01*
X216524757Y-92239999D02*
X216524757Y-87389999D01*
X216674757Y-92339999D02*
X216674757Y-87419999D01*
X216824757Y-92439999D02*
X216824757Y-87469999D01*
X216974757Y-92539999D02*
X216974757Y-87549999D01*
X217124757Y-92689999D02*
X217124757Y-87739999D01*
X217274757Y-92839999D02*
X217274757Y-87939999D01*
X217324757Y-88389999D02*
X217324757Y-88066886D01*
X217374757Y-93009999D02*
X217374757Y-88889999D01*
X217474757Y-93189999D02*
X217474757Y-89039999D01*
X217474757Y-93189999D02*
X218749757Y-94214999D01*
X217574757Y-93259999D02*
X217574757Y-89239999D01*
X217674757Y-93339999D02*
X217674757Y-89339999D01*
X217774757Y-93419999D02*
X217774757Y-89389999D01*
X217884757Y-93509999D02*
X217874757Y-89439999D01*
X218024757Y-93609999D02*
X218024757Y-89489999D01*
X218174757Y-93749999D02*
X218174757Y-89589999D01*
X218324757Y-93869999D02*
X218324757Y-89589999D01*
X218474757Y-93979999D02*
X218474757Y-89589999D01*
X218624757Y-94099999D02*
X218624757Y-89639999D01*
X218774757Y-94189999D02*
X218774757Y-89589999D01*
X218924757Y-94189999D02*
X218924757Y-89589999D01*
X219074757Y-94189999D02*
X219074757Y-89589999D01*
X219224757Y-94189999D02*
X219224757Y-89589999D01*
X219374757Y-94189999D02*
X219374757Y-89589999D01*
X219524757Y-94189999D02*
X219524757Y-89589999D01*
X219674757Y-94189999D02*
X219674757Y-89589999D01*
X219824757Y-94189999D02*
X219824757Y-89589999D01*
X219974757Y-94189999D02*
X219974757Y-89589999D01*
X220124757Y-94189999D02*
X220124757Y-89589999D01*
X220274757Y-94189999D02*
X220274757Y-89589999D01*
X220424757Y-94189999D02*
X220424757Y-89589999D01*
X220574757Y-94189999D02*
X220574757Y-89589999D01*
X220724757Y-94189999D02*
X220724757Y-89589999D01*
X220874757Y-94189999D02*
X220874757Y-89589999D01*
X221024757Y-94189999D02*
X221024757Y-89589999D01*
X221074757Y-89564999D02*
X218499757Y-89564999D01*
X221074757Y-94214999D02*
X218749757Y-94214999D01*
X221174757Y-94079999D02*
X221174757Y-89689999D01*
X221324757Y-93939999D02*
X221324757Y-89819999D01*
X221474757Y-93809999D02*
X221474757Y-89979999D01*
X221624757Y-93649999D02*
X221624757Y-90119999D01*
X221724757Y-93549999D02*
X221724757Y-90219999D01*
X221824757Y-93439999D02*
X221824757Y-90319999D01*
X221924757Y-93359999D02*
X221924757Y-90429999D01*
X222074757Y-90564999D02*
X221074757Y-89564999D01*
X222074757Y-90564999D02*
X222074757Y-93214999D01*
X222074757Y-93214999D02*
X221074757Y-94214999D01*
X212469757Y-88364999D02*
G75*
G02*
X213469757Y-87364999I999999J1D01*
G01*
X213469757Y-92014999D02*
G75*
G02*
X212469757Y-91014999I-1J999999D01*
G01*
X215474757Y-92007457D02*
G75*
G02*
X217474757Y-93189999I-2J-2282546D01*
G01*
X216463553Y-87364999D02*
G75*
G02*
X217324757Y-88066886I-38796J-926887D01*
G01*
X218499757Y-89564999D02*
G75*
G02*
X217324757Y-88389999I2J1175002D01*
G01*
X210274757Y-86589999D02*
G75*
G02*
X209274757Y-86589999I-500000J0D01*
G01*
X209274757Y-86589999D02*
G75*
G02*
X210274757Y-86589999I500000J0D01*
G01*
D13*
X190384757Y-66014999D02*
X190384757Y-67514999D01*
D11*
X193279757Y-66834999D02*
X193279757Y-69484999D01*
X193434757Y-69989999D02*
X193434757Y-66309999D01*
X193584757Y-70159999D02*
X193584757Y-66189999D01*
X193734757Y-70299999D02*
X193734757Y-66159999D01*
X193884757Y-70379999D02*
X193884757Y-66259999D01*
X194034757Y-70429999D02*
X194034757Y-66109999D01*
X194184757Y-70469999D02*
X194184757Y-65959999D01*
X194334757Y-70459999D02*
X194334757Y-65859999D01*
X194484757Y-70459999D02*
X194484757Y-65859999D01*
X194634757Y-70459999D02*
X194634757Y-65859999D01*
D13*
X194784757Y-66014999D02*
X190384757Y-66014999D01*
D11*
X194784757Y-70459999D02*
X194784757Y-65859999D01*
X194934757Y-70459999D02*
X194934757Y-65859999D01*
X195084757Y-70459999D02*
X195084757Y-65859999D01*
X195234757Y-70459999D02*
X195234757Y-65859999D01*
X195384757Y-70459999D02*
X195384757Y-65859999D01*
X195534757Y-70459999D02*
X195534757Y-65859999D01*
X195684757Y-70459999D02*
X195684757Y-65859999D01*
X195834757Y-70459999D02*
X195834757Y-65859999D01*
X195984757Y-70459999D02*
X195984757Y-65859999D01*
X196134757Y-70459999D02*
X196134757Y-65859999D01*
X196284757Y-70459999D02*
X196284757Y-65859999D01*
X196284757Y-70484999D02*
X194309757Y-70484999D01*
X196434757Y-70459999D02*
X196434757Y-65909999D01*
X196584757Y-70499999D02*
X196584757Y-65859999D01*
X196734757Y-70509999D02*
X196734757Y-65859999D01*
X196884757Y-70509999D02*
X196884757Y-65909999D01*
X197034757Y-70559999D02*
X197034757Y-65849999D01*
X197184757Y-70659999D02*
X197184757Y-65839999D01*
X197273553Y-65834999D02*
X194309757Y-65834999D01*
X197334757Y-70709999D02*
X197334757Y-65859999D01*
X197484757Y-70809999D02*
X197484757Y-65889999D01*
X197634757Y-70909999D02*
X197634757Y-65939999D01*
X197784757Y-71009999D02*
X197784757Y-66019999D01*
X197934757Y-71159999D02*
X197934757Y-66209999D01*
X198084757Y-71309999D02*
X198084757Y-66409999D01*
X198134757Y-66859999D02*
X198134757Y-66536886D01*
X198184757Y-71479999D02*
X198184757Y-67359999D01*
X198284757Y-71659999D02*
X198284757Y-67509999D01*
X198284757Y-71659999D02*
X199559757Y-72684999D01*
X198384757Y-71729999D02*
X198384757Y-67709999D01*
X198484757Y-71809999D02*
X198484757Y-67809999D01*
X198584757Y-71889999D02*
X198584757Y-67859999D01*
X198694757Y-71979999D02*
X198684757Y-67909999D01*
X198834757Y-72079999D02*
X198834757Y-67959999D01*
X198984757Y-72219999D02*
X198984757Y-68059999D01*
X199134757Y-72339999D02*
X199134757Y-68059999D01*
X199284757Y-72449999D02*
X199284757Y-68059999D01*
X199434757Y-72569999D02*
X199434757Y-68109999D01*
X199584757Y-72659999D02*
X199584757Y-68059999D01*
X199734757Y-72659999D02*
X199734757Y-68059999D01*
X199884757Y-72659999D02*
X199884757Y-68059999D01*
X200034757Y-72659999D02*
X200034757Y-68059999D01*
X200184757Y-72659999D02*
X200184757Y-68059999D01*
X200334757Y-72659999D02*
X200334757Y-68059999D01*
X200484757Y-72659999D02*
X200484757Y-68059999D01*
X200634757Y-72659999D02*
X200634757Y-68059999D01*
X200784757Y-72659999D02*
X200784757Y-68059999D01*
X200934757Y-72659999D02*
X200934757Y-68059999D01*
X201084757Y-72659999D02*
X201084757Y-68059999D01*
X201234757Y-72659999D02*
X201234757Y-68059999D01*
X201384757Y-72659999D02*
X201384757Y-68059999D01*
X201534757Y-72659999D02*
X201534757Y-68059999D01*
X201684757Y-72659999D02*
X201684757Y-68059999D01*
X201834757Y-72659999D02*
X201834757Y-68059999D01*
X201884757Y-68034999D02*
X199309757Y-68034999D01*
X201884757Y-72684999D02*
X199559757Y-72684999D01*
X201984757Y-72549999D02*
X201984757Y-68159999D01*
X202134757Y-72409999D02*
X202134757Y-68289999D01*
X202284757Y-72279999D02*
X202284757Y-68449999D01*
X202434757Y-72119999D02*
X202434757Y-68589999D01*
X202534757Y-72019999D02*
X202534757Y-68689999D01*
X202634757Y-71909999D02*
X202634757Y-68789999D01*
X202734757Y-71829999D02*
X202734757Y-68899999D01*
X202884757Y-69034999D02*
X201884757Y-68034999D01*
X202884757Y-69034999D02*
X202884757Y-71684999D01*
X202884757Y-71684999D02*
X201884757Y-72684999D01*
X193279757Y-66834999D02*
G75*
G02*
X194279757Y-65834999I999999J1D01*
G01*
X194279757Y-70484999D02*
G75*
G02*
X193279757Y-69484999I-1J999999D01*
G01*
X196284757Y-70477457D02*
G75*
G02*
X198284757Y-71659999I-2J-2282546D01*
G01*
X197273553Y-65834999D02*
G75*
G02*
X198134757Y-66536886I-38796J-926887D01*
G01*
X199309757Y-68034999D02*
G75*
G02*
X198134757Y-66859999I2J1175002D01*
G01*
X191084757Y-65059999D02*
G75*
G02*
X190084757Y-65059999I-500000J0D01*
G01*
X190084757Y-65059999D02*
G75*
G02*
X191084757Y-65059999I500000J0D01*
G01*
D13*
X228754132Y-108969999D02*
X228754132Y-110469999D01*
D11*
X231649132Y-109789999D02*
X231649132Y-112439999D01*
X231804132Y-112944999D02*
X231804132Y-109264999D01*
X231954132Y-113114999D02*
X231954132Y-109144999D01*
X232104132Y-113254999D02*
X232104132Y-109114999D01*
X232254132Y-113334999D02*
X232254132Y-109214999D01*
X232404132Y-113384999D02*
X232404132Y-109064999D01*
X232554132Y-113424999D02*
X232554132Y-108914999D01*
X232704132Y-113414999D02*
X232704132Y-108814999D01*
X232854132Y-113414999D02*
X232854132Y-108814999D01*
X233004132Y-113414999D02*
X233004132Y-108814999D01*
D13*
X233154132Y-108969999D02*
X228754132Y-108969999D01*
D11*
X233154132Y-113414999D02*
X233154132Y-108814999D01*
X233304132Y-113414999D02*
X233304132Y-108814999D01*
X233454132Y-113414999D02*
X233454132Y-108814999D01*
X233604132Y-113414999D02*
X233604132Y-108814999D01*
X233754132Y-113414999D02*
X233754132Y-108814999D01*
X233904132Y-113414999D02*
X233904132Y-108814999D01*
X234054132Y-113414999D02*
X234054132Y-108814999D01*
X234204132Y-113414999D02*
X234204132Y-108814999D01*
X234354132Y-113414999D02*
X234354132Y-108814999D01*
X234504132Y-113414999D02*
X234504132Y-108814999D01*
X234654132Y-113414999D02*
X234654132Y-108814999D01*
X234654132Y-113439999D02*
X232679132Y-113439999D01*
X234804132Y-113414999D02*
X234804132Y-108864999D01*
X234954132Y-113454999D02*
X234954132Y-108814999D01*
X235104132Y-113464999D02*
X235104132Y-108814999D01*
X235254132Y-113464999D02*
X235254132Y-108864999D01*
X235404132Y-113514999D02*
X235404132Y-108804999D01*
X235554132Y-113614999D02*
X235554132Y-108794999D01*
X235642928Y-108789999D02*
X232679132Y-108789999D01*
X235704132Y-113664999D02*
X235704132Y-108814999D01*
X235854132Y-113764999D02*
X235854132Y-108844999D01*
X236004132Y-113864999D02*
X236004132Y-108894999D01*
X236154132Y-113964999D02*
X236154132Y-108974999D01*
X236304132Y-114114999D02*
X236304132Y-109164999D01*
X236454132Y-114264999D02*
X236454132Y-109364999D01*
X236504132Y-109814999D02*
X236504132Y-109491886D01*
X236554132Y-114434999D02*
X236554132Y-110314999D01*
X236654132Y-114614999D02*
X236654132Y-110464999D01*
X236654132Y-114614999D02*
X237929132Y-115639999D01*
X236754132Y-114684999D02*
X236754132Y-110664999D01*
X236854132Y-114764999D02*
X236854132Y-110764999D01*
X236954132Y-114844999D02*
X236954132Y-110814999D01*
X237064132Y-114934999D02*
X237054132Y-110864999D01*
X237204132Y-115034999D02*
X237204132Y-110914999D01*
X237354132Y-115174999D02*
X237354132Y-111014999D01*
X237504132Y-115294999D02*
X237504132Y-111014999D01*
X237654132Y-115404999D02*
X237654132Y-111014999D01*
X237804132Y-115524999D02*
X237804132Y-111064999D01*
X237954132Y-115614999D02*
X237954132Y-111014999D01*
X238104132Y-115614999D02*
X238104132Y-111014999D01*
X238254132Y-115614999D02*
X238254132Y-111014999D01*
X238404132Y-115614999D02*
X238404132Y-111014999D01*
X238554132Y-115614999D02*
X238554132Y-111014999D01*
X238704132Y-115614999D02*
X238704132Y-111014999D01*
X238854132Y-115614999D02*
X238854132Y-111014999D01*
X239004132Y-115614999D02*
X239004132Y-111014999D01*
X239154132Y-115614999D02*
X239154132Y-111014999D01*
X239304132Y-115614999D02*
X239304132Y-111014999D01*
X239454132Y-115614999D02*
X239454132Y-111014999D01*
X239604132Y-115614999D02*
X239604132Y-111014999D01*
X239754132Y-115614999D02*
X239754132Y-111014999D01*
X239904132Y-115614999D02*
X239904132Y-111014999D01*
X240054132Y-115614999D02*
X240054132Y-111014999D01*
X240204132Y-115614999D02*
X240204132Y-111014999D01*
X240254132Y-110989999D02*
X237679132Y-110989999D01*
X240254132Y-115639999D02*
X237929132Y-115639999D01*
X240354132Y-115504999D02*
X240354132Y-111114999D01*
X240504132Y-115364999D02*
X240504132Y-111244999D01*
X240654132Y-115234999D02*
X240654132Y-111404999D01*
X240804132Y-115074999D02*
X240804132Y-111544999D01*
X240904132Y-114974999D02*
X240904132Y-111644999D01*
X241004132Y-114864999D02*
X241004132Y-111744999D01*
X241104132Y-114784999D02*
X241104132Y-111854999D01*
X241254132Y-111989999D02*
X240254132Y-110989999D01*
X241254132Y-111989999D02*
X241254132Y-114639999D01*
X241254132Y-114639999D02*
X240254132Y-115639999D01*
X231649132Y-109789999D02*
G75*
G02*
X232649132Y-108789999I999999J1D01*
G01*
X232649132Y-113439999D02*
G75*
G02*
X231649132Y-112439999I-1J999999D01*
G01*
X234654132Y-113432457D02*
G75*
G02*
X236654132Y-114614999I-2J-2282546D01*
G01*
X235642928Y-108789999D02*
G75*
G02*
X236504132Y-109491886I-38796J-926887D01*
G01*
X237679132Y-110989999D02*
G75*
G02*
X236504132Y-109814999I2J1175002D01*
G01*
X229454132Y-108014999D02*
G75*
G02*
X228454132Y-108014999I-500000J0D01*
G01*
X228454132Y-108014999D02*
G75*
G02*
X229454132Y-108014999I500000J0D01*
G01*
D13*
X209574757Y-68354999D02*
X209574757Y-69854999D01*
D11*
X212469757Y-69174999D02*
X212469757Y-71824999D01*
X212624757Y-72329999D02*
X212624757Y-68649999D01*
X212774757Y-72499999D02*
X212774757Y-68529999D01*
X212924757Y-72639999D02*
X212924757Y-68499999D01*
X213074757Y-72719999D02*
X213074757Y-68599999D01*
X213224757Y-72769999D02*
X213224757Y-68449999D01*
X213374757Y-72809999D02*
X213374757Y-68299999D01*
X213524757Y-72799999D02*
X213524757Y-68199999D01*
X213674757Y-72799999D02*
X213674757Y-68199999D01*
X213824757Y-72799999D02*
X213824757Y-68199999D01*
D13*
X213974757Y-68354999D02*
X209574757Y-68354999D01*
D11*
X213974757Y-72799999D02*
X213974757Y-68199999D01*
X214124757Y-72799999D02*
X214124757Y-68199999D01*
X214274757Y-72799999D02*
X214274757Y-68199999D01*
X214424757Y-72799999D02*
X214424757Y-68199999D01*
X214574757Y-72799999D02*
X214574757Y-68199999D01*
X214724757Y-72799999D02*
X214724757Y-68199999D01*
X214874757Y-72799999D02*
X214874757Y-68199999D01*
X215024757Y-72799999D02*
X215024757Y-68199999D01*
X215174757Y-72799999D02*
X215174757Y-68199999D01*
X215324757Y-72799999D02*
X215324757Y-68199999D01*
X215474757Y-72799999D02*
X215474757Y-68199999D01*
X215474757Y-72824999D02*
X213499757Y-72824999D01*
X215624757Y-72799999D02*
X215624757Y-68249999D01*
X215774757Y-72839999D02*
X215774757Y-68199999D01*
X215924757Y-72849999D02*
X215924757Y-68199999D01*
X216074757Y-72849999D02*
X216074757Y-68249999D01*
X216224757Y-72899999D02*
X216224757Y-68189999D01*
X216374757Y-72999999D02*
X216374757Y-68179999D01*
X216463553Y-68174999D02*
X213499757Y-68174999D01*
X216524757Y-73049999D02*
X216524757Y-68199999D01*
X216674757Y-73149999D02*
X216674757Y-68229999D01*
X216824757Y-73249999D02*
X216824757Y-68279999D01*
X216974757Y-73349999D02*
X216974757Y-68359999D01*
X217124757Y-73499999D02*
X217124757Y-68549999D01*
X217274757Y-73649999D02*
X217274757Y-68749999D01*
X217324757Y-69199999D02*
X217324757Y-68876886D01*
X217374757Y-73819999D02*
X217374757Y-69699999D01*
X217474757Y-73999999D02*
X217474757Y-69849999D01*
X217474757Y-73999999D02*
X218749757Y-75024999D01*
X217574757Y-74069999D02*
X217574757Y-70049999D01*
X217674757Y-74149999D02*
X217674757Y-70149999D01*
X217774757Y-74229999D02*
X217774757Y-70199999D01*
X217884757Y-74319999D02*
X217874757Y-70249999D01*
X218024757Y-74419999D02*
X218024757Y-70299999D01*
X218174757Y-74559999D02*
X218174757Y-70399999D01*
X218324757Y-74679999D02*
X218324757Y-70399999D01*
X218474757Y-74789999D02*
X218474757Y-70399999D01*
X218624757Y-74909999D02*
X218624757Y-70449999D01*
X218774757Y-74999999D02*
X218774757Y-70399999D01*
X218924757Y-74999999D02*
X218924757Y-70399999D01*
X219074757Y-74999999D02*
X219074757Y-70399999D01*
X219224757Y-74999999D02*
X219224757Y-70399999D01*
X219374757Y-74999999D02*
X219374757Y-70399999D01*
X219524757Y-74999999D02*
X219524757Y-70399999D01*
X219674757Y-74999999D02*
X219674757Y-70399999D01*
X219824757Y-74999999D02*
X219824757Y-70399999D01*
X219974757Y-74999999D02*
X219974757Y-70399999D01*
X220124757Y-74999999D02*
X220124757Y-70399999D01*
X220274757Y-74999999D02*
X220274757Y-70399999D01*
X220424757Y-74999999D02*
X220424757Y-70399999D01*
X220574757Y-74999999D02*
X220574757Y-70399999D01*
X220724757Y-74999999D02*
X220724757Y-70399999D01*
X220874757Y-74999999D02*
X220874757Y-70399999D01*
X221024757Y-74999999D02*
X221024757Y-70399999D01*
X221074757Y-70374999D02*
X218499757Y-70374999D01*
X221074757Y-75024999D02*
X218749757Y-75024999D01*
X221174757Y-74889999D02*
X221174757Y-70499999D01*
X221324757Y-74749999D02*
X221324757Y-70629999D01*
X221474757Y-74619999D02*
X221474757Y-70789999D01*
X221624757Y-74459999D02*
X221624757Y-70929999D01*
X221724757Y-74359999D02*
X221724757Y-71029999D01*
X221824757Y-74249999D02*
X221824757Y-71129999D01*
X221924757Y-74169999D02*
X221924757Y-71239999D01*
X222074757Y-71374999D02*
X221074757Y-70374999D01*
X222074757Y-71374999D02*
X222074757Y-74024999D01*
X222074757Y-74024999D02*
X221074757Y-75024999D01*
X212469757Y-69174999D02*
G75*
G02*
X213469757Y-68174999I999999J1D01*
G01*
X213469757Y-72824999D02*
G75*
G02*
X212469757Y-71824999I-1J999999D01*
G01*
X215474757Y-72817457D02*
G75*
G02*
X217474757Y-73999999I-2J-2282546D01*
G01*
X216463553Y-68174999D02*
G75*
G02*
X217324757Y-68876886I-38796J-926887D01*
G01*
X218499757Y-70374999D02*
G75*
G02*
X217324757Y-69199999I2J1175002D01*
G01*
X210274757Y-67399999D02*
G75*
G02*
X209274757Y-67399999I-500000J0D01*
G01*
X209274757Y-67399999D02*
G75*
G02*
X210274757Y-67399999I500000J0D01*
G01*
D12*
X212532818Y-61640000D02*
X212731256Y-61640000D01*
X212731256Y-61044686D02*
X212731256Y-62235314D01*
X212731256Y-62235314D02*
X214318760Y-62235314D01*
X213128132Y-62235314D02*
X213128132Y-61044686D01*
X214318760Y-61044686D02*
X212731256Y-61044686D01*
X214318760Y-61640000D02*
X214517198Y-61640000D01*
X214318760Y-62235314D02*
X214318760Y-61044686D01*
X241035686Y-127810126D02*
X241231109Y-127844584D01*
X241127734Y-128430854D02*
X242691120Y-128706521D01*
X241334484Y-127258314D02*
X241127734Y-128430854D01*
X241518580Y-128499771D02*
X241725331Y-127327231D01*
X242691120Y-128706521D02*
X242897870Y-127533981D01*
X242794495Y-128120251D02*
X242989918Y-128154710D01*
X242897870Y-127533981D02*
X241334484Y-127258314D01*
X231779381Y-63810000D02*
X231977819Y-63810000D01*
X231977819Y-63214686D02*
X231977819Y-64405314D01*
X231977819Y-64405314D02*
X233565323Y-64405314D01*
X232374695Y-64405314D02*
X232374695Y-63214686D01*
X233565323Y-63214686D02*
X231977819Y-63214686D01*
X233565323Y-63810000D02*
X233763761Y-63810000D01*
X233565323Y-64405314D02*
X233565323Y-63214686D01*
X212562818Y-99960000D02*
X212761256Y-99960000D01*
X212761256Y-99364686D02*
X212761256Y-100555314D01*
X212761256Y-100555314D02*
X214348760Y-100555314D01*
X213158132Y-100555314D02*
X213158132Y-99364686D01*
X214348760Y-99364686D02*
X212761256Y-99364686D01*
X214348760Y-99960000D02*
X214547198Y-99960000D01*
X214348760Y-100555314D02*
X214348760Y-99364686D01*
X195622818Y-58410000D02*
X195821256Y-58410000D01*
X195821256Y-57814686D02*
X195821256Y-59005314D01*
X195821256Y-59005314D02*
X197408760Y-59005314D01*
X196218132Y-59005314D02*
X196218132Y-57814686D01*
X197408760Y-57814686D02*
X195821256Y-57814686D01*
X197408760Y-58410000D02*
X197607198Y-58410000D01*
X197408760Y-59005314D02*
X197408760Y-57814686D01*
D13*
X171184757Y-90199999D02*
X171184757Y-91699999D01*
D11*
X174079757Y-91019999D02*
X174079757Y-93669999D01*
X174234757Y-94174999D02*
X174234757Y-90494999D01*
X174384757Y-94344999D02*
X174384757Y-90374999D01*
X174534757Y-94484999D02*
X174534757Y-90344999D01*
X174684757Y-94564999D02*
X174684757Y-90444999D01*
X174834757Y-94614999D02*
X174834757Y-90294999D01*
X174984757Y-94654999D02*
X174984757Y-90144999D01*
X175134757Y-94644999D02*
X175134757Y-90044999D01*
X175284757Y-94644999D02*
X175284757Y-90044999D01*
X175434757Y-94644999D02*
X175434757Y-90044999D01*
D13*
X175584757Y-90199999D02*
X171184757Y-90199999D01*
D11*
X175584757Y-94644999D02*
X175584757Y-90044999D01*
X175734757Y-94644999D02*
X175734757Y-90044999D01*
X175884757Y-94644999D02*
X175884757Y-90044999D01*
X176034757Y-94644999D02*
X176034757Y-90044999D01*
X176184757Y-94644999D02*
X176184757Y-90044999D01*
X176334757Y-94644999D02*
X176334757Y-90044999D01*
X176484757Y-94644999D02*
X176484757Y-90044999D01*
X176634757Y-94644999D02*
X176634757Y-90044999D01*
X176784757Y-94644999D02*
X176784757Y-90044999D01*
X176934757Y-94644999D02*
X176934757Y-90044999D01*
X177084757Y-94644999D02*
X177084757Y-90044999D01*
X177084757Y-94669999D02*
X175109757Y-94669999D01*
X177234757Y-94644999D02*
X177234757Y-90094999D01*
X177384757Y-94684999D02*
X177384757Y-90044999D01*
X177534757Y-94694999D02*
X177534757Y-90044999D01*
X177684757Y-94694999D02*
X177684757Y-90094999D01*
X177834757Y-94744999D02*
X177834757Y-90034999D01*
X177984757Y-94844999D02*
X177984757Y-90024999D01*
X178073553Y-90019999D02*
X175109757Y-90019999D01*
X178134757Y-94894999D02*
X178134757Y-90044999D01*
X178284757Y-94994999D02*
X178284757Y-90074999D01*
X178434757Y-95094999D02*
X178434757Y-90124999D01*
X178584757Y-95194999D02*
X178584757Y-90204999D01*
X178734757Y-95344999D02*
X178734757Y-90394999D01*
X178884757Y-95494999D02*
X178884757Y-90594999D01*
X178934757Y-91044999D02*
X178934757Y-90721886D01*
X178984757Y-95664999D02*
X178984757Y-91544999D01*
X179084757Y-95844999D02*
X179084757Y-91694999D01*
X179084757Y-95844999D02*
X180359757Y-96869999D01*
X179184757Y-95914999D02*
X179184757Y-91894999D01*
X179284757Y-95994999D02*
X179284757Y-91994999D01*
X179384757Y-96074999D02*
X179384757Y-92044999D01*
X179494757Y-96164999D02*
X179484757Y-92094999D01*
X179634757Y-96264999D02*
X179634757Y-92144999D01*
X179784757Y-96404999D02*
X179784757Y-92244999D01*
X179934757Y-96524999D02*
X179934757Y-92244999D01*
X180084757Y-96634999D02*
X180084757Y-92244999D01*
X180234757Y-96754999D02*
X180234757Y-92294999D01*
X180384757Y-96844999D02*
X180384757Y-92244999D01*
X180534757Y-96844999D02*
X180534757Y-92244999D01*
X180684757Y-96844999D02*
X180684757Y-92244999D01*
X180834757Y-96844999D02*
X180834757Y-92244999D01*
X180984757Y-96844999D02*
X180984757Y-92244999D01*
X181134757Y-96844999D02*
X181134757Y-92244999D01*
X181284757Y-96844999D02*
X181284757Y-92244999D01*
X181434757Y-96844999D02*
X181434757Y-92244999D01*
X181584757Y-96844999D02*
X181584757Y-92244999D01*
X181734757Y-96844999D02*
X181734757Y-92244999D01*
X181884757Y-96844999D02*
X181884757Y-92244999D01*
X182034757Y-96844999D02*
X182034757Y-92244999D01*
X182184757Y-96844999D02*
X182184757Y-92244999D01*
X182334757Y-96844999D02*
X182334757Y-92244999D01*
X182484757Y-96844999D02*
X182484757Y-92244999D01*
X182634757Y-96844999D02*
X182634757Y-92244999D01*
X182684757Y-92219999D02*
X180109757Y-92219999D01*
X182684757Y-96869999D02*
X180359757Y-96869999D01*
X182784757Y-96734999D02*
X182784757Y-92344999D01*
X182934757Y-96594999D02*
X182934757Y-92474999D01*
X183084757Y-96464999D02*
X183084757Y-92634999D01*
X183234757Y-96304999D02*
X183234757Y-92774999D01*
X183334757Y-96204999D02*
X183334757Y-92874999D01*
X183434757Y-96094999D02*
X183434757Y-92974999D01*
X183534757Y-96014999D02*
X183534757Y-93084999D01*
X183684757Y-93219999D02*
X182684757Y-92219999D01*
X183684757Y-93219999D02*
X183684757Y-95869999D01*
X183684757Y-95869999D02*
X182684757Y-96869999D01*
X174079757Y-91019999D02*
G75*
G02*
X175079757Y-90019999I999999J1D01*
G01*
X175079757Y-94669999D02*
G75*
G02*
X174079757Y-93669999I-1J999999D01*
G01*
X177084757Y-94662457D02*
G75*
G02*
X179084757Y-95844999I-2J-2282546D01*
G01*
X178073553Y-90019999D02*
G75*
G02*
X178934757Y-90721886I-38796J-926887D01*
G01*
X180109757Y-92219999D02*
G75*
G02*
X178934757Y-91044999I2J1175002D01*
G01*
X171884757Y-89244999D02*
G75*
G02*
X170884757Y-89244999I-500000J0D01*
G01*
X170884757Y-89244999D02*
G75*
G02*
X171884757Y-89244999I500000J0D01*
G01*
D13*
X132901320Y-76589999D02*
X132901320Y-78089999D01*
D11*
X135796320Y-77409999D02*
X135796320Y-80059999D01*
X135951320Y-80564999D02*
X135951320Y-76884999D01*
X136101320Y-80734999D02*
X136101320Y-76764999D01*
X136251320Y-80874999D02*
X136251320Y-76734999D01*
X136401320Y-80954999D02*
X136401320Y-76834999D01*
X136551320Y-81004999D02*
X136551320Y-76684999D01*
X136701320Y-81044999D02*
X136701320Y-76534999D01*
X136851320Y-81034999D02*
X136851320Y-76434999D01*
X137001320Y-81034999D02*
X137001320Y-76434999D01*
X137151320Y-81034999D02*
X137151320Y-76434999D01*
D13*
X137301320Y-76589999D02*
X132901320Y-76589999D01*
D11*
X137301320Y-81034999D02*
X137301320Y-76434999D01*
X137451320Y-81034999D02*
X137451320Y-76434999D01*
X137601320Y-81034999D02*
X137601320Y-76434999D01*
X137751320Y-81034999D02*
X137751320Y-76434999D01*
X137901320Y-81034999D02*
X137901320Y-76434999D01*
X138051320Y-81034999D02*
X138051320Y-76434999D01*
X138201320Y-81034999D02*
X138201320Y-76434999D01*
X138351320Y-81034999D02*
X138351320Y-76434999D01*
X138501320Y-81034999D02*
X138501320Y-76434999D01*
X138651320Y-81034999D02*
X138651320Y-76434999D01*
X138801320Y-81034999D02*
X138801320Y-76434999D01*
X138801320Y-81059999D02*
X136826320Y-81059999D01*
X138951320Y-81034999D02*
X138951320Y-76484999D01*
X139101320Y-81074999D02*
X139101320Y-76434999D01*
X139251320Y-81084999D02*
X139251320Y-76434999D01*
X139401320Y-81084999D02*
X139401320Y-76484999D01*
X139551320Y-81134999D02*
X139551320Y-76424999D01*
X139701320Y-81234999D02*
X139701320Y-76414999D01*
X139790116Y-76409999D02*
X136826320Y-76409999D01*
X139851320Y-81284999D02*
X139851320Y-76434999D01*
X140001320Y-81384999D02*
X140001320Y-76464999D01*
X140151320Y-81484999D02*
X140151320Y-76514999D01*
X140301320Y-81584999D02*
X140301320Y-76594999D01*
X140451320Y-81734999D02*
X140451320Y-76784999D01*
X140601320Y-81884999D02*
X140601320Y-76984999D01*
X140651320Y-77434999D02*
X140651320Y-77111886D01*
X140701320Y-82054999D02*
X140701320Y-77934999D01*
X140801320Y-82234999D02*
X140801320Y-78084999D01*
X140801320Y-82234999D02*
X142076320Y-83259999D01*
X140901320Y-82304999D02*
X140901320Y-78284999D01*
X141001320Y-82384999D02*
X141001320Y-78384999D01*
X141101320Y-82464999D02*
X141101320Y-78434999D01*
X141211320Y-82554999D02*
X141201320Y-78484999D01*
X141351320Y-82654999D02*
X141351320Y-78534999D01*
X141501320Y-82794999D02*
X141501320Y-78634999D01*
X141651320Y-82914999D02*
X141651320Y-78634999D01*
X141801320Y-83024999D02*
X141801320Y-78634999D01*
X141951320Y-83144999D02*
X141951320Y-78684999D01*
X142101320Y-83234999D02*
X142101320Y-78634999D01*
X142251320Y-83234999D02*
X142251320Y-78634999D01*
X142401320Y-83234999D02*
X142401320Y-78634999D01*
X142551320Y-83234999D02*
X142551320Y-78634999D01*
X142701320Y-83234999D02*
X142701320Y-78634999D01*
X142851320Y-83234999D02*
X142851320Y-78634999D01*
X143001320Y-83234999D02*
X143001320Y-78634999D01*
X143151320Y-83234999D02*
X143151320Y-78634999D01*
X143301320Y-83234999D02*
X143301320Y-78634999D01*
X143451320Y-83234999D02*
X143451320Y-78634999D01*
X143601320Y-83234999D02*
X143601320Y-78634999D01*
X143751320Y-83234999D02*
X143751320Y-78634999D01*
X143901320Y-83234999D02*
X143901320Y-78634999D01*
X144051320Y-83234999D02*
X144051320Y-78634999D01*
X144201320Y-83234999D02*
X144201320Y-78634999D01*
X144351320Y-83234999D02*
X144351320Y-78634999D01*
X144401320Y-78609999D02*
X141826320Y-78609999D01*
X144401320Y-83259999D02*
X142076320Y-83259999D01*
X144501320Y-83124999D02*
X144501320Y-78734999D01*
X144651320Y-82984999D02*
X144651320Y-78864999D01*
X144801320Y-82854999D02*
X144801320Y-79024999D01*
X144951320Y-82694999D02*
X144951320Y-79164999D01*
X145051320Y-82594999D02*
X145051320Y-79264999D01*
X145151320Y-82484999D02*
X145151320Y-79364999D01*
X145251320Y-82404999D02*
X145251320Y-79474999D01*
X145401320Y-79609999D02*
X144401320Y-78609999D01*
X145401320Y-79609999D02*
X145401320Y-82259999D01*
X145401320Y-82259999D02*
X144401320Y-83259999D01*
X135796320Y-77409999D02*
G75*
G02*
X136796320Y-76409999I999999J1D01*
G01*
X136796320Y-81059999D02*
G75*
G02*
X135796320Y-80059999I-1J999999D01*
G01*
X138801320Y-81052457D02*
G75*
G02*
X140801320Y-82234999I-2J-2282546D01*
G01*
X139790116Y-76409999D02*
G75*
G02*
X140651320Y-77111886I-38796J-926887D01*
G01*
X141826320Y-78609999D02*
G75*
G02*
X140651320Y-77434999I2J1175002D01*
G01*
X133601320Y-75634999D02*
G75*
G02*
X132601320Y-75634999I-500000J0D01*
G01*
X132601320Y-75634999D02*
G75*
G02*
X133601320Y-75634999I500000J0D01*
G01*
D12*
X193392818Y-97690000D02*
X193591256Y-97690000D01*
X193591256Y-97094686D02*
X193591256Y-98285314D01*
X193591256Y-98285314D02*
X195178760Y-98285314D01*
X193988132Y-98285314D02*
X193988132Y-97094686D01*
X195178760Y-97094686D02*
X193591256Y-97094686D01*
X195178760Y-97690000D02*
X195377198Y-97690000D01*
X195178760Y-98285314D02*
X195178760Y-97094686D01*
X265297974Y-132568110D02*
X266789740Y-133111069D01*
X265315113Y-131940829D02*
X265501583Y-132008698D01*
X265670915Y-132703850D02*
X266078134Y-131585026D01*
X265705193Y-131449286D02*
X265297974Y-132568110D01*
X266789740Y-133111069D02*
X267196958Y-131992244D01*
X266993349Y-132551656D02*
X267179819Y-132619527D01*
X267196958Y-131992244D02*
X265705193Y-131449286D01*
X231779381Y-83720000D02*
X231977819Y-83720000D01*
X231977819Y-83124686D02*
X231977819Y-84315314D01*
X231977819Y-84315314D02*
X233565323Y-84315314D01*
X232374695Y-84315314D02*
X232374695Y-83124686D01*
X233565323Y-83124686D02*
X231977819Y-83124686D01*
X233565323Y-83720000D02*
X233763761Y-83720000D01*
X233565323Y-84315314D02*
X233565323Y-83124686D01*
X157242818Y-107300000D02*
X157441256Y-107300000D01*
X157441256Y-106704686D02*
X157441256Y-107895314D01*
X157441256Y-107895314D02*
X159028760Y-107895314D01*
X157838132Y-107895314D02*
X157838132Y-106704686D01*
X159028760Y-106704686D02*
X157441256Y-106704686D01*
X159028760Y-107300000D02*
X159227198Y-107300000D01*
X159028760Y-107895314D02*
X159028760Y-106704686D01*
X135892818Y-89060000D02*
X136091256Y-89060000D01*
X136091256Y-88464686D02*
X136091256Y-89655314D01*
X136091256Y-89655314D02*
X137678760Y-89655314D01*
X136488132Y-89655314D02*
X136488132Y-88464686D01*
X137678760Y-88464686D02*
X136091256Y-88464686D01*
X137678760Y-89060000D02*
X137877198Y-89060000D01*
X137678760Y-89655314D02*
X137678760Y-88464686D01*
D13*
X152084757Y-76589999D02*
X152084757Y-78089999D01*
D11*
X154979757Y-77409999D02*
X154979757Y-80059999D01*
X155134757Y-80564999D02*
X155134757Y-76884999D01*
X155284757Y-80734999D02*
X155284757Y-76764999D01*
X155434757Y-80874999D02*
X155434757Y-76734999D01*
X155584757Y-80954999D02*
X155584757Y-76834999D01*
X155734757Y-81004999D02*
X155734757Y-76684999D01*
X155884757Y-81044999D02*
X155884757Y-76534999D01*
X156034757Y-81034999D02*
X156034757Y-76434999D01*
X156184757Y-81034999D02*
X156184757Y-76434999D01*
X156334757Y-81034999D02*
X156334757Y-76434999D01*
D13*
X156484757Y-76589999D02*
X152084757Y-76589999D01*
D11*
X156484757Y-81034999D02*
X156484757Y-76434999D01*
X156634757Y-81034999D02*
X156634757Y-76434999D01*
X156784757Y-81034999D02*
X156784757Y-76434999D01*
X156934757Y-81034999D02*
X156934757Y-76434999D01*
X157084757Y-81034999D02*
X157084757Y-76434999D01*
X157234757Y-81034999D02*
X157234757Y-76434999D01*
X157384757Y-81034999D02*
X157384757Y-76434999D01*
X157534757Y-81034999D02*
X157534757Y-76434999D01*
X157684757Y-81034999D02*
X157684757Y-76434999D01*
X157834757Y-81034999D02*
X157834757Y-76434999D01*
X157984757Y-81034999D02*
X157984757Y-76434999D01*
X157984757Y-81059999D02*
X156009757Y-81059999D01*
X158134757Y-81034999D02*
X158134757Y-76484999D01*
X158284757Y-81074999D02*
X158284757Y-76434999D01*
X158434757Y-81084999D02*
X158434757Y-76434999D01*
X158584757Y-81084999D02*
X158584757Y-76484999D01*
X158734757Y-81134999D02*
X158734757Y-76424999D01*
X158884757Y-81234999D02*
X158884757Y-76414999D01*
X158973553Y-76409999D02*
X156009757Y-76409999D01*
X159034757Y-81284999D02*
X159034757Y-76434999D01*
X159184757Y-81384999D02*
X159184757Y-76464999D01*
X159334757Y-81484999D02*
X159334757Y-76514999D01*
X159484757Y-81584999D02*
X159484757Y-76594999D01*
X159634757Y-81734999D02*
X159634757Y-76784999D01*
X159784757Y-81884999D02*
X159784757Y-76984999D01*
X159834757Y-77434999D02*
X159834757Y-77111886D01*
X159884757Y-82054999D02*
X159884757Y-77934999D01*
X159984757Y-82234999D02*
X159984757Y-78084999D01*
X159984757Y-82234999D02*
X161259757Y-83259999D01*
X160084757Y-82304999D02*
X160084757Y-78284999D01*
X160184757Y-82384999D02*
X160184757Y-78384999D01*
X160284757Y-82464999D02*
X160284757Y-78434999D01*
X160394757Y-82554999D02*
X160384757Y-78484999D01*
X160534757Y-82654999D02*
X160534757Y-78534999D01*
X160684757Y-82794999D02*
X160684757Y-78634999D01*
X160834757Y-82914999D02*
X160834757Y-78634999D01*
X160984757Y-83024999D02*
X160984757Y-78634999D01*
X161134757Y-83144999D02*
X161134757Y-78684999D01*
X161284757Y-83234999D02*
X161284757Y-78634999D01*
X161434757Y-83234999D02*
X161434757Y-78634999D01*
X161584757Y-83234999D02*
X161584757Y-78634999D01*
X161734757Y-83234999D02*
X161734757Y-78634999D01*
X161884757Y-83234999D02*
X161884757Y-78634999D01*
X162034757Y-83234999D02*
X162034757Y-78634999D01*
X162184757Y-83234999D02*
X162184757Y-78634999D01*
X162334757Y-83234999D02*
X162334757Y-78634999D01*
X162484757Y-83234999D02*
X162484757Y-78634999D01*
X162634757Y-83234999D02*
X162634757Y-78634999D01*
X162784757Y-83234999D02*
X162784757Y-78634999D01*
X162934757Y-83234999D02*
X162934757Y-78634999D01*
X163084757Y-83234999D02*
X163084757Y-78634999D01*
X163234757Y-83234999D02*
X163234757Y-78634999D01*
X163384757Y-83234999D02*
X163384757Y-78634999D01*
X163534757Y-83234999D02*
X163534757Y-78634999D01*
X163584757Y-78609999D02*
X161009757Y-78609999D01*
X163584757Y-83259999D02*
X161259757Y-83259999D01*
X163684757Y-83124999D02*
X163684757Y-78734999D01*
X163834757Y-82984999D02*
X163834757Y-78864999D01*
X163984757Y-82854999D02*
X163984757Y-79024999D01*
X164134757Y-82694999D02*
X164134757Y-79164999D01*
X164234757Y-82594999D02*
X164234757Y-79264999D01*
X164334757Y-82484999D02*
X164334757Y-79364999D01*
X164434757Y-82404999D02*
X164434757Y-79474999D01*
X164584757Y-79609999D02*
X163584757Y-78609999D01*
X164584757Y-79609999D02*
X164584757Y-82259999D01*
X164584757Y-82259999D02*
X163584757Y-83259999D01*
X154979757Y-77409999D02*
G75*
G02*
X155979757Y-76409999I999999J1D01*
G01*
X155979757Y-81059999D02*
G75*
G02*
X154979757Y-80059999I-1J999999D01*
G01*
X157984757Y-81052457D02*
G75*
G02*
X159984757Y-82234999I-2J-2282546D01*
G01*
X158973553Y-76409999D02*
G75*
G02*
X159834757Y-77111886I-38796J-926887D01*
G01*
X161009757Y-78609999D02*
G75*
G02*
X159834757Y-77434999I2J1175002D01*
G01*
X152784757Y-75634999D02*
G75*
G02*
X151784757Y-75634999I-500000J0D01*
G01*
X151784757Y-75634999D02*
G75*
G02*
X152784757Y-75634999I500000J0D01*
G01*
D12*
X155152818Y-90670000D02*
X155351256Y-90670000D01*
X155351256Y-90074686D02*
X155351256Y-91265314D01*
X155351256Y-91265314D02*
X156938760Y-91265314D01*
X155748132Y-91265314D02*
X155748132Y-90074686D01*
X156938760Y-90074686D02*
X155351256Y-90074686D01*
X156938760Y-90670000D02*
X157137198Y-90670000D01*
X156938760Y-91265314D02*
X156938760Y-90074686D01*
X174192818Y-102590000D02*
X174391256Y-102590000D01*
X174391256Y-101994686D02*
X174391256Y-103185314D01*
X174391256Y-103185314D02*
X175978760Y-103185314D01*
X174788132Y-103185314D02*
X174788132Y-101994686D01*
X175978760Y-101994686D02*
X174391256Y-101994686D01*
X175978760Y-102590000D02*
X176177198Y-102590000D01*
X175978760Y-103185314D02*
X175978760Y-101994686D01*
D13*
X190384757Y-85204999D02*
X190384757Y-86704999D01*
D11*
X193279757Y-86024999D02*
X193279757Y-88674999D01*
X193434757Y-89179999D02*
X193434757Y-85499999D01*
X193584757Y-89349999D02*
X193584757Y-85379999D01*
X193734757Y-89489999D02*
X193734757Y-85349999D01*
X193884757Y-89569999D02*
X193884757Y-85449999D01*
X194034757Y-89619999D02*
X194034757Y-85299999D01*
X194184757Y-89659999D02*
X194184757Y-85149999D01*
X194334757Y-89649999D02*
X194334757Y-85049999D01*
X194484757Y-89649999D02*
X194484757Y-85049999D01*
X194634757Y-89649999D02*
X194634757Y-85049999D01*
D13*
X194784757Y-85204999D02*
X190384757Y-85204999D01*
D11*
X194784757Y-89649999D02*
X194784757Y-85049999D01*
X194934757Y-89649999D02*
X194934757Y-85049999D01*
X195084757Y-89649999D02*
X195084757Y-85049999D01*
X195234757Y-89649999D02*
X195234757Y-85049999D01*
X195384757Y-89649999D02*
X195384757Y-85049999D01*
X195534757Y-89649999D02*
X195534757Y-85049999D01*
X195684757Y-89649999D02*
X195684757Y-85049999D01*
X195834757Y-89649999D02*
X195834757Y-85049999D01*
X195984757Y-89649999D02*
X195984757Y-85049999D01*
X196134757Y-89649999D02*
X196134757Y-85049999D01*
X196284757Y-89649999D02*
X196284757Y-85049999D01*
X196284757Y-89674999D02*
X194309757Y-89674999D01*
X196434757Y-89649999D02*
X196434757Y-85099999D01*
X196584757Y-89689999D02*
X196584757Y-85049999D01*
X196734757Y-89699999D02*
X196734757Y-85049999D01*
X196884757Y-89699999D02*
X196884757Y-85099999D01*
X197034757Y-89749999D02*
X197034757Y-85039999D01*
X197184757Y-89849999D02*
X197184757Y-85029999D01*
X197273553Y-85024999D02*
X194309757Y-85024999D01*
X197334757Y-89899999D02*
X197334757Y-85049999D01*
X197484757Y-89999999D02*
X197484757Y-85079999D01*
X197634757Y-90099999D02*
X197634757Y-85129999D01*
X197784757Y-90199999D02*
X197784757Y-85209999D01*
X197934757Y-90349999D02*
X197934757Y-85399999D01*
X198084757Y-90499999D02*
X198084757Y-85599999D01*
X198134757Y-86049999D02*
X198134757Y-85726886D01*
X198184757Y-90669999D02*
X198184757Y-86549999D01*
X198284757Y-90849999D02*
X198284757Y-86699999D01*
X198284757Y-90849999D02*
X199559757Y-91874999D01*
X198384757Y-90919999D02*
X198384757Y-86899999D01*
X198484757Y-90999999D02*
X198484757Y-86999999D01*
X198584757Y-91079999D02*
X198584757Y-87049999D01*
X198694757Y-91169999D02*
X198684757Y-87099999D01*
X198834757Y-91269999D02*
X198834757Y-87149999D01*
X198984757Y-91409999D02*
X198984757Y-87249999D01*
X199134757Y-91529999D02*
X199134757Y-87249999D01*
X199284757Y-91639999D02*
X199284757Y-87249999D01*
X199434757Y-91759999D02*
X199434757Y-87299999D01*
X199584757Y-91849999D02*
X199584757Y-87249999D01*
X199734757Y-91849999D02*
X199734757Y-87249999D01*
X199884757Y-91849999D02*
X199884757Y-87249999D01*
X200034757Y-91849999D02*
X200034757Y-87249999D01*
X200184757Y-91849999D02*
X200184757Y-87249999D01*
X200334757Y-91849999D02*
X200334757Y-87249999D01*
X200484757Y-91849999D02*
X200484757Y-87249999D01*
X200634757Y-91849999D02*
X200634757Y-87249999D01*
X200784757Y-91849999D02*
X200784757Y-87249999D01*
X200934757Y-91849999D02*
X200934757Y-87249999D01*
X201084757Y-91849999D02*
X201084757Y-87249999D01*
X201234757Y-91849999D02*
X201234757Y-87249999D01*
X201384757Y-91849999D02*
X201384757Y-87249999D01*
X201534757Y-91849999D02*
X201534757Y-87249999D01*
X201684757Y-91849999D02*
X201684757Y-87249999D01*
X201834757Y-91849999D02*
X201834757Y-87249999D01*
X201884757Y-87224999D02*
X199309757Y-87224999D01*
X201884757Y-91874999D02*
X199559757Y-91874999D01*
X201984757Y-91739999D02*
X201984757Y-87349999D01*
X202134757Y-91599999D02*
X202134757Y-87479999D01*
X202284757Y-91469999D02*
X202284757Y-87639999D01*
X202434757Y-91309999D02*
X202434757Y-87779999D01*
X202534757Y-91209999D02*
X202534757Y-87879999D01*
X202634757Y-91099999D02*
X202634757Y-87979999D01*
X202734757Y-91019999D02*
X202734757Y-88089999D01*
X202884757Y-88224999D02*
X201884757Y-87224999D01*
X202884757Y-88224999D02*
X202884757Y-90874999D01*
X202884757Y-90874999D02*
X201884757Y-91874999D01*
X193279757Y-86024999D02*
G75*
G02*
X194279757Y-85024999I999999J1D01*
G01*
X194279757Y-89674999D02*
G75*
G02*
X193279757Y-88674999I-1J999999D01*
G01*
X196284757Y-89667457D02*
G75*
G02*
X198284757Y-90849999I-2J-2282546D01*
G01*
X197273553Y-85024999D02*
G75*
G02*
X198134757Y-85726886I-38796J-926887D01*
G01*
X199309757Y-87224999D02*
G75*
G02*
X198134757Y-86049999I2J1175002D01*
G01*
X191084757Y-84249999D02*
G75*
G02*
X190084757Y-84249999I-500000J0D01*
G01*
X190084757Y-84249999D02*
G75*
G02*
X191084757Y-84249999I500000J0D01*
G01*
D13*
X171184757Y-71004999D02*
X171184757Y-72504999D01*
D11*
X174079757Y-71824999D02*
X174079757Y-74474999D01*
X174234757Y-74979999D02*
X174234757Y-71299999D01*
X174384757Y-75149999D02*
X174384757Y-71179999D01*
X174534757Y-75289999D02*
X174534757Y-71149999D01*
X174684757Y-75369999D02*
X174684757Y-71249999D01*
X174834757Y-75419999D02*
X174834757Y-71099999D01*
X174984757Y-75459999D02*
X174984757Y-70949999D01*
X175134757Y-75449999D02*
X175134757Y-70849999D01*
X175284757Y-75449999D02*
X175284757Y-70849999D01*
X175434757Y-75449999D02*
X175434757Y-70849999D01*
D13*
X175584757Y-71004999D02*
X171184757Y-71004999D01*
D11*
X175584757Y-75449999D02*
X175584757Y-70849999D01*
X175734757Y-75449999D02*
X175734757Y-70849999D01*
X175884757Y-75449999D02*
X175884757Y-70849999D01*
X176034757Y-75449999D02*
X176034757Y-70849999D01*
X176184757Y-75449999D02*
X176184757Y-70849999D01*
X176334757Y-75449999D02*
X176334757Y-70849999D01*
X176484757Y-75449999D02*
X176484757Y-70849999D01*
X176634757Y-75449999D02*
X176634757Y-70849999D01*
X176784757Y-75449999D02*
X176784757Y-70849999D01*
X176934757Y-75449999D02*
X176934757Y-70849999D01*
X177084757Y-75449999D02*
X177084757Y-70849999D01*
X177084757Y-75474999D02*
X175109757Y-75474999D01*
X177234757Y-75449999D02*
X177234757Y-70899999D01*
X177384757Y-75489999D02*
X177384757Y-70849999D01*
X177534757Y-75499999D02*
X177534757Y-70849999D01*
X177684757Y-75499999D02*
X177684757Y-70899999D01*
X177834757Y-75549999D02*
X177834757Y-70839999D01*
X177984757Y-75649999D02*
X177984757Y-70829999D01*
X178073553Y-70824999D02*
X175109757Y-70824999D01*
X178134757Y-75699999D02*
X178134757Y-70849999D01*
X178284757Y-75799999D02*
X178284757Y-70879999D01*
X178434757Y-75899999D02*
X178434757Y-70929999D01*
X178584757Y-75999999D02*
X178584757Y-71009999D01*
X178734757Y-76149999D02*
X178734757Y-71199999D01*
X178884757Y-76299999D02*
X178884757Y-71399999D01*
X178934757Y-71849999D02*
X178934757Y-71526886D01*
X178984757Y-76469999D02*
X178984757Y-72349999D01*
X179084757Y-76649999D02*
X179084757Y-72499999D01*
X179084757Y-76649999D02*
X180359757Y-77674999D01*
X179184757Y-76719999D02*
X179184757Y-72699999D01*
X179284757Y-76799999D02*
X179284757Y-72799999D01*
X179384757Y-76879999D02*
X179384757Y-72849999D01*
X179494757Y-76969999D02*
X179484757Y-72899999D01*
X179634757Y-77069999D02*
X179634757Y-72949999D01*
X179784757Y-77209999D02*
X179784757Y-73049999D01*
X179934757Y-77329999D02*
X179934757Y-73049999D01*
X180084757Y-77439999D02*
X180084757Y-73049999D01*
X180234757Y-77559999D02*
X180234757Y-73099999D01*
X180384757Y-77649999D02*
X180384757Y-73049999D01*
X180534757Y-77649999D02*
X180534757Y-73049999D01*
X180684757Y-77649999D02*
X180684757Y-73049999D01*
X180834757Y-77649999D02*
X180834757Y-73049999D01*
X180984757Y-77649999D02*
X180984757Y-73049999D01*
X181134757Y-77649999D02*
X181134757Y-73049999D01*
X181284757Y-77649999D02*
X181284757Y-73049999D01*
X181434757Y-77649999D02*
X181434757Y-73049999D01*
X181584757Y-77649999D02*
X181584757Y-73049999D01*
X181734757Y-77649999D02*
X181734757Y-73049999D01*
X181884757Y-77649999D02*
X181884757Y-73049999D01*
X182034757Y-77649999D02*
X182034757Y-73049999D01*
X182184757Y-77649999D02*
X182184757Y-73049999D01*
X182334757Y-77649999D02*
X182334757Y-73049999D01*
X182484757Y-77649999D02*
X182484757Y-73049999D01*
X182634757Y-77649999D02*
X182634757Y-73049999D01*
X182684757Y-73024999D02*
X180109757Y-73024999D01*
X182684757Y-77674999D02*
X180359757Y-77674999D01*
X182784757Y-77539999D02*
X182784757Y-73149999D01*
X182934757Y-77399999D02*
X182934757Y-73279999D01*
X183084757Y-77269999D02*
X183084757Y-73439999D01*
X183234757Y-77109999D02*
X183234757Y-73579999D01*
X183334757Y-77009999D02*
X183334757Y-73679999D01*
X183434757Y-76899999D02*
X183434757Y-73779999D01*
X183534757Y-76819999D02*
X183534757Y-73889999D01*
X183684757Y-74024999D02*
X182684757Y-73024999D01*
X183684757Y-74024999D02*
X183684757Y-76674999D01*
X183684757Y-76674999D02*
X182684757Y-77674999D01*
X174079757Y-71824999D02*
G75*
G02*
X175079757Y-70824999I999999J1D01*
G01*
X175079757Y-75474999D02*
G75*
G02*
X174079757Y-74474999I-1J999999D01*
G01*
X177084757Y-75467457D02*
G75*
G02*
X179084757Y-76649999I-2J-2282546D01*
G01*
X178073553Y-70824999D02*
G75*
G02*
X178934757Y-71526886I-38796J-926887D01*
G01*
X180109757Y-73024999D02*
G75*
G02*
X178934757Y-71849999I2J1175002D01*
G01*
X171884757Y-70049999D02*
G75*
G02*
X170884757Y-70049999I-500000J0D01*
G01*
X170884757Y-70049999D02*
G75*
G02*
X171884757Y-70049999I500000J0D01*
G01*
D13*
X132901320Y-114974999D02*
X132901320Y-116474999D01*
D11*
X135796320Y-115794999D02*
X135796320Y-118444999D01*
X135951320Y-118949999D02*
X135951320Y-115269999D01*
X136101320Y-119119999D02*
X136101320Y-115149999D01*
X136251320Y-119259999D02*
X136251320Y-115119999D01*
X136401320Y-119339999D02*
X136401320Y-115219999D01*
X136551320Y-119389999D02*
X136551320Y-115069999D01*
X136701320Y-119429999D02*
X136701320Y-114919999D01*
X136851320Y-119419999D02*
X136851320Y-114819999D01*
X137001320Y-119419999D02*
X137001320Y-114819999D01*
X137151320Y-119419999D02*
X137151320Y-114819999D01*
D13*
X137301320Y-114974999D02*
X132901320Y-114974999D01*
D11*
X137301320Y-119419999D02*
X137301320Y-114819999D01*
X137451320Y-119419999D02*
X137451320Y-114819999D01*
X137601320Y-119419999D02*
X137601320Y-114819999D01*
X137751320Y-119419999D02*
X137751320Y-114819999D01*
X137901320Y-119419999D02*
X137901320Y-114819999D01*
X138051320Y-119419999D02*
X138051320Y-114819999D01*
X138201320Y-119419999D02*
X138201320Y-114819999D01*
X138351320Y-119419999D02*
X138351320Y-114819999D01*
X138501320Y-119419999D02*
X138501320Y-114819999D01*
X138651320Y-119419999D02*
X138651320Y-114819999D01*
X138801320Y-119419999D02*
X138801320Y-114819999D01*
X138801320Y-119444999D02*
X136826320Y-119444999D01*
X138951320Y-119419999D02*
X138951320Y-114869999D01*
X139101320Y-119459999D02*
X139101320Y-114819999D01*
X139251320Y-119469999D02*
X139251320Y-114819999D01*
X139401320Y-119469999D02*
X139401320Y-114869999D01*
X139551320Y-119519999D02*
X139551320Y-114809999D01*
X139701320Y-119619999D02*
X139701320Y-114799999D01*
X139790116Y-114794999D02*
X136826320Y-114794999D01*
X139851320Y-119669999D02*
X139851320Y-114819999D01*
X140001320Y-119769999D02*
X140001320Y-114849999D01*
X140151320Y-119869999D02*
X140151320Y-114899999D01*
X140301320Y-119969999D02*
X140301320Y-114979999D01*
X140451320Y-120119999D02*
X140451320Y-115169999D01*
X140601320Y-120269999D02*
X140601320Y-115369999D01*
X140651320Y-115819999D02*
X140651320Y-115496886D01*
X140701320Y-120439999D02*
X140701320Y-116319999D01*
X140801320Y-120619999D02*
X140801320Y-116469999D01*
X140801320Y-120619999D02*
X142076320Y-121644999D01*
X140901320Y-120689999D02*
X140901320Y-116669999D01*
X141001320Y-120769999D02*
X141001320Y-116769999D01*
X141101320Y-120849999D02*
X141101320Y-116819999D01*
X141211320Y-120939999D02*
X141201320Y-116869999D01*
X141351320Y-121039999D02*
X141351320Y-116919999D01*
X141501320Y-121179999D02*
X141501320Y-117019999D01*
X141651320Y-121299999D02*
X141651320Y-117019999D01*
X141801320Y-121409999D02*
X141801320Y-117019999D01*
X141951320Y-121529999D02*
X141951320Y-117069999D01*
X142101320Y-121619999D02*
X142101320Y-117019999D01*
X142251320Y-121619999D02*
X142251320Y-117019999D01*
X142401320Y-121619999D02*
X142401320Y-117019999D01*
X142551320Y-121619999D02*
X142551320Y-117019999D01*
X142701320Y-121619999D02*
X142701320Y-117019999D01*
X142851320Y-121619999D02*
X142851320Y-117019999D01*
X143001320Y-121619999D02*
X143001320Y-117019999D01*
X143151320Y-121619999D02*
X143151320Y-117019999D01*
X143301320Y-121619999D02*
X143301320Y-117019999D01*
X143451320Y-121619999D02*
X143451320Y-117019999D01*
X143601320Y-121619999D02*
X143601320Y-117019999D01*
X143751320Y-121619999D02*
X143751320Y-117019999D01*
X143901320Y-121619999D02*
X143901320Y-117019999D01*
X144051320Y-121619999D02*
X144051320Y-117019999D01*
X144201320Y-121619999D02*
X144201320Y-117019999D01*
X144351320Y-121619999D02*
X144351320Y-117019999D01*
X144401320Y-116994999D02*
X141826320Y-116994999D01*
X144401320Y-121644999D02*
X142076320Y-121644999D01*
X144501320Y-121509999D02*
X144501320Y-117119999D01*
X144651320Y-121369999D02*
X144651320Y-117249999D01*
X144801320Y-121239999D02*
X144801320Y-117409999D01*
X144951320Y-121079999D02*
X144951320Y-117549999D01*
X145051320Y-120979999D02*
X145051320Y-117649999D01*
X145151320Y-120869999D02*
X145151320Y-117749999D01*
X145251320Y-120789999D02*
X145251320Y-117859999D01*
X145401320Y-117994999D02*
X144401320Y-116994999D01*
X145401320Y-117994999D02*
X145401320Y-120644999D01*
X145401320Y-120644999D02*
X144401320Y-121644999D01*
X135796320Y-115794999D02*
G75*
G02*
X136796320Y-114794999I999999J1D01*
G01*
X136796320Y-119444999D02*
G75*
G02*
X135796320Y-118444999I-1J999999D01*
G01*
X138801320Y-119437457D02*
G75*
G02*
X140801320Y-120619999I-2J-2282546D01*
G01*
X139790116Y-114794999D02*
G75*
G02*
X140651320Y-115496886I-38796J-926887D01*
G01*
X141826320Y-116994999D02*
G75*
G02*
X140651320Y-115819999I2J1175002D01*
G01*
X133601320Y-114019999D02*
G75*
G02*
X132601320Y-114019999I-500000J0D01*
G01*
X132601320Y-114019999D02*
G75*
G02*
X133601320Y-114019999I500000J0D01*
G01*
D12*
X155022818Y-127300000D02*
X155221256Y-127300000D01*
X155221256Y-126704686D02*
X155221256Y-127895314D01*
X155221256Y-127895314D02*
X156808760Y-127895314D01*
X155618132Y-127895314D02*
X155618132Y-126704686D01*
X156808760Y-126704686D02*
X155221256Y-126704686D01*
X156808760Y-127300000D02*
X157007198Y-127300000D01*
X156808760Y-127895314D02*
X156808760Y-126704686D01*
X231792818Y-103370000D02*
X231991256Y-103370000D01*
X231991256Y-102774686D02*
X231991256Y-103965314D01*
X231991256Y-103965314D02*
X233578760Y-103965314D01*
X232388132Y-103965314D02*
X232388132Y-102774686D01*
X233578760Y-102774686D02*
X231991256Y-102774686D01*
X233578760Y-103370000D02*
X233777198Y-103370000D01*
X233578760Y-103965314D02*
X233578760Y-102774686D01*
X155072818Y-69860000D02*
X155271256Y-69860000D01*
X155271256Y-69264686D02*
X155271256Y-70455314D01*
X155271256Y-70455314D02*
X156858760Y-70455314D01*
X155668132Y-70455314D02*
X155668132Y-69264686D01*
X156858760Y-69264686D02*
X155271256Y-69264686D01*
X156858760Y-69860000D02*
X157057198Y-69860000D01*
X156858760Y-70455314D02*
X156858760Y-69264686D01*
D13*
X152084757Y-134024999D02*
X152084757Y-135524999D01*
D11*
X154979757Y-134844999D02*
X154979757Y-137494999D01*
X155134757Y-137999999D02*
X155134757Y-134319999D01*
X155284757Y-138169999D02*
X155284757Y-134199999D01*
X155434757Y-138309999D02*
X155434757Y-134169999D01*
X155584757Y-138389999D02*
X155584757Y-134269999D01*
X155734757Y-138439999D02*
X155734757Y-134119999D01*
X155884757Y-138479999D02*
X155884757Y-133969999D01*
X156034757Y-138469999D02*
X156034757Y-133869999D01*
X156184757Y-138469999D02*
X156184757Y-133869999D01*
X156334757Y-138469999D02*
X156334757Y-133869999D01*
D13*
X156484757Y-134024999D02*
X152084757Y-134024999D01*
D11*
X156484757Y-138469999D02*
X156484757Y-133869999D01*
X156634757Y-138469999D02*
X156634757Y-133869999D01*
X156784757Y-138469999D02*
X156784757Y-133869999D01*
X156934757Y-138469999D02*
X156934757Y-133869999D01*
X157084757Y-138469999D02*
X157084757Y-133869999D01*
X157234757Y-138469999D02*
X157234757Y-133869999D01*
X157384757Y-138469999D02*
X157384757Y-133869999D01*
X157534757Y-138469999D02*
X157534757Y-133869999D01*
X157684757Y-138469999D02*
X157684757Y-133869999D01*
X157834757Y-138469999D02*
X157834757Y-133869999D01*
X157984757Y-138469999D02*
X157984757Y-133869999D01*
X157984757Y-138494999D02*
X156009757Y-138494999D01*
X158134757Y-138469999D02*
X158134757Y-133919999D01*
X158284757Y-138509999D02*
X158284757Y-133869999D01*
X158434757Y-138519999D02*
X158434757Y-133869999D01*
X158584757Y-138519999D02*
X158584757Y-133919999D01*
X158734757Y-138569999D02*
X158734757Y-133859999D01*
X158884757Y-138669999D02*
X158884757Y-133849999D01*
X158973553Y-133844999D02*
X156009757Y-133844999D01*
X159034757Y-138719999D02*
X159034757Y-133869999D01*
X159184757Y-138819999D02*
X159184757Y-133899999D01*
X159334757Y-138919999D02*
X159334757Y-133949999D01*
X159484757Y-139019999D02*
X159484757Y-134029999D01*
X159634757Y-139169999D02*
X159634757Y-134219999D01*
X159784757Y-139319999D02*
X159784757Y-134419999D01*
X159834757Y-134869999D02*
X159834757Y-134546886D01*
X159884757Y-139489999D02*
X159884757Y-135369999D01*
X159984757Y-139669999D02*
X159984757Y-135519999D01*
X159984757Y-139669999D02*
X161259757Y-140694999D01*
X160084757Y-139739999D02*
X160084757Y-135719999D01*
X160184757Y-139819999D02*
X160184757Y-135819999D01*
X160284757Y-139899999D02*
X160284757Y-135869999D01*
X160394757Y-139989999D02*
X160384757Y-135919999D01*
X160534757Y-140089999D02*
X160534757Y-135969999D01*
X160684757Y-140229999D02*
X160684757Y-136069999D01*
X160834757Y-140349999D02*
X160834757Y-136069999D01*
X160984757Y-140459999D02*
X160984757Y-136069999D01*
X161134757Y-140579999D02*
X161134757Y-136119999D01*
X161284757Y-140669999D02*
X161284757Y-136069999D01*
X161434757Y-140669999D02*
X161434757Y-136069999D01*
X161584757Y-140669999D02*
X161584757Y-136069999D01*
X161734757Y-140669999D02*
X161734757Y-136069999D01*
X161884757Y-140669999D02*
X161884757Y-136069999D01*
X162034757Y-140669999D02*
X162034757Y-136069999D01*
X162184757Y-140669999D02*
X162184757Y-136069999D01*
X162334757Y-140669999D02*
X162334757Y-136069999D01*
X162484757Y-140669999D02*
X162484757Y-136069999D01*
X162634757Y-140669999D02*
X162634757Y-136069999D01*
X162784757Y-140669999D02*
X162784757Y-136069999D01*
X162934757Y-140669999D02*
X162934757Y-136069999D01*
X163084757Y-140669999D02*
X163084757Y-136069999D01*
X163234757Y-140669999D02*
X163234757Y-136069999D01*
X163384757Y-140669999D02*
X163384757Y-136069999D01*
X163534757Y-140669999D02*
X163534757Y-136069999D01*
X163584757Y-136044999D02*
X161009757Y-136044999D01*
X163584757Y-140694999D02*
X161259757Y-140694999D01*
X163684757Y-140559999D02*
X163684757Y-136169999D01*
X163834757Y-140419999D02*
X163834757Y-136299999D01*
X163984757Y-140289999D02*
X163984757Y-136459999D01*
X164134757Y-140129999D02*
X164134757Y-136599999D01*
X164234757Y-140029999D02*
X164234757Y-136699999D01*
X164334757Y-139919999D02*
X164334757Y-136799999D01*
X164434757Y-139839999D02*
X164434757Y-136909999D01*
X164584757Y-137044999D02*
X163584757Y-136044999D01*
X164584757Y-137044999D02*
X164584757Y-139694999D01*
X164584757Y-139694999D02*
X163584757Y-140694999D01*
X154979757Y-134844999D02*
G75*
G02*
X155979757Y-133844999I999999J1D01*
G01*
X155979757Y-138494999D02*
G75*
G02*
X154979757Y-137494999I-1J999999D01*
G01*
X157984757Y-138487457D02*
G75*
G02*
X159984757Y-139669999I-2J-2282546D01*
G01*
X158973553Y-133844999D02*
G75*
G02*
X159834757Y-134546886I-38796J-926887D01*
G01*
X161009757Y-136044999D02*
G75*
G02*
X159834757Y-134869999I2J1175002D01*
G01*
X152784757Y-133069999D02*
G75*
G02*
X151784757Y-133069999I-500000J0D01*
G01*
X151784757Y-133069999D02*
G75*
G02*
X152784757Y-133069999I500000J0D01*
G01*
D13*
X228754132Y-89779999D02*
X228754132Y-91279999D01*
D11*
X231649132Y-90599999D02*
X231649132Y-93249999D01*
X231804132Y-93754999D02*
X231804132Y-90074999D01*
X231954132Y-93924999D02*
X231954132Y-89954999D01*
X232104132Y-94064999D02*
X232104132Y-89924999D01*
X232254132Y-94144999D02*
X232254132Y-90024999D01*
X232404132Y-94194999D02*
X232404132Y-89874999D01*
X232554132Y-94234999D02*
X232554132Y-89724999D01*
X232704132Y-94224999D02*
X232704132Y-89624999D01*
X232854132Y-94224999D02*
X232854132Y-89624999D01*
X233004132Y-94224999D02*
X233004132Y-89624999D01*
D13*
X233154132Y-89779999D02*
X228754132Y-89779999D01*
D11*
X233154132Y-94224999D02*
X233154132Y-89624999D01*
X233304132Y-94224999D02*
X233304132Y-89624999D01*
X233454132Y-94224999D02*
X233454132Y-89624999D01*
X233604132Y-94224999D02*
X233604132Y-89624999D01*
X233754132Y-94224999D02*
X233754132Y-89624999D01*
X233904132Y-94224999D02*
X233904132Y-89624999D01*
X234054132Y-94224999D02*
X234054132Y-89624999D01*
X234204132Y-94224999D02*
X234204132Y-89624999D01*
X234354132Y-94224999D02*
X234354132Y-89624999D01*
X234504132Y-94224999D02*
X234504132Y-89624999D01*
X234654132Y-94224999D02*
X234654132Y-89624999D01*
X234654132Y-94249999D02*
X232679132Y-94249999D01*
X234804132Y-94224999D02*
X234804132Y-89674999D01*
X234954132Y-94264999D02*
X234954132Y-89624999D01*
X235104132Y-94274999D02*
X235104132Y-89624999D01*
X235254132Y-94274999D02*
X235254132Y-89674999D01*
X235404132Y-94324999D02*
X235404132Y-89614999D01*
X235554132Y-94424999D02*
X235554132Y-89604999D01*
X235642928Y-89599999D02*
X232679132Y-89599999D01*
X235704132Y-94474999D02*
X235704132Y-89624999D01*
X235854132Y-94574999D02*
X235854132Y-89654999D01*
X236004132Y-94674999D02*
X236004132Y-89704999D01*
X236154132Y-94774999D02*
X236154132Y-89784999D01*
X236304132Y-94924999D02*
X236304132Y-89974999D01*
X236454132Y-95074999D02*
X236454132Y-90174999D01*
X236504132Y-90624999D02*
X236504132Y-90301886D01*
X236554132Y-95244999D02*
X236554132Y-91124999D01*
X236654132Y-95424999D02*
X236654132Y-91274999D01*
X236654132Y-95424999D02*
X237929132Y-96449999D01*
X236754132Y-95494999D02*
X236754132Y-91474999D01*
X236854132Y-95574999D02*
X236854132Y-91574999D01*
X236954132Y-95654999D02*
X236954132Y-91624999D01*
X237064132Y-95744999D02*
X237054132Y-91674999D01*
X237204132Y-95844999D02*
X237204132Y-91724999D01*
X237354132Y-95984999D02*
X237354132Y-91824999D01*
X237504132Y-96104999D02*
X237504132Y-91824999D01*
X237654132Y-96214999D02*
X237654132Y-91824999D01*
X237804132Y-96334999D02*
X237804132Y-91874999D01*
X237954132Y-96424999D02*
X237954132Y-91824999D01*
X238104132Y-96424999D02*
X238104132Y-91824999D01*
X238254132Y-96424999D02*
X238254132Y-91824999D01*
X238404132Y-96424999D02*
X238404132Y-91824999D01*
X238554132Y-96424999D02*
X238554132Y-91824999D01*
X238704132Y-96424999D02*
X238704132Y-91824999D01*
X238854132Y-96424999D02*
X238854132Y-91824999D01*
X239004132Y-96424999D02*
X239004132Y-91824999D01*
X239154132Y-96424999D02*
X239154132Y-91824999D01*
X239304132Y-96424999D02*
X239304132Y-91824999D01*
X239454132Y-96424999D02*
X239454132Y-91824999D01*
X239604132Y-96424999D02*
X239604132Y-91824999D01*
X239754132Y-96424999D02*
X239754132Y-91824999D01*
X239904132Y-96424999D02*
X239904132Y-91824999D01*
X240054132Y-96424999D02*
X240054132Y-91824999D01*
X240204132Y-96424999D02*
X240204132Y-91824999D01*
X240254132Y-91799999D02*
X237679132Y-91799999D01*
X240254132Y-96449999D02*
X237929132Y-96449999D01*
X240354132Y-96314999D02*
X240354132Y-91924999D01*
X240504132Y-96174999D02*
X240504132Y-92054999D01*
X240654132Y-96044999D02*
X240654132Y-92214999D01*
X240804132Y-95884999D02*
X240804132Y-92354999D01*
X240904132Y-95784999D02*
X240904132Y-92454999D01*
X241004132Y-95674999D02*
X241004132Y-92554999D01*
X241104132Y-95594999D02*
X241104132Y-92664999D01*
X241254132Y-92799999D02*
X240254132Y-91799999D01*
X241254132Y-92799999D02*
X241254132Y-95449999D01*
X241254132Y-95449999D02*
X240254132Y-96449999D01*
X231649132Y-90599999D02*
G75*
G02*
X232649132Y-89599999I999999J1D01*
G01*
X232649132Y-94249999D02*
G75*
G02*
X231649132Y-93249999I-1J999999D01*
G01*
X234654132Y-94242457D02*
G75*
G02*
X236654132Y-95424999I-2J-2282546D01*
G01*
X235642928Y-89599999D02*
G75*
G02*
X236504132Y-90301886I-38796J-926887D01*
G01*
X237679132Y-91799999D02*
G75*
G02*
X236504132Y-90624999I2J1175002D01*
G01*
X229454132Y-88824999D02*
G75*
G02*
X228454132Y-88824999I-500000J0D01*
G01*
X228454132Y-88824999D02*
G75*
G02*
X229454132Y-88824999I500000J0D01*
G01*
D12*
X174162818Y-83420000D02*
X174361256Y-83420000D01*
X174361256Y-82824686D02*
X174361256Y-84015314D01*
X174361256Y-84015314D02*
X175948760Y-84015314D01*
X174758132Y-84015314D02*
X174758132Y-82824686D01*
X175948760Y-82824686D02*
X174361256Y-82824686D01*
X175948760Y-83420000D02*
X176147198Y-83420000D01*
X175948760Y-84015314D02*
X175948760Y-82824686D01*
D13*
X228754132Y-70604999D02*
X228754132Y-72104999D01*
D11*
X231649132Y-71424999D02*
X231649132Y-74074999D01*
X231804132Y-74579999D02*
X231804132Y-70899999D01*
X231954132Y-74749999D02*
X231954132Y-70779999D01*
X232104132Y-74889999D02*
X232104132Y-70749999D01*
X232254132Y-74969999D02*
X232254132Y-70849999D01*
X232404132Y-75019999D02*
X232404132Y-70699999D01*
X232554132Y-75059999D02*
X232554132Y-70549999D01*
X232704132Y-75049999D02*
X232704132Y-70449999D01*
X232854132Y-75049999D02*
X232854132Y-70449999D01*
X233004132Y-75049999D02*
X233004132Y-70449999D01*
D13*
X233154132Y-70604999D02*
X228754132Y-70604999D01*
D11*
X233154132Y-75049999D02*
X233154132Y-70449999D01*
X233304132Y-75049999D02*
X233304132Y-70449999D01*
X233454132Y-75049999D02*
X233454132Y-70449999D01*
X233604132Y-75049999D02*
X233604132Y-70449999D01*
X233754132Y-75049999D02*
X233754132Y-70449999D01*
X233904132Y-75049999D02*
X233904132Y-70449999D01*
X234054132Y-75049999D02*
X234054132Y-70449999D01*
X234204132Y-75049999D02*
X234204132Y-70449999D01*
X234354132Y-75049999D02*
X234354132Y-70449999D01*
X234504132Y-75049999D02*
X234504132Y-70449999D01*
X234654132Y-75049999D02*
X234654132Y-70449999D01*
X234654132Y-75074999D02*
X232679132Y-75074999D01*
X234804132Y-75049999D02*
X234804132Y-70499999D01*
X234954132Y-75089999D02*
X234954132Y-70449999D01*
X235104132Y-75099999D02*
X235104132Y-70449999D01*
X235254132Y-75099999D02*
X235254132Y-70499999D01*
X235404132Y-75149999D02*
X235404132Y-70439999D01*
X235554132Y-75249999D02*
X235554132Y-70429999D01*
X235642928Y-70424999D02*
X232679132Y-70424999D01*
X235704132Y-75299999D02*
X235704132Y-70449999D01*
X235854132Y-75399999D02*
X235854132Y-70479999D01*
X236004132Y-75499999D02*
X236004132Y-70529999D01*
X236154132Y-75599999D02*
X236154132Y-70609999D01*
X236304132Y-75749999D02*
X236304132Y-70799999D01*
X236454132Y-75899999D02*
X236454132Y-70999999D01*
X236504132Y-71449999D02*
X236504132Y-71126886D01*
X236554132Y-76069999D02*
X236554132Y-71949999D01*
X236654132Y-76249999D02*
X236654132Y-72099999D01*
X236654132Y-76249999D02*
X237929132Y-77274999D01*
X236754132Y-76319999D02*
X236754132Y-72299999D01*
X236854132Y-76399999D02*
X236854132Y-72399999D01*
X236954132Y-76479999D02*
X236954132Y-72449999D01*
X237064132Y-76569999D02*
X237054132Y-72499999D01*
X237204132Y-76669999D02*
X237204132Y-72549999D01*
X237354132Y-76809999D02*
X237354132Y-72649999D01*
X237504132Y-76929999D02*
X237504132Y-72649999D01*
X237654132Y-77039999D02*
X237654132Y-72649999D01*
X237804132Y-77159999D02*
X237804132Y-72699999D01*
X237954132Y-77249999D02*
X237954132Y-72649999D01*
X238104132Y-77249999D02*
X238104132Y-72649999D01*
X238254132Y-77249999D02*
X238254132Y-72649999D01*
X238404132Y-77249999D02*
X238404132Y-72649999D01*
X238554132Y-77249999D02*
X238554132Y-72649999D01*
X238704132Y-77249999D02*
X238704132Y-72649999D01*
X238854132Y-77249999D02*
X238854132Y-72649999D01*
X239004132Y-77249999D02*
X239004132Y-72649999D01*
X239154132Y-77249999D02*
X239154132Y-72649999D01*
X239304132Y-77249999D02*
X239304132Y-72649999D01*
X239454132Y-77249999D02*
X239454132Y-72649999D01*
X239604132Y-77249999D02*
X239604132Y-72649999D01*
X239754132Y-77249999D02*
X239754132Y-72649999D01*
X239904132Y-77249999D02*
X239904132Y-72649999D01*
X240054132Y-77249999D02*
X240054132Y-72649999D01*
X240204132Y-77249999D02*
X240204132Y-72649999D01*
X240254132Y-72624999D02*
X237679132Y-72624999D01*
X240254132Y-77274999D02*
X237929132Y-77274999D01*
X240354132Y-77139999D02*
X240354132Y-72749999D01*
X240504132Y-76999999D02*
X240504132Y-72879999D01*
X240654132Y-76869999D02*
X240654132Y-73039999D01*
X240804132Y-76709999D02*
X240804132Y-73179999D01*
X240904132Y-76609999D02*
X240904132Y-73279999D01*
X241004132Y-76499999D02*
X241004132Y-73379999D01*
X241104132Y-76419999D02*
X241104132Y-73489999D01*
X241254132Y-73624999D02*
X240254132Y-72624999D01*
X241254132Y-73624999D02*
X241254132Y-76274999D01*
X241254132Y-76274999D02*
X240254132Y-77274999D01*
X231649132Y-71424999D02*
G75*
G02*
X232649132Y-70424999I999999J1D01*
G01*
X232649132Y-75074999D02*
G75*
G02*
X231649132Y-74074999I-1J999999D01*
G01*
X234654132Y-75067457D02*
G75*
G02*
X236654132Y-76249999I-2J-2282546D01*
G01*
X235642928Y-70424999D02*
G75*
G02*
X236504132Y-71126886I-38796J-926887D01*
G01*
X237679132Y-72624999D02*
G75*
G02*
X236504132Y-71449999I2J1175002D01*
G01*
X229454132Y-69649999D02*
G75*
G02*
X228454132Y-69649999I-500000J0D01*
G01*
X228454132Y-69649999D02*
G75*
G02*
X229454132Y-69649999I500000J0D01*
G01*
D13*
X152084757Y-95794999D02*
X152084757Y-97294999D01*
D11*
X154979757Y-96614999D02*
X154979757Y-99264999D01*
X155134757Y-99769999D02*
X155134757Y-96089999D01*
X155284757Y-99939999D02*
X155284757Y-95969999D01*
X155434757Y-100079999D02*
X155434757Y-95939999D01*
X155584757Y-100159999D02*
X155584757Y-96039999D01*
X155734757Y-100209999D02*
X155734757Y-95889999D01*
X155884757Y-100249999D02*
X155884757Y-95739999D01*
X156034757Y-100239999D02*
X156034757Y-95639999D01*
X156184757Y-100239999D02*
X156184757Y-95639999D01*
X156334757Y-100239999D02*
X156334757Y-95639999D01*
D13*
X156484757Y-95794999D02*
X152084757Y-95794999D01*
D11*
X156484757Y-100239999D02*
X156484757Y-95639999D01*
X156634757Y-100239999D02*
X156634757Y-95639999D01*
X156784757Y-100239999D02*
X156784757Y-95639999D01*
X156934757Y-100239999D02*
X156934757Y-95639999D01*
X157084757Y-100239999D02*
X157084757Y-95639999D01*
X157234757Y-100239999D02*
X157234757Y-95639999D01*
X157384757Y-100239999D02*
X157384757Y-95639999D01*
X157534757Y-100239999D02*
X157534757Y-95639999D01*
X157684757Y-100239999D02*
X157684757Y-95639999D01*
X157834757Y-100239999D02*
X157834757Y-95639999D01*
X157984757Y-100239999D02*
X157984757Y-95639999D01*
X157984757Y-100264999D02*
X156009757Y-100264999D01*
X158134757Y-100239999D02*
X158134757Y-95689999D01*
X158284757Y-100279999D02*
X158284757Y-95639999D01*
X158434757Y-100289999D02*
X158434757Y-95639999D01*
X158584757Y-100289999D02*
X158584757Y-95689999D01*
X158734757Y-100339999D02*
X158734757Y-95629999D01*
X158884757Y-100439999D02*
X158884757Y-95619999D01*
X158973553Y-95614999D02*
X156009757Y-95614999D01*
X159034757Y-100489999D02*
X159034757Y-95639999D01*
X159184757Y-100589999D02*
X159184757Y-95669999D01*
X159334757Y-100689999D02*
X159334757Y-95719999D01*
X159484757Y-100789999D02*
X159484757Y-95799999D01*
X159634757Y-100939999D02*
X159634757Y-95989999D01*
X159784757Y-101089999D02*
X159784757Y-96189999D01*
X159834757Y-96639999D02*
X159834757Y-96316886D01*
X159884757Y-101259999D02*
X159884757Y-97139999D01*
X159984757Y-101439999D02*
X159984757Y-97289999D01*
X159984757Y-101439999D02*
X161259757Y-102464999D01*
X160084757Y-101509999D02*
X160084757Y-97489999D01*
X160184757Y-101589999D02*
X160184757Y-97589999D01*
X160284757Y-101669999D02*
X160284757Y-97639999D01*
X160394757Y-101759999D02*
X160384757Y-97689999D01*
X160534757Y-101859999D02*
X160534757Y-97739999D01*
X160684757Y-101999999D02*
X160684757Y-97839999D01*
X160834757Y-102119999D02*
X160834757Y-97839999D01*
X160984757Y-102229999D02*
X160984757Y-97839999D01*
X161134757Y-102349999D02*
X161134757Y-97889999D01*
X161284757Y-102439999D02*
X161284757Y-97839999D01*
X161434757Y-102439999D02*
X161434757Y-97839999D01*
X161584757Y-102439999D02*
X161584757Y-97839999D01*
X161734757Y-102439999D02*
X161734757Y-97839999D01*
X161884757Y-102439999D02*
X161884757Y-97839999D01*
X162034757Y-102439999D02*
X162034757Y-97839999D01*
X162184757Y-102439999D02*
X162184757Y-97839999D01*
X162334757Y-102439999D02*
X162334757Y-97839999D01*
X162484757Y-102439999D02*
X162484757Y-97839999D01*
X162634757Y-102439999D02*
X162634757Y-97839999D01*
X162784757Y-102439999D02*
X162784757Y-97839999D01*
X162934757Y-102439999D02*
X162934757Y-97839999D01*
X163084757Y-102439999D02*
X163084757Y-97839999D01*
X163234757Y-102439999D02*
X163234757Y-97839999D01*
X163384757Y-102439999D02*
X163384757Y-97839999D01*
X163534757Y-102439999D02*
X163534757Y-97839999D01*
X163584757Y-97814999D02*
X161009757Y-97814999D01*
X163584757Y-102464999D02*
X161259757Y-102464999D01*
X163684757Y-102329999D02*
X163684757Y-97939999D01*
X163834757Y-102189999D02*
X163834757Y-98069999D01*
X163984757Y-102059999D02*
X163984757Y-98229999D01*
X164134757Y-101899999D02*
X164134757Y-98369999D01*
X164234757Y-101799999D02*
X164234757Y-98469999D01*
X164334757Y-101689999D02*
X164334757Y-98569999D01*
X164434757Y-101609999D02*
X164434757Y-98679999D01*
X164584757Y-98814999D02*
X163584757Y-97814999D01*
X164584757Y-98814999D02*
X164584757Y-101464999D01*
X164584757Y-101464999D02*
X163584757Y-102464999D01*
X154979757Y-96614999D02*
G75*
G02*
X155979757Y-95614999I999999J1D01*
G01*
X155979757Y-100264999D02*
G75*
G02*
X154979757Y-99264999I-1J999999D01*
G01*
X157984757Y-100257457D02*
G75*
G02*
X159984757Y-101439999I-2J-2282546D01*
G01*
X158973553Y-95614999D02*
G75*
G02*
X159834757Y-96316886I-38796J-926887D01*
G01*
X161009757Y-97814999D02*
G75*
G02*
X159834757Y-96639999I2J1175002D01*
G01*
X152784757Y-94839999D02*
G75*
G02*
X151784757Y-94839999I-500000J0D01*
G01*
X151784757Y-94839999D02*
G75*
G02*
X152784757Y-94839999I500000J0D01*
G01*
D13*
X190384757Y-104369999D02*
X190384757Y-105869999D01*
D11*
X193279757Y-105189999D02*
X193279757Y-107839999D01*
X193434757Y-108344999D02*
X193434757Y-104664999D01*
X193584757Y-108514999D02*
X193584757Y-104544999D01*
X193734757Y-108654999D02*
X193734757Y-104514999D01*
X193884757Y-108734999D02*
X193884757Y-104614999D01*
X194034757Y-108784999D02*
X194034757Y-104464999D01*
X194184757Y-108824999D02*
X194184757Y-104314999D01*
X194334757Y-108814999D02*
X194334757Y-104214999D01*
X194484757Y-108814999D02*
X194484757Y-104214999D01*
X194634757Y-108814999D02*
X194634757Y-104214999D01*
D13*
X194784757Y-104369999D02*
X190384757Y-104369999D01*
D11*
X194784757Y-108814999D02*
X194784757Y-104214999D01*
X194934757Y-108814999D02*
X194934757Y-104214999D01*
X195084757Y-108814999D02*
X195084757Y-104214999D01*
X195234757Y-108814999D02*
X195234757Y-104214999D01*
X195384757Y-108814999D02*
X195384757Y-104214999D01*
X195534757Y-108814999D02*
X195534757Y-104214999D01*
X195684757Y-108814999D02*
X195684757Y-104214999D01*
X195834757Y-108814999D02*
X195834757Y-104214999D01*
X195984757Y-108814999D02*
X195984757Y-104214999D01*
X196134757Y-108814999D02*
X196134757Y-104214999D01*
X196284757Y-108814999D02*
X196284757Y-104214999D01*
X196284757Y-108839999D02*
X194309757Y-108839999D01*
X196434757Y-108814999D02*
X196434757Y-104264999D01*
X196584757Y-108854999D02*
X196584757Y-104214999D01*
X196734757Y-108864999D02*
X196734757Y-104214999D01*
X196884757Y-108864999D02*
X196884757Y-104264999D01*
X197034757Y-108914999D02*
X197034757Y-104204999D01*
X197184757Y-109014999D02*
X197184757Y-104194999D01*
X197273553Y-104189999D02*
X194309757Y-104189999D01*
X197334757Y-109064999D02*
X197334757Y-104214999D01*
X197484757Y-109164999D02*
X197484757Y-104244999D01*
X197634757Y-109264999D02*
X197634757Y-104294999D01*
X197784757Y-109364999D02*
X197784757Y-104374999D01*
X197934757Y-109514999D02*
X197934757Y-104564999D01*
X198084757Y-109664999D02*
X198084757Y-104764999D01*
X198134757Y-105214999D02*
X198134757Y-104891886D01*
X198184757Y-109834999D02*
X198184757Y-105714999D01*
X198284757Y-110014999D02*
X198284757Y-105864999D01*
X198284757Y-110014999D02*
X199559757Y-111039999D01*
X198384757Y-110084999D02*
X198384757Y-106064999D01*
X198484757Y-110164999D02*
X198484757Y-106164999D01*
X198584757Y-110244999D02*
X198584757Y-106214999D01*
X198694757Y-110334999D02*
X198684757Y-106264999D01*
X198834757Y-110434999D02*
X198834757Y-106314999D01*
X198984757Y-110574999D02*
X198984757Y-106414999D01*
X199134757Y-110694999D02*
X199134757Y-106414999D01*
X199284757Y-110804999D02*
X199284757Y-106414999D01*
X199434757Y-110924999D02*
X199434757Y-106464999D01*
X199584757Y-111014999D02*
X199584757Y-106414999D01*
X199734757Y-111014999D02*
X199734757Y-106414999D01*
X199884757Y-111014999D02*
X199884757Y-106414999D01*
X200034757Y-111014999D02*
X200034757Y-106414999D01*
X200184757Y-111014999D02*
X200184757Y-106414999D01*
X200334757Y-111014999D02*
X200334757Y-106414999D01*
X200484757Y-111014999D02*
X200484757Y-106414999D01*
X200634757Y-111014999D02*
X200634757Y-106414999D01*
X200784757Y-111014999D02*
X200784757Y-106414999D01*
X200934757Y-111014999D02*
X200934757Y-106414999D01*
X201084757Y-111014999D02*
X201084757Y-106414999D01*
X201234757Y-111014999D02*
X201234757Y-106414999D01*
X201384757Y-111014999D02*
X201384757Y-106414999D01*
X201534757Y-111014999D02*
X201534757Y-106414999D01*
X201684757Y-111014999D02*
X201684757Y-106414999D01*
X201834757Y-111014999D02*
X201834757Y-106414999D01*
X201884757Y-106389999D02*
X199309757Y-106389999D01*
X201884757Y-111039999D02*
X199559757Y-111039999D01*
X201984757Y-110904999D02*
X201984757Y-106514999D01*
X202134757Y-110764999D02*
X202134757Y-106644999D01*
X202284757Y-110634999D02*
X202284757Y-106804999D01*
X202434757Y-110474999D02*
X202434757Y-106944999D01*
X202534757Y-110374999D02*
X202534757Y-107044999D01*
X202634757Y-110264999D02*
X202634757Y-107144999D01*
X202734757Y-110184999D02*
X202734757Y-107254999D01*
X202884757Y-107389999D02*
X201884757Y-106389999D01*
X202884757Y-107389999D02*
X202884757Y-110039999D01*
X202884757Y-110039999D02*
X201884757Y-111039999D01*
X193279757Y-105189999D02*
G75*
G02*
X194279757Y-104189999I999999J1D01*
G01*
X194279757Y-108839999D02*
G75*
G02*
X193279757Y-107839999I-1J999999D01*
G01*
X196284757Y-108832457D02*
G75*
G02*
X198284757Y-110014999I-2J-2282546D01*
G01*
X197273553Y-104189999D02*
G75*
G02*
X198134757Y-104891886I-38796J-926887D01*
G01*
X199309757Y-106389999D02*
G75*
G02*
X198134757Y-105214999I2J1175002D01*
G01*
X191084757Y-103414999D02*
G75*
G02*
X190084757Y-103414999I-500000J0D01*
G01*
X190084757Y-103414999D02*
G75*
G02*
X191084757Y-103414999I500000J0D01*
G01*
D13*
X209574757Y-106739999D02*
X209574757Y-108239999D01*
D11*
X212469757Y-107559999D02*
X212469757Y-110209999D01*
X212624757Y-110714999D02*
X212624757Y-107034999D01*
X212774757Y-110884999D02*
X212774757Y-106914999D01*
X212924757Y-111024999D02*
X212924757Y-106884999D01*
X213074757Y-111104999D02*
X213074757Y-106984999D01*
X213224757Y-111154999D02*
X213224757Y-106834999D01*
X213374757Y-111194999D02*
X213374757Y-106684999D01*
X213524757Y-111184999D02*
X213524757Y-106584999D01*
X213674757Y-111184999D02*
X213674757Y-106584999D01*
X213824757Y-111184999D02*
X213824757Y-106584999D01*
D13*
X213974757Y-106739999D02*
X209574757Y-106739999D01*
D11*
X213974757Y-111184999D02*
X213974757Y-106584999D01*
X214124757Y-111184999D02*
X214124757Y-106584999D01*
X214274757Y-111184999D02*
X214274757Y-106584999D01*
X214424757Y-111184999D02*
X214424757Y-106584999D01*
X214574757Y-111184999D02*
X214574757Y-106584999D01*
X214724757Y-111184999D02*
X214724757Y-106584999D01*
X214874757Y-111184999D02*
X214874757Y-106584999D01*
X215024757Y-111184999D02*
X215024757Y-106584999D01*
X215174757Y-111184999D02*
X215174757Y-106584999D01*
X215324757Y-111184999D02*
X215324757Y-106584999D01*
X215474757Y-111184999D02*
X215474757Y-106584999D01*
X215474757Y-111209999D02*
X213499757Y-111209999D01*
X215624757Y-111184999D02*
X215624757Y-106634999D01*
X215774757Y-111224999D02*
X215774757Y-106584999D01*
X215924757Y-111234999D02*
X215924757Y-106584999D01*
X216074757Y-111234999D02*
X216074757Y-106634999D01*
X216224757Y-111284999D02*
X216224757Y-106574999D01*
X216374757Y-111384999D02*
X216374757Y-106564999D01*
X216463553Y-106559999D02*
X213499757Y-106559999D01*
X216524757Y-111434999D02*
X216524757Y-106584999D01*
X216674757Y-111534999D02*
X216674757Y-106614999D01*
X216824757Y-111634999D02*
X216824757Y-106664999D01*
X216974757Y-111734999D02*
X216974757Y-106744999D01*
X217124757Y-111884999D02*
X217124757Y-106934999D01*
X217274757Y-112034999D02*
X217274757Y-107134999D01*
X217324757Y-107584999D02*
X217324757Y-107261886D01*
X217374757Y-112204999D02*
X217374757Y-108084999D01*
X217474757Y-112384999D02*
X217474757Y-108234999D01*
X217474757Y-112384999D02*
X218749757Y-113409999D01*
X217574757Y-112454999D02*
X217574757Y-108434999D01*
X217674757Y-112534999D02*
X217674757Y-108534999D01*
X217774757Y-112614999D02*
X217774757Y-108584999D01*
X217884757Y-112704999D02*
X217874757Y-108634999D01*
X218024757Y-112804999D02*
X218024757Y-108684999D01*
X218174757Y-112944999D02*
X218174757Y-108784999D01*
X218324757Y-113064999D02*
X218324757Y-108784999D01*
X218474757Y-113174999D02*
X218474757Y-108784999D01*
X218624757Y-113294999D02*
X218624757Y-108834999D01*
X218774757Y-113384999D02*
X218774757Y-108784999D01*
X218924757Y-113384999D02*
X218924757Y-108784999D01*
X219074757Y-113384999D02*
X219074757Y-108784999D01*
X219224757Y-113384999D02*
X219224757Y-108784999D01*
X219374757Y-113384999D02*
X219374757Y-108784999D01*
X219524757Y-113384999D02*
X219524757Y-108784999D01*
X219674757Y-113384999D02*
X219674757Y-108784999D01*
X219824757Y-113384999D02*
X219824757Y-108784999D01*
X219974757Y-113384999D02*
X219974757Y-108784999D01*
X220124757Y-113384999D02*
X220124757Y-108784999D01*
X220274757Y-113384999D02*
X220274757Y-108784999D01*
X220424757Y-113384999D02*
X220424757Y-108784999D01*
X220574757Y-113384999D02*
X220574757Y-108784999D01*
X220724757Y-113384999D02*
X220724757Y-108784999D01*
X220874757Y-113384999D02*
X220874757Y-108784999D01*
X221024757Y-113384999D02*
X221024757Y-108784999D01*
X221074757Y-108759999D02*
X218499757Y-108759999D01*
X221074757Y-113409999D02*
X218749757Y-113409999D01*
X221174757Y-113274999D02*
X221174757Y-108884999D01*
X221324757Y-113134999D02*
X221324757Y-109014999D01*
X221474757Y-113004999D02*
X221474757Y-109174999D01*
X221624757Y-112844999D02*
X221624757Y-109314999D01*
X221724757Y-112744999D02*
X221724757Y-109414999D01*
X221824757Y-112634999D02*
X221824757Y-109514999D01*
X221924757Y-112554999D02*
X221924757Y-109624999D01*
X222074757Y-109759999D02*
X221074757Y-108759999D01*
X222074757Y-109759999D02*
X222074757Y-112409999D01*
X222074757Y-112409999D02*
X221074757Y-113409999D01*
X212469757Y-107559999D02*
G75*
G02*
X213469757Y-106559999I999999J1D01*
G01*
X213469757Y-111209999D02*
G75*
G02*
X212469757Y-110209999I-1J999999D01*
G01*
X215474757Y-111202457D02*
G75*
G02*
X217474757Y-112384999I-2J-2282546D01*
G01*
X216463553Y-106559999D02*
G75*
G02*
X217324757Y-107261886I-38796J-926887D01*
G01*
X218499757Y-108759999D02*
G75*
G02*
X217324757Y-107584999I2J1175002D01*
G01*
X210274757Y-105784999D02*
G75*
G02*
X209274757Y-105784999I-500000J0D01*
G01*
X209274757Y-105784999D02*
G75*
G02*
X210274757Y-105784999I500000J0D01*
G01*
D12*
X212522818Y-80810000D02*
X212721256Y-80810000D01*
X212721256Y-80214686D02*
X212721256Y-81405314D01*
X212721256Y-81405314D02*
X214308760Y-81405314D01*
X213118132Y-81405314D02*
X213118132Y-80214686D01*
X214308760Y-80214686D02*
X212721256Y-80214686D01*
X214308760Y-80810000D02*
X214507198Y-80810000D01*
X214308760Y-81405314D02*
X214308760Y-80214686D01*
D14*
X219145659Y-133769444D02*
X219145659Y-137919444D01*
X219645659Y-138419444D02*
X222945659Y-138419444D01*
X223420659Y-133769444D02*
X219145659Y-133769444D01*
X223945659Y-139619444D02*
X223945659Y-139419444D01*
X224945659Y-140619444D02*
X223945659Y-139619444D01*
X225931207Y-135969444D02*
X227695659Y-135969444D01*
X227695659Y-135969444D02*
X228695659Y-136969444D01*
X227695659Y-140619444D02*
X224945659Y-140619444D01*
X228695659Y-136969444D02*
X228695659Y-139619444D01*
X228695659Y-139619444D02*
X227695659Y-140619444D01*
X219645659Y-138419444D02*
G75*
G02*
X219145659Y-137919444I1J500001D01*
G01*
X222945659Y-138419444D02*
G75*
G02*
X223945659Y-139419444I1J-999999D01*
G01*
X223449272Y-133769444D02*
G75*
G02*
X223945651Y-134209376I-1J-500001D01*
G01*
X225931207Y-135969444D02*
G75*
G02*
X223945692Y-134209718I1J2000001D01*
G01*
D15*
X223747768Y-133932695D02*
X223945651Y-134209376D01*
X224115636Y-134921390D01*
X224571391Y-135503524D01*
X225204008Y-135886129D01*
X225931207Y-135969444D01*
X227695659Y-135969444D01*
X228695659Y-136969444D01*
X228695659Y-139619444D01*
X227695659Y-140619444D01*
X224945659Y-140619444D01*
X223945659Y-139619444D01*
X223920659Y-139017626D01*
X223688121Y-138676982D01*
X223347477Y-138449370D01*
X222945659Y-138419444D01*
X219645659Y-138419444D01*
X219327461Y-138237642D01*
X219145659Y-137919444D01*
X219145659Y-133769444D01*
X223449272Y-133769444D01*
X223747768Y-133932695D01*
G36*
X223747768Y-133932695D02*
G01*
X223945651Y-134209376D01*
X224115636Y-134921390D01*
X224571391Y-135503524D01*
X225204008Y-135886129D01*
X225931207Y-135969444D01*
X227695659Y-135969444D01*
X228695659Y-136969444D01*
X228695659Y-139619444D01*
X227695659Y-140619444D01*
X224945659Y-140619444D01*
X223945659Y-139619444D01*
X223920659Y-139017626D01*
X223688121Y-138676982D01*
X223347477Y-138449370D01*
X222945659Y-138419444D01*
X219645659Y-138419444D01*
X219327461Y-138237642D01*
X219145659Y-137919444D01*
X219145659Y-133769444D01*
X223449272Y-133769444D01*
X223747768Y-133932695D01*
G37*
D16*
X260283500Y-92240000D02*
G75*
G02*
X260156500Y-92240000I-63500J0D01*
G01*
X260156500Y-92240000D02*
G75*
G02*
X260283500Y-92240000I63500J0D01*
G01*
M02*
