M48
; DRILL file {KiCad 9.0.7} date 2026-03-11T17:47:46+0900
; FORMAT={-:-/ absolute / metric / decimal}
; #@! TF.CreationDate,2026-03-11T17:47:46+09:00
; #@! TF.GenerationSoftware,Kicad,Pcbnew,9.0.7
; #@! TF.FileFunction,Plated,1,2,PTH
FMAT,2
METRIC
; #@! TA.AperFunction,Plated,PTH,ViaDrill
T1C0.300
; #@! TA.AperFunction,Plated,PTH,ComponentDrill
T2C0.300
; #@! TA.AperFunction,Plated,PTH,ComponentDrill
T3C0.500
; #@! TA.AperFunction,Plated,PTH,ComponentDrill
T4C1.000
; #@! TA.AperFunction,Plated,PTH,ComponentDrill
T5C2.000
%
G90
G05
T1
X79.65Y-123.77
X80.01Y-52.7
X80.08Y-101.08
X80.76Y-55.25
X80.77Y-79.14
X81.51Y-57.77
X81.51Y-78.56
X82.26Y-60.32
X82.26Y-78.194
X82.41Y-112.61
X83.02Y-75.89
X83.1Y-120.53
X83.1Y-122.42
X83.1Y-123.77
X83.14Y-104.62
X85.43Y-65.39
X85.9Y-87.75
X86.15Y-62.88
X86.58Y-56.92
X86.6Y-61.62
X86.9Y-53.99
X87.401Y-91.24
X87.41Y-59.04
X89.16Y-75.89
X89.62Y-53.96
X94.08Y-87.75
X95.45Y-66.34
X95.49Y-55.26
X96.55Y-112.63
X98.36Y-67.94
X98.45Y-60.32
X98.46Y-50.85
X99.75Y-101.86
X100.36Y-86.946
X103.31Y-65.43
X103.32Y-85.32
X104.06Y-62.86
X104.06Y-68.486
X104.57Y-104.58
X105.62Y-68.48
X106.89Y-53.97
X107.31Y-85.35
X107.32Y-70.18
X107.33Y-47.12
X107.33Y-50.83
X107.34Y-89.28
X112.09Y-49.39
X112.69Y-101.86
X117.57Y-86.946
X117.88Y-96.06
X118.82Y-49.39
X118.92Y-67.53
X118.93Y-70.02
X119.551Y-96.06
X120.81Y-90.23
X124.91Y-47.12
X126.08Y-51.68
X126.49Y-64.14
X126.5Y-70.77
X126.52Y-44.82
X126.54Y-83.16
X126.54Y-89.25
X128.49Y-90.45
X128.5Y-87.15
X129.95Y-65.4
X129.98Y-84.51
X131.14Y-63.43
X131.16Y-70.04
X131.17Y-64.66
X131.32Y-47.13
X133.51Y-63.409
X137.34Y-65.43
X137.49Y-83.16
X137.98Y-47.14
X138.0Y-84.44
X139.88Y-83.16
X142.98Y-87.09
X142.98Y-97.82
X144.16Y-63.41
X144.28Y-44.78
X144.45Y-83.16
X145.26Y-98.72
X145.7Y-42.81
X145.72Y-66.45
X145.73Y-81.69
X150.22Y-83.16
X156.93Y-81.69
X156.93Y-88.14
X157.89Y-83.88
X159.68Y-97.82
X162.11Y-49.78
X162.12Y-42.79
X163.62Y-49.78
X163.64Y-88.14
X163.79Y-100.75
X164.48Y-61.23
X164.88Y-46.74
X164.89Y-66.5
X164.9Y-72.15
X164.9Y-86.21
X164.99Y-100.38
X170.0Y-100.95
X174.47Y-106.74
X174.55Y-89.57
X176.11Y-85.46
X176.161Y-86.258
X176.17Y-91.86
X177.01Y-89.62
X177.43Y-106.77
X177.43Y-118.29
X178.63Y-101.27
X179.38Y-109.3
X180.13Y-96.86
X180.13Y-114.37
X180.85Y-124.5
X180.89Y-84.69
X180.92Y-111.81
X180.94Y-46.74
X181.86Y-86.32
X182.46Y-99.69
X182.46Y-105.25
X182.46Y-116.89
X182.63Y-66.78
X182.64Y-80.1
X182.64Y-85.92
X183.56Y-118.31
X183.58Y-67.64
X183.97Y-91.91
X183.98Y-111.01
X183.99Y-68.42
X185.16Y-74.59
X199.48Y-63.56
X203.18Y-91.91
X203.21Y-75.95
X206.64Y-95.0
X208.07Y-74.54
X214.64Y-94.95
X214.65Y-74.6
T2
X79.318Y-129.801
X80.481Y-132.996
X80.704Y-129.296
X81.867Y-132.491
X90.478Y-128.08
X91.641Y-131.275
X91.864Y-127.576
X93.027Y-130.771
X98.72Y-123.268
X99.31Y-126.616
X100.172Y-123.012
X100.763Y-126.36
X110.008Y-123.511
X110.599Y-126.86
X111.461Y-123.255
X112.051Y-126.603
T4
X88.39Y-93.72
X88.39Y-96.22
X88.39Y-98.72
X90.865Y-66.335
X92.865Y-66.335
X102.89Y-93.72
X102.89Y-98.72
X175.27Y-109.29
X175.27Y-111.83
X175.27Y-114.37
X175.27Y-116.91
X175.27Y-119.45
X175.27Y-121.99
X175.27Y-124.53
T3
G00X81.58Y-81.87
M15
G01X81.58Y-81.57
M16
G05
G00X81.58Y-84.37
M15
G01X81.58Y-84.07
M16
G05
G00X81.58Y-86.87
M15
G01X81.58Y-86.57
M16
G05
T5
G00X95.64Y-90.62
M15
G01X96.14Y-90.62
M16
G05
G00X95.64Y-101.82
M15
G01X96.14Y-101.82
M16
G05
M30
