%TF.GenerationSoftware,KiCad,Pcbnew,9.0.7*%
%TF.CreationDate,2026-03-11T17:46:11+09:00*%
%TF.ProjectId,NomadBall44_R,4e6f6d61-6442-4616-9c6c-34345f522e6b,rev?*%
%TF.SameCoordinates,Original*%
%TF.FileFunction,Legend,Top*%
%TF.FilePolarity,Positive*%
%FSLAX46Y46*%
G04 Gerber Fmt 4.6, Leading zero omitted, Abs format (unit mm)*
G04 Created by KiCad (PCBNEW 9.0.7) date 2026-03-11 17:46:11*
%MOMM*%
%LPD*%
G01*
G04 APERTURE LIST*
%ADD10C,0.100000*%
%ADD11C,0.101600*%
%ADD12C,0.150000*%
%ADD13C,0.127000*%
%ADD14C,0.504000*%
%ADD15C,0.120000*%
G04 APERTURE END LIST*
D10*
X174936666Y-115867419D02*
X174936666Y-116581704D01*
X174936666Y-116581704D02*
X174889047Y-116724561D01*
X174889047Y-116724561D02*
X174793809Y-116819800D01*
X174793809Y-116819800D02*
X174650952Y-116867419D01*
X174650952Y-116867419D02*
X174555714Y-116867419D01*
X175936666Y-116867419D02*
X175365238Y-116867419D01*
X175650952Y-116867419D02*
X175650952Y-115867419D01*
X175650952Y-115867419D02*
X175555714Y-116010276D01*
X175555714Y-116010276D02*
X175460476Y-116105514D01*
X175460476Y-116105514D02*
X175365238Y-116153133D01*
D11*
X91306190Y-48763479D02*
X91306190Y-49277526D01*
X91306190Y-49277526D02*
X91336428Y-49338002D01*
X91336428Y-49338002D02*
X91366666Y-49368241D01*
X91366666Y-49368241D02*
X91427142Y-49398479D01*
X91427142Y-49398479D02*
X91548095Y-49398479D01*
X91548095Y-49398479D02*
X91608571Y-49368241D01*
X91608571Y-49368241D02*
X91638809Y-49338002D01*
X91638809Y-49338002D02*
X91669047Y-49277526D01*
X91669047Y-49277526D02*
X91669047Y-48763479D01*
X92304047Y-49398479D02*
X91941190Y-49398479D01*
X92122618Y-49398479D02*
X92122618Y-48763479D01*
X92122618Y-48763479D02*
X92062142Y-48854193D01*
X92062142Y-48854193D02*
X92001666Y-48914669D01*
X92001666Y-48914669D02*
X91941190Y-48944907D01*
D12*
X89380476Y-89427200D02*
X89523333Y-89474819D01*
X89523333Y-89474819D02*
X89761428Y-89474819D01*
X89761428Y-89474819D02*
X89856666Y-89427200D01*
X89856666Y-89427200D02*
X89904285Y-89379580D01*
X89904285Y-89379580D02*
X89951904Y-89284342D01*
X89951904Y-89284342D02*
X89951904Y-89189104D01*
X89951904Y-89189104D02*
X89904285Y-89093866D01*
X89904285Y-89093866D02*
X89856666Y-89046247D01*
X89856666Y-89046247D02*
X89761428Y-88998628D01*
X89761428Y-88998628D02*
X89570952Y-88951009D01*
X89570952Y-88951009D02*
X89475714Y-88903390D01*
X89475714Y-88903390D02*
X89428095Y-88855771D01*
X89428095Y-88855771D02*
X89380476Y-88760533D01*
X89380476Y-88760533D02*
X89380476Y-88665295D01*
X89380476Y-88665295D02*
X89428095Y-88570057D01*
X89428095Y-88570057D02*
X89475714Y-88522438D01*
X89475714Y-88522438D02*
X89570952Y-88474819D01*
X89570952Y-88474819D02*
X89809047Y-88474819D01*
X89809047Y-88474819D02*
X89951904Y-88522438D01*
X90285238Y-88474819D02*
X90523333Y-89474819D01*
X90523333Y-89474819D02*
X90713809Y-88760533D01*
X90713809Y-88760533D02*
X90904285Y-89474819D01*
X90904285Y-89474819D02*
X91142381Y-88474819D01*
X91475714Y-88570057D02*
X91523333Y-88522438D01*
X91523333Y-88522438D02*
X91618571Y-88474819D01*
X91618571Y-88474819D02*
X91856666Y-88474819D01*
X91856666Y-88474819D02*
X91951904Y-88522438D01*
X91951904Y-88522438D02*
X91999523Y-88570057D01*
X91999523Y-88570057D02*
X92047142Y-88665295D01*
X92047142Y-88665295D02*
X92047142Y-88760533D01*
X92047142Y-88760533D02*
X91999523Y-88903390D01*
X91999523Y-88903390D02*
X91428095Y-89474819D01*
X91428095Y-89474819D02*
X92047142Y-89474819D01*
X92999523Y-89474819D02*
X92428095Y-89474819D01*
X92713809Y-89474819D02*
X92713809Y-88474819D01*
X92713809Y-88474819D02*
X92618571Y-88617676D01*
X92618571Y-88617676D02*
X92523333Y-88712914D01*
X92523333Y-88712914D02*
X92428095Y-88760533D01*
%TO.C,SW23*%
X79030000Y-79720000D02*
X82530000Y-79720000D01*
X79030000Y-88720000D02*
X79030000Y-79720000D01*
X82530000Y-79720000D02*
X82530000Y-88720000D01*
X82530000Y-88720000D02*
X79030000Y-88720000D01*
D10*
%TO.C,U1*%
X82975000Y-68844000D02*
X82975000Y-51699000D01*
X84880000Y-70749000D02*
X98850000Y-70749000D01*
D13*
X87370000Y-49794000D02*
X87373728Y-48783728D01*
X87873728Y-48284000D02*
X95869000Y-48284000D01*
X96369000Y-48784000D02*
X96369000Y-49794000D01*
D10*
X98850000Y-49794000D02*
X84880000Y-49794000D01*
X100755000Y-68844000D02*
X100755000Y-51699000D01*
X82975000Y-51695000D02*
G75*
G02*
X84880000Y-49790000I1905000J0D01*
G01*
X84880000Y-70749000D02*
G75*
G02*
X82975000Y-68844000I1J1905001D01*
G01*
D13*
X87373728Y-48783728D02*
G75*
G02*
X87873728Y-48284028I499972J-272D01*
G01*
X95869000Y-48284000D02*
G75*
G02*
X96369000Y-48784000I-100J-500100D01*
G01*
D10*
X98850000Y-49794000D02*
G75*
G02*
X100755000Y-51699000I-50J-1905050D01*
G01*
X100755000Y-68844000D02*
G75*
G02*
X98850000Y-70749000I-1905001J1D01*
G01*
D14*
X83017000Y-50210000D02*
G75*
G02*
X82513000Y-50210000I-252000J0D01*
G01*
X82513000Y-50210000D02*
G75*
G02*
X83017000Y-50210000I252000J0D01*
G01*
X84291000Y-50927000D02*
G75*
G02*
X83787000Y-50927000I-252000J0D01*
G01*
X83787000Y-50927000D02*
G75*
G02*
X84291000Y-50927000I252000J0D01*
G01*
D15*
%TO.C,SW21*%
X88090000Y-92120000D02*
X88690000Y-92120000D01*
X88390000Y-92420000D02*
X88090000Y-92120000D01*
X88690000Y-92120000D02*
X88390000Y-92420000D01*
X89190000Y-89920000D02*
X89190000Y-92420000D01*
X89190000Y-102520000D02*
X89190000Y-99720000D01*
X93990000Y-89920000D02*
X89190000Y-89920000D01*
X94090000Y-102520000D02*
X89190000Y-102520000D01*
X95390000Y-96220000D02*
X96390000Y-96220000D01*
X95890000Y-95720000D02*
X95890000Y-96720000D01*
X97690000Y-89920000D02*
X102590000Y-89920000D01*
X102590000Y-89920000D02*
X102590000Y-92520000D01*
X102590000Y-94920000D02*
X102590000Y-97520000D01*
X102590000Y-99920000D02*
X102590000Y-102520000D01*
X102590000Y-102520000D02*
X97690000Y-102520000D01*
X98890000Y-96220000D02*
G75*
G02*
X92890000Y-96220000I-3000000J0D01*
G01*
X92890000Y-96220000D02*
G75*
G02*
X98890000Y-96220000I3000000J0D01*
G01*
%TD*%
M02*
