M48
; DRILL file {KiCad 9.0.7} date 2026-03-11T17:47:46+0900
; FORMAT={-:-/ absolute / metric / decimal}
; #@! TF.CreationDate,2026-03-11T17:47:46+09:00
; #@! TF.GenerationSoftware,Kicad,Pcbnew,9.0.7
; #@! TF.FileFunction,NonPlated,1,2,NPTH
FMAT,2
METRIC
; #@! TA.AperFunction,NonPlated,NPTH,ComponentDrill
T1C1.000
; #@! TA.AperFunction,NonPlated,NPTH,ComponentDrill
T2C1.700
; #@! TA.AperFunction,NonPlated,NPTH,ComponentDrill
T3C3.000
; #@! TA.AperFunction,NonPlated,NPTH,ComponentDrill
T4C3.400
; #@! TA.AperFunction,NonPlated,NPTH,ComponentDrill
T5C4.300
; #@! TA.AperFunction,NonPlated,NPTH,ComponentDrill
T6C4.800
%
G90
G05
T1
X120.251Y-49.06
X120.251Y-68.235
X120.251Y-87.425
X139.43Y-46.81
X139.43Y-66.0
X139.43Y-85.195
X158.62Y-44.47
X158.62Y-63.66
X158.62Y-82.825
X177.82Y-49.46
X177.82Y-68.655
X177.82Y-87.8
X196.92Y-55.045
X196.92Y-74.25
X196.92Y-93.43
X196.92Y-112.48
X216.103Y-55.045
X216.103Y-74.25
X216.103Y-93.43
T2
X81.712Y-126.801
X92.048Y-123.039
X101.598Y-120.73
X112.431Y-118.819
T3
X83.447Y-130.107
X88.898Y-130.464
X102.733Y-124.286
X108.039Y-125.585
X110.251Y-58.31
X110.251Y-77.485
X110.251Y-96.675
X115.251Y-60.51
X115.251Y-79.685
X115.251Y-98.875
X129.43Y-56.06
X129.43Y-75.25
X129.43Y-94.445
X134.43Y-58.26
X134.43Y-77.45
X134.43Y-96.645
X148.62Y-53.72
X148.62Y-72.91
X148.62Y-92.075
X153.62Y-55.92
X153.62Y-75.11
X153.62Y-94.275
X167.82Y-58.71
X167.82Y-77.905
X167.82Y-97.05
X172.82Y-60.91
X172.82Y-80.105
X172.82Y-99.25
X186.92Y-64.295
X186.92Y-83.5
X186.92Y-102.68
X186.92Y-121.73
X191.92Y-66.495
X191.92Y-85.7
X191.92Y-104.88
X191.92Y-123.93
X206.103Y-64.295
X206.103Y-83.5
X206.103Y-102.68
X211.103Y-66.495
X211.103Y-85.7
X211.103Y-104.88
T4
X86.88Y-124.92
X107.014Y-119.774
T5
X95.77Y-118.98
X109.38Y-107.71
X123.48Y-83.39
X123.49Y-63.91
X163.21Y-53.39
X163.36Y-91.66
X186.26Y-108.44
X201.48Y-70.65
X201.54Y-97.52
T6
X115.251Y-54.61
X115.251Y-73.785
X115.251Y-92.975
X134.43Y-52.36
X134.43Y-71.55
X134.43Y-90.745
X153.62Y-50.02
X153.62Y-69.21
X153.62Y-88.375
X172.82Y-55.01
X172.82Y-74.205
X172.82Y-93.35
X191.92Y-60.595
X191.92Y-79.8
X191.92Y-98.98
X191.92Y-118.03
X211.103Y-60.595
X211.103Y-79.8
X211.103Y-98.98
M30
