%TF.GenerationSoftware,KiCad,Pcbnew,9.0.7*%
%TF.CreationDate,2026-03-11T18:10:22+09:00*%
%TF.ProjectId,NomadBall44_R_Top_Thumb,4e6f6d61-6442-4616-9c6c-34345f525f54,rev?*%
%TF.SameCoordinates,Original*%
%TF.FileFunction,Profile,NP*%
%FSLAX46Y46*%
G04 Gerber Fmt 4.6, Leading zero omitted, Abs format (unit mm)*
G04 Created by KiCad (PCBNEW 9.0.7) date 2026-03-11 18:10:22*
%MOMM*%
%LPD*%
G01*
G04 APERTURE LIST*
%TA.AperFunction,Profile*%
%ADD10C,0.050000*%
%TD*%
%TA.AperFunction,Profile*%
%ADD11C,0.150000*%
%TD*%
G04 APERTURE END LIST*
D10*
X79988666Y-136530838D02*
X73362087Y-118311601D01*
X73960000Y-117030000D02*
X104920000Y-105710000D01*
X115060844Y-110254552D02*
G75*
G02*
X115000081Y-109559959I3939156J694552D01*
G01*
X114378144Y-103852099D02*
G75*
G02*
X115001361Y-104412933I10156J-615401D01*
G01*
X115060844Y-110254552D02*
X117933870Y-126552935D01*
X105556961Y-104800671D02*
G75*
G02*
X104920019Y-105710051I-991161J16471D01*
G01*
X117124583Y-127711323D02*
X98015452Y-131085733D01*
X105556961Y-104800619D02*
G75*
G02*
X106202812Y-103850030I1004939J11919D01*
G01*
X97512014Y-131220683D02*
X81270267Y-137128751D01*
X97512013Y-131220683D02*
G75*
G02*
X98015453Y-131085738I1025487J-2819217D01*
G01*
X115000004Y-104412935D02*
X115000075Y-109559959D01*
X106202777Y-103850045D02*
X114378144Y-103852100D01*
X117935544Y-126552935D02*
G75*
G02*
X117124776Y-127711372I-984844J-173665D01*
G01*
X73362087Y-118311601D02*
G75*
G02*
X73960007Y-117030020I939813J341801D01*
G01*
X81270267Y-137128751D02*
G75*
G02*
X79988642Y-136530847I-341867J939751D01*
G01*
D11*
%TO.C,SW20*%
X98846984Y-114055770D02*
X112732773Y-111607331D01*
X101295423Y-127941559D02*
X98846984Y-114055770D01*
X112732773Y-111607331D02*
X115181212Y-125493120D01*
X115181212Y-125493120D02*
X101295423Y-127941559D01*
%TO.C,SW19*%
X77843925Y-120706409D02*
X91093591Y-115883925D01*
X82666409Y-133956075D02*
X77843925Y-120706409D01*
X91093591Y-115883925D02*
X95916075Y-129133591D01*
X95916075Y-129133591D02*
X82666409Y-133956075D01*
%TD*%
M02*
