%TF.GenerationSoftware,KiCad,Pcbnew,9.0.7*%
%TF.CreationDate,2026-03-11T18:10:27+09:00*%
%TF.ProjectId,NomadBall44_R_Top_Thumb,4e6f6d61-6442-4616-9c6c-34345f525f54,rev?*%
%TF.SameCoordinates,Original*%
%TF.FileFunction,Drillmap*%
%TF.FilePolarity,Positive*%
%FSLAX45Y45*%
G04 Gerber Fmt 4.5, Leading zero omitted, Abs format (unit mm)*
G04 Created by KiCad (PCBNEW 9.0.7) date 2026-03-11 18:10:27*
%MOMM*%
%LPD*%
G01*
G04 APERTURE LIST*
%ADD10C,0.050000*%
%ADD11C,0.150000*%
%ADD12C,0.200000*%
%ADD13C,0.220000*%
G04 APERTURE END LIST*
D10*
X7998867Y-13653084D02*
X7336209Y-11831160D01*
X7396000Y-11703000D02*
X10492000Y-10571000D01*
X11506084Y-11025455D02*
G75*
G02*
X11500008Y-10955996I393916J69455D01*
G01*
X11437814Y-10385210D02*
G75*
G02*
X11500136Y-10441293I1016J-61540D01*
G01*
X11506084Y-11025455D02*
X11793387Y-12655293D01*
X10555696Y-10480067D02*
G75*
G02*
X10492002Y-10571005I-99116J1647D01*
G01*
X11712458Y-12771132D02*
X9801545Y-13108573D01*
X10555696Y-10480062D02*
G75*
G02*
X10620281Y-10385003I100494J1192D01*
G01*
X9751201Y-13122068D02*
X8127027Y-13712875D01*
X9751201Y-13122068D02*
G75*
G02*
X9801545Y-13108574I102549J-281922D01*
G01*
X11500000Y-10441294D02*
X11500007Y-10955996D01*
X10620278Y-10385005D02*
X11437814Y-10385210D01*
X11793554Y-12655293D02*
G75*
G02*
X11712478Y-12771137I-98484J-17367D01*
G01*
X7336209Y-11831160D02*
G75*
G02*
X7396001Y-11703002I93981J34180D01*
G01*
X8127027Y-13712875D02*
G75*
G02*
X7998864Y-13653085I-34187J93975D01*
G01*
D11*
X9884698Y-11405577D02*
X11273277Y-11160733D01*
X10129542Y-12794156D02*
X9884698Y-11405577D01*
X11273277Y-11160733D02*
X11518121Y-12549312D01*
X11518121Y-12549312D02*
X10129542Y-12794156D01*
X7784392Y-12070641D02*
X9109359Y-11588392D01*
X8266641Y-13395607D02*
X7784392Y-12070641D01*
X9109359Y-11588392D02*
X9591608Y-12913359D01*
X9591608Y-12913359D02*
X8266641Y-13395607D01*
D12*
D13*
X9467000Y-11788000D02*
X9687000Y-12008000D01*
X9687000Y-11788000D02*
X9467000Y-12008000D01*
X10828000Y-10661000D02*
X11048000Y-10881000D01*
X11048000Y-10661000D02*
X10828000Y-10881000D01*
D12*
X7588463Y-14032884D02*
X7588463Y-13832884D01*
X7588463Y-13832884D02*
X7636082Y-13832884D01*
X7636082Y-13832884D02*
X7664653Y-13842408D01*
X7664653Y-13842408D02*
X7683701Y-13861455D01*
X7683701Y-13861455D02*
X7693225Y-13880503D01*
X7693225Y-13880503D02*
X7702749Y-13918598D01*
X7702749Y-13918598D02*
X7702749Y-13947170D01*
X7702749Y-13947170D02*
X7693225Y-13985265D01*
X7693225Y-13985265D02*
X7683701Y-14004312D01*
X7683701Y-14004312D02*
X7664653Y-14023360D01*
X7664653Y-14023360D02*
X7636082Y-14032884D01*
X7636082Y-14032884D02*
X7588463Y-14032884D01*
X7788463Y-14032884D02*
X7788463Y-13899551D01*
X7788463Y-13937646D02*
X7797987Y-13918598D01*
X7797987Y-13918598D02*
X7807511Y-13909074D01*
X7807511Y-13909074D02*
X7826558Y-13899551D01*
X7826558Y-13899551D02*
X7845606Y-13899551D01*
X7912272Y-14032884D02*
X7912272Y-13899551D01*
X7912272Y-13832884D02*
X7902749Y-13842408D01*
X7902749Y-13842408D02*
X7912272Y-13851932D01*
X7912272Y-13851932D02*
X7921796Y-13842408D01*
X7921796Y-13842408D02*
X7912272Y-13832884D01*
X7912272Y-13832884D02*
X7912272Y-13851932D01*
X8036082Y-14032884D02*
X8017034Y-14023360D01*
X8017034Y-14023360D02*
X8007511Y-14004312D01*
X8007511Y-14004312D02*
X8007511Y-13832884D01*
X8140844Y-14032884D02*
X8121796Y-14023360D01*
X8121796Y-14023360D02*
X8112272Y-14004312D01*
X8112272Y-14004312D02*
X8112272Y-13832884D01*
X8369415Y-14032884D02*
X8369415Y-13832884D01*
X8369415Y-13832884D02*
X8436082Y-13975741D01*
X8436082Y-13975741D02*
X8502749Y-13832884D01*
X8502749Y-13832884D02*
X8502749Y-14032884D01*
X8683701Y-14032884D02*
X8683701Y-13928122D01*
X8683701Y-13928122D02*
X8674177Y-13909074D01*
X8674177Y-13909074D02*
X8655130Y-13899551D01*
X8655130Y-13899551D02*
X8617034Y-13899551D01*
X8617034Y-13899551D02*
X8597987Y-13909074D01*
X8683701Y-14023360D02*
X8664654Y-14032884D01*
X8664654Y-14032884D02*
X8617034Y-14032884D01*
X8617034Y-14032884D02*
X8597987Y-14023360D01*
X8597987Y-14023360D02*
X8588463Y-14004312D01*
X8588463Y-14004312D02*
X8588463Y-13985265D01*
X8588463Y-13985265D02*
X8597987Y-13966217D01*
X8597987Y-13966217D02*
X8617034Y-13956693D01*
X8617034Y-13956693D02*
X8664654Y-13956693D01*
X8664654Y-13956693D02*
X8683701Y-13947170D01*
X8778939Y-13899551D02*
X8778939Y-14099551D01*
X8778939Y-13909074D02*
X8797987Y-13899551D01*
X8797987Y-13899551D02*
X8836082Y-13899551D01*
X8836082Y-13899551D02*
X8855130Y-13909074D01*
X8855130Y-13909074D02*
X8864654Y-13918598D01*
X8864654Y-13918598D02*
X8874177Y-13937646D01*
X8874177Y-13937646D02*
X8874177Y-13994789D01*
X8874177Y-13994789D02*
X8864654Y-14013836D01*
X8864654Y-14013836D02*
X8855130Y-14023360D01*
X8855130Y-14023360D02*
X8836082Y-14032884D01*
X8836082Y-14032884D02*
X8797987Y-14032884D01*
X8797987Y-14032884D02*
X8778939Y-14023360D01*
X8959892Y-14013836D02*
X8969415Y-14023360D01*
X8969415Y-14023360D02*
X8959892Y-14032884D01*
X8959892Y-14032884D02*
X8950368Y-14023360D01*
X8950368Y-14023360D02*
X8959892Y-14013836D01*
X8959892Y-14013836D02*
X8959892Y-14032884D01*
X8959892Y-13909074D02*
X8969415Y-13918598D01*
X8969415Y-13918598D02*
X8959892Y-13928122D01*
X8959892Y-13928122D02*
X8950368Y-13918598D01*
X8950368Y-13918598D02*
X8959892Y-13909074D01*
X8959892Y-13909074D02*
X8959892Y-13928122D01*
X7127686Y-14261400D02*
X7327686Y-14461400D01*
X7327686Y-14261400D02*
X7127686Y-14461400D01*
X7578939Y-14271932D02*
X7588463Y-14262408D01*
X7588463Y-14262408D02*
X7607511Y-14252884D01*
X7607511Y-14252884D02*
X7655130Y-14252884D01*
X7655130Y-14252884D02*
X7674177Y-14262408D01*
X7674177Y-14262408D02*
X7683701Y-14271932D01*
X7683701Y-14271932D02*
X7693225Y-14290979D01*
X7693225Y-14290979D02*
X7693225Y-14310027D01*
X7693225Y-14310027D02*
X7683701Y-14338598D01*
X7683701Y-14338598D02*
X7569415Y-14452884D01*
X7569415Y-14452884D02*
X7693225Y-14452884D01*
X7778939Y-14433836D02*
X7788463Y-14443360D01*
X7788463Y-14443360D02*
X7778939Y-14452884D01*
X7778939Y-14452884D02*
X7769415Y-14443360D01*
X7769415Y-14443360D02*
X7778939Y-14433836D01*
X7778939Y-14433836D02*
X7778939Y-14452884D01*
X7864653Y-14271932D02*
X7874177Y-14262408D01*
X7874177Y-14262408D02*
X7893225Y-14252884D01*
X7893225Y-14252884D02*
X7940844Y-14252884D01*
X7940844Y-14252884D02*
X7959892Y-14262408D01*
X7959892Y-14262408D02*
X7969415Y-14271932D01*
X7969415Y-14271932D02*
X7978939Y-14290979D01*
X7978939Y-14290979D02*
X7978939Y-14310027D01*
X7978939Y-14310027D02*
X7969415Y-14338598D01*
X7969415Y-14338598D02*
X7855130Y-14452884D01*
X7855130Y-14452884D02*
X7978939Y-14452884D01*
X8102749Y-14252884D02*
X8121796Y-14252884D01*
X8121796Y-14252884D02*
X8140844Y-14262408D01*
X8140844Y-14262408D02*
X8150368Y-14271932D01*
X8150368Y-14271932D02*
X8159892Y-14290979D01*
X8159892Y-14290979D02*
X8169415Y-14329074D01*
X8169415Y-14329074D02*
X8169415Y-14376693D01*
X8169415Y-14376693D02*
X8159892Y-14414789D01*
X8159892Y-14414789D02*
X8150368Y-14433836D01*
X8150368Y-14433836D02*
X8140844Y-14443360D01*
X8140844Y-14443360D02*
X8121796Y-14452884D01*
X8121796Y-14452884D02*
X8102749Y-14452884D01*
X8102749Y-14452884D02*
X8083701Y-14443360D01*
X8083701Y-14443360D02*
X8074177Y-14433836D01*
X8074177Y-14433836D02*
X8064653Y-14414789D01*
X8064653Y-14414789D02*
X8055130Y-14376693D01*
X8055130Y-14376693D02*
X8055130Y-14329074D01*
X8055130Y-14329074D02*
X8064653Y-14290979D01*
X8064653Y-14290979D02*
X8074177Y-14271932D01*
X8074177Y-14271932D02*
X8083701Y-14262408D01*
X8083701Y-14262408D02*
X8102749Y-14252884D01*
X8293225Y-14252884D02*
X8312273Y-14252884D01*
X8312273Y-14252884D02*
X8331320Y-14262408D01*
X8331320Y-14262408D02*
X8340844Y-14271932D01*
X8340844Y-14271932D02*
X8350368Y-14290979D01*
X8350368Y-14290979D02*
X8359892Y-14329074D01*
X8359892Y-14329074D02*
X8359892Y-14376693D01*
X8359892Y-14376693D02*
X8350368Y-14414789D01*
X8350368Y-14414789D02*
X8340844Y-14433836D01*
X8340844Y-14433836D02*
X8331320Y-14443360D01*
X8331320Y-14443360D02*
X8312273Y-14452884D01*
X8312273Y-14452884D02*
X8293225Y-14452884D01*
X8293225Y-14452884D02*
X8274177Y-14443360D01*
X8274177Y-14443360D02*
X8264653Y-14433836D01*
X8264653Y-14433836D02*
X8255130Y-14414789D01*
X8255130Y-14414789D02*
X8245606Y-14376693D01*
X8245606Y-14376693D02*
X8245606Y-14329074D01*
X8245606Y-14329074D02*
X8255130Y-14290979D01*
X8255130Y-14290979D02*
X8264653Y-14271932D01*
X8264653Y-14271932D02*
X8274177Y-14262408D01*
X8274177Y-14262408D02*
X8293225Y-14252884D01*
X8445606Y-14452884D02*
X8445606Y-14319551D01*
X8445606Y-14338598D02*
X8455130Y-14329074D01*
X8455130Y-14329074D02*
X8474177Y-14319551D01*
X8474177Y-14319551D02*
X8502749Y-14319551D01*
X8502749Y-14319551D02*
X8521796Y-14329074D01*
X8521796Y-14329074D02*
X8531320Y-14348122D01*
X8531320Y-14348122D02*
X8531320Y-14452884D01*
X8531320Y-14348122D02*
X8540844Y-14329074D01*
X8540844Y-14329074D02*
X8559892Y-14319551D01*
X8559892Y-14319551D02*
X8588463Y-14319551D01*
X8588463Y-14319551D02*
X8607511Y-14329074D01*
X8607511Y-14329074D02*
X8617035Y-14348122D01*
X8617035Y-14348122D02*
X8617035Y-14452884D01*
X8712273Y-14452884D02*
X8712273Y-14319551D01*
X8712273Y-14338598D02*
X8721796Y-14329074D01*
X8721796Y-14329074D02*
X8740844Y-14319551D01*
X8740844Y-14319551D02*
X8769416Y-14319551D01*
X8769416Y-14319551D02*
X8788463Y-14329074D01*
X8788463Y-14329074D02*
X8797987Y-14348122D01*
X8797987Y-14348122D02*
X8797987Y-14452884D01*
X8797987Y-14348122D02*
X8807511Y-14329074D01*
X8807511Y-14329074D02*
X8826558Y-14319551D01*
X8826558Y-14319551D02*
X8855130Y-14319551D01*
X8855130Y-14319551D02*
X8874177Y-14329074D01*
X8874177Y-14329074D02*
X8883701Y-14348122D01*
X8883701Y-14348122D02*
X8883701Y-14452884D01*
X9274177Y-14243360D02*
X9102749Y-14500503D01*
X9531320Y-14252884D02*
X9550368Y-14252884D01*
X9550368Y-14252884D02*
X9569416Y-14262408D01*
X9569416Y-14262408D02*
X9578939Y-14271932D01*
X9578939Y-14271932D02*
X9588463Y-14290979D01*
X9588463Y-14290979D02*
X9597987Y-14329074D01*
X9597987Y-14329074D02*
X9597987Y-14376693D01*
X9597987Y-14376693D02*
X9588463Y-14414789D01*
X9588463Y-14414789D02*
X9578939Y-14433836D01*
X9578939Y-14433836D02*
X9569416Y-14443360D01*
X9569416Y-14443360D02*
X9550368Y-14452884D01*
X9550368Y-14452884D02*
X9531320Y-14452884D01*
X9531320Y-14452884D02*
X9512273Y-14443360D01*
X9512273Y-14443360D02*
X9502749Y-14433836D01*
X9502749Y-14433836D02*
X9493225Y-14414789D01*
X9493225Y-14414789D02*
X9483701Y-14376693D01*
X9483701Y-14376693D02*
X9483701Y-14329074D01*
X9483701Y-14329074D02*
X9493225Y-14290979D01*
X9493225Y-14290979D02*
X9502749Y-14271932D01*
X9502749Y-14271932D02*
X9512273Y-14262408D01*
X9512273Y-14262408D02*
X9531320Y-14252884D01*
X9683701Y-14433836D02*
X9693225Y-14443360D01*
X9693225Y-14443360D02*
X9683701Y-14452884D01*
X9683701Y-14452884D02*
X9674178Y-14443360D01*
X9674178Y-14443360D02*
X9683701Y-14433836D01*
X9683701Y-14433836D02*
X9683701Y-14452884D01*
X9817035Y-14252884D02*
X9836082Y-14252884D01*
X9836082Y-14252884D02*
X9855130Y-14262408D01*
X9855130Y-14262408D02*
X9864654Y-14271932D01*
X9864654Y-14271932D02*
X9874178Y-14290979D01*
X9874178Y-14290979D02*
X9883701Y-14329074D01*
X9883701Y-14329074D02*
X9883701Y-14376693D01*
X9883701Y-14376693D02*
X9874178Y-14414789D01*
X9874178Y-14414789D02*
X9864654Y-14433836D01*
X9864654Y-14433836D02*
X9855130Y-14443360D01*
X9855130Y-14443360D02*
X9836082Y-14452884D01*
X9836082Y-14452884D02*
X9817035Y-14452884D01*
X9817035Y-14452884D02*
X9797987Y-14443360D01*
X9797987Y-14443360D02*
X9788463Y-14433836D01*
X9788463Y-14433836D02*
X9778939Y-14414789D01*
X9778939Y-14414789D02*
X9769416Y-14376693D01*
X9769416Y-14376693D02*
X9769416Y-14329074D01*
X9769416Y-14329074D02*
X9778939Y-14290979D01*
X9778939Y-14290979D02*
X9788463Y-14271932D01*
X9788463Y-14271932D02*
X9797987Y-14262408D01*
X9797987Y-14262408D02*
X9817035Y-14252884D01*
X9997987Y-14338598D02*
X9978939Y-14329074D01*
X9978939Y-14329074D02*
X9969416Y-14319551D01*
X9969416Y-14319551D02*
X9959892Y-14300503D01*
X9959892Y-14300503D02*
X9959892Y-14290979D01*
X9959892Y-14290979D02*
X9969416Y-14271932D01*
X9969416Y-14271932D02*
X9978939Y-14262408D01*
X9978939Y-14262408D02*
X9997987Y-14252884D01*
X9997987Y-14252884D02*
X10036082Y-14252884D01*
X10036082Y-14252884D02*
X10055130Y-14262408D01*
X10055130Y-14262408D02*
X10064654Y-14271932D01*
X10064654Y-14271932D02*
X10074178Y-14290979D01*
X10074178Y-14290979D02*
X10074178Y-14300503D01*
X10074178Y-14300503D02*
X10064654Y-14319551D01*
X10064654Y-14319551D02*
X10055130Y-14329074D01*
X10055130Y-14329074D02*
X10036082Y-14338598D01*
X10036082Y-14338598D02*
X9997987Y-14338598D01*
X9997987Y-14338598D02*
X9978939Y-14348122D01*
X9978939Y-14348122D02*
X9969416Y-14357646D01*
X9969416Y-14357646D02*
X9959892Y-14376693D01*
X9959892Y-14376693D02*
X9959892Y-14414789D01*
X9959892Y-14414789D02*
X9969416Y-14433836D01*
X9969416Y-14433836D02*
X9978939Y-14443360D01*
X9978939Y-14443360D02*
X9997987Y-14452884D01*
X9997987Y-14452884D02*
X10036082Y-14452884D01*
X10036082Y-14452884D02*
X10055130Y-14443360D01*
X10055130Y-14443360D02*
X10064654Y-14433836D01*
X10064654Y-14433836D02*
X10074178Y-14414789D01*
X10074178Y-14414789D02*
X10074178Y-14376693D01*
X10074178Y-14376693D02*
X10064654Y-14357646D01*
X10064654Y-14357646D02*
X10055130Y-14348122D01*
X10055130Y-14348122D02*
X10036082Y-14338598D01*
X10245606Y-14252884D02*
X10207511Y-14252884D01*
X10207511Y-14252884D02*
X10188463Y-14262408D01*
X10188463Y-14262408D02*
X10178939Y-14271932D01*
X10178939Y-14271932D02*
X10159892Y-14300503D01*
X10159892Y-14300503D02*
X10150368Y-14338598D01*
X10150368Y-14338598D02*
X10150368Y-14414789D01*
X10150368Y-14414789D02*
X10159892Y-14433836D01*
X10159892Y-14433836D02*
X10169416Y-14443360D01*
X10169416Y-14443360D02*
X10188463Y-14452884D01*
X10188463Y-14452884D02*
X10226559Y-14452884D01*
X10226559Y-14452884D02*
X10245606Y-14443360D01*
X10245606Y-14443360D02*
X10255130Y-14433836D01*
X10255130Y-14433836D02*
X10264654Y-14414789D01*
X10264654Y-14414789D02*
X10264654Y-14367170D01*
X10264654Y-14367170D02*
X10255130Y-14348122D01*
X10255130Y-14348122D02*
X10245606Y-14338598D01*
X10245606Y-14338598D02*
X10226559Y-14329074D01*
X10226559Y-14329074D02*
X10188463Y-14329074D01*
X10188463Y-14329074D02*
X10169416Y-14338598D01*
X10169416Y-14338598D02*
X10159892Y-14348122D01*
X10159892Y-14348122D02*
X10150368Y-14367170D01*
X10436082Y-14252884D02*
X10397987Y-14252884D01*
X10397987Y-14252884D02*
X10378939Y-14262408D01*
X10378939Y-14262408D02*
X10369416Y-14271932D01*
X10369416Y-14271932D02*
X10350368Y-14300503D01*
X10350368Y-14300503D02*
X10340844Y-14338598D01*
X10340844Y-14338598D02*
X10340844Y-14414789D01*
X10340844Y-14414789D02*
X10350368Y-14433836D01*
X10350368Y-14433836D02*
X10359892Y-14443360D01*
X10359892Y-14443360D02*
X10378939Y-14452884D01*
X10378939Y-14452884D02*
X10417035Y-14452884D01*
X10417035Y-14452884D02*
X10436082Y-14443360D01*
X10436082Y-14443360D02*
X10445606Y-14433836D01*
X10445606Y-14433836D02*
X10455130Y-14414789D01*
X10455130Y-14414789D02*
X10455130Y-14367170D01*
X10455130Y-14367170D02*
X10445606Y-14348122D01*
X10445606Y-14348122D02*
X10436082Y-14338598D01*
X10436082Y-14338598D02*
X10417035Y-14329074D01*
X10417035Y-14329074D02*
X10378939Y-14329074D01*
X10378939Y-14329074D02*
X10359892Y-14338598D01*
X10359892Y-14338598D02*
X10350368Y-14348122D01*
X10350368Y-14348122D02*
X10340844Y-14367170D01*
X10531320Y-14252884D02*
X10531320Y-14290979D01*
X10607511Y-14252884D02*
X10607511Y-14290979D01*
X10902749Y-14529074D02*
X10893225Y-14519551D01*
X10893225Y-14519551D02*
X10874178Y-14490979D01*
X10874178Y-14490979D02*
X10864654Y-14471932D01*
X10864654Y-14471932D02*
X10855130Y-14443360D01*
X10855130Y-14443360D02*
X10845606Y-14395741D01*
X10845606Y-14395741D02*
X10845606Y-14357646D01*
X10845606Y-14357646D02*
X10855130Y-14310027D01*
X10855130Y-14310027D02*
X10864654Y-14281455D01*
X10864654Y-14281455D02*
X10874178Y-14262408D01*
X10874178Y-14262408D02*
X10893225Y-14233836D01*
X10893225Y-14233836D02*
X10902749Y-14224312D01*
X10969416Y-14271932D02*
X10978940Y-14262408D01*
X10978940Y-14262408D02*
X10997987Y-14252884D01*
X10997987Y-14252884D02*
X11045606Y-14252884D01*
X11045606Y-14252884D02*
X11064654Y-14262408D01*
X11064654Y-14262408D02*
X11074178Y-14271932D01*
X11074178Y-14271932D02*
X11083701Y-14290979D01*
X11083701Y-14290979D02*
X11083701Y-14310027D01*
X11083701Y-14310027D02*
X11074178Y-14338598D01*
X11074178Y-14338598D02*
X10959892Y-14452884D01*
X10959892Y-14452884D02*
X11083701Y-14452884D01*
X11321797Y-14452884D02*
X11321797Y-14252884D01*
X11407511Y-14452884D02*
X11407511Y-14348122D01*
X11407511Y-14348122D02*
X11397987Y-14329074D01*
X11397987Y-14329074D02*
X11378940Y-14319551D01*
X11378940Y-14319551D02*
X11350368Y-14319551D01*
X11350368Y-14319551D02*
X11331320Y-14329074D01*
X11331320Y-14329074D02*
X11321797Y-14338598D01*
X11531320Y-14452884D02*
X11512273Y-14443360D01*
X11512273Y-14443360D02*
X11502749Y-14433836D01*
X11502749Y-14433836D02*
X11493225Y-14414789D01*
X11493225Y-14414789D02*
X11493225Y-14357646D01*
X11493225Y-14357646D02*
X11502749Y-14338598D01*
X11502749Y-14338598D02*
X11512273Y-14329074D01*
X11512273Y-14329074D02*
X11531320Y-14319551D01*
X11531320Y-14319551D02*
X11559892Y-14319551D01*
X11559892Y-14319551D02*
X11578940Y-14329074D01*
X11578940Y-14329074D02*
X11588463Y-14338598D01*
X11588463Y-14338598D02*
X11597987Y-14357646D01*
X11597987Y-14357646D02*
X11597987Y-14414789D01*
X11597987Y-14414789D02*
X11588463Y-14433836D01*
X11588463Y-14433836D02*
X11578940Y-14443360D01*
X11578940Y-14443360D02*
X11559892Y-14452884D01*
X11559892Y-14452884D02*
X11531320Y-14452884D01*
X11712273Y-14452884D02*
X11693225Y-14443360D01*
X11693225Y-14443360D02*
X11683701Y-14424312D01*
X11683701Y-14424312D02*
X11683701Y-14252884D01*
X11864654Y-14443360D02*
X11845606Y-14452884D01*
X11845606Y-14452884D02*
X11807511Y-14452884D01*
X11807511Y-14452884D02*
X11788463Y-14443360D01*
X11788463Y-14443360D02*
X11778940Y-14424312D01*
X11778940Y-14424312D02*
X11778940Y-14348122D01*
X11778940Y-14348122D02*
X11788463Y-14329074D01*
X11788463Y-14329074D02*
X11807511Y-14319551D01*
X11807511Y-14319551D02*
X11845606Y-14319551D01*
X11845606Y-14319551D02*
X11864654Y-14329074D01*
X11864654Y-14329074D02*
X11874178Y-14348122D01*
X11874178Y-14348122D02*
X11874178Y-14367170D01*
X11874178Y-14367170D02*
X11778940Y-14386217D01*
X11950368Y-14443360D02*
X11969416Y-14452884D01*
X11969416Y-14452884D02*
X12007511Y-14452884D01*
X12007511Y-14452884D02*
X12026559Y-14443360D01*
X12026559Y-14443360D02*
X12036082Y-14424312D01*
X12036082Y-14424312D02*
X12036082Y-14414789D01*
X12036082Y-14414789D02*
X12026559Y-14395741D01*
X12026559Y-14395741D02*
X12007511Y-14386217D01*
X12007511Y-14386217D02*
X11978940Y-14386217D01*
X11978940Y-14386217D02*
X11959892Y-14376693D01*
X11959892Y-14376693D02*
X11950368Y-14357646D01*
X11950368Y-14357646D02*
X11950368Y-14348122D01*
X11950368Y-14348122D02*
X11959892Y-14329074D01*
X11959892Y-14329074D02*
X11978940Y-14319551D01*
X11978940Y-14319551D02*
X12007511Y-14319551D01*
X12007511Y-14319551D02*
X12026559Y-14329074D01*
X12102749Y-14529074D02*
X12112273Y-14519551D01*
X12112273Y-14519551D02*
X12131321Y-14490979D01*
X12131321Y-14490979D02*
X12140844Y-14471932D01*
X12140844Y-14471932D02*
X12150368Y-14443360D01*
X12150368Y-14443360D02*
X12159892Y-14395741D01*
X12159892Y-14395741D02*
X12159892Y-14357646D01*
X12159892Y-14357646D02*
X12150368Y-14310027D01*
X12150368Y-14310027D02*
X12140844Y-14281455D01*
X12140844Y-14281455D02*
X12131321Y-14262408D01*
X12131321Y-14262408D02*
X12112273Y-14233836D01*
X12112273Y-14233836D02*
X12102749Y-14224312D01*
X12464654Y-14529074D02*
X12455130Y-14519551D01*
X12455130Y-14519551D02*
X12436082Y-14490979D01*
X12436082Y-14490979D02*
X12426559Y-14471932D01*
X12426559Y-14471932D02*
X12417035Y-14443360D01*
X12417035Y-14443360D02*
X12407511Y-14395741D01*
X12407511Y-14395741D02*
X12407511Y-14357646D01*
X12407511Y-14357646D02*
X12417035Y-14310027D01*
X12417035Y-14310027D02*
X12426559Y-14281455D01*
X12426559Y-14281455D02*
X12436082Y-14262408D01*
X12436082Y-14262408D02*
X12455130Y-14233836D01*
X12455130Y-14233836D02*
X12464654Y-14224312D01*
X12540844Y-14319551D02*
X12540844Y-14452884D01*
X12540844Y-14338598D02*
X12550368Y-14329074D01*
X12550368Y-14329074D02*
X12569416Y-14319551D01*
X12569416Y-14319551D02*
X12597987Y-14319551D01*
X12597987Y-14319551D02*
X12617035Y-14329074D01*
X12617035Y-14329074D02*
X12626559Y-14348122D01*
X12626559Y-14348122D02*
X12626559Y-14452884D01*
X12750368Y-14452884D02*
X12731321Y-14443360D01*
X12731321Y-14443360D02*
X12721797Y-14433836D01*
X12721797Y-14433836D02*
X12712273Y-14414789D01*
X12712273Y-14414789D02*
X12712273Y-14357646D01*
X12712273Y-14357646D02*
X12721797Y-14338598D01*
X12721797Y-14338598D02*
X12731321Y-14329074D01*
X12731321Y-14329074D02*
X12750368Y-14319551D01*
X12750368Y-14319551D02*
X12778940Y-14319551D01*
X12778940Y-14319551D02*
X12797987Y-14329074D01*
X12797987Y-14329074D02*
X12807511Y-14338598D01*
X12807511Y-14338598D02*
X12817035Y-14357646D01*
X12817035Y-14357646D02*
X12817035Y-14414789D01*
X12817035Y-14414789D02*
X12807511Y-14433836D01*
X12807511Y-14433836D02*
X12797987Y-14443360D01*
X12797987Y-14443360D02*
X12778940Y-14452884D01*
X12778940Y-14452884D02*
X12750368Y-14452884D01*
X12874178Y-14319551D02*
X12950368Y-14319551D01*
X12902749Y-14252884D02*
X12902749Y-14424312D01*
X12902749Y-14424312D02*
X12912273Y-14443360D01*
X12912273Y-14443360D02*
X12931321Y-14452884D01*
X12931321Y-14452884D02*
X12950368Y-14452884D01*
X13169416Y-14319551D02*
X13169416Y-14519551D01*
X13169416Y-14329074D02*
X13188463Y-14319551D01*
X13188463Y-14319551D02*
X13226559Y-14319551D01*
X13226559Y-14319551D02*
X13245606Y-14329074D01*
X13245606Y-14329074D02*
X13255130Y-14338598D01*
X13255130Y-14338598D02*
X13264654Y-14357646D01*
X13264654Y-14357646D02*
X13264654Y-14414789D01*
X13264654Y-14414789D02*
X13255130Y-14433836D01*
X13255130Y-14433836D02*
X13245606Y-14443360D01*
X13245606Y-14443360D02*
X13226559Y-14452884D01*
X13226559Y-14452884D02*
X13188463Y-14452884D01*
X13188463Y-14452884D02*
X13169416Y-14443360D01*
X13378940Y-14452884D02*
X13359892Y-14443360D01*
X13359892Y-14443360D02*
X13350368Y-14424312D01*
X13350368Y-14424312D02*
X13350368Y-14252884D01*
X13540844Y-14452884D02*
X13540844Y-14348122D01*
X13540844Y-14348122D02*
X13531321Y-14329074D01*
X13531321Y-14329074D02*
X13512273Y-14319551D01*
X13512273Y-14319551D02*
X13474178Y-14319551D01*
X13474178Y-14319551D02*
X13455130Y-14329074D01*
X13540844Y-14443360D02*
X13521797Y-14452884D01*
X13521797Y-14452884D02*
X13474178Y-14452884D01*
X13474178Y-14452884D02*
X13455130Y-14443360D01*
X13455130Y-14443360D02*
X13445606Y-14424312D01*
X13445606Y-14424312D02*
X13445606Y-14405265D01*
X13445606Y-14405265D02*
X13455130Y-14386217D01*
X13455130Y-14386217D02*
X13474178Y-14376693D01*
X13474178Y-14376693D02*
X13521797Y-14376693D01*
X13521797Y-14376693D02*
X13540844Y-14367170D01*
X13607511Y-14319551D02*
X13683702Y-14319551D01*
X13636083Y-14252884D02*
X13636083Y-14424312D01*
X13636083Y-14424312D02*
X13645606Y-14443360D01*
X13645606Y-14443360D02*
X13664654Y-14452884D01*
X13664654Y-14452884D02*
X13683702Y-14452884D01*
X13826559Y-14443360D02*
X13807511Y-14452884D01*
X13807511Y-14452884D02*
X13769416Y-14452884D01*
X13769416Y-14452884D02*
X13750368Y-14443360D01*
X13750368Y-14443360D02*
X13740844Y-14424312D01*
X13740844Y-14424312D02*
X13740844Y-14348122D01*
X13740844Y-14348122D02*
X13750368Y-14329074D01*
X13750368Y-14329074D02*
X13769416Y-14319551D01*
X13769416Y-14319551D02*
X13807511Y-14319551D01*
X13807511Y-14319551D02*
X13826559Y-14329074D01*
X13826559Y-14329074D02*
X13836083Y-14348122D01*
X13836083Y-14348122D02*
X13836083Y-14367170D01*
X13836083Y-14367170D02*
X13740844Y-14386217D01*
X14007511Y-14452884D02*
X14007511Y-14252884D01*
X14007511Y-14443360D02*
X13988464Y-14452884D01*
X13988464Y-14452884D02*
X13950368Y-14452884D01*
X13950368Y-14452884D02*
X13931321Y-14443360D01*
X13931321Y-14443360D02*
X13921797Y-14433836D01*
X13921797Y-14433836D02*
X13912273Y-14414789D01*
X13912273Y-14414789D02*
X13912273Y-14357646D01*
X13912273Y-14357646D02*
X13921797Y-14338598D01*
X13921797Y-14338598D02*
X13931321Y-14329074D01*
X13931321Y-14329074D02*
X13950368Y-14319551D01*
X13950368Y-14319551D02*
X13988464Y-14319551D01*
X13988464Y-14319551D02*
X14007511Y-14329074D01*
X14083702Y-14529074D02*
X14093225Y-14519551D01*
X14093225Y-14519551D02*
X14112273Y-14490979D01*
X14112273Y-14490979D02*
X14121797Y-14471932D01*
X14121797Y-14471932D02*
X14131321Y-14443360D01*
X14131321Y-14443360D02*
X14140844Y-14395741D01*
X14140844Y-14395741D02*
X14140844Y-14357646D01*
X14140844Y-14357646D02*
X14131321Y-14310027D01*
X14131321Y-14310027D02*
X14121797Y-14281455D01*
X14121797Y-14281455D02*
X14112273Y-14262408D01*
X14112273Y-14262408D02*
X14093225Y-14233836D01*
X14093225Y-14233836D02*
X14083702Y-14224312D01*
M02*
