G04 #@! TF.GenerationSoftware,KiCad,Pcbnew,9.0.7*
G04 #@! TF.CreationDate,2026-03-12T16:24:41+09:00*
G04 #@! TF.ProjectId,NomadBall44_L_Bottom,4e6f6d61-6442-4616-9c6c-34345f4c5f42,rev?*
G04 #@! TF.SameCoordinates,Original*
G04 #@! TF.FileFunction,Profile,NP*
%FSLAX46Y46*%
G04 Gerber Fmt 4.6, Leading zero omitted, Abs format (unit mm)*
G04 Created by KiCad (PCBNEW 9.0.7) date 2026-03-12 16:24:41*
%MOMM*%
%LPD*%
G01*
G04 APERTURE LIST*
G04 #@! TA.AperFunction,Profile*
%ADD10C,0.050000*%
G04 #@! TD*
G04 #@! TA.AperFunction,Profile*
%ADD11C,0.010000*%
G04 #@! TD*
G04 APERTURE END LIST*
D10*
X253074213Y-74727107D02*
G75*
G02*
X254074213Y-73727159I999978J-30D01*
G01*
X280244757Y-131469999D02*
X275891852Y-129880311D01*
X268989999Y-96569999D02*
G75*
G02*
X267989999Y-97570045I-1000008J-38D01*
G01*
X274216091Y-150970837D02*
G75*
G02*
X272934462Y-151568827I-939800J341800D01*
G01*
X275233696Y-128940514D02*
X275227650Y-65147106D01*
X256189305Y-145525732D02*
G75*
G02*
X256692742Y-145660686I-522114J-2954205D01*
G01*
X274216091Y-150970837D02*
X280842670Y-132751600D01*
X274227650Y-64152891D02*
X249555955Y-64152891D01*
X193890000Y-59510000D02*
X193867300Y-117262700D01*
X192890000Y-58510000D02*
X172770000Y-58519090D01*
X236080000Y-141970000D02*
X256189305Y-145525732D01*
X253083598Y-74727107D02*
X253101319Y-96569999D01*
X170764757Y-65380241D02*
X132887100Y-65387105D01*
X131887107Y-66387105D02*
G75*
G02*
X132887107Y-65387153I999984J-32D01*
G01*
X132887107Y-123009999D02*
X150007100Y-122997106D01*
X256692743Y-145660682D02*
X272934490Y-151568750D01*
X268972278Y-74727107D02*
X268989999Y-96570000D01*
X171770001Y-59519090D02*
X171764757Y-64370905D01*
X274227650Y-64147106D02*
G75*
G02*
X275227722Y-65147106I41J-1000031D01*
G01*
X227420000Y-61152890D02*
G75*
G02*
X228420000Y-60152946I999991J-47D01*
G01*
X227420000Y-117260000D02*
G75*
G02*
X223860000Y-120820046I-3560009J-37D01*
G01*
X192890000Y-58510000D02*
G75*
G02*
X193890028Y-59510000I-9J-1000037D01*
G01*
X254101319Y-97569999D02*
G75*
G02*
X253101329Y-96569999I-28J999962D01*
G01*
X248546118Y-63150973D02*
X248549945Y-61154807D01*
X267962893Y-73727107D02*
X254074206Y-73727107D01*
X171770000Y-59519090D02*
G75*
G02*
X172770000Y-58519146I999991J-47D01*
G01*
X150007107Y-122997106D02*
G75*
G02*
X151007122Y-123997106I-16J-1000031D01*
G01*
X197427300Y-120822700D02*
G75*
G02*
X193867328Y-117262700I-9J3559963D01*
G01*
X171764757Y-64376218D02*
G75*
G02*
X170764757Y-65376203I-999966J-19D01*
G01*
X275891852Y-129880311D02*
G75*
G02*
X275233676Y-128940554I341839J939774D01*
G01*
X151007107Y-123997106D02*
X151007107Y-141047105D01*
X254101319Y-97569999D02*
X267990006Y-97569999D01*
X249546116Y-64152890D02*
G75*
G02*
X248546140Y-63150973I-25J999953D01*
G01*
X227420000Y-61152890D02*
X227420000Y-117260000D01*
X223860000Y-120820000D02*
X197427300Y-120822700D01*
X132887107Y-123009999D02*
G75*
G02*
X131887129Y-122009999I-16J999962D01*
G01*
X267962893Y-73727107D02*
G75*
G02*
X268962921Y-74727107I-2J-1000030D01*
G01*
X247549947Y-60152890D02*
G75*
G02*
X248550036Y-61154807I44J-1000047D01*
G01*
X152007107Y-142047105D02*
G75*
G02*
X151007123Y-141047105I-16J999968D01*
G01*
X152007107Y-142046532D02*
X170882900Y-142052893D01*
X170882900Y-142052893D02*
X236080000Y-141970000D01*
X280244757Y-131469999D02*
G75*
G02*
X280842699Y-132751611I-341966J-939838D01*
G01*
X131887107Y-66387105D02*
X131887107Y-122009999D01*
X247549947Y-60152890D02*
X228420000Y-60152890D01*
D11*
X232040000Y-119920000D02*
G75*
G02*
X229840000Y-119920000I-1100000J0D01*
G01*
X229840000Y-119920000D02*
G75*
G02*
X232040000Y-119920000I1100000J0D01*
G01*
X153764757Y-111959999D02*
G75*
G02*
X151564757Y-111959999I-1100000J0D01*
G01*
X151564757Y-111959999D02*
G75*
G02*
X153764757Y-111959999I1100000J0D01*
G01*
X171400000Y-123460000D02*
G75*
G02*
X169200000Y-123460000I-1100000J0D01*
G01*
X169200000Y-123460000D02*
G75*
G02*
X171400000Y-123460000I1100000J0D01*
G01*
X231814757Y-78349999D02*
G75*
G02*
X229614757Y-78349999I-1100000J0D01*
G01*
X229614757Y-78349999D02*
G75*
G02*
X231814757Y-78349999I1100000J0D01*
G01*
X192080000Y-62670000D02*
G75*
G02*
X189880000Y-62670000I-1100000J0D01*
G01*
X189880000Y-62670000D02*
G75*
G02*
X192080000Y-62670000I1100000J0D01*
G01*
X231824757Y-97829999D02*
G75*
G02*
X229624757Y-97829999I-1100000J0D01*
G01*
X229624757Y-97829999D02*
G75*
G02*
X231824757Y-97829999I1100000J0D01*
G01*
X191944757Y-111740000D02*
G75*
G02*
X189744757Y-111740000I-1100000J0D01*
G01*
X189744757Y-111740000D02*
G75*
G02*
X191944757Y-111740000I1100000J0D01*
G01*
X153824757Y-85089999D02*
G75*
G02*
X151624757Y-85089999I-1100000J0D01*
G01*
X151624757Y-85089999D02*
G75*
G02*
X153824757Y-85089999I1100000J0D01*
G01*
X259534757Y-133419999D02*
G75*
G02*
X257334757Y-133419999I-1100000J0D01*
G01*
X257334757Y-133419999D02*
G75*
G02*
X259534757Y-133419999I1100000J0D01*
G01*
M02*
