G04 #@! TF.GenerationSoftware,KiCad,Pcbnew,9.0.7*
G04 #@! TF.CreationDate,2026-03-12T16:12:17+09:00*
G04 #@! TF.ProjectId,NomadBall44_L,4e6f6d61-6442-4616-9c6c-34345f4c2e6b,rev?*
G04 #@! TF.SameCoordinates,Original*
G04 #@! TF.FileFunction,Profile,NP*
%FSLAX46Y46*%
G04 Gerber Fmt 4.6, Leading zero omitted, Abs format (unit mm)*
G04 Created by KiCad (PCBNEW 9.0.7) date 2026-03-12 16:12:17*
%MOMM*%
%LPD*%
G01*
G04 APERTURE LIST*
G04 #@! TA.AperFunction,Profile*
%ADD10C,0.050000*%
G04 #@! TD*
G04 APERTURE END LIST*
D10*
X192910433Y-114802894D02*
X213887700Y-114810000D01*
X280244757Y-131469999D02*
X275891852Y-129880311D01*
X190952893Y-57522893D02*
G75*
G02*
X189952893Y-58522893I-999993J-7D01*
G01*
X230201863Y-60152890D02*
G75*
G02*
X229201910Y-59152890I37J999990D01*
G01*
X274216091Y-150970837D02*
G75*
G02*
X272934474Y-151568795I-939791J341837D01*
G01*
X275233696Y-128940514D02*
X275227650Y-65147106D01*
X209151863Y-55152895D02*
G75*
G02*
X210151905Y-56152895I37J-1000005D01*
G01*
X256189305Y-145525732D02*
G75*
G02*
X256692742Y-145660686I-522105J-2954168D01*
G01*
X190947650Y-56152895D02*
X190952893Y-57522893D01*
X274216091Y-150970837D02*
X280842670Y-132751600D01*
X274227650Y-64152891D02*
X249555955Y-64152891D01*
X189952900Y-58522893D02*
X172770000Y-58519090D01*
X171882893Y-141052893D02*
G75*
G02*
X170882893Y-142052893I-999993J-7D01*
G01*
X236080000Y-141970000D02*
X256189305Y-145525732D01*
X190947650Y-56152895D02*
G75*
G02*
X191947650Y-55152950I999950J-5D01*
G01*
X191910433Y-116302893D02*
X191910433Y-135013678D01*
X228201863Y-57652895D02*
G75*
G02*
X229201905Y-58652895I37J-1000005D01*
G01*
X170764757Y-65380241D02*
X132887100Y-65387105D01*
X131887107Y-66387105D02*
G75*
G02*
X132887107Y-65387107I999993J5D01*
G01*
X132887107Y-123009999D02*
X150007100Y-122997106D01*
X216124422Y-141310000D02*
X216125397Y-117047665D01*
X256692743Y-145660682D02*
X272934490Y-151568750D01*
X171770001Y-59519090D02*
X171764757Y-64370905D01*
X274227650Y-64147106D02*
G75*
G02*
X275227694Y-65147106I50J-999994D01*
G01*
X191910433Y-135013678D02*
G75*
G02*
X190360000Y-136564133I-1550433J-22D01*
G01*
X210151863Y-56652895D02*
X210151863Y-56152895D01*
X248546118Y-63150973D02*
X248549945Y-61154807D01*
X191910433Y-115802894D02*
G75*
G02*
X192910433Y-114802933I999967J-6D01*
G01*
X228201863Y-57652895D02*
X211151863Y-57652895D01*
X211151863Y-57652895D02*
G75*
G02*
X210151905Y-56652895I37J999995D01*
G01*
X216784422Y-141970000D02*
G75*
G02*
X216124400Y-141310000I-22J660000D01*
G01*
X171770000Y-59519090D02*
G75*
G02*
X172770000Y-58519100I1000000J-10D01*
G01*
X150007107Y-122997106D02*
G75*
G02*
X151007094Y-123997106I-7J-999994D01*
G01*
X171880000Y-137124767D02*
X171882893Y-141052893D01*
X171764757Y-64376218D02*
G75*
G02*
X170764757Y-65376157I-999957J18D01*
G01*
X275891852Y-129880311D02*
G75*
G02*
X275233742Y-128940554I341848J939711D01*
G01*
X151007107Y-123997106D02*
X151007107Y-141047105D01*
X249546116Y-64152890D02*
G75*
G02*
X248546112Y-63150973I-16J999990D01*
G01*
X236080000Y-141970000D02*
X216784400Y-141970000D01*
X229201863Y-59152890D02*
X229201863Y-58652895D01*
X132887107Y-123009999D02*
G75*
G02*
X131887101Y-122009999I-7J999999D01*
G01*
X247549947Y-60152890D02*
G75*
G02*
X248549908Y-61154807I-47J-1000010D01*
G01*
X171880000Y-137124767D02*
G75*
G02*
X172410000Y-136594800I530000J-33D01*
G01*
X152007107Y-142047105D02*
G75*
G02*
X151007095Y-141047105I-7J1000005D01*
G01*
X152007107Y-142046532D02*
X170882900Y-142052893D01*
X172410000Y-136594767D02*
X190360000Y-136564133D01*
X280244757Y-131469999D02*
G75*
G02*
X280842660Y-132751596I-341957J-939801D01*
G01*
X191910433Y-116302893D02*
X191910433Y-115802894D01*
X213887732Y-114810000D02*
G75*
G02*
X216125400Y-117047665I-32J-2237700D01*
G01*
X209151863Y-55152895D02*
X191947657Y-55152895D01*
X131887107Y-66387105D02*
X131887107Y-122009999D01*
X247549947Y-60152890D02*
X230201863Y-60152890D01*
X260920848Y-80239096D02*
X260940000Y-75610000D01*
X261440000Y-75110001D02*
X262540000Y-75109999D01*
X261505183Y-80725792D02*
X262540000Y-80735014D01*
X263068013Y-80232041D02*
X263040000Y-75609999D01*
X260920848Y-80239095D02*
G75*
G02*
X261505183Y-80725792I52828J-530703D01*
G01*
X260940000Y-75610000D02*
G75*
G02*
X261440000Y-75110000I500001J-1D01*
G01*
X262540000Y-80735000D02*
G75*
G02*
X263068013Y-80232039I530741J-28540D01*
G01*
X262540001Y-75109999D02*
G75*
G02*
X263040001Y-75609999I-1J-500001D01*
G01*
M02*
