G04 #@! TF.GenerationSoftware,KiCad,Pcbnew,9.0.7*
G04 #@! TF.CreationDate,2026-03-12T12:26:01+09:00*
G04 #@! TF.ProjectId,NomadBall44_L,4e6f6d61-6442-4616-9c6c-34345f4c2e6b,rev?*
G04 #@! TF.SameCoordinates,Original*
G04 #@! TF.FileFunction,Soldermask,Bot*
G04 #@! TF.FilePolarity,Negative*
%FSLAX46Y46*%
G04 Gerber Fmt 4.6, Leading zero omitted, Abs format (unit mm)*
G04 Created by KiCad (PCBNEW 9.0.7) date 2026-03-12 12:26:01*
%MOMM*%
%LPD*%
G01*
G04 APERTURE LIST*
G04 Aperture macros list*
%AMRoundRect*
0 Rectangle with rounded corners*
0 $1 Rounding radius*
0 $2 $3 $4 $5 $6 $7 $8 $9 X,Y pos of 4 corners*
0 Add a 4 corners polygon primitive as box body*
4,1,4,$2,$3,$4,$5,$6,$7,$8,$9,$2,$3,0*
0 Add four circle primitives for the rounded corners*
1,1,$1+$1,$2,$3*
1,1,$1+$1,$4,$5*
1,1,$1+$1,$6,$7*
1,1,$1+$1,$8,$9*
0 Add four rect primitives between the rounded corners*
20,1,$1+$1,$2,$3,$4,$5,0*
20,1,$1+$1,$4,$5,$6,$7,0*
20,1,$1+$1,$6,$7,$8,$9,0*
20,1,$1+$1,$8,$9,$2,$3,0*%
%AMRotRect*
0 Rectangle, with rotation*
0 The origin of the aperture is its center*
0 $1 length*
0 $2 width*
0 $3 Rotation angle, in degrees counterclockwise*
0 Add horizontal line*
21,1,$1,$2,0,0,$3*%
G04 Aperture macros list end*
%ADD10C,0.120000*%
%ADD11C,0.100000*%
%ADD12R,1.200000X0.950000*%
%ADD13C,3.000000*%
%ADD14C,4.800000*%
%ADD15C,1.000000*%
%ADD16R,3.000000X3.500000*%
%ADD17C,4.300000*%
%ADD18O,1.000000X1.300000*%
%ADD19C,1.700000*%
%ADD20C,3.400000*%
%ADD21C,1.500000*%
%ADD22RotRect,1.200000X0.950000X350.000000*%
%ADD23RotRect,1.200000X0.950000X340.000000*%
%ADD24RoundRect,0.102000X0.500000X1.750000X-0.500000X1.750000X-0.500000X-1.750000X0.500000X-1.750000X0*%
%ADD25RoundRect,0.102000X0.750000X1.700000X-0.750000X1.700000X-0.750000X-1.700000X0.750000X-1.700000X0*%
G04 APERTURE END LIST*
D10*
X237650020Y-137558534D02*
X238748081Y-137752151D01*
X237852449Y-135258746D02*
X237487788Y-137326843D01*
X238979772Y-137589919D02*
X239344433Y-135521823D01*
X239182201Y-135290132D02*
X238084141Y-135096514D01*
X248608055Y-141724670D02*
X249706116Y-141918287D01*
X248810485Y-139424882D02*
X248445824Y-141492978D01*
X249937807Y-141756055D02*
X250302468Y-139687959D01*
X250140237Y-139456268D02*
X249042176Y-139262650D01*
X237650020Y-137558534D02*
G75*
G02*
X237487787Y-137326843I34731J196963D01*
G01*
X237852449Y-135258746D02*
G75*
G02*
X238084141Y-135096514I196963J-34731D01*
G01*
X238979772Y-137589919D02*
G75*
G02*
X238748081Y-137752151I-196962J34730D01*
G01*
X239182201Y-135290132D02*
G75*
G02*
X239344432Y-135521823I-34731J-196962D01*
G01*
X248608055Y-141724670D02*
G75*
G02*
X248445823Y-141492978I34730J196962D01*
G01*
X248810485Y-139424882D02*
G75*
G02*
X249042176Y-139262651I196961J-34730D01*
G01*
X249937807Y-141756055D02*
G75*
G02*
X249706116Y-141918287I-196961J34729D01*
G01*
X250140237Y-139456268D02*
G75*
G02*
X250302468Y-139687959I-34730J-196961D01*
G01*
D11*
X239182201Y-135290132D02*
X239344433Y-135521823D01*
X238979772Y-137589919D01*
X238748081Y-137752151D01*
X237650020Y-137558534D01*
X237487788Y-137326843D01*
X237852449Y-135258746D01*
X238084141Y-135096514D01*
X239182201Y-135290132D01*
G36*
X239182201Y-135290132D02*
G01*
X239344433Y-135521823D01*
X238979772Y-137589919D01*
X238748081Y-137752151D01*
X237650020Y-137558534D01*
X237487788Y-137326843D01*
X237852449Y-135258746D01*
X238084141Y-135096514D01*
X239182201Y-135290132D01*
G37*
X250140237Y-139456268D02*
X250302468Y-139687959D01*
X249937807Y-141756055D01*
X249706116Y-141918287D01*
X248608055Y-141724670D01*
X248445824Y-141492978D01*
X248810485Y-139424882D01*
X249042176Y-139262650D01*
X250140237Y-139456268D01*
G36*
X250140237Y-139456268D02*
G01*
X250302468Y-139687959D01*
X249937807Y-141756055D01*
X249706116Y-141918287D01*
X248608055Y-141724670D01*
X248445824Y-141492978D01*
X248810485Y-139424882D01*
X249042176Y-139262650D01*
X250140237Y-139456268D01*
G37*
D10*
X257348367Y-140996570D02*
X258396124Y-141377922D01*
X257947075Y-138766873D02*
X257228832Y-140740227D01*
X258652467Y-141258388D02*
X259370709Y-139285033D01*
X259251174Y-139028691D02*
X258203417Y-138647338D01*
X267416483Y-147002256D02*
X268464240Y-147383608D01*
X268015191Y-144772559D02*
X267296949Y-146745913D01*
X268720583Y-147264074D02*
X269438825Y-145290719D01*
X269319291Y-145034377D02*
X268271533Y-144653024D01*
X257348367Y-140996570D02*
G75*
G02*
X257228833Y-140740227I68405J187939D01*
G01*
X257947075Y-138766873D02*
G75*
G02*
X258203417Y-138647338I187939J-68405D01*
G01*
X258652467Y-141258388D02*
G75*
G02*
X258396124Y-141377922I-187939J68405D01*
G01*
X259251174Y-139028691D02*
G75*
G02*
X259370709Y-139285033I-68405J-187939D01*
G01*
X267416483Y-147002256D02*
G75*
G02*
X267296948Y-146745913I68404J187939D01*
G01*
X268015191Y-144772559D02*
G75*
G02*
X268271533Y-144653025I187938J-68404D01*
G01*
X268720583Y-147264074D02*
G75*
G02*
X268464240Y-147383609I-187939J68404D01*
G01*
X269319291Y-145034377D02*
G75*
G02*
X269438825Y-145290719I-68404J-187938D01*
G01*
D11*
X259251174Y-139028691D02*
X259370709Y-139285033D01*
X258652467Y-141258388D01*
X258396124Y-141377922D01*
X257348367Y-140996570D01*
X257228832Y-140740227D01*
X257947075Y-138766873D01*
X258203417Y-138647338D01*
X259251174Y-139028691D01*
G36*
X259251174Y-139028691D02*
G01*
X259370709Y-139285033D01*
X258652467Y-141258388D01*
X258396124Y-141377922D01*
X257348367Y-140996570D01*
X257228832Y-140740227D01*
X257947075Y-138766873D01*
X258203417Y-138647338D01*
X259251174Y-139028691D01*
G37*
X269319291Y-145034377D02*
X269438825Y-145290719D01*
X268720583Y-147264074D01*
X268464240Y-147383608D01*
X267416483Y-147002256D01*
X267296949Y-146745913D01*
X268015191Y-144772559D01*
X268271533Y-144653024D01*
X269319291Y-145034377D01*
G36*
X269319291Y-145034377D02*
G01*
X269438825Y-145290719D01*
X268720583Y-147264074D01*
X268464240Y-147383608D01*
X267416483Y-147002256D01*
X267296949Y-146745913D01*
X268015191Y-144772559D01*
X268271533Y-144653024D01*
X269319291Y-145034377D01*
G37*
D10*
X217405659Y-135044444D02*
X217405659Y-137144444D01*
X217605659Y-137344444D02*
X218720659Y-137344444D01*
X218720659Y-134844444D02*
X217605659Y-134844444D01*
X218920659Y-137144444D02*
X218920659Y-135044444D01*
X228920659Y-137244444D02*
X228920659Y-139344444D01*
X229120659Y-139544444D02*
X230235659Y-139544444D01*
X230235659Y-137044444D02*
X229120659Y-137044444D01*
X230435659Y-139344444D02*
X230435659Y-137244444D01*
X217405659Y-135044444D02*
G75*
G02*
X217605659Y-134844444I200001J-1D01*
G01*
X217605659Y-137344444D02*
G75*
G02*
X217405659Y-137144444I1J200001D01*
G01*
X218720659Y-134844444D02*
G75*
G02*
X218920659Y-135044444I-1J-200001D01*
G01*
X218920659Y-137144444D02*
G75*
G02*
X218720659Y-137344444I-200001J1D01*
G01*
X228920659Y-137244444D02*
G75*
G02*
X229120659Y-137044444I200000J0D01*
G01*
X229120659Y-139544444D02*
G75*
G02*
X228920659Y-139344444I0J200000D01*
G01*
X230235659Y-137044444D02*
G75*
G02*
X230435659Y-137244444I0J-200000D01*
G01*
X230435659Y-139344444D02*
G75*
G02*
X230235659Y-139544444I-200000J0D01*
G01*
D11*
X218920659Y-135044444D02*
X218920659Y-137144444D01*
X218720659Y-137344444D01*
X217605659Y-137344444D01*
X217405659Y-137144444D01*
X217405659Y-135044444D01*
X217605659Y-134844444D01*
X218720659Y-134844444D01*
X218920659Y-135044444D01*
G36*
X218920659Y-135044444D02*
G01*
X218920659Y-137144444D01*
X218720659Y-137344444D01*
X217605659Y-137344444D01*
X217405659Y-137144444D01*
X217405659Y-135044444D01*
X217605659Y-134844444D01*
X218720659Y-134844444D01*
X218920659Y-135044444D01*
G37*
X230435659Y-137244444D02*
X230435659Y-139344444D01*
X230235659Y-139544444D01*
X229120659Y-139544444D01*
X228920659Y-139344444D01*
X228920659Y-137244444D01*
X229120659Y-137044444D01*
X230235659Y-137044444D01*
X230435659Y-137244444D01*
G36*
X230435659Y-137244444D02*
G01*
X230435659Y-139344444D01*
X230235659Y-139544444D01*
X229120659Y-139544444D01*
X228920659Y-139344444D01*
X228920659Y-137244444D01*
X229120659Y-137044444D01*
X230235659Y-137044444D01*
X230435659Y-137244444D01*
G37*
D12*
X174970000Y-64230000D03*
X178420000Y-64230000D03*
D13*
X176384757Y-130690000D03*
D14*
X181384757Y-126990000D03*
D13*
X181384757Y-132890000D03*
D15*
X186384757Y-121440000D03*
D16*
X173034757Y-130690000D03*
X184934757Y-132890000D03*
D17*
X230940000Y-119920000D03*
D12*
X135160000Y-108210000D03*
X138610000Y-108210000D03*
D18*
X272630000Y-95890000D03*
X272630000Y-98390000D03*
X272630000Y-100890000D03*
D13*
X157284757Y-117119999D03*
D14*
X162284757Y-113419999D03*
D13*
X162284757Y-119319999D03*
D15*
X167284757Y-107869999D03*
D16*
X153934757Y-117119999D03*
X165834757Y-119319999D03*
D17*
X152664757Y-111959999D03*
D12*
X175700000Y-121540000D03*
X179150000Y-121540000D03*
X192620000Y-78480000D03*
X196070000Y-78480000D03*
D13*
X176384757Y-111489999D03*
D14*
X181384757Y-107789999D03*
D13*
X181384757Y-113689999D03*
D15*
X186384757Y-102239999D03*
D16*
X173034757Y-111489999D03*
X184934757Y-113689999D03*
D19*
X241774216Y-133259379D03*
D13*
X241624122Y-136989992D03*
D20*
X247190659Y-134214444D03*
D13*
X246166135Y-140024810D03*
D19*
X252607102Y-135169509D03*
D13*
X138101320Y-97939999D03*
D14*
X143101320Y-94239999D03*
D13*
X143101320Y-100139999D03*
D15*
X148101320Y-88689999D03*
D16*
X134751320Y-97939999D03*
X146651320Y-100139999D03*
D17*
X170300000Y-123460000D03*
X230714757Y-78349999D03*
X190980000Y-62670000D03*
D12*
X218500000Y-127170000D03*
X221950000Y-127170000D03*
D19*
X262156448Y-137478888D03*
D13*
X261360819Y-141126761D03*
D20*
X267324757Y-139359999D03*
D13*
X265306838Y-144904185D03*
D19*
X272493066Y-141241110D03*
D12*
X135170000Y-69830000D03*
X138620000Y-69830000D03*
D13*
X214774757Y-89689999D03*
D14*
X219774757Y-85989999D03*
D13*
X219774757Y-91889999D03*
D15*
X224774757Y-80439999D03*
D16*
X211424757Y-89689999D03*
X223324757Y-91889999D03*
D13*
X195584757Y-68159999D03*
D14*
X200584757Y-64459999D03*
D13*
X200584757Y-70359999D03*
D15*
X205584757Y-58909999D03*
D16*
X192234757Y-68159999D03*
X204134757Y-70359999D03*
D13*
X233954132Y-111114999D03*
D14*
X238954132Y-107414999D03*
D13*
X238954132Y-113314999D03*
D15*
X243954132Y-101864999D03*
D16*
X230604132Y-111114999D03*
X242504132Y-113314999D03*
D13*
X214774757Y-70499999D03*
D14*
X219774757Y-66799999D03*
D13*
X219774757Y-72699999D03*
D15*
X224774757Y-61249999D03*
D16*
X211424757Y-70499999D03*
X223324757Y-72699999D03*
D12*
X211800000Y-61640000D03*
X215250000Y-61640000D03*
D17*
X230724757Y-97829999D03*
D21*
X261015000Y-80710000D03*
X263015000Y-80710000D03*
D22*
X240314001Y-127682873D03*
X243711587Y-128281959D03*
D17*
X190844757Y-111740000D03*
D12*
X231046563Y-63810000D03*
X234496563Y-63810000D03*
X211830000Y-99960000D03*
X215280000Y-99960000D03*
X194890000Y-58410000D03*
X198340000Y-58410000D03*
D13*
X176384757Y-92344999D03*
D14*
X181384757Y-88644999D03*
D13*
X181384757Y-94544999D03*
D15*
X186384757Y-83094999D03*
D16*
X173034757Y-92344999D03*
X184934757Y-94544999D03*
D13*
X138101320Y-78734999D03*
D14*
X143101320Y-75034999D03*
D13*
X143101320Y-80934999D03*
D15*
X148101320Y-69484999D03*
D16*
X134751320Y-78734999D03*
X146651320Y-80934999D03*
D12*
X192660000Y-97690000D03*
X196110000Y-97690000D03*
D23*
X264626489Y-131690190D03*
X267868428Y-132870159D03*
D12*
X231046563Y-83720000D03*
X234496563Y-83720000D03*
X156510000Y-107300000D03*
X159960000Y-107300000D03*
X135160000Y-89060000D03*
X138610000Y-89060000D03*
D13*
X157284757Y-78734999D03*
D14*
X162284757Y-75034999D03*
D13*
X162284757Y-80934999D03*
D15*
X167284757Y-69484999D03*
D16*
X153934757Y-78734999D03*
X165834757Y-80934999D03*
D12*
X154420000Y-90670000D03*
X157870000Y-90670000D03*
X173460000Y-102590000D03*
X176910000Y-102590000D03*
D13*
X195584757Y-87349999D03*
D14*
X200584757Y-83649999D03*
D13*
X200584757Y-89549999D03*
D15*
X205584757Y-78099999D03*
D16*
X192234757Y-87349999D03*
X204134757Y-89549999D03*
D13*
X176384757Y-73149999D03*
D14*
X181384757Y-69449999D03*
D13*
X181384757Y-75349999D03*
D15*
X186384757Y-63899999D03*
D16*
X173034757Y-73149999D03*
X184934757Y-75349999D03*
D13*
X138101320Y-117119999D03*
D14*
X143101320Y-113419999D03*
D13*
X143101320Y-119319999D03*
D15*
X148101320Y-107869999D03*
D16*
X134751320Y-117119999D03*
X146651320Y-119319999D03*
D12*
X154290000Y-127300000D03*
X157740000Y-127300000D03*
X231060000Y-103370000D03*
X234510000Y-103370000D03*
X154340000Y-69860000D03*
X157790000Y-69860000D03*
D13*
X157284757Y-136169999D03*
D14*
X162284757Y-132469999D03*
D13*
X162284757Y-138369999D03*
D15*
X167284757Y-126919999D03*
D16*
X153934757Y-136169999D03*
X165834757Y-138369999D03*
D13*
X233954132Y-91924999D03*
D14*
X238954132Y-88224999D03*
D13*
X238954132Y-94124999D03*
D15*
X243954132Y-82674999D03*
D16*
X230604132Y-91924999D03*
X242504132Y-94124999D03*
D12*
X173430000Y-83420000D03*
X176880000Y-83420000D03*
D13*
X233954132Y-72749999D03*
D14*
X238954132Y-69049999D03*
D13*
X238954132Y-74949999D03*
D15*
X243954132Y-63499999D03*
D16*
X230604132Y-72749999D03*
X242504132Y-74949999D03*
D13*
X157284757Y-97939999D03*
D14*
X162284757Y-94239999D03*
D13*
X162284757Y-100139999D03*
D15*
X167284757Y-88689999D03*
D16*
X153934757Y-97939999D03*
X165834757Y-100139999D03*
D13*
X195584757Y-106514999D03*
D14*
X200584757Y-102814999D03*
D13*
X200584757Y-108714999D03*
D15*
X205584757Y-97264999D03*
D16*
X192234757Y-106514999D03*
X204134757Y-108714999D03*
D13*
X214774757Y-108884999D03*
D14*
X219774757Y-105184999D03*
D13*
X219774757Y-111084999D03*
D15*
X224774757Y-99634999D03*
D16*
X211424757Y-108884999D03*
X223324757Y-111084999D03*
D12*
X211790000Y-80810000D03*
X215240000Y-80810000D03*
D19*
X220920659Y-132394444D03*
D13*
X221420659Y-136094444D03*
D20*
X226420659Y-132394444D03*
D13*
X226420659Y-138294444D03*
D19*
X231920659Y-132394444D03*
D17*
X152724757Y-85089999D03*
X258434757Y-133419999D03*
D24*
X263120000Y-90640000D03*
X261120000Y-90640000D03*
D25*
X258770000Y-84890000D03*
X265470000Y-84890000D03*
M02*
