M48
; DRILL file {KiCad 9.0.7} date 2026-03-12T12:26:38+0900
; FORMAT={-:-/ absolute / metric / decimal}
; #@! TF.CreationDate,2026-03-12T12:26:38+09:00
; #@! TF.GenerationSoftware,Kicad,Pcbnew,9.0.7
; #@! TF.FileFunction,NonPlated,1,2,NPTH
FMAT,2
METRIC
; #@! TA.AperFunction,NonPlated,NPTH,ComponentDrill
T1C1.000
; #@! TA.AperFunction,NonPlated,NPTH,ComponentDrill
T2C1.700
; #@! TA.AperFunction,NonPlated,NPTH,ComponentDrill
T3C3.000
; #@! TA.AperFunction,NonPlated,NPTH,ComponentDrill
T4C3.400
; #@! TA.AperFunction,NonPlated,NPTH,ComponentDrill
T5C4.300
; #@! TA.AperFunction,NonPlated,NPTH,ComponentDrill
T6C4.800
%
G90
G05
T1
X148.101Y-69.485
X148.101Y-88.69
X148.101Y-107.87
X167.285Y-69.485
X167.285Y-88.69
X167.285Y-107.87
X167.285Y-126.92
X186.385Y-63.9
X186.385Y-83.095
X186.385Y-102.24
X186.385Y-121.44
X205.585Y-58.91
X205.585Y-78.1
X205.585Y-97.265
X224.775Y-61.25
X224.775Y-80.44
X224.775Y-99.635
X243.954Y-63.5
X243.954Y-82.675
X243.954Y-101.865
T2
X220.921Y-132.394
X231.921Y-132.394
X241.774Y-133.259
X252.607Y-135.17
X262.156Y-137.479
X272.493Y-141.241
T3
X138.101Y-78.735
X138.101Y-97.94
X138.101Y-117.12
X143.101Y-80.935
X143.101Y-100.14
X143.101Y-119.32
X157.285Y-78.735
X157.285Y-97.94
X157.285Y-117.12
X157.285Y-136.17
X162.285Y-80.935
X162.285Y-100.14
X162.285Y-119.32
X162.285Y-138.37
X176.385Y-73.15
X176.385Y-92.345
X176.385Y-111.49
X176.385Y-130.69
X181.385Y-75.35
X181.385Y-94.545
X181.385Y-113.69
X181.385Y-132.89
X195.585Y-68.16
X195.585Y-87.35
X195.585Y-106.515
X200.585Y-70.36
X200.585Y-89.55
X200.585Y-108.715
X214.775Y-70.5
X214.775Y-89.69
X214.775Y-108.885
X219.775Y-72.7
X219.775Y-91.89
X219.775Y-111.085
X221.421Y-136.094
X226.421Y-138.294
X233.954Y-72.75
X233.954Y-91.925
X233.954Y-111.115
X238.954Y-74.95
X238.954Y-94.125
X238.954Y-113.315
X241.624Y-136.99
X246.166Y-140.025
X261.361Y-141.127
X265.307Y-144.904
T4
X226.421Y-132.394
X247.191Y-134.214
X267.325Y-139.36
T5
X152.665Y-111.96
X152.725Y-85.09
X170.3Y-123.46
X190.845Y-111.74
X190.98Y-62.67
X230.715Y-78.35
X230.725Y-97.83
X230.94Y-119.92
X258.435Y-133.42
T6
X143.101Y-75.035
X143.101Y-94.24
X143.101Y-113.42
X162.285Y-75.035
X162.285Y-94.24
X162.285Y-113.42
X162.285Y-132.47
X181.385Y-69.45
X181.385Y-88.645
X181.385Y-107.79
X181.385Y-126.99
X200.585Y-64.46
X200.585Y-83.65
X200.585Y-102.815
X219.775Y-66.8
X219.775Y-85.99
X219.775Y-105.185
X238.954Y-69.05
X238.954Y-88.225
X238.954Y-107.415
M30
